<?xml version="1.0" encoding="UTF-8"?>
<svg width="60px" height="60px" viewBox="0 0 60 60" version="1.1" xmlns="http://www.w3.org/2000/svg" xmlns:xlink="http://www.w3.org/1999/xlink">
    <title>#touxiang</title>
    <defs>
        <circle id="path-1" cx="30" cy="30" r="28"></circle>
    </defs>
    <g id="代理" stroke="none" stroke-width="1" fill-rule="evenodd">
        <g id="我的" transform="translate(-15.000000, -64.000000)">
            <g id="路径-+-路径-+-路径-+-路径蒙版" transform="translate(15.000000, 64.000000)">
                <mask id="mask-2" fill="white">
                    <use xlink:href="#path-1"></use>
                </mask>
                <use id="蒙版" fill="#FFFFFF" xlink:href="#path-1" stroke="none"></use>
                <g id="头像-(1)@1x" mask="url(#mask-2)" fill-rule="nonzero">
                    <g transform="translate(2.000000, 2.000000)" id="路径-2">
                        <path d="M17.9492453,1.87651741 C26.628159,-1.55944263 37.029649,-0.216189787 44.4998883,5.41048305 C48.4933944,8.33335512 51.7404508,12.3256409 53.6840911,16.89443 C55.2889581,20.7310599 56.1617301,24.9107093 55.9751176,29.0817112 C55.9176984,31.1282981 55.5157639,33.1489424 55.1511519,35.1522916 C54.3329282,37.3602995 53.7730909,39.6951381 52.4696748,41.6869572 C51.5193868,43.3761121 50.3939703,44.9586138 49.2168765,46.4949953 C48.2120403,47.6047642 47.0234626,48.5329346 46.0817876,49.7032365 C45.7975625,49.7320617 45.5133374,49.7637694 45.2319833,49.7983596 C44.9506292,47.9766089 44.8673713,46.097208 44.1869536,44.3676979 C42.7342476,41.1363965 39.4843203,38.6833747 35.9013615,38.568074 C31.0121157,38.5450139 26.12287,38.5709566 21.2364951,38.5565439 C18.4602762,38.5046586 15.6036705,39.6115451 13.8035783,41.7734327 C12.7040004,42.9898549 11.7680673,44.4368783 11.5010679,46.0856779 C11.2914878,47.385693 11.0359723,48.6828256 10.9354887,50.0001357 C10.625425,49.8906001 10.2837807,49.8243022 10.0340071,49.5908183 C6.86733762,46.9187252 4.32940851,43.5231204 2.56089682,39.7729661 C0.878513931,36.0516368 0.0775159581,31.975758 0,27.8998793 C0.17512859,23.9393012 0.912965463,19.9700755 2.58960639,16.3611644 C5.58976017,9.78037854 11.2398105,4.49384269 17.9492453,1.87651741 Z M27.5,33.0001357 C32.7467051,33.0001357 37,28.7468409 37,23.5001357 C37,18.2534306 32.7467051,14.0001357 27.5,14.0001357 C22.2532949,14.0001357 18,18.2534306 18,23.5001357 C18,28.7468409 22.2532949,33.0001357 27.5,33.0001357 Z"></path>
                    </g>
                </g>
            </g>
        </g>
    </g>
</svg>
