<?xml version="1.0" encoding="UTF-8"?>
<svg width="44px" height="44px" viewBox="0 0 44 44" version="1.1" xmlns="http://www.w3.org/2000/svg"
     xmlns:xlink="http://www.w3.org/1999/xlink">
    <title>-mockplus-</title>
    <path transform="translate(12.000000, 9.000000)"
          d="M9.64326999,0.137551718 C10.2010209,-0.0457505728 10.800279,-0.0457505728 11.3580299,0.137551718 L11.3580299,0.137551718 L18.2170696,2.36577957 C19.8786486,2.90268628 21.0045273,4.45490569 20.9993567,6.20472756 L20.9993567,6.20472756 L20.9993567,15.7494469 C20.9993567,21.4032175 16.4270781,26.000075 10.8080615,26.000075 C4.84790885,26.000075 -0.000643252324,21.123714 -0.000643252324,15.1280391 L-0.000643252324,15.1280391 L-0.000643252324,6.20472756 C-0.00452447137,4.45490569 1.12005711,2.90138627 2.78293322,2.36447956 L2.78293322,2.36447956 Z M9.99937678,9.000075 C7.79046741,9.000075 5.99937678,10.7911656 5.99937678,13.000075 C5.99937678,15.2100084 7.79046741,17.000075 9.99937678,17.000075 C12.2082861,17.000075 13.9993768,15.2100084 13.9993768,13.000075 C13.9993768,10.7911656 12.2082861,9.000075 9.99937678,9.000075 Z M8.99911424,11.2678618 C9.61764929,10.9108127 10.3800541,10.9108127 10.9985892,11.2678618 C11.6181744,11.6249109 11.9993768,12.2854517 11.9993768,12.9995499 C11.9993768,14.105352 11.1036036,15.000075 9.99885171,15.000075 C8.8940998,15.000075 7.99937678,14.105352 7.99937678,12.9995499 C7.99937678,12.2854517 8.37952905,11.6249109 8.99911424,11.2678618 Z"
          id="path-2"></path>
</svg>
