<?xml version="1.0" encoding="UTF-8"?>
<svg width="20px" height="20px" viewBox="0 0 20 20" version="1.1" xmlns="http://www.w3.org/2000/svg" xmlns:xlink="http://www.w3.org/1999/xlink">
    <title>编组 7</title>
    <g id="代理" stroke="none" stroke-width="1" fill-rule="evenodd">
        <g id="下级代充_已选择支付方式2" transform="translate(-15.000000, -279.000000)">
            <g id="编组-7" transform="translate(15.000000, 279.000000)">
                <path d="M10.0000367,0 C15.5228279,0 20,4.47726992 20,10.0000611 C20,15.5228279 15.5228279,20 10.0000367,20 C4.47707427,20 0,15.5228279 0,10.0000611 C0,4.47726992 4.47707427,0 10.0000367,0 Z M10.0000293,11.2576115 L9.78657351,11.262384 C7.1677691,11.3797128 5.07366099,13.6458767 5,16.4515236 L5,16.4515236 L15,16.4515236 C14.9243482,13.5700484 12.71756,11.2576115 10.0000293,11.2576115 L10.0000293,11.2576115 Z M10.0000293,4.42873563 C8.23350546,4.42873563 6.80145056,5.95751534 6.80145056,7.84321525 C6.80145056,9.72897769 8.23350546,11.2576115 10.0000293,11.2576115 C11.7665726,11.2576115 13.1985299,9.72889432 13.1985299,7.84321525 C13.1985299,5.95743198 11.7665726,4.42873563 10.0000293,4.42873563 Z" id="形状结合"></path>
            </g>
        </g>
    </g>
</svg>
