<?xml version="1.0" encoding="UTF-8"?>
<svg width="58px" height="58px" viewBox="0 0 58 58" version="1.1" xmlns="http://www.w3.org/2000/svg" xmlns:xlink="http://www.w3.org/1999/xlink">
    <title>地址</title>
    <g id="数字货币" stroke="none" stroke-width="1" fill-rule="evenodd">
        <g id="收币地址_为空" transform="translate(-156.000000, -294.000000)" fill-rule="nonzero">
            <g id="编组" transform="translate(129.000000, 294.000000)">
                <g id="地址" transform="translate(27.000000, 0.000000)">
                    <path d="M0,29 C0,45.0162577 12.9837423,58 29,58 C45.0162577,58 58,45.0162577 58,29 C58,12.9837423 45.0162577,0 29,0 C12.9837423,0 0,12.9837423 0,29 Z" id="形状结合"></path>
                    <path d="M29.0091579,15.2723158 L28.9862632,15.2723158 C23.1379179,15.2299291 18.3566408,19.9252169 18.2928948,25.7733684 C18.2928948,28.7084736 20.6724211,32.8844736 23.0031052,36.2744211 C24.3533859,38.2321755 25.7967719,40.1232807 27.3332632,41.9477368 C27.7422402,42.4477234 28.3525432,42.739729 28.9984737,42.7444737 C29.6403351,42.7410438 30.2471138,42.4510887 30.653,41.9538421 C32.1894912,40.1304035 33.6344035,38.2372632 34.9877368,36.2744211 C37.3184211,32.8844737 39.6979474,28.7084737 39.6979474,25.7733684 C39.6342032,19.9270163 34.8557217,15.2324635 29.0091579,15.2723158 L29.0091579,15.2723158 Z M29,30.4408421 C26.3985024,30.4628727 24.2701554,28.374812 24.2424737,25.7733684 C24.2052719,23.8404731 25.3410594,22.0771422 27.1163147,21.3116773 C28.8915701,20.5462123 30.9534836,20.9307399 32.3334985,22.2846333 C33.7135134,23.6385266 34.1373689,25.6927163 33.4059645,27.4822737 C32.6745601,29.2718312 30.9332532,30.4410149 29,30.4408421 Z" id="形状" fill="#FFFFFF"></path>
                </g>
            </g>
        </g>
    </g>
</svg>
