<?xml version="1.0" encoding="UTF-8"?>
<svg width="86px" height="86px" viewBox="0 0 86 86" version="1.1" xmlns="http://www.w3.org/2000/svg"
     xmlns:xlink="http://www.w3.org/1999/xlink">
    <title>android2@1x</title>
    <path d="M18.7745996,59.7924987 C18.7745996,65.3607987 23.7511233,69.8754992 28.8215707,69.8754992 L28.8215707,79.9584997 C28.8215707,82.7403783 31.1308674,85 33.8919905,85 C36.6531137,85 38.9624103,82.7403783 38.9624103,79.9584997 L38.9624103,69.9878225 L48.7276837,69.9878225 L48.7276837,79.9584997 C48.7276837,82.7403783 51.0369804,85 53.7981035,85 C56.5589514,85 58.8685234,82.7403783 58.8685234,79.9584997 L58.8685233,69.8754067 C68.9154943,69.8754067 68.9154943,65.3607987 68.9154943,59.7924062 L68.9154943,32.7785731 L18.7745996,32.7785731 L18.7745996,59.7924987 L18.7745996,59.7924987 Z M77.9765237,34.5850899 C75.2156758,34.5850899 72.9530473,36.8401687 72.9530473,39.6265901 L72.9530473,59.7924987 C72.9530473,62.5743772 75.2156758,64.8339989 77.9765237,64.8339989 C80.7373716,64.8339989 83,62.5743772 83,59.7924987 L83,39.6265901 C83,36.8400762 80.7373716,34.5850899 77.9765237,34.5850899 Z M8.02347633,34.5850899 C5.26235318,34.5850899 3,36.8401687 3,39.6265901 L3,59.7924987 C3,62.5743772 5.262344,64.8339989 8.02347633,64.8339989 C10.7845995,64.8339989 13.0469527,62.5743772 13.0469527,59.7924987 L13.0469527,39.6265901 C13.0469527,36.8400762 10.7846087,34.5850899 8.02347633,34.5850899 Z M68.7512839,26.4775814 C68.7512839,20.4368298 65.5758542,15.108785 60.8258998,12.1035368 L60.8258998,1 L55.6551057,1 L55.6551057,9.94239683 C55.0458103,9.80217597 54.4243991,9.69499887 53.7925705,9.62408349 C53.7582982,8.95602387 52.9261851,7.01527896 51.0712521,7.01527896 L36.1729339,7.01527896 C34.3102152,7.01527896 33.6585669,8.97779922 33.6386645,9.635066 C33.154251,9.6922525 32.6763138,9.77131021 32.2050529,9.86949312 L32.2050529,1 L27.0342588,1 L27.0342588,11.8972978 C22.0994209,14.8609568 18.7746364,20.2961343 18.7746364,26.4775767 L18.7746364,27.5290852 L68.7512839,27.5290852 L68.7512839,26.4775767 L68.7512839,26.4775814 Z M32.1288111,19.6654726 L27.1105007,19.6654726 L27.1105007,14.6053196 L32.1288111,14.6053196 L32.1288111,19.6654726 Z M60.6734069,19.4498869 L55.6550966,19.4498869 L55.6550966,14.4190823 L60.6734069,14.4190823 L60.6734069,19.4498869 Z"
          id="形状"></path>
</svg>
