<?xml version="1.0" encoding="UTF-8"?>
<svg width="20px" height="20px" viewBox="0 0 20 20" version="1.1" xmlns="http://www.w3.org/2000/svg" xmlns:xlink="http://www.w3.org/1999/xlink">
    <title>矩形 2备份</title>
                    <path d="M20,5.75003433 L0,5.75003433 L0,3.2500206 C0,2.91848169 0.131643275,2.6004834 0.366063336,2.36606334 C0.600483397,2.13164328 0.918481694,2 1.2500206,2 L18.7499794,2 C19.4402758,2 20,2.55961438 20,3.2500206 L20,5.75003433 Z M20,6.99994507 L20,16.3749897 C20,17.0652861 19.4402758,17.6250103 18.7499794,17.6250103 L1.2500206,17.6250103 C0.559614381,17.6250103 0,17.0652861 0,16.3749897 L0,6.99994507 L20,6.99994507 Z M3.75003433,9.4999588 C3.40479002,9.4999588 3.1249691,9.77977972 3.1249691,10.1249142 C3.1249691,10.4701859 3.40479002,10.7499794 3.75003433,10.7499794 L7.4999588,10.7499794 C7.84512071,10.7499794 8.12491417,10.4701859 8.12491417,10.1249142 C8.12491417,9.77977972 7.84512071,9.4999588 7.4999588,9.4999588 L3.75003433,9.4999588 Z M3.75003433,12 C3.40479002,12 3.1249691,12.2797935 3.1249691,12.6249554 C3.1249691,12.9700898 3.40479002,13.2500206 3.75003433,13.2500206 L6.24996567,13.2500206 C6.59520998,13.2500206 6.87500343,12.9700898 6.87500343,12.6249554 C6.87500343,12.2797935 6.59520998,12 6.24996567,12 L3.75003433,12 Z" id="Fill-1"></path>
</svg>
