<?xml version="1.0" encoding="UTF-8"?>
<svg width="23px" height="22px" viewBox="0 0 23 22" version="1.1" xmlns="http://www.w3.org/2000/svg" xmlns:xlink="http://www.w3.org/1999/xlink">
    <title>-mockplus-</title>
    <defs>
        <path d="M14.8409,15.968 C14.8329,15.977 14.8239,15.985 14.8179,15.993 C13.5089,14.786 11.7609,14.048 9.8419,14.048 C7.9219,14.048 6.1749,14.786 4.8669,15.993 L4.8419,15.968 C6.0499,14.659 6.7879,12.913 6.7879,10.993 C6.7879,9.073 6.0499,7.325 4.8419,6.018 C4.8509,6.01 4.8599,6.002 4.8659,5.993 C6.1749,7.2 7.9219,7.939 9.8419,7.939 C11.7609,7.939 13.5089,7.2 14.8179,5.993 C14.8239,6.002 14.8329,6.01 14.8409,6.018 C13.6349,7.325 12.8969,9.073 12.8969,10.993 C12.8969,12.913 13.6349,14.659 14.8409,15.968 M18.2949,4.348 L11.4879,0.418 C10.5229,-0.139 9.3329,-0.139 8.3669,0.418 L1.5609,4.348 C0.5949,4.905 -9.99999997e-05,5.936 -9.99999997e-05,7.051 L-9.99999997e-05,14.91 C-9.99999997e-05,16.026 0.5949,17.056 1.5609,17.614 L8.3669,21.543 C9.3329,22.101 10.5229,22.101 11.4879,21.543 L18.2949,17.614 C19.2609,17.056 19.8559,16.026 19.8559,14.91 L19.8559,7.051 C19.8559,5.936 19.2609,4.905 18.2949,4.348" id="path-1"></path>
    </defs>
    <g id="é¦–é¡µ" stroke="none" stroke-width="1" fill-rule="evenodd">
        <g id="é¦–é¡µ_å¾·æ™‹è´µå®¾åŽ…_çƒ­é—¨æŽ¨è" transform="translate(-257.000000, -1081.000000)">
            <g id="bottom" transform="translate(0.000000, 1073.000000)">
                <g id="-mockplus-" transform="translate(256.250000, 8.000000)">
                    <g id="-mockplus-" transform="translate(1.000000, 0.000000)">
                        <g id="Color/ðŸŽ¨C8A77F" transform="translate(1.000000, 0.000000)">
                            <mask id="mask-2" fill="white">
                                <use xlink:href="#path-1"></use>
                            </mask>
                            <use id="è’™ç‰ˆ" fill="#F79C1F" xlink:href="#path-1"></use>
                            <g id="-mockplus-" mask="url(#mask-2)">
                                <g transform="translate(-1.000000, 0.000000)" id="Color/ðŸŽ¨C8A77F">
                                    <rect id="çŸ©å½¢å¤‡ä»½-3-copy" x="0" y="0" width="22" height="22"></rect>
                                </g>
                            </g>
                        </g>
                    </g>
                </g>
            </g>
        </g>
    </g>
</svg>
