<?xml version="1.0" encoding="UTF-8"?>
<svg width="14px" height="14px" viewBox="0 0 14 14" version="1.1" xmlns="http://www.w3.org/2000/svg" xmlns:xlink="http://www.w3.org/1999/xlink">
    <title>-mockplus-</title>
    <defs>
        <filter id="filter-1">
            <feColorMatrix in="SourceGraphic" type="matrix" values="0 0 0 0 0.141176 0 0 0 0 0.760784 0 0 0 0 0.603922 0 0 0 1.000000 0"></feColorMatrix>
        </filter>
    </defs>
    <g id="H5" stroke="none" stroke-width="1" fill-rule="evenodd">
        <g id="取款-银行卡" transform="translate(-15.000000, -375.000000)">
            <g id="编组-4" transform="translate(15.000000, 372.000000)">
                <g id="灯泡" transform="translate(0.000000, 3.000000)">
                    <g fill-rule="nonzero" id="形状">
                        <path d="M7.02058923,2.9824362 C5.85703935,2.9824362 4.76314416,3.42358254 3.93995242,4.22566681 C3.11676067,5.02775108 2.66400521,6.09359767 2.66400521,7.22731293 C2.66400521,8.36102819 3.11676067,9.42687479 3.93995242,10.2289591 C4.76314416,11.0310433 5.85703935,11.4721897 7.02058923,11.4721897 C8.1841391,11.4721897 9.27803429,11.0310433 10.101226,10.2289591 C10.9244178,9.42687479 11.3771732,8.36102819 11.3771732,7.22731293 C11.3771732,6.09359767 10.9244178,5.02775108 10.101226,4.22566681 C9.27803429,3.42358254 8.1841391,2.9824362 7.02058923,2.9824362 Z M7.02058923,10.4217678 C5.2127335,10.4217678 3.74048672,8.98881338 3.74048672,7.22577046 C3.74048672,5.46272754 5.21115044,4.02977315 7.02058923,4.02977315 C8.82844495,4.02977315 10.3006917,5.46272754 10.3006917,7.22577046 C10.3006917,8.98881338 8.83002801,10.4217678 7.02058923,10.4217678 Z M8.9930833,11.6773381 L5.04809515,11.6773381 C4.75047968,11.6773381 4.5098544,11.9117935 4.5098544,12.2017779 C4.5098544,12.4917622 4.75047968,12.7262176 5.04809515,12.7262176 L8.9930833,12.7262176 C9.29069877,12.7262176 9.53132405,12.4917622 9.53132405,12.2017779 C9.53132405,11.9117935 9.29069877,11.6773381 8.9930833,11.6773381 Z M8.20471889,12.9329085 L5.83804262,12.9329085 C5.54042714,12.9329085 5.29980186,13.1673639 5.29980186,13.4573482 C5.29980186,13.7473325 5.54042714,13.9817879 5.83804262,13.9817879 L8.20471889,13.9817879 C8.50233437,13.9817879 8.74295965,13.7473325 8.74295965,13.4573482 C8.74295965,13.1673639 8.50233437,12.9329085 8.20471889,12.9329085 Z M7.02058923,2.79116995 C7.3182047,2.79116995 7.55882998,2.55671455 7.55882998,2.26673024 L7.55882998,0.778246933 C7.55882998,0.488262622 7.3182047,0.253807221 7.02058923,0.253807221 C6.72297375,0.253807221 6.48234847,0.488262622 6.48234847,0.778246933 L6.48234847,2.26673024 C6.48234847,2.55517208 6.72297375,2.79116995 7.02058923,2.79116995 Z M9.996744,3.55315 C10.0901446,3.61793373 10.1977928,3.64878313 10.3054409,3.64878313 C10.4748284,3.64878313 10.6426329,3.57011717 10.7471149,3.42512501 L11.6225477,2.20657392 C11.7935183,1.96903358 11.733362,1.64202999 11.4911536,1.47544326 C11.2473622,1.30885653 10.9117533,1.36747038 10.7407827,1.60346825 L9.86534994,2.82201934 C9.69437934,3.05955968 9.7529526,3.38656327 9.996744,3.55315 Z M13.7438495,4.79792309 C13.6393675,4.52644841 13.3290875,4.3891686 13.0504688,4.49097161 L11.6193816,5.01232638 C11.3407628,5.11412938 11.1998704,5.41645345 11.3043524,5.68792813 C11.3850885,5.89924648 11.5908865,6.02881394 11.8093489,6.02881394 C11.8726714,6.02881394 11.9359938,6.01801665 11.9977332,5.99487961 L13.4288204,5.47352483 C13.7074391,5.37172183 13.8483315,5.06939776 13.7438495,4.79792309 L13.7438495,4.79792309 Z M3.38113187,3.17678738 C3.48561389,3.32177954 3.65341837,3.4004455 3.8228059,3.4004455 C3.92887099,3.4004455 4.03651914,3.3695961 4.1315028,3.30481237 C4.37529421,3.13822564 4.43386747,2.81122206 4.26289687,2.57368171 L3.38746411,1.35513062 C3.21649352,1.11759028 2.88088457,1.0605189 2.63709317,1.22710563 C2.39330177,1.39369236 2.33472851,1.72069595 2.5056991,1.95823629 L3.38113187,3.17678738 L3.38113187,3.17678738 Z M2.82231131,5.43804803 C2.92679334,5.16657335 2.78431785,4.86424928 2.50728216,4.76244628 L1.07619497,4.24109151 C0.797576227,4.1392885 0.487296261,4.27811078 0.382814232,4.54804299 C0.278332202,4.81951766 0.420807697,5.12184173 0.697843381,5.22364473 L2.12893057,5.74499951 C2.19066995,5.76813655 2.2539924,5.77893384 2.31731484,5.77893384 C2.53577726,5.77893384 2.7415752,5.64936638 2.82231131,5.43804803 L2.82231131,5.43804803 Z"></path>
                    </g>
                </g>
            </g>
        </g>
    </g>
</svg>
