<?xml version="1.0" encoding="UTF-8"?>
<svg width="22px" height="22px" viewBox="0 0 22 22" version="1.1" xmlns="http://www.w3.org/2000/svg"
     xmlns:xlink="http://www.w3.org/1999/xlink">
    <title>编组 11</title>
    <path d="M16.75,19 L1.25,19 C0.559644063,19 0,18.4403559 0,17.75 L0,3.125 C0,2.43464406 0.559644063,1.875 1.25,1.875 L2.4375,1.875 L2.4375,3.75 C2.4375,4.61294492 3.13705508,5.3125 4,5.3125 C4.86294492,5.3125 5.5625,4.61294492 5.5625,3.75 L5.5625,1.875 L12.4375,1.875 L12.4375,3.75 C12.4375,4.61294492 13.1370551,5.3125 14,5.3125 C14.8629449,5.3125 15.5625,4.61294492 15.5625,3.75 L15.5625,1.875 L16.75,1.875 C17.4403559,1.875 18,2.43464406 18,3.125 L18,17.75 C18,18.4403559 17.4403559,19 16.75,19 Z M4.3125,12.1875 C4.3125,12.014911 4.17258898,11.875 4,11.875 L2.75,11.875 C2.57741102,11.875 2.4375,12.014911 2.4375,12.1875 L2.4375,13.4375 C2.4375,13.610089 2.57741102,13.75 2.75,13.75 L4,13.75 C4.17258898,13.75 4.3125,13.610089 4.3125,13.4375 L4.3125,12.1875 Z M4.3125,15.9375 C4.3125,15.764911 4.17258898,15.625 4,15.625 L2.75,15.625 C2.57741102,15.625 2.4375,15.764911 2.4375,15.9375 L2.4375,17.1875 C2.4375,17.360089 2.57741102,17.5 2.75,17.5 L4,17.5 C4.17258898,17.5 4.3125,17.360089 4.3125,17.1875 L4.3125,15.9375 Z M8.0625,12.1875 C8.0625,12.014911 7.92258898,11.875 7.75,11.875 L6.5,11.875 C6.32741102,11.875 6.1875,12.014911 6.1875,12.1875 L6.1875,13.4375 C6.1875,13.610089 6.32741102,13.75 6.5,13.75 L7.75,13.75 C7.92258898,13.75 8.0625,13.610089 8.0625,13.4375 L8.0625,12.1875 Z M8.0625,15.9375 C8.0625,15.764911 7.92258898,15.625 7.75,15.625 L6.5,15.625 C6.32741102,15.625 6.1875,15.764911 6.1875,15.9375 L6.1875,17.1875 C6.1875,17.360089 6.32741102,17.5 6.5,17.5 L7.75,17.5 C7.92258898,17.5 8.0625,17.360089 8.0625,17.1875 L8.0625,15.9375 Z M11.8125,8.4375 C11.8125,8.26491102 11.672589,8.125 11.5,8.125 L2.81957456,8.125 C2.64698558,8.125 2.50707456,8.26491102 2.50707456,8.4375 L2.50707456,9.6875 C2.50707456,9.86008898 2.64698558,10 2.81957456,10 L11.5,10 C11.672589,10 11.8125,9.86008898 11.8125,9.6875 L11.8125,8.4375 Z M11.8125,12.1875 C11.8125,12.014911 11.672589,11.875 11.5,11.875 L10.25,11.875 C10.077411,11.875 9.9375,12.014911 9.9375,12.1875 L9.9375,13.4375 C9.9375,13.610089 10.077411,13.75 10.25,13.75 L11.5,13.75 C11.672589,13.75 11.8125,13.610089 11.8125,13.4375 L11.8125,12.1875 Z M11.8125,15.9375 C11.8125,15.764911 11.672589,15.625 11.5,15.625 L10.25,15.625 C10.077411,15.625 9.9375,15.764911 9.9375,15.9375 L9.9375,17.1875 C9.9375,17.360089 10.077411,17.5 10.25,17.5 L11.5,17.5 C11.672589,17.5 11.8125,17.360089 11.8125,17.1875 L11.8125,15.9375 Z M15.5625,8.4375 C15.5625,8.26491102 15.422589,8.125 15.25,8.125 L14,8.125 C13.827411,8.125 13.6875,8.26491102 13.6875,8.4375 L13.6875,9.6875 C13.6875,9.86008898 13.827411,10 14,10 L15.25,10 C15.422589,10 15.5625,9.86008898 15.5625,9.6875 L15.5625,8.4375 Z M15.5625,12.1875 C15.5625,12.014911 15.422589,11.875 15.25,11.875 L14,11.875 C13.827411,11.875 13.6875,12.014911 13.6875,12.1875 L13.6875,13.4375 C13.6875,13.610089 13.827411,13.75 14,13.75 L15.25,13.75 C15.422589,13.75 15.5625,13.610089 15.5625,13.4375 L15.5625,12.1875 Z M15.5625,15.9375 C15.5625,15.764911 15.422589,15.625 15.25,15.625 L14,15.625 C13.827411,15.625 13.6875,15.764911 13.6875,15.9375 L13.6875,17.1875 C13.6875,17.360089 13.827411,17.5 14,17.5 L15.25,17.5 C15.422589,17.5 15.5625,17.360089 15.5625,17.1875 L15.5625,15.9375 Z M14,4.6875 C13.482233,4.6875 13.0625,4.26776695 13.0625,3.75 L13.0625,0.9375 C13.0625,0.419733047 13.482233,0 14,0 C14.517767,0 14.9375,0.419733047 14.9375,0.9375 L14.9375,3.75 C14.9375,4.26776695 14.517767,4.6875 14,4.6875 Z M4,4.6875 C3.48223305,4.6875 3.0625,4.26776695 3.0625,3.75 L3.0625,0.9375 C3.0625,0.419733047 3.48223305,0 4,0 C4.51776695,0 4.9375,0.419733047 4.9375,0.9375 L4.9375,3.75 C4.9375,4.26776695 4.51776695,4.6875 4,4.6875 Z"
          id="形状"></path>
</svg>
