<?xml version="1.0" encoding="UTF-8"?>
<svg width="44px" height="44px" viewBox="0 0 44 44" version="1.1" xmlns="http://www.w3.org/2000/svg" xmlns:xlink="http://www.w3.org/1999/xlink">
    <title>-mockplus-</title>
    <path transform="translate(9.000000, 13.000000)" d="M23.5529412,0.157894737 C24.9044144,0.157894737 26,1.25348029 26,2.60495356 L26,18.7108359 C26,20.0623092 24.9044144,21.1578947 23.5529412,21.1578947 L2.44705882,21.1578947 C1.09558555,21.1578947 -2.78581468e-16,20.0623092 0,18.7108359 L0,2.60495356 C-6.09596951e-16,1.25348029 1.09558555,0.157894737 2.44705882,0.157894737 L23.5529412,0.157894737 Z M21,14 C19.8954305,14 19,14.8954305 19,16 C19,17.1045695 19.8954305,18 21,18 C22.1045695,18 23,17.1045695 23,16 C23,14.8954305 22.1045695,14 21,14 Z M14.6157895,9.31578947 L4.18421053,9.31578947 C3.53018911,9.31578947 3,9.84597859 3,10.5 C3,11.1540214 3.53018911,11.6842105 4.18421053,11.6842105 L4.18421053,11.6842105 L14.6157895,11.6842105 C15.2698109,11.6842105 15.8,11.1540214 15.8,10.5 C15.8,9.84597859 15.2698109,9.31578947 14.6157895,9.31578947 L14.6157895,9.31578947 Z M17.8157895,3.78947368 L4.18421053,3.78947368 C3.53018911,3.78947368 3,4.3196628 3,4.97368421 C3,5.62770562 3.53018911,6.15789474 4.18421053,6.15789474 L4.18421053,6.15789474 L17.8157895,6.15789474 C18.4698109,6.15789474 19,5.62770562 19,4.97368421 C19,4.3196628 18.4698109,3.78947368 17.8157895,3.78947368 L17.8157895,3.78947368 Z" id="path-2"></path>
</svg>
