<?xml version="1.0" encoding="UTF-8"?>
<svg width="30px" height="27px" viewBox="0 0 30 27" version="1.1" xmlns="http://www.w3.org/2000/svg"
     xmlns:xlink="http://www.w3.org/1999/xlink">
    <title>钱包</title>
    <path d="M28.85,10.15 L28.85,16.85 L20.5,16.85 C19.574923,16.85 18.737423,16.4750385 18.1311923,15.8688077 C17.5249615,15.262577 17.15,14.425077 17.15,13.5 C17.15,12.574923 17.5249615,11.737423 18.1311923,11.1311923 C18.737423,10.5249615 19.574923,10.15 20.5,10.15 L20.5,10.15 L28.85,10.15 Z"
          fill="none"
          id="矩形" stroke="#24C29A" stroke-width="2.3"></path>
    <path d="M24.4444444,0 L5.55555556,0 C2.5,0 0,2.53125 0,5.625 L0,21.375 C0,24.46875 2.5,27 5.55555556,27 L24.4444444,27 C27.5,27 30,24.46875 30,21.375 L30,5.625 C30,2.53125 27.5,0 24.4444444,0 Z M27.7777778,19.125 L27.7777778,21.375 C27.7777778,23.23125 26.2777778,24.75 24.4444444,24.75 L5.55555556,24.75 C3.72222222,24.75 2.22222222,23.23125 2.22222222,21.375 L2.22222222,5.625 C2.22222222,3.76875 3.72222222,2.25 5.55555556,2.25 L24.4444444,2.25 C26.2777778,2.25 27.7777778,3.76875 27.7777778,5.625 L27.7777778,7.875 L27.7777778,19.125 Z"
          id="形状" ></path>
</svg>
