<?xml version="1.0" encoding="UTF-8"?>
<svg width="34px" height="35px" viewBox="0 0 34 35" version="1.1" xmlns="http://www.w3.org/2000/svg"
     xmlns:xlink="http://www.w3.org/1999/xlink">
    <title>-mockplus-</title>
    <path d="M16.8377333,2.63222718 C8.84006667,2.63222718 2.3334,9.07572233 2.3334,16.9957417 C2.3334,24.9157612 8.84006667,31.3592563 16.8377333,31.3592563 C24.8354,31.3592563 31.3420667,24.9157612 31.3420667,16.9957417 C31.3420667,9.07572233 24.8354,2.63222718 16.8377333,2.63222718 M16.8377333,33.6699359 C7.5534,33.6699359 6.66666667e-05,26.1899359 6.66666667e-05,16.9957417 C6.66666667e-05,7.80154757 7.5534,0.321547573 16.8377333,0.321547573 C26.1220667,0.321547573 33.6754,7.80154757 33.6754,16.9957417 C33.6754,26.1899359 26.1220667,33.6699359 16.8377333,33.6699359"
          id="Fill-1" ></path>
    <path d="M16.8377333,15.3969495 C15.4830667,15.3969495 14.3807333,14.3092796 14.3727333,12.9697456 C14.3807333,11.6298816 15.4830667,10.5422117 16.8377333,10.5422117 C18.1974,10.5422117 19.3034,11.6378039 19.3034,12.9839398 L21.3034,12.9839398 C21.3034,10.8865029 19.8197333,9.12906602 17.8377333,8.6774932 L17.8377333,6.81772621 L15.8377333,6.81772621 L15.8377333,8.6774932 C13.8650667,9.12675534 12.3870667,10.8706583 12.3734,12.9552214 L12.3720667,12.9552214 C12.3720667,12.9601728 12.3727333,12.9647942 12.3727333,12.9697456 C12.3727333,12.9746971 12.3720667,12.9793184 12.3720667,12.9839398 L12.3734,12.9839398 C12.3894,15.4091631 14.3850667,17.377532 16.8377333,17.377532 L16.8377333,17.377532 C18.1974,17.377532 19.3034,18.4727942 19.3034,19.8192602 C19.3034,21.1657262 18.1974,22.2609883 16.8377333,22.2609883 C15.4780667,22.2609883 14.3720667,21.1657262 14.3720667,19.8192602 L12.3720667,19.8192602 C12.3720667,21.9170272 13.8560667,23.6747942 15.8377333,24.1260369 L15.8377333,25.9854738 L17.8377333,25.9854738 L17.8377333,24.1260369 C19.8197333,23.6747942 21.3034,21.9170272 21.3034,19.8192602 C21.3034,17.380833 19.3004,15.3969495 16.8377333,15.3969495"
          id="Fill-3" fill="#24C29A"></path>
</svg>
