<?xml version="1.0" encoding="UTF-8"?>
<svg width="34px" height="29px" viewBox="0 0 34 29" version="1.1" xmlns="http://www.w3.org/2000/svg"
     xmlns:xlink="http://www.w3.org/1999/xlink">
    <title>Recharge</title>
    <path d="M29.1428576,0 L29.1428574,0 C31.8253815,0 34,2.16395508 34,4.83333333 L34,24.1666667 L34,24.1666667 C34,26.8360411 31.8253815,29 29.1428574,29 L4.85714307,29 L4.85714286,29 C2.17461875,29 0,26.8360411 0,24.1666667 C0,24.1666667 0,24.1666667 0,24.1666667 L0,4.83333333 L0,4.83333406 C0,2.16395958 2.17461496,0 4.85714286,0 L29.1428571,0 L29.1428576,0 Z M31.571429,9.66666667 L2.42857185,9.66666667 L2.42857185,24.1666667 L2.42857185,24.1668009 C2.42857185,25.4464712 3.4310368,26.5043104 4.71480243,26.5793139 L4.85714404,26.5833339 L29.1428583,26.5833339 L29.1428583,26.5833339 C30.4288324,26.5833339 31.4919395,25.5859113 31.5673808,24.3084462 L31.571429,24.1666667 L31.571429,9.66666667 L31.571429,9.66666667 Z M29.1428576,2.41666467 L4.85714328,2.41666467 L4.85714339,2.41666467 C3.57116929,2.41659533 2.50806214,3.41408919 2.43262085,4.6915543 L2.42857322,4.8333322 L2.42857322,7.24999887 L31.5714304,7.24999887 L31.5714304,4.8333322 L31.5714304,4.83319759 C31.5714304,3.55352728 30.5689654,2.49568809 29.2851998,2.42068457 L29.1428586,2.41666467 L29.1428576,2.41666467 Z"
          id="形状"></path>
    <rect id="矩形" x="20" y="13" width="9" height="3" rx="1.5"></rect>
</svg>
