<?xml version="1.0" encoding="UTF-8"?>
<svg width="34px" height="32px" viewBox="0 0 34 32" version="1.1" xmlns="http://www.w3.org/2000/svg"
     xmlns:xlink="http://www.w3.org/1999/xlink">
    <title>vip</title>
    <path d="M9.02497891,0 C8.4919517,0 7.68435425,0.121054284 6.79279197,1.17731687 C6.13912026,1.95089402 5.12372013,3.1349737 4.09466765,4.33593099 C2.78436525,5.86306152 1.45712925,7.41371485 0.833633312,8.163828 C-0.252196493,9.43523613 -0.279003127,11.2046516 0.763291533,12.7855318 L0.833633312,12.8797995 C2.06038105,14.3228947 4.7349214,17.4276416 7.89549678,21.0975535 L12.8087573,26.8024535 C13.7137668,27.8585985 14.4342647,28 15.0141376,28 C15.6242155,28 16.3146255,27.8553053 17.2194886,26.8024535 L22.3004736,20.8989622 C22.7964989,20.3237705 23.2790769,19.7620457 23.7482662,19.2205211 L27.1870447,15.2209664 C27.9981285,14.2757903 28.6851107,13.4784845 29.2047199,12.8630689 C30.1331084,11.736179 30.3944071,9.62365387 29.1912727,8.1570946 C29.0337141,7.97543966 28.6649838,7.54147314 28.1858042,6.97304432 C26.7311561,5.25749606 24.3047016,2.39156455 23.1852683,1.17402367 C22.7226415,0.669459301 22.1462549,0.0436642244 21.033472,0 L9.02497891,0 Z"
          transform="translate(2, 2)"
          id="形状" fill="none" fill-rule="nonzero" stroke-width="2.5"></path>
    <path d="M8.11018242,9.7985754 L14.5612444,17.6307748 C14.9123688,18.057073 15.5425942,18.1180134 15.9688924,17.7668891 C16.0185353,17.7260003 16.0641178,17.6804177 16.1050067,17.6307748 L22.5560686,9.7985754 L22.5560686,9.7985754"
          transform="translate(2, 2)"
          fill="none"
          stroke-width="2.2"
          id="路径-2" stroke="#24C29A" stroke-linecap="round" stroke-linejoin="bevel"></path>
</svg>
