<?xml version="1.0" encoding="UTF-8"?>
<svg width="20px" height="20px" viewBox="0 0 20 20" version="1.1" xmlns="http://www.w3.org/2000/svg"
     xmlns:xlink="http://www.w3.org/1999/xlink">
    <title>编组 3</title>
    <path d="M17.7143126,10.899936 C18.4243925,10.899936 19,11.4756439 19,12.1857238 L19,17.7143126 C19,18.4243925 18.4243925,19 17.7143126,19 L12.1857238,19 C11.4756439,19 10.899936,18.4243925 10.899936,17.7143126 L10.899936,12.1857238 C10.899936,11.4756439 11.4756439,10.899936 12.1857238,10.899936 L17.7143126,10.899936 Z M5.05001946,11.1249608 C6.41654099,11.1249608 7.6792764,11.8539748 8.36248694,13.0374581 C9.04579793,14.2209414 9.04579793,15.6789946 8.36248694,16.8624779 C7.6792764,18.0459612 6.41654099,18.7749752 5.05001946,18.7749752 C2.93750846,18.7749752 1.2250248,17.0624915 1.2250248,14.9499805 C1.2250248,12.8374695 2.93750846,11.1249608 5.05001946,11.1249608 Z M5.05001946,12.4750091 C4.16571545,12.4750091 3.34871045,12.94673 2.90662122,13.712432 C2.46450689,14.4782345 2.46450689,15.4217014 2.90662122,16.1875039 C3.34871045,16.953206 4.16571545,17.4249269 5.05001946,17.4249269 C6.41694278,17.4249269 7.5249909,16.3168787 7.5249909,14.9499805 C7.5249909,13.5830572 6.41694278,12.4750091 5.05001946,12.4750091 Z M7.8142511,1 C8.52435613,1 9.09996359,1.57560746 9.09996359,2.28568738 L9.09996359,7.8142511 C9.09996359,8.52435613 8.52435613,9.09996359 7.8142511,9.09996359 L2.28568738,9.09996359 C1.57560746,9.09996359 1,8.52435613 1,7.8142511 L1,2.28568738 C1,1.57560746 1.57560746,1 2.28568738,1 L7.8142511,1 Z M17.7143126,1 C18.4243925,1 19,1.57560746 19,2.28568738 L19,7.8142511 C19,8.52435613 18.4243925,9.09996359 17.7143126,9.09996359 L12.1857238,9.09996359 C11.4756439,9.09996359 10.899936,8.52435613 10.899936,7.8142511 L10.899936,2.28568738 C10.899936,1.57560746 11.4756439,1 12.1857238,1 L17.7143126,1 Z"
          id="Fill-1"></path>
</svg>
