<?xml version="1.0" encoding="UTF-8"?>
<svg width="30px" height="30px" viewBox="0 0 30 30" version="1.1" xmlns="http://www.w3.org/2000/svg" xmlns:xlink="http://www.w3.org/1999/xlink">
    <title>-mockplus-</title>
    <path d="M26.3980263,15.3108192 L25.1302583,15.3108192 L25.1302583,2.48331253 C25.1302583,1.10029295 24.0353678,0.00540240678 22.6523483,0.00540240678 L5.71035823,0.00540240678 C4.32733865,0.00540240678 3.23244811,1.10029291 3.23244815,2.48331253 L3.23244815,15.2531934 L1.96468018,15.2531934 C0.00540240678,15.2531934 -0.686107363,17.7887294 0.927415487,18.825994 L13.1440886,26.4326018 C13.7779725,26.8359825 14.584734,26.8359825 15.2186179,26.4326018 L27.435291,18.8836199 C29.0488139,17.8463552 28.3573041,15.3108192 26.3980263,15.3108192 Z M18.1575346,13.812548 C18.6761669,13.812548 19.1371734,14.2735546 19.1371734,14.7921869 C19.1371734,15.3108192 18.6761669,15.7718258 18.1575346,15.7718258 L15.2186179,15.7718258 L15.2186179,18.7107424 C15.2186179,19.2293748 14.7576114,19.6903813 14.2389791,19.6903813 C13.7203467,19.6903813 13.2593402,19.2293747 13.2593402,18.7107424 L13.2593402,15.7718258 L10.3204235,15.7718258 C9.8017912,15.7718258 9.34078466,15.3108192 9.34078466,14.7921869 C9.34078466,14.2735545 9.8017912,13.812548 10.3204235,13.812548 L13.2593402,13.812548 L13.2593402,11.3346379 L10.3204235,11.3346379 C9.8017912,11.3346379 9.34078466,10.8736314 9.34078466,10.354999 C9.34078466,9.83636668 9.8017912,9.37536014 10.3204235,9.37536018 L11.8763206,9.37536018 L9.68653958,7.18557913 C9.28315885,6.7821984 9.28315885,6.14831444 9.68653958,5.80255956 C10.0899203,5.39917882 10.7238043,5.39917882 11.0695592,5.80255956 L13.8355984,8.56859871 C14.0661016,8.79910198 14.1237274,9.08723106 14.1237274,9.37536018 L14.2966049,9.37536018 C14.2966049,9.0872311 14.3542307,8.79910202 14.584734,8.56859871 L17.3507731,5.80255956 C17.7541539,5.39917882 18.3880378,5.39917882 18.7337928,5.80255956 C19.1371734,6.20594029 19.1371734,6.83982425 18.7337928,7.18557913 L16.5440117,9.37536018 L18.0999088,9.37536018 C18.6185411,9.37536018 19.0795476,9.83636672 19.0795476,10.354999 C19.0795476,10.8736314 18.6185411,11.3346379 18.0999088,11.3346379 L15.1609921,11.3346379 L15.1609921,13.812548 L18.1575346,13.812548 Z" id="path-4"></path>
</svg>
