<?xml version="1.0" encoding="UTF-8"?>
<svg width="20px" height="20px" viewBox="0 0 20 20" version="1.1" xmlns="http://www.w3.org/2000/svg"
     xmlns:xlink="http://www.w3.org/1999/xlink">
    <title>编组 7备份</title>
    <path d="M17.0113636,6.77272727 C16.5,6.25 15.9545455,5.77272727 15.4090909,5.38636364 C15.3181818,5.31818182 15.2386364,5.26136364 15.1590909,5.20454545 C15.9431818,4.80681818 16.4659091,4.09090909 16.4659091,3.26136364 C16.4659091,1.95454545 15.1931818,0.965909091 13.6931818,0.965909091 C13.3409091,0.965909091 13.0227273,1.02272727 12.7386364,1.13636364 C12.5909091,1.18181818 12.4886364,1.23863636 12.4090909,1.28409091 C12.3636364,1.30681818 12.2613636,1.27272727 12.2159091,1.22727273 C12.1022727,1.05681818 11.9318182,0.863636364 11.6818182,0.647727273 C11.2613636,0.284090909 10.7613636,0.0568181818 10.2045455,0 C9.64772727,0.0454545455 9.14772727,0.284090909 8.71590909,0.647727273 C8.46590909,0.852272727 8.29545455,1.05681818 8.18181818,1.22727273 C8.13636364,1.27272727 8.03409091,1.30681818 7.98863636,1.28409091 C7.90909091,1.23863636 7.80681818,1.18181818 7.65909091,1.13636364 C7.375,1.02272727 7.05681818,0.965909091 6.70454545,0.965909091 C5.20454545,0.965909091 3.93181818,1.96590909 3.93181818,3.26136364 C3.93181818,4.09090909 4.45454545,4.80681818 5.23863636,5.20454545 C5.15909091,5.25 5.07954545,5.31818182 4.98863636,5.38636364 C4.43181818,5.78409091 3.89772727,6.25 3.38636364,6.77272727 C1.90909091,8.29545455 1,10.0454545 1,11.9772727 C1,17.3636364 5.13636364,19.9318182 10.125,19.9318182 L10.3068182,19.9318182 C15.2954545,19.9318182 19.4318182,17.3636364 19.4318182,11.9772727 C19.4090909,10.0454545 18.4886364,8.29545455 17.0113636,6.77272727 Z M12.8295455,11.7045455 L10.9204545,11.7045455 L10.9204545,12.4431818 L12.3181818,12.4431818 C12.7272727,12.4431818 13.0568182,12.7727273 13.0568182,13.1818182 C13.0568182,13.5909091 12.7272727,13.9204545 12.3181818,13.9204545 L10.9204545,13.9204545 L10.9204545,15.0454545 C10.9204545,15.4545455 10.5909091,15.7840909 10.1818182,15.7840909 C9.77272727,15.7840909 9.44318182,15.4545455 9.44318182,15.0454545 L9.44318182,13.9204545 L7.97727273,13.9204545 C7.56818182,13.9204545 7.23863636,13.5909091 7.23863636,13.1818182 C7.23863636,12.7727273 7.56818182,12.4431818 7.97727273,12.4431818 L9.44318182,12.4431818 L9.44318182,11.7045455 L7.54545455,11.7045455 C7.13636364,11.7045455 6.80681818,11.375 6.80681818,10.9659091 C6.80681818,10.5568182 7.13636364,10.2272727 7.54545455,10.2272727 L8.40909091,10.2272727 L7.03409091,8.85227273 C6.75,8.56818182 6.75,8.10227273 7.03409091,7.81818182 C7.31818182,7.53409091 7.78409091,7.53409091 8.06818182,7.81818182 L10.1704545,9.92045455 L12.2727273,7.81818182 C12.5568182,7.53409091 13.0227273,7.53409091 13.3068182,7.81818182 C13.5909091,8.10227273 13.5909091,8.56818182 13.3068182,8.85227273 L11.9318182,10.2272727 L12.7954545,10.2272727 C13.2045455,10.2272727 13.5340909,10.5568182 13.5340909,10.9659091 C13.5340909,11.375 13.2386364,11.7045455 12.8295455,11.7045455 Z"
          id="形状"></path>
</svg>
