<?xml version="1.0" encoding="UTF-8"?>
<svg width="60px" height="60px" viewBox="0 0 60 60" version="1.1" xmlns="http://www.w3.org/2000/svg" xmlns:xlink="http://www.w3.org/1999/xlink">
    <title>-mockplus-</title>
    <g id="登录注册" stroke="none" stroke-width="1" fill-rule="evenodd">
        <g id="注机—注册成功" transform="translate(-158.000000, -316.000000)">
            <g id="#icon/shibai" transform="translate(158.000000, 316.000000)">
                <g transform="translate(5.000000, 5.000000)">
                    <path d="M25,0 C38.8071187,0 50,11.1928813 50,25 C50,38.8071187 38.8071187,50 25,50 C11.1928813,50 0,38.8071187 0,25 C0,11.1928813 11.1928813,0 25,0 Z M35.5857864,15.5857864 L21,30.1715729 L14.4142136,23.5857864 C13.633165,22.8047379 12.366835,22.8047379 11.5857864,23.5857864 C10.8047379,24.366835 10.8047379,25.633165 11.5857864,26.4142136 L19.5857864,34.4142136 C20.366835,35.1952621 21.633165,35.1952621 22.4142136,34.4142136 L38.4142136,18.4142136 C39.1952621,17.633165 39.1952621,16.366835 38.4142136,15.5857864 C37.633165,14.8047379 36.366835,14.8047379 35.5857864,15.5857864 Z" id="形状结合"></path>
                </g>
            </g>
        </g>
    </g>
</svg>
