<?xml version="1.0" encoding="UTF-8"?>
<svg width="10px" height="10px" viewBox="0 0 10 10" version="1.1" xmlns="http://www.w3.org/2000/svg" xmlns:xlink="http://www.w3.org/1999/xlink">
    <title>复制</title>
    <g id="代理" stroke="none" stroke-width="1">
        <g id="推广备份" transform="translate(-244.000000, -615.000000)">
            <g id="编组-2备份-2" transform="translate(30.000000, 566.000000)">
                <g id="复制" transform="translate(214.468632, 49.165371)">
                    <path d="M8.53106544,0 L2.17895622,0 C2.04942379,0 1.94399043,0.105280749 1.94399043,0.234625668 L1.94399043,0.459224599 C1.94399043,0.566510695 2.0313495,0.652740642 2.137787,0.652740642 L7.76692457,0.652740642 C8.08222054,0.652740642 8.33726887,0.907419786 8.33726887,1.22225936 L8.33726887,7.43783422 C8.33726887,7.57720588 8.45073526,7.69050802 8.59030895,7.69050802 L8.75096932,7.69050802 C8.88753063,7.69050802 8.99999645,7.57820856 8.99999645,7.44184492 L8.99999645,0.469251337 C9.00099701,0.211564171 8.79013028,0 8.53106544,0 L8.53106544,0 Z M7.41548002,1.29445187 L0.301238186,1.29445187 C0.135557184,1.29445187 0,1.42981283 0,1.59525401 L0,8.69919786 C0,8.86463904 0.135557184,9 0.301238186,9 L7.41447589,9 C7.5801569,9 7.71571962,8.86463904 7.71571962,8.69919786 L7.71571962,1.59525401 C7.71671821,1.42981283 7.58116102,1.29445187 7.41548002,1.29445187 Z M6.41637337,5.1427139 C6.41637337,5.40441176 6.20149013,5.61898396 5.93941291,5.61898396 L4.32276797,5.61898396 L4.32276797,7.23328877 C4.32276797,7.49498663 4.10788474,7.70955882 3.84580751,7.70955882 C3.58373029,7.70955882 3.36884705,7.49498663 3.36884705,7.23328877 L3.36884705,5.61898396 L1.75220212,5.61898396 C1.4901249,5.61898396 1.27524166,5.40441176 1.27524166,5.1427139 C1.27524166,4.88101604 1.4901249,4.66644385 1.75220212,4.66644385 L3.36884705,4.66644385 L3.36884705,3.05213904 C3.36884705,2.79044118 3.58373029,2.57586898 3.84580751,2.57586898 C4.10788474,2.57586898 4.32276797,2.79044118 4.32276797,3.05213904 L4.32276797,4.66644385 L5.93941291,4.66644385 C6.20149013,4.66644385 6.41637337,4.88001337 6.41637337,5.1427139 Z" id="形状"></path>
                </g>
            </g>
        </g>
    </g>
</svg>
