<?xml version="1.0" encoding="UTF-8"?>
<svg width="20px" height="20px" viewBox="0 0 20 20" version="1.1" xmlns="http://www.w3.org/2000/svg"
     xmlns:xlink="http://www.w3.org/1999/xlink">
    <title>编组 7</title>
    <path d="M18.6860054,4.26106072 C18.623179,3.64486529 18.168892,3.14022184 17.562808,3.01301346 C16.3339549,2.81981729 15.1203066,2.5403101 13.9306699,2.17667476 C12.7657471,1.69880278 11.673411,1.0602518 10.685476,0.279613821 C10.1673088,-0.093204607 9.46879176,-0.093204607 8.95062458,0.279613821 C8.0153293,1.14465595 6.89780236,1.78867663 5.68044068,2.16422992 C4.55342956,2.63045995 3.36281425,2.92499629 2.14828778,3.03800351 C1.5288557,3.13796371 1.06498417,3.65926719 1.03743489,4.28605077 C1.00991071,4.91290961 1,7.41891485 1,10.1772042 C1,15.1696943 6.8911534,20 9.83681792,20 C12.7823068,20 17.7747969,16.592697 18.5736756,10.2521743 C18.7734204,6.50783182 18.6860054,4.26106072 18.6860054,4.26106072 Z M9.32512406,13.921647 C9.04707212,14.1854978 8.62532739,14.2267464 8.3016109,14.0215069 L8.13940139,13.8842121 L4.74444287,10.3520342 C4.42740042,10.0073421 4.44973089,9.47083381 4.79434769,9.15379137 C5.13903977,8.83672383 5.67544768,8.85907939 5.99249013,9.2036711 L8.78831471,12.1368908 L14.330059,6.89467578 C14.6747762,6.57760825 15.211159,6.59993872 15.5283269,6.94465588 C15.8453945,7.2892476 15.8229385,7.82575587 15.4782465,8.14282341 L9.32512406,13.921647 Z"
          id="Fill-1" ></path>
</svg>
