<?xml version="1.0" encoding="UTF-8"?>
<svg width="30px" height="30px" viewBox="0 0 30 30" version="1.1" xmlns="http://www.w3.org/2000/svg"
     xmlns:xlink="http://www.w3.org/1999/xlink">
    <title>-mockplus-</title>
    <path d="M0.168599465,20.6960097 C3.29973238,19.0419547 5.49420161,18.212571 6.74665477,18.212571 C7.68867083,18.212571 9.56735058,19.0419547 11.911686,20.1446581 C13.4799286,20.8326695 14.4165923,21.2473614 14.5718109,21.6620532 C14.7270294,21.9400853 14.7270294,23.1794484 13.7903657,23.1794484 C12.8483497,23.1794484 10.0330062,22.0767451 10.0330062,22.0767451 C10.0330062,22.0767451 13.1641392,23.5941403 16.1400535,23.5941403 C18.0187333,23.5941403 20.6788582,23.3161082 24.2809991,22.7647566 C24.5967886,22.7647566 24.9072257,22.9014164 25.0624442,23.1794484 L25.0624442,23.3161082 L24.9072257,23.3161082 C24.9072257,23.8674599 24.5914362,24.2821518 24.1257806,24.5554714 C20.5236396,26.3461862 17.7029438,27.3122297 15.824264,27.4488895 C13.1641392,27.4488895 7.68331847,25.3801427 5.95985727,24.828791 C4.86262266,24.4140992 2.82872435,24.1407795 0.00802854594,23.9994073 L0.00802854594,20.6912973 L0.168599465,20.6912973 L0.168599465,20.6960097 Z"
          id="path-4"></path>
    <path d="M4.86797502,17.5245595 C4.55753791,16.6951758 4.39696699,15.7338447 4.39696699,14.7678012 C4.39696699,10.7716797 7.2176628,6.90750567 11.1302409,5.39011049 C10.0330062,4.56072679 9.25156111,3.32136364 9.25156111,2.35532012 C9.25156111,0.42323309 11.7564674,0.0132536458 14.7323818,0.0132536458 C17.7082962,0.0132536458 20.2132025,0.427945497 20.2132025,2.35532012 C20.2132025,3.45802346 19.4317574,4.56072679 18.3345227,5.39011049 C22.2471008,6.90750567 25.0677966,10.7669673 25.0677966,14.7678012 C25.0677966,17.9392514 23.1891169,20.8326695 20.3684211,22.3500647 C18.6449599,22.4867245 17.2372881,22.6280968 16.1400535,22.6280968 L15.5138269,22.6280968 C15.6690455,22.0767451 15.5138269,21.5253934 15.3586084,21.2473614 C15.2033898,20.8326695 14.7323818,20.5593499 14.1061552,20.2813179 C13.6351472,20.0079982 13.0089206,19.7299662 12.2274755,19.3152744 C11.911686,19.1786145 11.7564674,19.0372423 11.2854594,18.9005825 C11.2854594,18.9005825 10.6592328,18.6225505 10.5040143,18.4858907 C9.87778769,18.2078586 9.40677966,18.0711988 9.09634255,17.7978792 C7.99910794,17.3831873 7.2176628,17.1098677 6.59143622,17.1098677 C6.27564674,17.2465275 5.64942016,17.3831873 4.86797502,17.5245595 Z M15.6690455,14.4897692 L15.6690455,13.3870658 L18.3291704,13.3870658 C18.8001784,13.3870658 19.1106155,13.1090338 19.1106155,12.6990544 C19.1106155,12.2843625 18.794826,12.0110429 18.3291704,12.0110429 L16.4504906,12.0110429 L18.1739518,10.4936477 C18.4897413,10.2156157 18.4897413,9.80563622 18.1739518,9.52760419 C17.8581624,9.24957215 17.3925067,9.24957215 17.0767172,9.52760419 L15.2033898,11.1816592 C15.0481713,11.318319 15.0481713,11.4596912 15.0481713,11.596351 C15.0481713,11.4596912 14.8929527,11.318319 14.8929527,11.1816592 L12.6984835,9.52760419 C12.382694,9.24957215 11.9170384,9.24957215 11.6012489,9.52760419 C11.2854594,9.80563622 11.2854594,10.2156157 11.6012489,10.4936477 L13.3247101,12.0110429 L11.4460303,12.0110429 C10.9750223,12.0110429 10.6645852,12.2843625 10.6645852,12.6990544 C10.6645852,13.1137462 10.9803747,13.3870658 11.4460303,13.3870658 L14.1061552,13.3870658 L14.1061552,14.4897692 L11.4460303,14.4897692 C10.9750223,14.4897692 10.6645852,14.7678012 10.6645852,15.1777807 C10.6645852,15.5877601 10.9803747,15.8657921 11.4460303,15.8657921 L14.1061552,15.8657921 L14.1061552,17.5198471 C14.1061552,17.934539 14.4219447,18.2078586 14.8876004,18.2078586 C15.3586084,18.2078586 15.6690455,17.9298266 15.6690455,17.5198471 L15.6690455,15.8657921 L18.3291704,15.8657921 C18.8001784,15.8657921 19.1106155,15.5877601 19.1106155,15.1777807 C19.1106155,14.7678012 18.794826,14.4897692 18.3291704,14.4897692 L15.6690455,14.4897692 Z"
          id="path-8"></path>
</svg>
