<?xml version="1.0" encoding="UTF-8"?>
<svg width="30px" height="29px" viewBox="0 0 30 29" version="1.1" xmlns="http://www.w3.org/2000/svg" xmlns:xlink="http://www.w3.org/1999/xlink">
    <title>佣金报表</title>
    <g id="页面-1" stroke="none" stroke-width="1">
        <g id="佣金报表">
            <path d="M13.9655632,1.79510877 C14.2653442,1.79106631 14.5542938,1.90729955 14.7676174,2.11796492 C14.980941,2.3286303 15.1007881,2.61609967 15.1002842,2.91591063 L15.1002842,2.91591063 L15.1126565,13.8601356 C15.1136288,14.329261 15.4936881,14.7093203 15.9628135,14.7102926 L15.9628135,14.7102926 L26.9070385,14.7226649 C27.206998,14.7216781 27.4947503,14.8413716 27.7055209,15.0548018 C27.9162915,15.2682319 28.0323675,15.5574625 28.0278919,15.857386 C28.0120661,18.7640436 27.0218922,21.581465 25.2155619,23.8587597 C24.3447692,24.9547233 23.3062303,25.9061704 22.1383823,26.6778874 C20.9500035,27.4650157 19.6448771,28.0597191 18.2711401,28.4400632 C17.0480451,28.782954 15.7966706,28.9526325 14.5541334,28.9526325 C13.3188914,28.9529104 12.0895139,28.7828079 10.900756,28.4471331 C8.63439976,27.7986348 6.57131671,26.5818356 4.90723747,24.9121767 C3.23857349,23.2473256 2.02193629,21.1845172 1.37228108,18.9186582 C0.695285108,16.5092022 0.698955784,13.959306 1.38288595,11.5518091 C1.76397866,10.1783444 2.3586302,8.87333182 3.1450617,7.68456679 C3.91626182,6.51631544 4.86777886,5.47770029 5.96418941,4.60738726 C8.24188545,2.80178421 11.0590475,1.81170143 13.9655632,1.79510877 Z M17.5888935,0.672975122 C22.2358542,0.669726972 26.4324084,3.45118022 28.2397171,7.73228871 C28.8406596,9.15864361 29.1482008,10.671605 29.1482008,12.2340557 C29.1482008,12.7761063 28.7093002,13.2157986 28.1672504,13.2167735 L28.1672504,13.2167735 L17.5888935,13.229146 C17.3293059,13.229146 17.0804648,13.1254996 16.8978095,12.9410469 C16.7139918,12.7589967 16.6097074,12.5097823 16.6097074,12.2481955 L16.6097074,12.2481955 L16.6097074,1.65393122 C16.6092412,1.39392966 16.7121976,1.14441634 16.8958809,0.960401474 C17.0795643,0.776386604 17.3288915,0.672975122 17.5888935,0.672975122 Z" id="path-4"></path>
        </g>
    </g>
</svg>
