<?xml version="1.0" encoding="UTF-8"?>
<svg width="20px" height="20px" viewBox="0 0 20 20" version="1.1" xmlns="http://www.w3.org/2000/svg"
     xmlns:xlink="http://www.w3.org/1999/xlink">
    <title>编组 2</title>
    <path d="M16.7142857,1.42857143 L13.8571429,1.42857143 L13.8571429,0.714285714 C13.8571429,0.32 13.5371429,0 13.1428571,0 C12.7485714,0 12.4285714,0.32 12.4285714,0.714285714 L12.4285714,1.42857143 L8.14285714,1.42857143 L8.14285714,0.714285714 C8.14285714,0.32 7.82285714,0 7.42857143,0 C7.03428571,0 6.71428571,0.32 6.71428571,0.714285714 L6.71428571,1.42857143 L3.85714286,1.42857143 C2.28,1.42857143 1,2.70857143 1,4.28571429 L1,17.1428571 C1,18.72 2.28,20 3.85714286,20 L16.7142857,20 C18.2914286,20 19.5714286,18.72 19.5714286,17.1428571 L19.5714286,4.28571429 C19.5714286,2.70857143 18.2928571,1.42857143 16.7142857,1.42857143 Z M14.5714286,15.7142857 L6,15.7142857 C5.60571429,15.7142857 5.28571429,15.3942857 5.28571429,15 C5.28571429,14.6057143 5.60571429,14.2857143 6,14.2857143 L14.5714286,14.2857143 C14.9657143,14.2857143 15.2857143,14.6057143 15.2857143,15 C15.2857143,15.3942857 14.9671429,15.7142857 14.5714286,15.7142857 Z M14.5714286,11.4285714 L6,11.4285714 C5.60571429,11.4285714 5.28571429,11.1085714 5.28571429,10.7142857 C5.28571429,10.32 5.60571429,10 6,10 L14.5714286,10 C14.9657143,10 15.2857143,10.32 15.2857143,10.7142857 C15.2857143,11.1085714 14.9671429,11.4285714 14.5714286,11.4285714 Z M14.5714286,7.14285714 L6,7.14285714 C5.60571429,7.14285714 5.28571429,6.82285714 5.28571429,6.42857143 C5.28571429,6.03428571 5.60571429,5.71428571 6,5.71428571 L14.5714286,5.71428571 C14.9657143,5.71428571 15.2857143,6.03428571 15.2857143,6.42857143 C15.2857143,6.82285714 14.9671429,7.14285714 14.5714286,7.14285714 Z"
          id="形状"></path>
</svg>
