<?xml version="1.0" encoding="UTF-8"?>
<svg width="19px" height="17px" viewBox="0 0 19 17" version="1.1" xmlns="http://www.w3.org/2000/svg" xmlns:xlink="http://www.w3.org/1999/xlink">
    <title>优惠</title>
    <path d="M11.0500392,5.14285968 L11.0500392,5.14285968 C11.4021213,5.15583909 11.6771068,5.45417817 11.6642359,5.80921803 C11.6520248,6.14604618 11.3840613,6.41626115 11.0500392,6.42857439 L5.95002062,6.42857439 L5.95002063,6.42857439 C5.59793848,6.415595 5.32295299,6.1172559 5.33582389,5.76221605 C5.34803495,5.42538789 5.61599846,5.15517292 5.95002063,5.14285968 L11.0500392,5.14285968 L11.0500392,5.14285968 Z M11.0500392,8.57142419 L11.0500392,8.57142419 C11.4021213,8.58440359 11.6771068,8.88274268 11.6642359,9.23778253 C11.6520248,9.57461069 11.3840613,9.84482565 11.0500392,9.8571389 L5.95002062,9.8571389 L5.95002063,9.8571389 C5.59793848,9.84415951 5.32295299,9.54582041 5.33582389,9.19078055 C5.34803495,8.8539524 5.61599846,8.58373743 5.95002063,8.57142419 L11.0500392,8.57142419 L11.0500392,8.57142419 Z M0.637078956,6 L0.637078986,6 C0.285094151,5.99952694 0,5.71165717 0,5.35671394 L0,2.35671245 L0,2.35675689 C0.000448689419,1.05537586 1.04650004,0.000498206203 2.33703675,0 L14.6620679,0 L14.6620679,0 C15.95294,0 16.9995359,1.05499693 17,2.3567116 L17,5.35671309 L17,5.35671309 C17,5.71198998 16.7143908,6 16.3620721,6 L16.3620722,6 C15.5405472,5.98017543 14.8586304,6.63567786 14.8389729,7.4641042 C14.8193136,8.29253053 15.4693552,8.98017587 16.2908803,9 C16.3146065,9.00057098 16.338343,9.00057101 16.3620692,9 C16.7146754,9 17,9.28771714 17,9.64242637 L17,12.6424279 L17,12.6424279 C17,13.9444792 15.9532694,15 14.662065,15 L2.33793217,15 L2.33793207,15 C1.04672764,15 0,13.9444792 0,12.6424279 C0,12.6424279 0,12.6424279 0,12.6424279 L0,9.64242637 C0,9.28771714 0.285321733,9 0.63707601,9 L0.637075975,9 C1.45860099,9.01982306 2.14051781,8.36432063 2.16017524,7.53589429 C2.17983462,6.70746796 1.52979294,6.01982262 0.708267922,6 C0.684541715,5.99942751 0.660805177,5.99942748 0.637078969,6 L0.637078956,6 Z M3.40001881,7.49957128 L3.40001881,7.49945213 C3.40001881,8.79048859 2.52073268,9.91252142 1.27501109,10.210962 L1.27501109,12.6423895 C1.27501109,13.2350027 1.75038137,13.7142469 2.33720591,13.7142469 L14.662237,13.7142469 C15.2499135,13.7142469 15.7251652,13.2341437 15.7251652,12.6423895 L15.7251652,10.210962 L15.7251652,10.210962 C14.2401619,9.85493326 13.3225415,8.352366 13.6756118,6.85489402 C13.917018,5.83099724 14.7098039,5.0315499 15.7251652,4.78812333 L15.7251652,2.35754134 C15.7251652,1.76492808 15.2490613,1.28568391 14.6622368,1.28568391 L2.33793927,1.28568391 C1.75026286,1.28568391 1.27501109,1.76492808 1.27501109,2.35668231 L1.27501109,4.78810975 L1.27501109,4.78810976 C2.52063817,5.08650206 3.3999752,6.20851376 3.40002012,7.49955927 L3.40001881,7.49957128 Z" id="形状"></path>
</svg>
