<?xml version="1.0" encoding="UTF-8"?>
<svg width="18px" height="18px" viewBox="0 0 18 18" version="1.1" xmlns="http://www.w3.org/2000/svg"
     xmlns:xlink="http://www.w3.org/1999/xlink">
    <title>将被</title>
    <path d="M3.04615905,10.00001 L2.86154385,10.00001 C1.20000645,9.54546543 0,8.00001001 0,6.18182955 L0,4.5454665 C0,3.27273293 1.01538325,2.27273293 2.30769805,2.27273293 L3.13846675,2.27273293 C3.50769801,2.27273293 3.8769271,2.5454601 3.8769271,3.00000469 C3.8769271,3.45454927 3.41538965,3.63636881 3.0461584,3.63636881 L2.21538969,3.63636881 C1.75385225,3.63636881 1.29231264,4.09091339 1.29231264,4.5454601 L1.29231264,6.18182316 C1.29231264,7.36364163 2.03077299,8.36364057 3.13846459,8.63636774 C3.50769584,8.72727687 3.69231039,9.09091233 3.60000203,9.45454927 C3.60000203,9.72727645 3.32307913,10.00001 3.04615623,10.00001 L3.04615905,10.00001 Z M14.9538438,9.90910941 C14.6769209,9.90910941 14.399998,9.72728284 14.3076896,9.36364653 C14.2153819,9.00000959 14.3999973,8.63637477 14.7692271,8.54546501 C15.8769187,8.27273783 16.615379,7.27273889 16.615379,6.09092042 L16.615379,4.54546714 C16.615379,4.00001278 16.2461478,3.63637584 15.692302,3.63637584 L14.8615332,3.63637584 C14.492302,3.63637584 14.1230729,3.36364866 14.1230729,2.90910408 C14.1230729,2.4545595 14.3999958,2.18183232 14.8615332,2.18183232 L15.692302,2.18183232 C16.9846081,2.18183232 18,3.18183232 18,4.45456589 L18,6.09092894 C18,7.81820177 16.8,9.45457122 15.1384561,9.90910941 L14.953841,9.90910941 L14.9538438,9.90910941 Z M8.9538548,14.5454629 C5.35385709,14.5454629 2.49231324,11.727275 2.49231324,8.18182167 L2.49231324,1.81818046 C2.49231324,0.818181528 3.32308195,0 4.33846519,0 L13.5692358,0 C14.584619,0 15.4153877,0.818181528 15.4153877,1.81818046 L15.4153877,8.18182167 C15.4153877,11.727275 12.5538439,14.5454629 8.95384615,14.5454629 L8.9538548,14.5454629 Z M4.33848034,1.36364227 C4.06155744,1.36364227 3.87694289,1.54546032 3.87694289,1.81818685 L3.87694289,8.18182806 C3.87694289,10.9090998 6.18464094,13.1818334 8.95386995,13.1818334 C11.723099,13.1818334 14.030797,10.9090998 14.030797,8.18182806 L14.030797,1.81818685 C14.030797,1.54545968 13.8461818,1.36364227 13.5692596,1.36364227 L4.33848899,1.36364227 L4.33848034,1.36364227 Z M8.9538548,18 C8.58462355,18 8.21539445,17.7272728 8.21539445,17.2727282 L8.21539445,14.5454565 C8.21539445,14.1818195 8.49231735,13.8181847 8.9538548,13.8181847 C9.41539225,13.8181847 9.69231515,14.0909119 9.69231515,14.5454565 L9.69231515,17.2727282 C9.69231515,17.6363652 9.32308389,18 8.9538548,18 L8.9538548,18 Z M13.5692293,18 L4.3384587,18 C3.96922745,18 3.59999836,17.7272728 3.59999836,17.2727282 C3.59999836,16.8181837 3.87692126,16.5454565 4.3384587,16.5454565 L13.5692293,16.5454565 C13.9384605,16.5454565 14.3076896,16.8181837 14.3076896,17.2727282 C14.3076896,17.7272728 13.9384584,18 13.5692293,18 Z"
          id="形状"></path>
</svg>
