<?xml version="1.0" encoding="UTF-8"?>
<svg width="20px" height="20px" viewBox="0 0 20 20" version="1.1" xmlns="http://www.w3.org/2000/svg"
     xmlns:xlink="http://www.w3.org/1999/xlink">
    <title>形状</title>
    <path d="M10,0 C4.47999768,0 0,4.47999768 0,10 C0,15.5200023 4.47999768,20 10,20 C15.5200023,20 20,15.5200023 20,10 C20,4.47999768 15.5200023,0 10,0 Z M11.4100016,16.0900128 L11.4100016,18.0000154 L8.73999401,18.0000154 L8.73999401,16.0700115 C7.02999334,15.7100103 5.57998513,14.6100113 5.46998445,12.6700134 L7.42998948,12.6700134 C7.52998948,13.7200139 8.24999083,14.5400153 10.07999,14.5400153 C12.039995,14.5400153 12.4799977,13.5600147 12.4799977,12.950015 C12.4799977,12.1200139 12.0399969,11.3400133 9.80999005,10.8100229 C7.32999237,10.2100229 5.62998368,9.19002153 5.62998368,7.14002491 C5.62998368,5.42002453 7.01998397,4.30001448 8.73999401,3.93001748 L8.73999401,2.00001545 L11.4100016,2.00001545 L11.4100016,3.9500169 C13.2700018,4.40001738 14.1999942,5.81001709 14.2599963,7.34001139 L12.2999913,7.34001139 C12.2499912,6.23001072 11.6599905,5.47000956 10.07999,5.47000956 C8.57998899,5.47000956 7.67998223,6.15000917 7.67998223,7.11001033 C7.67998223,7.9500111 8.32998272,8.50001545 10.3499899,9.02001101 C12.369997,9.54001139 14.5299962,10.4100113 14.5299962,12.9300175 C14.5199962,14.7600185 13.1499957,15.7600243 11.4100016,16.0900264 L11.4100016,16.0900128 Z"
          id="形状"></path>
</svg>
