<?xml version="1.0" encoding="UTF-8"?>
<svg width="44px" height="44px" viewBox="0 0 44 44" version="1.1" xmlns="http://www.w3.org/2000/svg" xmlns:xlink="http://www.w3.org/1999/xlink">
    <title>-mockplus-</title>
    <g id="一级页面" stroke="none" stroke-width="1" fill="none" fill-rule="evenodd">
        <g id="我的-已登录备份-3" transform="translate(-166.000000, -568.000000)" fill-rule="nonzero">
            <g id="编组-3" transform="translate(15.000000, 335.000000)">
                <g id="-mockplus-" transform="translate(151.000000, 233.000000)">
                    <g id="订阅" transform="translate(11.000000, 10.000000)">
                        <path d="M3.37198777,24 C2.70189602,24 2.03449541,23.8014311 1.46666667,23.4123435 C0.548990826,22.7844365 0,21.745975 0,20.6350626 L0,3.36493739 C0,1.51073345 1.5124159,0 3.3746789,0 L18.6253211,0 C20.484893,0 22,1.50805009 22,3.36493739 L22,20.6350626 C22,21.745975 21.4510092,22.7844365 20.5333333,23.4096601 C19.6156575,24.0375671 18.4450153,24.1717352 17.4062385,23.7692308 L11.3511927,21.4239714 C11.1251376,21.3354204 10.8775535,21.3354204 10.6514985,21.4239714 L4.5964526,23.7692308 C4.19816514,23.9248658 3.78373089,24 3.37198777,24 Z" id="形状" fill="#24C29A"></path>
                        <path d="M14.8032129,11 L7.19678715,11 C6.53547523,11 6,10.5525727 6,10 C6,9.44742729 6.53547523,9 7.19678715,9 L14.8032129,9 C15.4645248,9 16,9.44742729 16,10 C16,10.5525727 15.4645248,11 14.8032129,11 Z" id="路径" fill="#000000"></path>
                        <path d="M11,15 C10.4474273,15 10,14.4646681 10,13.8035332 L10,6.19646681 C10,5.53533191 10.4474273,5 11,5 C11.5525727,5 12,5.53533191 12,6.19646681 L12,13.8008565 C12,14.4619914 11.5525727,15 11,15 Z" id="路径" fill="#000000"></path>
                    </g>
                </g>
            </g>
        </g>
    </g>
</svg>