<?xml version="1.0" encoding="UTF-8"?>
<svg width="22px" height="22px" viewBox="0 0 22 22" version="1.1" xmlns="http://www.w3.org/2000/svg"
     xmlns:xlink="http://www.w3.org/1999/xlink">
    <title>编组 11</title>
    <path d="M2.08417044,13.697423 C2.08417044,15.5488275 4.2720595,16.8109897 7.47004314,17.1476714 C8.81637572,17.4844025 9.32144767,17.4844025 10.2471253,17.3160123 C10.7519507,18.1575688 11.3411931,19.0832464 12.0143594,19.8406325 L12.0143594,19.8406325 L11.761848,19.8406325 C10.8361211,20.0089733 9.91044352,20.0931438 7.55421359,19.8406325 C4.44040038,19.4199282 2.08417044,17.9050575 2,16.2219938 L2,16.2219938 L2,16.053653 L2.08417044,16.053653 Z M15.7171684,9.74210264 C18.5782238,9.74210264 20.7663101,11.9301889 20.7663101,14.7914415 C20.7663101,17.568573 18.4942506,19.8406325 15.7171684,19.8406325 C12.940037,19.8406325 10.6677802,17.568573 10.6677802,14.7914415 C10.6677802,12.0143594 12.940037,9.74210264 15.7171684,9.74210264 Z M2.08417044,9.06893635 C2.08417044,11.1728522 5.11361597,12.6033552 9.15310679,12.8558665 C9.6579322,13.0242074 9.6579322,12.8558665 9.91044352,13.0242074 C9.82627308,13.5290821 9.6579322,14.2864189 9.6579322,14.7914415 C9.6579322,15.127926 9.82627308,15.4646571 9.82627308,15.8013389 C9.32144767,15.8853121 8.64803484,15.8013389 7.80652767,15.632998 C4.60874126,14.9595852 2.25251132,13.5290821 2.16834088,11.5935072 L2.16834088,11.5935072 L2.16834088,11.4251663 L2.08417044,11.4251663 Z M10.2471253,2 C14.6231006,2 18.2417392,4.01974541 18.4942506,6.2918049 C18.4942506,6.2918049 18.6623942,7.72255447 17.7367166,8.98476591 C17.1476714,8.90054616 16.5586756,8.73220528 15.8853121,8.73220528 C13.7815935,8.73220528 11.9301889,9.91044352 10.9202916,11.5935072 L10.9202916,11.5935072 L10.8361211,11.761848 L10.1629548,11.761848 C5.87114994,11.761848 2.33648453,9.91044352 2.33648453,7.72255447 L2.33648453,7.72255447 L2.33648453,6.12346402 C2.33648453,3.85140453 5.87114994,2 10.2471253,2 Z"
          id="形状结合"></path>
</svg>
