<?xml version="1.0" encoding="UTF-8"?>
<svg width="56px" height="48px" viewBox="0 0 56 48" version="1.1" xmlns="http://www.w3.org/2000/svg"
     xmlns:xlink="http://www.w3.org/1999/xlink">
    <title>暂无内容</title>
    <path d="M48.743396,17.0373745 C49.3327848,18.1404739 48.0376477,15.086499 45.7444919,15.086499 C45.7444919,15.086499 11.5909658,15.1000533 10.2684865,15.1000533 C8.94599799,15.1000533 8.0244833,15.7620873 7.25629717,16.9765383 C6.4881064,18.1909892 0,28.2817042 0,30.4193437 L0,44.129852 C0,46.2672572 1.72932406,48 3.86227622,48 L52.1381142,48 C54.270992,48 56,46.2672572 56,44.129852 L56,30.4193437 C56,28.2816245 48.7436099,17.037382 48.7436099,17.037382 C48.7436099,17.037382 47.7012824,15.086499 48.7436099,17.037382 L48.743396,17.0373745 Z M36.0713488,29.3615555 L36.0713488,29.3618707 C34.8577963,29.3618707 34.4049366,30.1756813 34.2371514,30.7130466 C34.2416058,30.8111578 34.2518431,30.9077713 34.2518431,31.0070647 C34.2518431,34.5034457 31.4409588,37.3378583 27.9738087,37.3378583 C24.5064866,37.3378583 21.6957743,34.5033519 21.6957743,31.0070647 C21.6957743,30.8800326 21.7073401,30.7559161 21.7146078,30.6307754 C21.2690894,29.3664401 19.9287077,29.3615557 19.9287077,29.3615557 L3.34621251,29.3615557 L8.96156629,18.9270456 C8.96156629,18.9270456 9.99271893,17.056631 11.4407895,17.1128153 C11.4407895,17.1128153 43.7223916,17.1128153 44.8878468,17.1128153 C46.0533345,17.1128153 46.2508139,17.536545 47.0953552,18.9270456 L52.8025155,29.3615557 L36.071317,29.3615557 L36.071317,29.3615557 L36.0713488,29.3615555 Z M15.9114195,9.72286275 C15.9114195,9.72286275 15.9114976,9.72294155 15.9114195,9.72286275 L11.6444181,5.63860397 C11.1867873,5.20061076 11.1679537,4.47143584 11.6023748,4.00996108 C12.0367179,3.5485632 12.7598161,3.52957227 13.217366,3.96748565 C13.217366,3.96748565 13.217366,3.96748565 13.217366,3.96748565 L17.4844464,8.05174443 C17.9419991,8.48973764 17.9609108,9.21891257 17.5264897,9.68038732 C17.0921466,10.141864 16.3690484,10.1608558 15.9114195,9.72286275 L15.9114195,9.72286275 Z M27.668748,7.91825121 C27.4566563,7.71525162 27.3213831,7.43077021 27.3130992,7.11263913 L27.1598524,1.18206414 C27.1434414,0.546036347 27.6413976,0.0170241261 28.2720458,0.000397572357 C28.9026941,-0.0161513095 29.4274557,0.485989504 29.4438647,1.12201729 L29.59719,7.05259229 C29.613601,7.68862008 29.1156449,8.2176323 28.4849966,8.23425885 C28.1695939,8.24261211 27.8807607,8.12117485 27.6687457,7.91825449 L27.6687457,7.91825449 L27.668748,7.91825121 Z M38.7322049,9.50915037 C38.2746522,9.07115716 38.2557405,8.34198223 38.6900835,7.88050748 L42.7403051,3.57756756 C43.1747263,3.11616968 43.8978254,3.09717875 44.3552963,3.53517097 C44.8129272,3.97316418 44.8318398,4.70233911 44.3974959,5.16373417 L40.3472743,9.46667409 C39.9129312,9.92815072 39.189833,9.94714259 38.732204,9.50914947 L38.732204,9.50914947 L38.7322049,9.50915037 Z"
          id="形状"></path>
</svg>
