<?xml version="1.0" encoding="UTF-8"?>
<svg width="22px" height="21px" viewBox="0 0 22 21" version="1.1" xmlns="http://www.w3.org/2000/svg"
     xmlns:xlink="http://www.w3.org/1999/xlink">
    <title>优惠</title>
    <path d="M16.91544,21 L16.91544,21 C16.6527921,20.9904144 16.3955172,20.9232434 16.1621246,20.8031787 L11.0065745,18.2419893 L5.81145446,20.8031787 L5.81145446,20.8031787 C5.27905796,21.0817692 4.6336652,21.0360262 4.14646143,20.6851706 L4.14646156,20.6851707 C3.65437399,20.3196943 3.40939944,19.7114257 3.51189738,19.1095558 L4.58305212,13.5937963 L0.497542088,9.80990878 L0.497542252,9.80990894 C0.0682381809,9.37375284 -0.0988101886,8.74554137 0.0576490382,8.15562203 L0.0576490093,8.15562212 C0.237264606,7.56392261 0.749520471,7.13194622 1.36632668,7.05203953 L7.0398572,6.02712899 L9.57912534,0.905816675 L9.57912532,0.905816713 C9.84548251,0.360042722 10.3983844,0.00973061956 11.0087834,0 L11.0087835,0 C11.6222973,-0.000754475415 12.1803245,0.352809241 12.4384209,0.905816713 L14.9766157,6.028216 L20.6468436,7.01161658 L20.6468437,7.0116166 C21.254194,7.09364143 21.7536279,7.52794394 21.9159308,8.11519919 L21.9159308,8.11519922 C22.1123724,8.69670992 21.9583274,9.33860901 21.5189308,9.76948613 L17.4345148,13.5937967 L18.4660789,19.1095562 L18.466079,19.1095565 C18.5763254,19.7122221 18.3297765,20.3244202 17.8315355,20.6851714 L17.8315355,20.6851713 C17.5742234,20.8931211 17.2514878,21.0045191 16.9198371,21 L16.91544,21 Z"
          id="路径"></path>
</svg>
