<?xml version="1.0" encoding="UTF-8"?>
<svg width="300px" height="92px" viewBox="0 0 300 92" version="1.1" xmlns="http://www.w3.org/2000/svg" xmlns:xlink="http://www.w3.org/1999/xlink">
    <title>形状结合</title>
    <defs>
        <linearGradient x1="100%" y1="50%" x2="0%" y2="50%" id="linearGradient-1">
            <stop stop-color="#48F5C7" offset="0%"></stop>
            <stop stop-color="#24C29A" offset="100%"></stop>
        </linearGradient>
    </defs>
    <g id="一级页面" stroke="none" stroke-width="1" fill="none" fill-rule="evenodd">
        <g id="首页备份-7" transform="translate(-16.000000, -885.000000)" fill="url(#linearGradient-1)">
            <g id="编组-15" transform="translate(16.000000, 885.000000)">
                <path d="M300.000796,0 L300,42.0117325 C294.433557,42.2731099 290.000796,46.8688916 290.000796,52.5 C290.000796,58.1311084 294.433557,62.7268901 300,62.9882675 L300.000796,92 L0.000796290596,92 L-0.000768461157,62.9882314 C0.165438168,62.9960479 0.332655694,63 0.500796291,63 C6.29978616,63 11.0007963,58.2989899 11.0007963,52.5 C11.0007963,46.7010101 6.29978616,42 0.500796291,42 C0.332655694,42 0.165438168,42.0039521 -0.000768461157,42.0117686 L0.000796290596,0 L300.000796,0 Z" id="形状结合"></path>
            </g>
        </g>
    </g>
</svg>