<?xml version="1.0" encoding="UTF-8"?>
<svg width="17px" height="17px" viewBox="0 0 17 17" version="1.1" xmlns="http://www.w3.org/2000/svg"
     xmlns:xlink="http://www.w3.org/1999/xlink">
    <title>download-icon</title>
    <path d="M8.5,0 C3.82519101,0 0,3.825 0,8.5 C0,13.175 3.825,17 8.5,17 C13.175,17 17,13.175 17,8.5 C17,3.825 13.175,0 8.5,0 Z M11.9613146,9.89648315 L8.92576404,12.6279438 C8.68279775,12.8707191 8.31853933,12.8707191 8.07576404,12.6279438 L5.03983146,9.95703371 C4.43279775,9.41074157 5.34353933,8.56074157 5.89002247,9.10722472 L7.89353933,10.8677753 L7.89353933,4.73631461 C7.89353933,3.94686517 9.10779775,3.94686517 9.10779775,4.73631461 L9.10779775,10.8677753 L11.1113146,9.04648315 C11.6577978,8.5 12.5077978,9.35 11.9613146,9.89648315 Z"
          id="形状"></path>
</svg>
