<?xml version="1.0" encoding="UTF-8"?>
<svg width="14px" height="14px" viewBox="0 0 14 14" version="1.1" xmlns="http://www.w3.org/2000/svg" xmlns:xlink="http://www.w3.org/1999/xlink">
    <title>编组 2</title>
    <g id="一级页面" stroke="none" stroke-width="1" fill="none" fill-rule="evenodd">
        <g id="额度转换-泰语" transform="translate(-178.000000, -589.000000)">
            <g id="编组-2" transform="translate(178.000000, 589.000000)">
                <path d="M4.49107626,12.5160841 C4.79615032,12.8580657 4.79615032,13.4018729 4.49107626,13.7439399 C4.34552229,13.9075372 4.14516459,13.9999347 3.93584973,13.9999347 C3.72661343,13.9999347 3.52627538,13.9075372 3.38070177,13.7439399 L0.288868229,10.3004263 C0.21850732,10.2353378 0.158969656,10.1575351 0.113005243,10.0703089 C-0.0729149131,9.72832727 -0.0258701403,9.29328583 0.227935918,9.00756751 C0.374648823,8.84187611 0.577383311,8.74879489 0.788839252,8.74995916 L13.216045,8.74995916 C13.6505069,8.74995916 13.9999347,9.14379175 13.9999347,9.62524559 C13.9999347,10.1091141 13.6505069,10.5004356 13.216045,10.5004356 L2.68078555,10.5004356 L4.49107626,12.5160841 Z" id="路径" class="exchange-arrow-bot"></path>
                <path d="M9.51610009,1.48289216 C9.2113857,1.14107063 9.2113857,0.597653842 9.51610009,0.255917728 C9.66150207,0.0923524551 9.86160393,-1.67865721e-13 10.0705935,-1.67865721e-13 C10.2796616,-1.67865721e-13 10.4797831,0.0923524551 10.6251655,0.255917728 L13.7718992,3.76309029 C14.0759465,4.10474099 14.0759465,4.6472396 13.7718992,4.98880489 C13.6604786,5.11401987 13.5160772,5.19834353 13.3585895,5.23003164 C13.3047136,5.24305707 13.2496802,5.24980467 13.194431,5.2499755 L0.783014517,5.2499755 C0.572651526,5.24705011 0.371921834,5.15322429 0.225087603,4.98914654 C0.0782337521,4.8251542 -0.00269772872,4.60436244 -1.43884904e-13,4.37532835 C-1.43884904e-13,3.89178584 0.349084441,3.50076661 0.783014517,3.50076661 L11.3265716,3.50076661 L9.51610009,1.48163232 L9.51610009,1.48289216 Z" id="路径" class="exchange-arrow-top"></path>
            </g>
        </g>
    </g>
</svg>
