<?xml version="1.0" encoding="UTF-8"?>
<svg width="16px" height="15px" viewBox="0 0 16 15" version="1.1" xmlns="http://www.w3.org/2000/svg" xmlns:xlink="http://www.w3.org/1999/xlink">
    <title>筛选</title>
    <g id="一级页面" stroke="none" stroke-width="1" fill="none" fill-rule="evenodd">
        <g id="注单备份" transform="translate(-344.000000, -53.000000)" fill="#404040" fill-rule="nonzero">
            <g id="筛选" transform="translate(344.000000, 53.000000)">
                <path d="M13.7776096,3.54407121 C13.869878,3.45401324 13.9735702,3.35240189 14.0409377,3.23638745 C14.5456587,2.62340615 14.6059543,1.6955653 14.1824463,1.02219057 C13.7558148,0.343923247 13.1234131,2.66453526e-15 12.3029826,2.66453526e-15 L2.14882838,2.66453526e-15 C1.95206054,2.66453526e-15 1.74872968,2.66453526e-15 1.57166845,0.0546253256 C1.13812289,0.157215189 0.741481177,0.407887409 0.454024293,0.761149492 C0.161215212,1.12081486 -3.55271368e-15,1.5654396 -3.55271368e-15,2.0130514 C-3.55271368e-15,2.59389612 0.2262488,3.10866513 0.637297579,3.46323191 C1.94297058,4.69671365 3.2465378,5.9714648 4.50790162,7.20551305 L4.50790162,11.2784474 L4.5100776,11.3127298 C4.57863837,11.8489919 4.99507444,12.1419292 5.49912862,11.9301574 L5.50790272,11.9261231 C5.78061912,11.7927872 5.93695594,11.5242613 5.93695594,11.1893679 L5.93695594,7.00213586 C5.93695594,6.71949872 5.84791643,6.48901487 5.67222396,6.31713908 C5.04217378,5.70069005 4.42138905,5.06010425 3.82115325,4.44051366 C3.20229881,3.80173039 2.56231636,3.14121372 1.89343204,2.48686001 L1.86066957,2.45448308 L1.82118615,2.43542774 C1.81188561,2.42917896 1.79135423,2.40298215 1.77577143,2.38296545 C1.75866195,2.36128356 1.74199117,2.34076902 1.72447808,2.32205701 C1.6089759,2.17728788 1.58461901,2.05425215 1.6385446,1.8882303 C1.73230457,1.68064719 1.92031587,1.44242103 2.14874064,1.44242103 L12.39397,1.44242103 C12.5187201,1.44242103 12.6389954,1.50834223 12.7325623,1.62815057 C12.8539431,1.78364907 12.8990946,1.9892408 12.8491525,2.16872156 C12.8237076,2.26801536 12.7813463,2.31299285 12.6533849,2.43841479 C11.2426158,3.77390272 9.8950728,5.09206916 8.46845768,6.48762434 L8.46087686,6.49512631 C8.31633243,6.63635904 8.15048449,6.84195078 8.15048449,7.18020892 L8.15048449,14.2185328 C8.15048449,14.3050543 8.15048449,14.5488769 8.33266979,14.744014 C8.33266979,14.744014 8.38799923,14.8662085 8.62654931,14.9549446 C8.92135889,15.0645558 9.20934222,14.9397004 9.20934222,14.9397004 L9.28455376,14.884663 C9.57953881,14.6681188 9.57953881,14.3308563 9.57953881,14.1292988 L9.57953881,7.4728029 C10.284976,6.78435557 11.0159458,6.11467173 11.7233133,5.4666698 C12.4436665,4.80697715 13.1239045,4.18367849 13.7776272,3.54407121 L13.7776096,3.54407121 Z M15.3537879,12.5616103 L11.4832541,12.5616103 C11.0788912,12.5616103 10.8372175,12.8830448 10.8372175,13.1938702 L10.8372175,13.3722007 C10.8372175,13.7678996 11.1656319,14.0042889 11.4832541,14.0042889 L15.3537879,14.0042889 C15.7583439,14.0042889 16,13.682923 16,13.3721836 L16,13.1938358 C16,12.815716 15.7403219,12.561576 15.3537879,12.561576 L15.3537879,12.5616103 Z M15.3537879,10.2899556 L11.4832541,10.2899556 C11.0788912,10.2899556 10.8372175,10.6114072 10.8372175,10.9222154 L10.8372175,11.0556372 C10.8372175,11.4514905 11.1656319,11.6879656 11.4832541,11.6879656 L15.3537879,11.6879656 C15.7583439,11.6879656 16,11.3665311 16,11.0556372 L16,10.9222154 C16,10.6114072 15.7583614,10.2899556 15.3537879,10.2899556 Z M15.3537879,8.10722576 L11.4832541,8.10722576 C11.0788912,8.10722576 10.8372175,8.42866027 10.8372175,8.73948558 L10.8372175,8.8285822 C10.8372175,9.22416088 11.1656319,9.46067035 11.4832541,9.46067035 L15.3537879,9.46067035 C15.7583439,9.46067035 16,9.13930451 16,8.8285822 L16,8.73948558 C16,8.36129704 15.7403219,8.10722576 15.3537879,8.10722576 Z" id="形状"></path>
            </g>
        </g>
    </g>
</svg>