<?xml version="1.0" encoding="UTF-8"?>
<svg width="30px" height="30px" viewBox="0 0 30 30" version="1.1" xmlns="http://www.w3.org/2000/svg"
     xmlns:xlink="http://www.w3.org/1999/xlink">
    <title>-mockplus-</title>
    <path d="M29.8844576,0.78274493 L0.0109837143,0.78274493 L0.0109837143,2.3476728 L1.80898594,2.3476728 L1.80898594,23.8045336 L11.6530481,23.8045336 L9.22408028,28.2679076 L11.0986641,29.1935458 L13.8073211,24.2157434 C13.8869637,24.0945498 13.9329309,23.9543501 13.9405065,23.809528 L15.9183089,23.809528 C15.9258845,23.9543501 15.9718516,24.0945498 16.0514943,24.2157434 L18.7551568,29.2002051 L20.6297407,28.2745669 L18.2090969,23.8061984 L28.1031036,23.8061984 L28.1031036,2.34600797 L29.8844576,2.34600797 L29.8844576,0.78274493 Z M16.9121332,15.3886033 L11.5347747,12.9080262 L7.52756051,16.5789474 L5.86274364,14.9840528 L11.5347747,10.1161283 L16.8422109,12.9080262 L22.1662953,8.71934691 L23.6812786,10.4540861 L16.9104684,15.3886033 L16.9121332,15.3886033 Z"
          id="path-4"></path>
</svg>
