<?xml version="1.0" encoding="UTF-8"?>
<svg width="21px" height="21px" viewBox="0 0 21 21" version="1.1" xmlns="http://www.w3.org/2000/svg" xmlns:xlink="http://www.w3.org/1999/xlink">
    <title>编组 7</title>
    <defs>
        <filter id="filter-1">
            <feColorMatrix in="SourceGraphic" type="matrix" values="0 0 0 0 1.000000 0 0 0 0 1.000000 0 0 0 0 1.000000 0 0 0 1.000000 0"></feColorMatrix>
        </filter>
        <path d="M10.5,5.42 C10.5266668,5.6133343 10.9099963,6.176662 11.65,7.11 L13.09,8.89 C13.4433351,9.3766691 13.6833327,9.7899983 13.81,10.13 C13.9566674,10.5233353 14.03,10.9933306 14.03,11.54 C14.03,12.0000023 13.896668,12.4033316 13.63,12.75 C13.3366652,13.1300019 12.9666689,13.32 12.52,13.32 C12.0733311,13.32 11.7066681,13.1366685 11.42,12.77 C11.153332,12.4299983 11.02,12.0300023 11.02,11.57 L10.78,11.57 C10.78,12.0700025 10.8433327,12.5799974 10.97,13.1 C11.1100007,13.6666695 11.2999988,14.1433314 11.54,14.53 L9.46,14.53 C9.9666692,13.729996 10.22,12.7433392 10.22,11.57 L9.98,11.57 C9.98,12.0300023 9.846668,12.4299983 9.58,12.77 C9.2933319,13.1366685 8.9266689,13.32 8.48,13.32 C8.0333311,13.32 7.6633348,13.1300019 7.37,12.75 C7.103332,12.4033316 6.97,12.0000023 6.97,11.54 C6.97,10.9933306 7.0433326,10.5233353 7.19,10.13 C7.3166673,9.7899983 7.5566649,9.3766691 7.91,8.89 L9.35,7.11 L9.75120141,6.5943983 C10.229069,5.96613066 10.4786666,5.57466744 10.5,5.42 Z" id="path-2"></path>
    </defs>
    <g id="登录注册" stroke="none" stroke-width="1" fill="none" fill-rule="evenodd">
        <g id="编组-7" transform="translate(-84.000000, -749.000000)">
            <g transform="translate(84.000000, 749.000000)">
                <path d="" id="椭圆形-2" stroke="#CCCCCC" stroke-width="3.5"></path>
                <circle id="椭圆形" stroke="#CCCCCC" stroke-width="0.5" cx="10.5" cy="10.5" r="6.75"></circle>
                <g id="}" fill-rule="nonzero">
                    <use xlink:href="#path-2"></use>
                    <use fill="#CCCCCC" xlink:href="#path-2"></use>
                </g>
            </g>
        </g>
    </g>
</svg>
