<?xml version="1.0" encoding="UTF-8"?>
<svg width="22px" height="22px" viewBox="0 0 22 22" version="1.1" xmlns="http://www.w3.org/2000/svg" xmlns:xlink="http://www.w3.org/1999/xlink">
    <title>路径</title>
    <g id="登录注册" stroke="none" stroke-width="1" fill-rule="evenodd">
        <g id="登录—账号" transform="translate(-203.000000, -747.000000)" fill-rule="nonzero">
            <path d="M213.75,747 C218.895597,747 222.876102,751.090603 222.997162,756.018781 C223.846591,756.137372 224.5,756.86738 224.5,757.75 L224.5,761.75 C224.5,762.716498 223.716498,763.5 222.75,763.5 L221.75,763.5 C220.783502,763.5 220,762.716498 220,761.75 L220,757.75 C220,756.869796 220.649837,756.14137 221.49592,756.018311 L221.5,756.25 C221.5,752.032176 218.131136,748.5 213.75,748.5 C209.449302,748.5 206.124048,751.903663 206.003392,756.01839 C206.850163,756.14137 207.5,756.869796 207.5,757.75 L207.5,761.75 C207.5,762.263025 207.279243,762.72449 206.927539,763.044583 C207.968754,764.336849 208.888528,765.183381 209.664126,765.583451 C210.538705,766.034576 211.356868,766.328419 212.117558,766.468411 C212.555746,766.037278 213.346959,765.75 214.25,765.75 C215.630712,765.75 216.75,766.421573 216.75,767.25 C216.75,768.078427 215.630712,768.75 214.25,768.75 C213.310698,768.75 212.492385,768.439188 212.065164,767.979624 L212.143352,767.992379 C211.139507,767.848169 210.084362,767.488014 208.976487,766.916549 C207.88056,766.351248 206.691298,765.213144 205.377469,763.500574 L204.75,763.5 C203.783502,763.5 203,762.716498 203,761.75 L203,757.75 C203,756.86738 203.653409,756.137372 204.502893,756.017311 L204.5,756.25 C204.5,751.219215 208.524138,747 213.75,747 Z M205.75,757.5 L204.75,757.5 C204.611929,757.5 204.5,757.611929 204.5,757.75 L204.5,761.75 C204.5,761.888071 204.611929,762 204.75,762 L205.75,762 C205.888071,762 206,761.888071 206,761.75 L206,757.75 C206,757.611929 205.888071,757.5 205.75,757.5 Z M222.75,757.5 L221.75,757.5 C221.611929,757.5 221.5,757.611929 221.5,757.75 L221.5,761.75 C221.5,761.888071 221.611929,762 221.75,762 L222.75,762 C222.888071,762 223,761.888071 223,761.75 L223,757.75 C223,757.611929 222.888071,757.5 222.75,757.5 Z" id="路径" transform="translate(213.750000, 757.875000) scale(-1, 1) translate(-213.750000, -757.875000) "></path>
        </g>
    </g>
</svg>
