<?xml version="1.0" encoding="UTF-8"?>
<svg width="22px" height="22px" viewBox="0 0 22 22" version="1.1" xmlns="http://www.w3.org/2000/svg" xmlns:xlink="http://www.w3.org/1999/xlink">
    <title>#icon/left2 2</title>
    <g id="会员中心" stroke="none" stroke-width="1" fill-rule="evenodd">
        <g id="自助洗码" transform="translate(-218.000000, -144.000000)" fill-rule="nonzero">
            <g id="形状" transform="translate(218.000000, 144.000000)">
                <path d="M10.6983108,3.00173986 C6.99910473,3.00173986 4.00035473,6.00048986 4.00035473,9.69969595 C4.00035473,13.3605743 6.93744932,16.3350169 10.5837669,16.3962162 L10.6272128,18.9249493 C10.6272128,18.9249493 13.3204392,17.4281081 15.8260473,14.0086486 C15.8264696,14.0080405 15.8269426,14.0074493 15.8273818,14.0068074 C16.8062838,12.8423142 17.3962669,11.3400338 17.3962669,9.69969595 C17.3962669,6.00048986 14.3975,3.00173986 10.6983108,3.00173986 L10.6983108,3.00173986 Z M11.4129392,13.8995101 L9.76540541,13.8995101 L9.76540541,12.2870439 L11.4129392,12.2870439 L11.4129392,13.8995101 Z M11.9565372,10.1335304 C11.4624324,10.4648142 11.2468581,10.8289189 11.2951351,11.2483784 L11.2957601,11.2599324 L11.2957601,11.6834122 L9.88258446,11.6834122 L9.88258446,11.2196284 C9.85532095,10.3853209 10.2505405,9.66525338 11.0572973,9.08278716 C11.7248986,8.62361486 12.0259122,8.12765203 11.9537838,7.6072973 C11.8815034,7.01052365 11.5411486,6.69680743 10.913125,6.64658784 C10.870777,6.64422297 10.8265878,6.6429223 10.7837838,6.6429223 C9.97736486,6.6429223 9.50547297,7.09140203 9.34101351,8.01402027 L9.32052365,8.12915541 L7.91241554,7.66070946 L7.93170608,7.57190878 C8.28008446,5.96726351 9.31228041,5.18084459 11.0025507,5.23591216 C12.5138176,5.31942568 13.3475169,6.12305743 13.4827196,7.62459459 L13.4830574,7.63077703 C13.5097128,8.54896959 12.9960811,9.3910473 11.9565034,10.1334797 L11.9565372,10.1335304 Z"></path>
            </g>
        </g>
    </g>
</svg>
