<?xml version="1.0" encoding="UTF-8"?>
<svg width="18px" height="16px" viewBox="0 0 18 16" version="1.1" xmlns="http://www.w3.org/2000/svg" xmlns:xlink="http://www.w3.org/1999/xlink">
    <title>棋牌博弈</title>
    <g id="首页" stroke="none" stroke-width="1" fill-rule="evenodd">
        <g id="画板" transform="translate(-51.000000, -769.000000)" fill-rule="nonzero">
            <g id="编组-2备份" transform="translate(39.000000, 489.000000)">
                <g id="棋牌博弈" transform="translate(12.000000, 280.000000)">
                    <path d="M4.36433273,12.6299174 L6.24209195,2.17088685 L6.24209188,2.17088724 C6.32016266,1.74097092 6.55869498,1.35511123 6.91105106,1.08875261 L1.48804667,2.02897817 L1.48804657,2.02897818 C0.508588694,2.19884219 -0.145218464,3.11636911 0.0277395321,4.07834017 C0.0277503558,4.07840037 0.0277611826,4.07846057 0.0277720125,4.07852077 L1.90491077,14.536942 L1.90491072,14.5369417 C1.98802887,14.9994473 2.25502676,15.4104963 2.64703678,15.6794643 L2.64703691,15.6794644 C3.03808283,15.9491903 3.52242408,16.0548021 3.99294811,15.9729452 L8.6418535,15.1673817 L5.82582718,14.6788508 L5.82582711,14.6788508 C4.84627855,14.5092415 4.19203707,13.5920427 4.36432369,12.6299263 M17.6746518,1.98369097 L17.6746518,1.98369097 C17.3997788,1.59948755 16.9809903,1.33802273 16.510121,1.25663138 L16.5088913,1.2560275 L9.41041448,0.0271525 L9.41041448,0.0271525011 C8.43091683,-0.142428695 7.49690706,0.499947333 7.32422747,1.46194808 L5.44584779,11.9203693 L5.44584781,11.9203692 C5.27279754,12.8826543 5.92678606,13.8005265 6.90657167,13.9704812 C6.90662681,13.9704907 6.90668195,13.9705003 6.90673709,13.9705099 L14.0064389,15.2011974 L14.0064388,15.2011974 C14.985448,15.3716411 15.9197712,14.7303447 16.0933258,13.7688237 C16.0935077,13.7678155 16.0936888,13.7668073 16.093869,13.7657988 L17.9728532,3.30676826 L17.9728533,3.30676802 C18.0553397,2.84436859 17.9481305,2.36869873 17.6746493,1.98368906 L17.6746518,1.98369097 Z M14.2880383,7.82613359 C14.1429332,8.62022347 13.5053308,8.99824558 12.7619749,8.86660222 C12.3740027,8.7983649 12.0007879,8.47046276 11.8157166,8.20838386 C11.8157166,8.20838386 11.8661344,9.20054269 12.1212977,9.99885292 C12.1680265,10.1057379 10.4550527,9.80259493 10.5048488,9.71261912 C11.0385407,8.98857831 11.3951557,8.1334957 11.3951557,8.1334957 C11.1276949,8.31525982 10.6290496,8.48977856 10.2736644,8.4263733 C9.49772148,8.28989865 9.07408694,7.69025582 9.21365927,6.92817091 C9.45222246,5.6268312 12.2879254,4.35810117 12.2879254,4.35810117 C12.2934591,4.32730386 14.5321395,6.49277641 14.2880431,7.82613203 L14.2880383,7.82613359 Z" id="形状"></path>
                </g>
            </g>
        </g>
    </g>
</svg>
