<?xml version="1.0" encoding="UTF-8"?>
<svg width="18px" height="18px" viewBox="0 0 18 18" version="1.1" xmlns="http://www.w3.org/2000/svg" xmlns:xlink="http://www.w3.org/1999/xlink">
    <title>h5_彩票</title>
    <g id="首页" stroke="none" stroke-width="1" >
        <g id="画板" transform="translate(-166.000000, -833.000000)">
            <g id="h5_彩票" transform="translate(166.000000, 833.000000)">
                <path d="M9,0 C4.02945,0 0,4.02945 0,9 C0,13.9705714 4.02945,18 9,18 C13.9705714,18 18,13.9705714 18,9 C18,4.02945 13.9705714,0 9,0 Z M9,10.3285714 C6.75141429,10.3285714 4.92857143,8.50572857 4.92857143,6.25714286 C4.92857143,4.00855714 6.75141429,2.18571429 9,2.18571429 C11.2485857,2.18571429 13.0714286,4.00855714 13.0714286,6.25714286 C13.0714286,8.50572857 11.2485857,10.3285714 9,10.3285714 Z M8.44017857,6.10017857 C7.7883,5.7966 7.46239286,5.35656429 7.46239286,4.77998571 C7.46239286,4.37757857 7.61535,4.04989286 7.92128571,3.79690714 C8.22717857,3.54396429 8.61784286,3.41745 9.09321429,3.41745 C9.52855714,3.41745 9.88744286,3.53631429 10.16985,3.77397857 C10.4522571,4.01168571 10.59345,4.3188 10.59345,4.6953 C10.59345,5.30243571 10.2533571,5.7696 9.5733,6.09668571 L9.5733,6.11080714 C10.3710643,6.39795 10.7699571,6.8874 10.7699571,7.57926429 C10.7699571,8.03346429 10.6058143,8.39528571 10.27755,8.66472857 C9.94926429,8.93421429 9.49090714,9.06891429 8.90262857,9.06891429 C8.42018571,9.06891429 8.02720714,8.93599286 7.72362857,8.67002143 C7.42005,8.40411429 7.26827143,8.05932857 7.26827143,7.63575 C7.26827143,6.93919286 7.65889286,6.43204286 8.4402,6.11434286 L8.4402,6.10017857 L8.44017857,6.10017857 Z M8.97670714,6.42846429 C8.30127857,6.70148571 7.96362857,7.09208571 7.96362857,7.60039286 C7.96362857,7.86398571 8.06245714,8.08047857 8.26013571,8.24991429 C8.45781429,8.41935 8.71549286,8.50407857 9.03319286,8.50407857 C9.34146429,8.50407857 9.59209286,8.41997143 9.78507857,8.25169286 C9.97802143,8.08345714 10.0745357,7.87343571 10.0745357,7.62160714 C10.0745357,7.09208571 9.70857857,6.69443571 8.97670714,6.42846429 L8.97670714,6.42846429 Z M9.89449286,4.77645 C9.89449286,4.53173571 9.81801429,4.33872857 9.66505714,4.19753571 C9.51205714,4.05634286 9.30499286,3.98573571 9.04377857,3.98573571 C8.79902143,3.98573571 8.59073571,4.05932143 8.41898571,4.20634286 C8.24717143,4.35345 8.16130714,4.54114286 8.16130714,4.76935714 C8.16130714,5.22593571 8.44722857,5.57301429 9.01909286,5.8107 C9.60267857,5.56836429 9.89449286,5.2236 9.89449286,4.77645 Z" id="形状"></path>
            </g>
        </g>
    </g>
</svg>
