<?xml version="1.0" encoding="UTF-8"?>
<svg width="21px" height="21px" viewBox="0 0 21 21" version="1.1" xmlns="http://www.w3.org/2000/svg"
     xmlns:xlink="http://www.w3.org/1999/xlink">
    <title>首页</title>
    <defs>
        <filter id="filter-1">
            <feColorMatrix in="SourceGraphic" type="matrix"
                           values="0 0 0 0 0.141176 0 0 0 0 0.760784 0 0 0 0 0.603922 0 0 0 1.000000 0"></feColorMatrix>
        </filter>
    </defs>
    <path d="M11.6887825,0.436721137 L11.6887825,0.436721107 C11.0467205,-0.145573712 10.0674547,-0.145573712 9.42539271,0.436721167 L0.273059758,9.12543208 L0.273059731,9.12543211 C-0.0703016158,9.44085931 -0.0928934825,9.97485602 0.22259779,10.3181466 C0.533882189,10.6568591 1.05910164,10.6840431 1.40370525,10.3792822 L1.5492389,10.2411325 L1.5492389,19.3096354 L1.5492389,19.3096348 C1.54807788,20.2420349 2.30315343,20.9988384 3.23574568,21 C3.23644664,21 3.2371476,21 3.23784856,21 L8.15183057,21 L8.15183057,15.917352 L8.15183052,15.9173118 C8.1509822,15.2608025 8.68260979,14.7279077 9.3392567,14.7270603 C9.33995761,14.7270594 9.34065852,14.7270591 9.34135943,14.7270594 L11.6536107,14.7270594 L11.6536107,14.7270594 C12.3102576,14.7267687 12.8428092,15.2587402 12.8430987,15.9152495 C12.843099,15.9159502 12.8430987,15.916651 12.8430978,15.9173518 L12.8430978,21 L17.8737403,21 L17.8737403,21 C18.8063349,21.0002905 19.5625868,20.2446647 19.5628787,19.3122646 C19.562879,19.3113886 19.5628786,19.3105127 19.5628775,19.3096368 L19.5628775,10.3519804 C19.9380075,10.6913139 20.4702299,10.665575 20.7823129,10.317837 L20.7823129,10.317837 C21.0948255,9.97183359 21.0676195,9.43805166 20.7215444,9.12560107 C20.7214854,9.12554783 20.7214264,9.12549461 20.7213675,9.12544139 L11.6887772,0.437244087 L11.6887825,0.436721137 Z"
          id="路径"></path>
    <polygon id="路径-2" points="14.8507487 2.17589694 19.3665553 2.17589694 19.3665553 6.48521651"></polygon>
</svg>
