<?xml version="1.0" encoding="UTF-8"?>
<svg width="17px" height="18px" viewBox="0 0 17 18" version="1.1" xmlns="http://www.w3.org/2000/svg" xmlns:xlink="http://www.w3.org/1999/xlink">
    <title>热门</title>
    <g id="首页" stroke="none" stroke-width="1" fill-rule="evenodd">
        <g id="画板" transform="translate(-52.000000, -508.000000)">
            <g id="编组-2备份" transform="translate(39.000000, 489.000000)">
                <g id="热门" transform="translate(21.500000, 28.000000) scale(-1, 1) translate(-21.500000, -28.000000) translate(13.500000, 19.000000)">
                    <path d="M8.13993483,0.0816817824 C8.18078135,0.0816817824 8.22162807,0.12268472 8.26247459,0.16368785 C9.65125785,0.860739522 11.2442689,2.45986236 11.571048,5.98610771 C11.7752816,5.82209576 11.9795132,5.57607833 12.2654406,5.33006032 C12.551366,5.04303995 12.9598332,4.92003094 13.3274524,5.00203566 C13.7359176,5.08404173 14.062691,5.33006032 14.2260767,5.65808305 C15.4514742,8.15925976 15.533168,10.0864073 15.4923202,10.8244613 C15.5331667,12.7105987 14.7979276,14.555728 13.4908439,15.9498429 C12.1837525,17.302942 10.3456504,18 8.18079418,18 C6.01590538,18 3.97358889,17.138937 2.46225247,15.6218323 C1.19600897,14.3097356 0.460776176,12.5876038 0.501616379,10.7424687 C0.460769857,7.87226495 2.0946332,6.27314788 3.68765002,4.75602399 C4.83135377,3.64894294 5.97506518,2.5008653 6.58776396,0.819735816 C6.83284347,0.163688427 7.52723605,-0.164336229 8.13993483,0.0816817824 Z M7.43034224,7 C7.53604177,7.48389062 7.31618742,8.02390205 6.7701739,8.6212832 C5.95176018,9.51735449 4.82469802,10.0411563 4.53840348,12.1095391 C4.25150109,14.1779219 5.6020391,16 7.58919206,16 C9.57694945,16 10.9353392,14.9860674 11.3490767,13.2463076 C11.6244991,12.086459 11.5230281,11.071288 11.0440583,10.2001592 C11.0935862,10.6990176 10.9564791,11.2577392 10.6345484,11.8763213 C10.3120184,12.4949043 9.77023249,12.9513581 9.00859225,13.2463076 C9.89103183,11.5009316 10.1271949,10.1303213 9.71647692,9.13447656 C9.30635574,8.1380166 8.54411193,7.42652266 7.43034224,7 Z" id="形状结合" fill-rule="nonzero"></path>
                    <g transform="translate(8.000000, 11.500000) scale(-1, 1) translate(-8.000000, -11.500000) translate(4.000000, 7.000000)"></g>
                </g>
            </g>
        </g>
    </g>
</svg>
