<?xml version="1.0" encoding="UTF-8"?>
<svg width="18px" height="18px" viewBox="0 0 18 18" version="1.1" xmlns="http://www.w3.org/2000/svg" xmlns:xlink="http://www.w3.org/1999/xlink">
    <title>足球</title>
    <g id="首页" stroke="none" stroke-width="1" fill-rule="evenodd">
        <g id="画板" transform="translate(-51.000000, -703.000000)" fill-rule="nonzero">
            <g id="编组-2备份" transform="translate(39.000000, 489.000000)">
                <g id="足球" transform="translate(12.000000, 214.000000)">
                    <path d="M11.7651146,0.436483749 C7.04223269,-1.0890949 1.95934072,1.51316426 0.436048173,6.23503268 C-1.08836941,10.9580262 1.51270325,16.0399132 6.23446013,17.5643667 C10.957342,19.0876953 16.039109,16.4876862 17.5635266,11.7658178 C19.0890692,7.04282433 16.4868715,1.95981228 11.7651146,0.436483749 Z M10.6783343,5.02334522 L13.2951573,4.16830114 L13.2906572,2.47058861 C15.0434562,3.62264801 16.2393646,5.42386586 16.6545012,7.43546957 L15.108708,6.82906331 L13.3626592,8.9587981 L11.4377305,8.8462923 L10.0550668,6.95169463 L10.6783343,5.02334522 L10.6783343,5.02334522 Z M9.41492396,1.19702296 L8.40802084,2.58984476 L10.0303162,4.81408443 L9.42279918,6.69630646 L7.16148602,7.43434451 L5.55719121,6.40154127 L5.40193688,3.65527469 L3.74589062,3.21650207 C5.27255826,1.8360559 7.3111152,1.08789233 9.41492396,1.19702296 Z M2.7176119,10.5912573 L1.76696035,11.9604528 C1.09756665,10.3268686 0.972688162,8.46039741 1.54307909,6.65017908 L2.62310926,7.97662247 L5.18818091,6.97532085 L6.76547496,7.9889981 L6.77110012,10.3054925 L5.35468556,11.3832981 L2.7176119,10.5912573 Z M6.59559522,16.443809 C5.73269611,16.1647946 4.95642443,15.7428978 4.27465539,15.223121 L5.83282391,14.6628422 L5.76869712,11.925576 L7.16486112,10.8646464 L9.4340495,11.5959341 L9.94818886,13.2812709 L8.28876751,15.4807593 L9.21691843,16.8105779 C8.35176927,16.8353292 7.46749457,16.7250735 6.59559522,16.443809 Z M13.1725289,15.6090159 L13.2017797,13.979932 L10.5995821,13.0843858 L10.0651921,11.3349206 L11.3736037,9.52582733 L13.3210331,9.63945819 L14.8060745,11.9582027 L16.3878687,11.5453064 C15.788227,13.2891463 14.6294446,14.6909686 13.1725289,15.6090159 L13.1725289,15.6090159 Z" id="形状"></path>
                </g>
            </g>
        </g>
    </g>
</svg>
