<?xml version="1.0" encoding="UTF-8"?>
<svg width="18px" height="14px" viewBox="0 0 18 14" version="1.1" xmlns="http://www.w3.org/2000/svg" xmlns:xlink="http://www.w3.org/1999/xlink">
    <title>形状结合备份</title>
    <g id="首页" stroke="none" stroke-width="1">
        <g id="画板" transform="translate(-166.000000, -640.000000)">
            <path d="M181,640 C182.656854,640 184,641.343146 184,643 L184,651 C184,652.656854 182.656854,654 181,654 L179,654 L179,640 L181,640 Z M171,640 L171,654 L169,654 C167.343146,654 166,652.656854 166,651 L166,643 C166,641.343146 167.343146,640 169,640 L171,640 Z M178,640 L178,654 L172,654 L172,640 L178,640 Z M168.497935,645 C168.478003,645 168.460562,645.004778 168.445612,645.014334 C168.430663,645.023889 168.418205,645.035038 168.408239,645.047779 C168.398272,645.06052 168.389801,645.07326 168.382824,645.086001 C168.375848,645.098742 168.370367,645.10936 168.36638,645.117854 L168.031512,645.971497 L167.107636,646.063869 C167.067771,646.074486 167.039865,646.087227 167.023919,646.102091 C167.007973,646.116956 167,646.140314 167,646.172166 C167,646.201895 167.008471,646.227908 167.025414,646.250205 C167.042357,646.272501 167.063784,646.299576 167.089697,646.331428 L167.708601,646.923881 C167.674715,647.091636 167.644816,647.243466 167.618904,647.37937 C167.606944,647.436705 167.595981,647.494039 167.586015,647.551373 C167.576049,647.608707 167.566581,647.660733 167.557611,647.707449 C167.548642,647.754166 167.541167,647.793981 167.535187,647.826895 C167.529207,647.85981 167.525221,647.880514 167.523227,647.889007 C167.517248,647.931477 167.526217,647.959613 167.550136,647.973416 C167.574056,647.987219 167.600965,647.99412 167.630863,647.99412 L167.649177,647.991333 L167.649177,647.991333 L167.674217,647.982972 C167.693153,647.97554 167.707604,647.9697 167.71757,647.965453 L168.497932,647.481297 C168.639453,647.570484 168.768019,647.650115 168.883629,647.72019 C168.93346,647.749918 168.982794,647.779647 169.031629,647.809376 C169.080464,647.839105 169.124814,647.86671 169.164679,647.892192 C169.204544,647.917674 169.238928,647.938909 169.267831,647.955897 C169.296733,647.972885 169.316167,647.983502 169.326133,647.987749 C169.346066,647.998367 169.366497,648.002083 169.387426,647.998897 C169.408355,647.995712 169.427291,647.987749 169.444234,647.975008 C169.461177,647.962267 169.473635,647.946872 169.481608,647.928822 C169.489581,647.910773 169.491574,647.892192 169.487588,647.873081 C169.485594,647.864587 169.480611,647.843883 169.472638,647.810969 L169.459931,647.75682 L169.459931,647.75682 L169.445729,647.693115 C169.435763,647.64746 169.424302,647.597027 169.411345,647.541817 C169.398389,647.486606 169.384935,647.430334 169.370982,647.372999 C169.341083,647.241343 169.307197,647.092699 169.269325,646.927066 C169.386928,646.818768 169.492571,646.72215 169.586255,646.63721 C169.626121,646.601111 169.665488,646.565543 169.704356,646.530505 C169.743225,646.495468 169.778107,646.463615 169.809003,646.434948 C169.839898,646.406281 169.865312,646.382923 169.885245,646.364873 C169.905178,646.346823 169.916141,646.336737 169.918134,646.334613 C169.942053,646.311255 169.962484,646.285242 169.979427,646.256575 C169.996369,646.227908 170.002848,646.19871 169.998861,646.168981 C169.994874,646.139253 169.983912,646.115894 169.965972,646.098907 C169.948033,646.081919 169.9281,646.071301 169.906174,646.067054 L168.982298,645.977868 L168.63846,645.124224 C168.626501,645.090248 168.609558,645.06105 168.587632,645.03663 C168.565706,645.01221 168.535807,645 168.497935,645 Z M181.497935,645 C181.478003,645 181.460562,645.004778 181.445612,645.014334 C181.430663,645.023889 181.418205,645.035038 181.408239,645.047779 C181.398272,645.06052 181.389801,645.07326 181.382824,645.086001 C181.375848,645.098742 181.370367,645.10936 181.36638,645.117854 L181.031512,645.971497 L180.107636,646.063869 C180.067771,646.074486 180.039865,646.087227 180.023919,646.102091 C180.007973,646.116956 180,646.140314 180,646.172166 C180,646.201895 180.008471,646.227908 180.025414,646.250205 C180.042357,646.272501 180.063784,646.299576 180.089697,646.331428 L180.708601,646.923881 C180.674715,647.091636 180.644816,647.243466 180.618904,647.37937 C180.606944,647.436705 180.595981,647.494039 180.586015,647.551373 C180.576049,647.608707 180.566581,647.660733 180.557611,647.707449 C180.548642,647.754166 180.541167,647.793981 180.535187,647.826895 C180.529207,647.85981 180.525221,647.880514 180.523227,647.889007 C180.517248,647.931477 180.526217,647.959613 180.550136,647.973416 C180.574056,647.987219 180.600965,647.99412 180.630863,647.99412 L180.649177,647.991333 L180.649177,647.991333 L180.674217,647.982972 C180.693153,647.97554 180.707604,647.9697 180.71757,647.965453 L181.497932,647.481297 C181.639453,647.570484 181.768019,647.650115 181.883629,647.72019 C181.93346,647.749918 181.982794,647.779647 182.031629,647.809376 C182.080464,647.839105 182.124814,647.86671 182.164679,647.892192 C182.204544,647.917674 182.238928,647.938909 182.267831,647.955897 C182.296733,647.972885 182.316167,647.983502 182.326133,647.987749 C182.346066,647.998367 182.366497,648.002083 182.387426,647.998897 C182.408355,647.995712 182.427291,647.987749 182.444234,647.975008 C182.461177,647.962267 182.473635,647.946872 182.481608,647.928822 C182.489581,647.910773 182.491574,647.892192 182.487588,647.873081 C182.485594,647.864587 182.480611,647.843883 182.472638,647.810969 L182.459931,647.75682 L182.459931,647.75682 L182.445729,647.693115 C182.435763,647.64746 182.424302,647.597027 182.411345,647.541817 C182.398389,647.486606 182.384935,647.430334 182.370982,647.372999 C182.341083,647.241343 182.307197,647.092699 182.269325,646.927066 C182.386928,646.818768 182.492571,646.72215 182.586255,646.63721 C182.626121,646.601111 182.665488,646.565543 182.704356,646.530505 C182.743225,646.495468 182.778107,646.463615 182.809003,646.434948 C182.839898,646.406281 182.865312,646.382923 182.885245,646.364873 C182.905178,646.346823 182.916141,646.336737 182.918134,646.334613 C182.942053,646.311255 182.962484,646.285242 182.979427,646.256575 C182.996369,646.227908 183.002848,646.19871 182.998861,646.168981 C182.994874,646.139253 182.983912,646.115894 182.965972,646.098907 C182.948033,646.081919 182.9281,646.071301 182.906174,646.067054 L181.982298,645.977868 L181.63846,645.124224 C181.626501,645.090248 181.609558,645.06105 181.587632,645.03663 C181.565706,645.01221 181.535807,645 181.497935,645 Z M175.141642,644.982536 C175.121709,644.982536 175.104268,644.987314 175.089318,644.996869 C175.074369,645.006425 175.061911,645.017573 175.051945,645.030314 C175.041979,645.043055 175.033507,645.055796 175.026531,645.068537 L175.010086,645.100389 L175.010086,645.100389 L174.675218,645.954033 L173.751342,646.046405 C173.711477,646.057022 173.683572,646.069763 173.667625,646.084627 C173.651679,646.099492 173.643706,646.12285 173.643706,646.154702 C173.643706,646.184431 173.652178,646.210444 173.66912,646.23274 C173.686063,646.255037 173.707491,646.282111 173.733403,646.313964 L174.352307,646.906416 C174.318421,647.074172 174.288523,647.226001 174.26261,647.361906 C174.250651,647.41924 174.239688,647.476574 174.229721,647.533908 C174.219755,647.591243 174.210287,647.643268 174.201317,647.689985 C174.192348,647.736702 174.184873,647.776517 174.178893,647.809431 C174.172913,647.842345 174.168927,647.863049 174.166934,647.871543 C174.160954,647.914013 174.169924,647.942149 174.193843,647.955952 C174.217762,647.969754 174.244671,647.976656 174.27457,647.976656 C174.284536,647.976656 174.298987,647.97294 174.317923,647.965507 C174.336859,647.958075 174.35131,647.952236 174.361276,647.947989 L175.141638,647.463833 C175.283159,647.55302 175.411725,647.63265 175.527335,647.702725 C175.577167,647.732454 175.6265,647.762183 175.675335,647.791912 C175.72417,647.821641 175.76852,647.849246 175.808385,647.874728 C175.84825,647.90021 175.882634,647.921444 175.911537,647.938432 C175.940439,647.95542 175.959873,647.966038 175.96984,647.970285 C175.989772,647.980902 176.010203,647.984618 176.031132,647.981433 C176.052062,647.978248 176.070998,647.970285 176.08794,647.957544 C176.104883,647.944803 176.117341,647.929408 176.125314,647.911358 C176.133287,647.893308 176.13528,647.874728 176.131294,647.855617 C176.129301,647.847123 176.124318,647.826419 176.116344,647.793505 C176.108371,647.760591 176.099402,647.721306 176.089435,647.675651 C176.079469,647.629996 176.068008,647.579563 176.055052,647.524352 C176.042095,647.469142 176.028641,647.412869 176.014688,647.355535 C175.984789,647.223879 175.950904,647.075234 175.913032,646.909602 C176.030634,646.801304 176.136277,646.704685 176.229962,646.619746 C176.269827,646.583647 176.309194,646.548078 176.348063,646.513041 C176.386931,646.478003 176.421813,646.446151 176.452709,646.417484 C176.483605,646.388817 176.509019,646.365458 176.528951,646.347409 C176.548884,646.329359 176.559847,646.319273 176.56184,646.317149 C176.585759,646.293791 176.60619,646.267778 176.623133,646.239111 C176.640076,646.210444 176.646554,646.181246 176.642567,646.151517 C176.638581,646.121788 176.627618,646.09843 176.609678,646.081442 C176.591739,646.064454 176.571806,646.053837 176.549881,646.04959 L175.626005,645.960403 L175.282166,645.10676 C175.270207,645.072784 175.253264,645.043586 175.231338,645.019166 C175.209412,644.994746 175.179514,644.982536 175.141642,644.982536 Z" id="形状结合备份"></path>
        </g>
    </g>
</svg>
