<?xml version="1.0" encoding="UTF-8"?>
<svg width="16px" height="16px" viewBox="0 0 16 16" version="1.1" xmlns="http://www.w3.org/2000/svg" xmlns:xlink="http://www.w3.org/1999/xlink">
    <title>筹码</title>
    <g id="首页" stroke="none" stroke-width="1" fill-rule="evenodd">
        <g id="画板" transform="translate(-52.000000, -574.000000)" fill-rule="nonzero">
            <g id="编组-2备份" transform="translate(39.000000, 489.000000)">
                <g id="筹码" transform="translate(13.000000, 85.000000)">
                    <path d="M8,0 L8,0 C3.58172549,0 0,3.58172549 0,8 C0,12.4182745 3.58172549,16 8,16 C12.4182745,16 16,12.4182745 16,8 L16,8 C16,3.58172584 12.4182745,0 8,0 L8,0 Z M11.8531011,1.45081938 L11.8531013,1.45081938 C12.9679276,2.10723142 13.8973149,3.03661556 14.5537283,4.15144651 L13.1083624,5.14656731 L13.0437805,5.03742029 L13.0437804,5.03742022 C12.5382414,4.18079346 11.8237699,3.46632816 10.9671431,2.96078291 L10.8570898,2.89620101 L11.8531011,1.45081938 Z M12.6499291,6.67107838 C12.6153645,6.54736801 12.5735183,6.42365764 12.5289376,6.30722894 L12.6517417,6.2608356 C12.698135,6.38545227 12.7427001,6.51280348 12.7763583,6.6401547 L12.6499291,6.67107838 Z M12.8700513,7.02400531 L12.8700513,7.02400531 C12.8964238,7.15436177 12.9173597,7.28575978 12.932805,7.41785658 L12.8027349,7.43332624 C12.7872652,7.30506873 12.7672641,7.17590491 12.7417938,7.04947562 L12.8700513,7.02400531 Z M12.6417411,9.35897025 L12.7672641,9.39534738 C12.7308713,9.5226986 12.6872125,9.65004981 12.6399128,9.77374456 L12.5180307,9.72644491 C12.5589706,9.606391 12.6008012,9.48268063 12.6371939,9.35897025 L12.6417411,9.35897025 Z M12.7326839,8.98147938 C12.7590761,8.8550501 12.7799992,8.72588628 12.7963751,8.59762877 L12.925539,8.61400473 L12.925539,8.61400418 C12.9099252,8.74618942 12.8883762,8.87760556 12.8609571,9.00785538 L12.7326839,8.98147938 Z M12.8282051,8.21013731 C12.8282051,8.14100826 12.8327523,8.07005098 12.8327523,8.00001563 L12.8327523,7.81809872 L12.9637443,7.81809872 L12.9637443,8.00001563 C12.9637443,8.06005039 12.9637443,8.1446491 12.9591972,8.21559076 L12.8282051,8.21013731 Z M8.00000035,12.3752406 L8.00000016,12.3752406 C5.5836242,12.3752406 3.62477505,10.416376 3.62477505,8 C3.62477505,5.58362404 5.5836242,3.62477489 8.00000016,3.62477489 C10.4163761,3.62477489 12.3752254,5.58362404 12.3752254,8 C12.3752254,8.00000521 12.3752254,8.00001042 12.3752254,8.00001563 L12.3752254,8.00092183 C12.3752254,10.4167978 10.4167825,12.3752406 8.00090656,12.3752406 C8.00030235,12.3752406 7.99969815,12.3752406 7.99909395,12.3752406 L8.00000035,12.3752406 Z M12.0768642,10.8288845 C12.0013754,10.9380472 11.9204176,11.0444753 11.8358189,11.1472625 L11.7339379,11.0644921 C11.816724,10.9644237 11.8949473,10.8598238 11.9686391,10.7543176 L12.0768642,10.8288845 Z M11.5693032,11.4456081 C11.4783604,11.5411294 11.381011,11.6339004 11.2809582,11.7184991 L11.1945469,11.620259 L11.1945469,11.6202589 C11.2915374,11.5343407 11.385291,11.4448361 11.4756104,11.3519307 L11.5693032,11.4456081 Z M9.55996675,12.7117761 L9.55996675,12.7117761 C9.43366586,12.7539784 9.30560179,12.7907074 9.1761317,12.8218607 L9.14519239,12.6945095 L9.14519239,12.6945094 C9.27106742,12.6636168 9.39576847,12.6281222 9.51904288,12.5880969 L9.55996675,12.7117761 Z M8.78499947,12.9009903 C8.65400742,12.9209915 8.52029646,12.9373674 8.38841373,12.9473836 L8.37747559,12.8163916 C8.50665504,12.806391 8.63672516,12.7909213 8.76406074,12.7709202 L8.78499947,12.9009903 Z M7.98999976,12.8309549 L7.98999976,12.9628377 C7.85717948,12.9628377 7.72256222,12.9564779 7.59158579,12.9455554 L7.60158638,12.8154853 C7.72893759,12.8254859 7.85991402,12.8309549 7.98999976,12.8309549 L7.98999976,12.8309549 Z M7.21500123,12.7681856 L7.19409375,12.8973495 L7.19409346,12.8973495 C7.06271107,12.8758352 6.93223124,12.8491305 6.80296116,12.8172978 L6.83388485,12.6899466 L6.83388482,12.6899466 C6.95954796,12.7209953 7.08638243,12.7470951 7.2140946,12.7681856 L7.21500123,12.7681856 Z M5.09198621,11.8585698 L5.01284095,11.9640916 C4.90642846,11.8840401 4.80271926,11.7985351 4.70357282,11.7103112 L4.79453128,11.6129773 C4.88731797,11.697576 4.98829263,11.7803465 5.09198621,11.8576792 L5.09198621,11.8585698 Z M4.5107334,11.3428209 L4.41979057,11.4337949 C4.32881649,11.3382737 4.23785804,11.238221 4.15508756,11.1354337 L4.25696853,11.0526632 C4.33519186,11.1499971 4.42160318,11.2482216 4.5107334,11.3419146 L4.5107334,11.3428209 Z M4.02045467,10.7397543 L3.91221396,10.8143524 L3.91221375,10.8143524 C3.83650822,10.7047432 3.76519763,10.5921625 3.69845122,10.4768792 L3.81216101,10.411391 C3.87674292,10.5223662 3.94677827,10.637873 4.02045467,10.7388477 L4.02045467,10.7397543 Z M3.201813,7.4142313 L3.201813,7.41423098 C3.18615833,7.54293102 3.17553505,7.67219297 3.16996738,7.80172243 L3.03899083,7.79625336 L3.03899083,7.79625622 C3.04459005,7.66310389 3.05520757,7.53020938 3.07082067,7.39785788 L3.201813,7.4142313 Z M3.13540281,7.00398851 C3.16179499,6.8748247 3.19362498,6.74384827 3.23092404,6.61649706 L3.35644702,6.65288982 C3.32097619,6.77658457 3.28913057,6.90393578 3.26548856,7.03036506 L3.13540281,7.00398851 Z M3.16996734,8.18647968 C3.17453011,8.31564349 3.185437,8.44571362 3.19998472,8.57397113 L3.0699146,8.58944156 L3.0699147,8.58944156 C3.05408064,8.45712381 3.04376379,8.32420415 3.03899101,8.19102759 L3.16996734,8.18647968 Z M3.26094142,8.95783679 L3.2609413,8.95783679 C3.28663625,9.08473532 3.31697084,9.21065004 3.35188413,9.33532766 L3.22637678,9.37170479 C3.18998402,9.24435358 3.15724773,9.11337716 3.1354027,8.98330703 L3.26094142,8.95783679 Z M3.47561025,9.70369358 L3.47561044,9.70369358 C3.52132249,9.82518354 3.57199296,9.94474883 3.62749434,10.0620901 L3.50925304,10.118484 L3.50925298,10.118484 C3.45206994,9.99788558 3.39987735,9.87498369 3.35280788,9.75009043 L3.47561025,9.70369358 Z M3.35644702,6.23263082 C3.40374666,6.10892044 3.45649975,5.98521007 3.51379999,5.86878137 L3.63205692,5.92519093 L3.63205692,5.9251916 C3.57608816,6.04213033 3.52510236,6.16138982 3.47923639,6.28264692 L3.35644702,6.23263082 Z M3.69937336,5.51311991 C3.7657835,5.39761314 3.83763146,5.28482528 3.91313588,5.17566264 L4.0213766,5.25024513 L4.0213766,5.25024584 C3.94749709,5.35681849 3.87800849,5.46636788 3.81308422,5.57862133 L3.69937336,5.51311991 Z M4.15416563,4.85639393 C4.23785804,4.75451296 4.32608196,4.65353829 4.41886864,4.5580327 L4.5098271,4.64899115 C4.42008231,4.74298619 4.33397304,4.84001328 4.25149946,4.94007071 L4.15416563,4.85639393 Z M4.70721366,4.2815165 C4.8063601,4.19055804 4.9109756,4.10778757 5.01648178,4.0286423 L5.09470518,4.13324218 L5.09470518,4.13324214 C4.9910616,4.21131952 4.89061978,4.29355778 4.79362504,4.37975658 L4.70721366,4.2815165 Z M6.81296205,3.17906127 C6.94121956,3.14813759 7.07310229,3.12085474 7.20407871,3.09993164 L7.22501744,3.22909545 C7.09766623,3.25001856 6.96940871,3.2754888 6.84390136,3.30641249 L6.81296205,3.17906127 Z M7.60068005,3.05264762 L7.60068005,3.05264762 C7.73350424,3.04168679 7.86672533,3.03622353 8.00000032,3.03627134 L8.02092342,3.03627134 L8.02092342,3.16726371 L7.99909402,3.16726371 C7.8699302,3.16726371 7.73893815,3.17271715 7.61160256,3.18273337 L7.60068005,3.05264762 Z M8.40932121,3.18453034 L8.42024372,3.05353829 C8.55304838,3.06536711 8.68585304,3.08174307 8.81592316,3.10357247 L8.79498443,3.23273629 C8.66947708,3.21364142 8.53848503,3.19726546 8.40933683,3.18634295 L8.40932121,3.18453034 Z M9.17520983,3.31188156 L9.20705545,3.18453034 C9.33621927,3.21636033 9.46447678,3.2545657 9.59090607,3.2964119 L9.54815356,3.4210286 L9.54815364,3.4210286 C9.42523144,3.3805742 9.30082821,3.34476538 9.17520983,3.31367856 L9.17520983,3.31188156 Z M11.2163763,4.39613259 L11.3073348,4.29789245 C11.4064812,4.38883528 11.5029087,4.47980936 11.5947735,4.57076782 L11.4992679,4.66172627 C11.4064812,4.57259605 11.3128038,4.48162197 11.2163763,4.39613259 L11.2163763,4.39613259 Z M11.7530484,4.95825927 L11.8549293,4.8754888 L11.8549295,4.8754888 C11.9385817,4.97923735 12.0183797,5.08603564 12.0941622,5.19566394 L11.9849996,5.27026206 C11.913136,5.16384958 11.8340064,5.05923407 11.7530484,4.9582594 L11.7530484,4.95825927 Z M12.3597558,10.083919 L12.4780127,10.1403129 L12.4780127,10.140313 C12.42075,10.2604783 12.3585368,10.3782223 12.291533,10.4932399 L12.1778388,10.4277517 C12.2424208,10.3158702 12.307909,10.2003478 12.3597558,10.083919 L12.3597558,10.083919 Z M12.3724909,5.9442858 C12.3179096,5.82693517 12.2569685,5.7105221 12.190574,5.59864055 L12.3042682,5.53404301 L12.3042683,5.53404301 C12.3710175,5.64875257 12.431744,5.76686308 12.4862008,5.88789205 L12.3724909,5.9442858 Z M10.6706256,3.81581733 C10.7825071,3.88766529 10.8925761,3.96407602 10.9980823,4.04411196 L10.9189526,4.14872754 L10.9189527,4.14872754 C10.8156896,4.07001465 10.7091733,3.99566388 10.599684,3.92587073 L10.6706256,3.81581733 Z M9.96658433,3.4419673 C10.0875758,3.49381409 10.2085516,3.55202063 10.3304338,3.61478993 L10.2685864,3.73031232 C10.1548766,3.66937125 10.0366353,3.6129617 9.91837838,3.56202121 L9.96658433,3.4419673 Z M8.00273488,0.402960188 L8.00273482,0.402960188 C8.64712101,0.402644136 9.28895237,0.483941637 9.91290924,0.644912788 L9.59545314,2.3731703 L9.47174277,2.34134031 L9.47174278,2.34134032 C8.50879261,2.09270856 7.49847091,2.09270856 6.53552386,2.34134031 L6.41182912,2.3731703 L6.09346662,0.644912784 L6.09346662,0.644912807 C6.71626249,0.484342462 7.35683908,0.403048636 8.00000021,0.402960188 L8.00273488,0.402960188 Z M6.43183034,3.29188038 L6.47367654,3.41649706 C6.35087247,3.45743696 6.22808403,3.50743989 6.1098271,3.55475516 L6.05798031,3.43377932 C6.17714354,3.38101061 6.30449475,3.33371096 6.4290958,3.29188038 L6.43183034,3.29188038 Z M5.6977717,3.60478934 L5.75871278,3.72484325 L5.75871278,3.72484325 C5.643624,3.78511178 5.53104475,3.85005512 5.4212555,3.91951091 L5.35122015,3.80853566 C5.46036717,3.73395316 5.57679587,3.66663672 5.6950528,3.60477372 L5.6977717,3.60478934 Z M4.1514311,1.45081938 L5.15202098,2.89620095 L5.04195203,2.96078286 L5.04195232,2.96078268 C4.18558339,3.46634824 3.47140717,4.18083073 2.96622132,5.03741999 L2.90073311,5.14656701 L1.45536669,4.15146183 L1.45536669,4.15146263 C2.11092073,3.03782394 3.03820944,2.10863981 4.15052461,1.45081938 L4.1514311,1.45081938 Z M0.40388339,8.00001563 L0.403883247,7.99988638 C0.403179636,7.35547674 0.484489064,6.71359695 0.645852113,6.08971195 L2.37410963,6.40715243 L2.34227964,6.5308628 L2.34227991,6.53086176 C2.09364971,7.4941182 2.09364971,8.50472741 2.34227937,9.46798698 L2.37410963,9.59079105 L0.645820592,9.90928072 L0.645820773,9.90928072 C0.484253494,9.285727 0.402645587,8.64415816 0.402961872,8.0000126 L0.40388339,8.00001563 Z M4.15144672,14.5491963 L4.15144688,14.5491963 C3.03713784,13.8921172 2.10790527,12.9628846 1.45081989,11.8485693 L2.89620146,10.8525422 L2.96078337,10.9626112 L2.96078316,10.9626108 C3.46634872,11.8189798 4.1808312,12.533156 5.03742046,13.0383418 L5.14747378,13.10383 L4.15144672,14.5491963 Z M5.68688044,12.3897885 C5.56952981,12.3279411 5.45311674,12.2606246 5.34214149,12.1896674 L5.41217684,12.0787077 L5.41217701,12.0787077 C5.52144466,12.1487877 5.63373686,12.2140367 5.74872798,12.2742662 L5.68688044,12.3897885 Z M6.09893583,12.4416353 L6.09893601,12.4416353 C6.21827222,12.4926774 6.33965168,12.5388021 6.46276983,12.5798934 L6.42093925,12.7045101 C6.29632257,12.6626639 6.16987767,12.6135673 6.04799552,12.5617049 L6.09893583,12.4416353 Z M8.00092228,15.5961638 L8.00092211,15.5961638 C7.35651248,15.5968536 6.71463581,15.5155504 6.09074769,15.3542122 L6.40911009,13.6259546 L6.53282047,13.6577846 L6.53282037,13.6577846 C7.49592524,13.9051897 8.50593598,13.9051897 9.46903929,13.6577847 L9.59273403,13.6259546 L9.91019059,15.3542122 L9.91019059,15.3542121 C9.28635404,15.515934 8.64445862,15.5975435 8.00000054,15.5970721 L8.00092228,15.5961638 Z M9.93566064,12.5698928 L9.88381385,12.4498232 C10.0020708,12.3988827 10.1203121,12.3434107 10.2358345,12.2833604 L10.2967759,12.3997891 L10.2967759,12.3997889 C10.1786072,12.4619513 10.0578228,12.5190073 9.93475465,12.5707989 L9.93566064,12.5698928 Z M10.5723855,12.0896146 C10.6815481,12.0204856 10.7888825,11.9459031 10.8925605,11.868586 L10.971706,11.9740922 L10.971706,11.974092 C10.8647747,12.0536181 10.7549433,12.1291688 10.6424367,12.2005897 L10.5723855,12.0896146 Z M11.8458507,14.5455554 L10.8525581,13.1047366 L10.9617051,13.039264 L10.9617051,13.0392641 C11.8174911,12.5339563 12.5310626,11.8197535 13.0356078,10.9635174 L13.1001897,10.8534641 L14.5455713,11.8494756 L14.5455713,11.8494759 C13.8910609,12.9627693 12.9646347,13.8916893 11.8531165,14.5491966 L11.8458507,14.5455554 Z M13.6250331,9.58729613 L13.657785,9.46447643 L13.6577852,9.46447568 C13.9051887,8.50106454 13.9051887,7.49076628 13.6577851,6.52735046 L13.6250331,6.40365571 L15.3532907,6.08619961 L15.3532908,6.08619961 C15.6760347,7.33919988 15.6760347,8.65355345 15.3532906,9.90654874 L13.6250331,9.58729613 Z" id="形状"></path>
                </g>
            </g>
        </g>
    </g>
</svg>
