<?xml version="1.0" encoding="UTF-8"?>
<svg width="18px" height="17px" viewBox="0 0 18 17" version="1.1" xmlns="http://www.w3.org/2000/svg" xmlns:xlink="http://www.w3.org/1999/xlink">
    <title>电竞</title>
    <g id="首页" stroke="none" stroke-width="1">
        <g id="画板" transform="translate(-166.000000, -899.000000)">
            <g id="电竞" transform="translate(166.000000, 899.000000)">
                <path d="M1.6490458,16.8168869 L1.64904578,16.8168869 C1.4870353,16.8168869 1.33237387,16.7502931 1.22266223,16.63285 L0.154671131,15.5236596 L0.154671082,15.5236596 C0.0500838304,15.4045689 -0.00502559298,15.2509747 0.000360652156,15.0935857 L0.000360635515,15.093586 C0.00968618326,14.9405079 0.0779482464,14.7967044 0.19121813,14.6915172 L3.12413005,11.9690513 L2.26730187,11.0658974 L2.26730184,11.0658974 C2.01867752,10.7983025 2.03311881,10.3839021 2.29978833,10.1337372 L3.15763262,9.34260199 L3.15763256,9.34260204 C3.43727952,9.10790642 3.85377155,9.12715422 4.10988949,9.3866095 L4.61139805,9.92870209 L12.2294535,1.73429387 L17.8810678,0 L17.9825878,0.110018904 L16.0080245,5.63496991 L7.28643245,12.6661764 L7.66713301,13.1492589 C7.81941307,13.3112867 7.88438587,13.4813157 7.87829425,13.6523446 L7.87829426,13.6523443 C7.87070953,13.8293447 7.79352476,13.9964937 7.66307194,14.1184235 L6.8031971,14.9085594 L6.80319712,14.9085593 C6.68228616,15.0223279 6.52167465,15.0860511 6.35447929,15.0865907 L6.35447927,15.0865907 C6.17231856,15.0852138 5.99857828,15.0108243 5.87327444,14.8805559 L5.04081108,13.9393944 L2.08963271,16.6618603 L2.0896327,16.6618603 C1.97314057,16.761854 1.82384567,16.8168869 1.66933909,16.8168869 L1.64903502,16.8168869 L1.6490458,16.8168869 Z M16.3207165,16.9999574 L16.3207165,16.9999574 C16.1649719,17.0018081 16.0147264,16.943246 15.9024534,16.836885 L12.9604083,14.1284142 L12.1035801,15.0245673 L12.1035801,15.0245673 C11.9832547,15.1520586 11.8162441,15.2269464 11.6396341,15.2326025 L11.6376037,15.2326025 L11.6376037,15.2326025 C11.4630461,15.2363711 11.2938135,15.1732659 11.1655354,15.0565717 L10.3046462,14.2624349 L10.3046461,14.2624348 C10.1763483,14.1444488 10.1007763,13.9811553 10.0944993,13.8083568 L10.0944993,13.8083564 C10.084329,13.6339608 10.1483343,13.4632706 10.2711447,13.3372751 L13.8954015,9.52762582 L13.8954015,9.52762583 C14.1573819,9.27372724 14.5743895,9.2636634 14.8486745,9.50462194 L15.6994127,10.2907568 L15.6994127,10.2907568 C15.8296448,10.4079748 15.9061809,10.5721292 15.9115901,10.7458342 L15.9115901,10.7458345 C15.9202246,10.9202981 15.8564564,11.0907177 15.7349447,11.2179152 L14.8699944,12.1210691 L17.8090063,14.8315321 C17.9216935,14.9365501 17.9917417,15.0855751 17.9998638,15.2436033 L17.9998638,15.2436027 C18.0033247,15.4105957 17.9407031,15.5723659 17.825249,15.6946809 L16.7765472,16.8048706 L16.7765472,16.8048706 C16.6599988,16.9274634 16.4973047,16.9972938 16.3268133,16.9979031 L16.3207221,16.9979031 L16.3207165,16.9999574 Z M2.01044863,5.82999846 L0.017618814,0.259044652 L0.0907132814,0.14402504 L5.72913324,1.8683248 L7.55953652,3.82265515 L3.9565962,7.40826697 L2.01044863,5.82999846 Z" id="形状"></path>
            </g>
        </g>
    </g>
</svg>
