<?xml version="1.0" encoding="UTF-8"?>
<svg width="18px" height="14px" viewBox="0 0 18 14" version="1.1" xmlns="http://www.w3.org/2000/svg" xmlns:xlink="http://www.w3.org/1999/xlink">
    <title>形状结合</title>
    <g id="首页" stroke="none" stroke-width="1" fill-rule="evenodd">
        <g id="画板" transform="translate(-51.000000, -640.000000)">
            <path d="M66,640 C67.6568542,640 69,641.343146 69,643 L69,651 C69,652.656854 67.6568542,654 66,654 L64,654 L64,640 L66,640 Z M56,640 L56,654 L54,654 C52.3431458,654 51,652.656854 51,651 L51,643 C51,641.343146 52.3431458,640 54,640 L56,640 Z M63,640 L63,654 L57,654 L57,640 L63,640 Z M53.4979353,645 C53.4780027,645 53.4605617,645.004778 53.4456122,645.014334 C53.4306628,645.023889 53.4182049,645.035038 53.4082386,645.047779 C53.3982723,645.06052 53.3898009,645.07326 53.3828245,645.086001 C53.3758481,645.098742 53.3703666,645.10936 53.3663801,645.117854 L53.0315122,645.971497 L52.1076362,646.063869 C52.0677711,646.074486 52.0398653,646.087227 52.0239191,646.102091 C52.007973,646.116956 52,646.140314 52,646.172166 C52,646.201895 52.0084714,646.227908 52.0254141,646.250205 C52.0423568,646.272501 52.0637845,646.299576 52.0896968,646.331428 L52.7086007,646.923881 C52.6747153,647.091636 52.6448163,647.243466 52.6189039,647.37937 C52.6069444,647.436705 52.5959814,647.494039 52.5860152,647.551373 C52.5760489,647.608707 52.5665809,647.660733 52.5576112,647.707449 C52.5486415,647.754166 52.5411668,647.793981 52.535187,647.826895 C52.5292072,647.85981 52.5252207,647.880514 52.5232274,647.889007 C52.5172477,647.931477 52.5262173,647.959613 52.5501365,647.973416 C52.5740556,647.987219 52.6009645,647.99412 52.6308635,647.99412 L52.6491765,647.991333 L52.6491765,647.991333 L52.6742168,647.982972 C52.6931528,647.97554 52.7076039,647.9697 52.7175701,647.965453 L53.4979317,647.481297 C53.6394532,647.570484 53.7680187,647.650115 53.8836288,647.72019 C53.9334604,647.749918 53.9827937,647.779647 54.0316286,647.809376 C54.0804636,647.839105 54.1248136,647.86671 54.164679,647.892192 C54.2045442,647.917674 54.238928,647.938909 54.2678305,647.955897 C54.2967328,647.972885 54.3161671,647.983502 54.3261333,647.987749 C54.3460659,647.998367 54.3664968,648.002083 54.3874262,647.998897 C54.4083554,647.995712 54.4272913,647.987749 54.4442342,647.975008 C54.461177,647.962267 54.4736348,647.946872 54.4816079,647.928822 C54.4895809,647.910773 54.4915742,647.892192 54.4875877,647.873081 C54.4855944,647.864587 54.4806113,647.843883 54.4726382,647.810969 L54.4599311,647.75682 L54.4599311,647.75682 L54.4457292,647.693115 C54.4357629,647.64746 54.4243016,647.597027 54.4113453,647.541817 C54.3983891,647.486606 54.3849346,647.430334 54.3709819,647.372999 C54.3410829,647.241343 54.3071975,647.092699 54.2693254,646.927066 C54.386928,646.818768 54.492571,646.72215 54.5862555,646.63721 C54.6261206,646.601111 54.6654877,646.565543 54.7043564,646.530505 C54.7432251,646.495468 54.778107,646.463615 54.8090026,646.434948 C54.8398983,646.406281 54.8653123,646.382923 54.885245,646.364873 C54.9051776,646.346823 54.9161406,646.336737 54.9181338,646.334613 C54.9420529,646.311255 54.9624838,646.285242 54.9794267,646.256575 C54.9963694,646.227908 55.0028475,646.19871 54.998861,646.168981 C54.9948745,646.139253 54.9839115,646.115894 54.9659722,646.098907 C54.9480329,646.081919 54.9281002,646.071301 54.9061744,646.067054 L53.9822984,645.977868 L53.6384602,645.124224 C53.6265006,645.090248 53.6095579,645.06105 53.5876321,645.03663 C53.5657062,645.01221 53.5358074,645 53.4979353,645 Z M66.4979353,645 C66.4780027,645 66.4605617,645.004778 66.4456122,645.014334 C66.4306628,645.023889 66.4182049,645.035038 66.4082386,645.047779 C66.3982723,645.06052 66.3898009,645.07326 66.3828245,645.086001 C66.3758481,645.098742 66.3703666,645.10936 66.3663801,645.117854 L66.0315122,645.971497 L65.1076362,646.063869 C65.0677711,646.074486 65.0398653,646.087227 65.0239191,646.102091 C65.007973,646.116956 65,646.140314 65,646.172166 C65,646.201895 65.0084714,646.227908 65.0254141,646.250205 C65.0423568,646.272501 65.0637845,646.299576 65.0896968,646.331428 L65.7086007,646.923881 C65.6747153,647.091636 65.6448163,647.243466 65.6189039,647.37937 C65.6069444,647.436705 65.5959814,647.494039 65.5860152,647.551373 C65.5760489,647.608707 65.5665809,647.660733 65.5576112,647.707449 C65.5486415,647.754166 65.5411668,647.793981 65.535187,647.826895 C65.5292072,647.85981 65.5252207,647.880514 65.5232274,647.889007 C65.5172477,647.931477 65.5262173,647.959613 65.5501365,647.973416 C65.5740556,647.987219 65.6009645,647.99412 65.6308635,647.99412 L65.6491765,647.991333 L65.6491765,647.991333 L65.6742168,647.982972 C65.6931528,647.97554 65.7076039,647.9697 65.7175701,647.965453 L66.4979317,647.481297 C66.6394532,647.570484 66.7680187,647.650115 66.8836288,647.72019 C66.9334604,647.749918 66.9827937,647.779647 67.0316286,647.809376 C67.0804636,647.839105 67.1248136,647.86671 67.164679,647.892192 C67.2045442,647.917674 67.238928,647.938909 67.2678305,647.955897 C67.2967328,647.972885 67.3161671,647.983502 67.3261333,647.987749 C67.3460659,647.998367 67.3664968,648.002083 67.3874262,647.998897 C67.4083554,647.995712 67.4272913,647.987749 67.4442342,647.975008 C67.461177,647.962267 67.4736348,647.946872 67.4816079,647.928822 C67.4895809,647.910773 67.4915742,647.892192 67.4875877,647.873081 C67.4855944,647.864587 67.4806113,647.843883 67.4726382,647.810969 L67.4599311,647.75682 L67.4599311,647.75682 L67.4457292,647.693115 C67.4357629,647.64746 67.4243016,647.597027 67.4113453,647.541817 C67.3983891,647.486606 67.3849346,647.430334 67.3709819,647.372999 C67.3410829,647.241343 67.3071975,647.092699 67.2693254,646.927066 C67.386928,646.818768 67.492571,646.72215 67.5862555,646.63721 C67.6261206,646.601111 67.6654877,646.565543 67.7043564,646.530505 C67.7432251,646.495468 67.778107,646.463615 67.8090026,646.434948 C67.8398983,646.406281 67.8653123,646.382923 67.885245,646.364873 C67.9051776,646.346823 67.9161406,646.336737 67.9181338,646.334613 C67.9420529,646.311255 67.9624838,646.285242 67.9794267,646.256575 C67.9963694,646.227908 68.0028475,646.19871 67.998861,646.168981 C67.9948745,646.139253 67.9839115,646.115894 67.9659722,646.098907 C67.9480329,646.081919 67.9281002,646.071301 67.9061744,646.067054 L66.9822984,645.977868 L66.6384602,645.124224 C66.6265006,645.090248 66.6095579,645.06105 66.5876321,645.03663 C66.5657062,645.01221 66.5358074,645 66.4979353,645 Z M60.1416416,644.982536 C60.121709,644.982536 60.1042679,644.987314 60.0893185,644.996869 C60.074369,645.006425 60.0619111,645.017573 60.0519448,645.030314 C60.0419785,645.043055 60.0335071,645.055796 60.0265307,645.068537 L60.0100863,645.100389 L60.0100863,645.100389 L59.6752185,645.954033 L58.7513425,646.046405 C58.7114774,646.057022 58.6835716,646.069763 58.6676254,646.084627 C58.6516793,646.099492 58.6437062,646.12285 58.6437062,646.154702 C58.6437062,646.184431 58.6521776,646.210444 58.6691203,646.23274 C58.6860631,646.255037 58.7074907,646.282111 58.7334031,646.313964 L59.352307,646.906416 C59.3184215,647.074172 59.2885226,647.226001 59.2626102,647.361906 C59.2506506,647.41924 59.2396877,647.476574 59.2297214,647.533908 C59.2197551,647.591243 59.2102871,647.643268 59.2013175,647.689985 C59.1923478,647.736702 59.184873,647.776517 59.1788933,647.809431 C59.1729135,647.842345 59.168927,647.863049 59.1669337,647.871543 C59.1609539,647.914013 59.1699236,647.942149 59.1938427,647.955952 C59.2177619,647.969754 59.2446708,647.976656 59.2745697,647.976656 C59.284536,647.976656 59.2989872,647.97294 59.317923,647.965507 C59.336859,647.958075 59.3513101,647.952236 59.3612764,647.947989 L60.141638,647.463833 C60.2831595,647.55302 60.411725,647.63265 60.527335,647.702725 C60.5771667,647.732454 60.6265,647.762183 60.6753349,647.791912 C60.7241698,647.821641 60.7685198,647.849246 60.8083853,647.874728 C60.8482504,647.90021 60.8826342,647.921444 60.9115367,647.938432 C60.9404391,647.95542 60.9598733,647.966038 60.9698395,647.970285 C60.9897722,647.980902 61.010203,647.984618 61.0311324,647.981433 C61.0520617,647.978248 61.0709976,647.970285 61.0879405,647.957544 C61.1048832,647.944803 61.117341,647.929408 61.1253141,647.911358 C61.1332872,647.893308 61.1352804,647.874728 61.1312939,647.855617 C61.1293006,647.847123 61.1243175,647.826419 61.1163444,647.793505 C61.1083714,647.760591 61.0994017,647.721306 61.0894354,647.675651 C61.0794691,647.629996 61.0680078,647.579563 61.0550516,647.524352 C61.0420954,647.469142 61.0286409,647.412869 61.0146881,647.355535 C60.9847892,647.223879 60.9509037,647.075234 60.9130317,646.909602 C61.0306343,646.801304 61.1362772,646.704685 61.2299617,646.619746 C61.2698268,646.583647 61.3091939,646.548078 61.3480626,646.513041 C61.3869314,646.478003 61.4218132,646.446151 61.4527089,646.417484 C61.4836045,646.388817 61.5090185,646.365458 61.5289513,646.347409 C61.5488839,646.329359 61.5598469,646.319273 61.56184,646.317149 C61.5857592,646.293791 61.60619,646.267778 61.6231329,646.239111 C61.6400757,646.210444 61.6465538,646.181246 61.6425672,646.151517 C61.6385807,646.121788 61.6276178,646.09843 61.6096785,646.081442 C61.5917391,646.064454 61.5718065,646.053837 61.5498806,646.04959 L60.6260046,645.960403 L60.2821664,645.10676 C60.2702068,645.072784 60.2532641,645.043586 60.2313384,645.019166 C60.2094125,644.994746 60.1795136,644.982536 60.1416416,644.982536 Z" id="形状结合"></path>
        </g>
    </g>
</svg>
