<?xml version="1.0" encoding="UTF-8"?>
<svg width="20px" height="16px" viewBox="0 0 20 16" version="1.1" xmlns="http://www.w3.org/2000/svg" xmlns:xlink="http://www.w3.org/1999/xlink">
    <title>捕鱼</title>
    <g id="首页" stroke="none" stroke-width="1" fill-rule="evenodd">
        <g id="画板" transform="translate(-51.000000, -965.000000)" fill-rule="nonzero">
            <g id="编组-2备份" transform="translate(39.000000, 489.000000)">
                <g id="捕鱼" transform="translate(12.500000, 476.000000)">
                    <path d="M18.409993,12.3320858 C17.488215,11.316261 16.9593738,9.83190838 16.9593738,8.25907872 C16.9593738,6.68577718 17.488215,5.20338234 18.409993,4.18776462 C18.4915273,4.08809865 18.517988,3.94861267 18.4795595,3.82202878 L18.4795595,3.82202879 C18.4510986,3.70306121 18.3494359,3.62029926 18.2337058,3.6218824 L18.2337056,3.62188242 C17.3142934,3.68866086 16.4343691,4.04381313 15.7057552,4.6422009 L15.7057551,4.64220101 C15.1326197,5.11127267 14.6780784,5.7236997 14.3828064,6.42468305 L14.3828065,6.42468325 C13.7560916,5.4244736 12.906105,4.60390166 11.9083728,4.03588337 L11.9083735,4.03588374 C11.8056905,3.9766775 11.7018836,3.91969142 11.5970159,3.86496135 C12.5023687,2.78759068 14.0500667,1.96174525 14.0500667,1.96174525 C14.0500667,1.96174525 10.6248005,-0.117398394 9.2970079,0.00521776977 C8.37110106,0.0922624583 7.01075696,1.96907556 6.27731967,3.0916042 L6.27731938,3.09160426 C5.94522943,3.15341519 5.61685727,3.23589077 5.29390301,3.33860342 L5.29390242,3.33860361 C4.52731915,3.57907213 3.79938298,3.94095011 3.13472582,4.41199033 L3.13472615,4.41199009 C2.50396736,4.85952468 1.9478278,5.41523634 1.48908812,6.05636146 L1.48908822,6.05636132 C1.03980862,6.68247821 0.708197616,7.39433276 0.512302399,8.15319137 L0.512302404,8.15319135 C0.4958992,8.21973601 0.4958992,8.28963443 0.512302394,8.35617981 C0.709846758,9.11687731 1.04175838,9.82904704 1.48908821,10.4518932 L1.48908878,10.451894 C1.94852142,11.0925076 2.50529618,11.6475637 3.13659336,12.0943094 L3.13659386,12.0943098 C3.42708319,12.3036308 3.73098819,12.4912076 4.04609584,12.655675 C5.71158477,11.5191107 6.84057615,9.38214038 6.96945078,6.64078301 C7.16214282,9.14351795 6.53957881,11.4874534 5.22855626,13.1503001 C5.24919777,13.156797 5.2714424,13.1660184 5.29366496,13.1727016 L5.29366433,13.1727014 C5.70510016,13.3025791 6.12499403,13.4001645 6.54994233,13.4646659 C6.84054886,14.2044062 7.20502731,15.2892657 7.17674385,16 C7.17674385,16 8.24031114,14.9411893 8.7707556,14.9591891 C9.14744215,14.9720897 8.57806356,14.067668 8.2196484,13.5458198 L8.21964869,13.5458198 C8.91550207,13.5136981 9.60529726,13.3940528 10.2745435,13.1893973 C10.6639443,13.9022874 11.5342947,15.2909461 12.409365,15.2909461 C12.409365,15.2909461 13.5356696,13.3392455 14.234755,13.3392455 C14.234755,13.3392455 13.1531371,12.6593507 12.8194456,11.8503578 L12.819446,11.8503574 C13.4316821,11.3641811 13.9592647,10.7684913 14.3784758,10.090068 L14.3784757,10.0900676 C14.6741706,10.7920992 15.1296765,11.4052466 15.7040807,11.8744372 L15.7040806,11.8744371 C16.4323598,12.4766035 17.313417,12.8348109 18.2346464,12.9032782 L18.2346464,12.9032782 C18.3502052,12.9044357 18.4515984,12.8218339 18.4803251,12.7031318 C18.5227062,12.5748702 18.495433,12.4317048 18.4099461,12.3317604 L18.4099461,12.3320864 L18.409993,12.3320858 Z M4.33831994,7.29828526 C3.8266513,7.29828526 3.4118866,6.85838176 3.4118866,6.31578363 C3.4118866,5.77318729 3.8266496,5.33337565 4.33831994,5.33337565 C4.84998858,5.33337565 5.26479743,5.77318729 5.26479743,6.31578363 C5.26479743,6.85837996 4.84999028,7.29828526 4.33831994,7.29828526 Z" id="形状"></path>
                </g>
            </g>
        </g>
    </g>
</svg>
