<?xml version="1.0" encoding="UTF-8"?>
<svg width="30px" height="30px" viewBox="0 0 30 30" version="1.1" xmlns="http://www.w3.org/2000/svg" xmlns:xlink="http://www.w3.org/1999/xlink">
    <title>活动</title>
    <defs>
        <circle id="path-1" cx="15" cy="15" r="15"></circle>
        <filter id="filter-3">
            <feColorMatrix in="SourceGraphic" type="matrix" values="0 0 0 0 1.000000 0 0 0 0 1.000000 0 0 0 0 1.000000 0 0 0 1.000000 0"></feColorMatrix>
        </filter>
    </defs>
    <g id="会员中心" stroke="none" stroke-width="1" fill-rule="evenodd">
        <g id="交易记录-红利" transform="translate(-15.000000, -317.000000)">
            <g id="活动" transform="translate(15.000000, 317.000000)">
                <g id="Color/🎨4D4C4D">
                    <mask id="mask-2" fill="white">
                        <use xlink:href="#path-1"></use>
                    </mask>
                    <use id="蒙版" xlink:href="#path-1"></use>
                </g>
                <g id="优惠" transform="translate(7.000000, 7.000000)" filter="url(#filter-3)">
                    <g fill="#000000" fill-rule="nonzero" id="形状">
                        <path d="M15.3066745,15.2273268 C15.3066745,15.6536298 14.9866744,16 14.5866687,16 L8.58666872,16 L8.58666872,7.74039354 L15.3333426,7.74039354 L15.3066759,15.2273284 L15.3066745,15.2273268 Z M7.41333284,16 L1.41332854,16 C1.01332878,16 0.693327088,15.6536298 0.693327088,15.2273268 L0.693327088,7.74039197 L7.44000095,7.74039197 L7.44000095,16 L7.41333425,16 L7.41333284,16 Z M12.5599983,2.27839546 C13.0399992,1.63894256 12.1066638,0.333396147 11.1199969,0.812981915 C10.1599965,1.26592863 9.46666164,2.03860023 8.87998822,2.78463747 C9.38665574,2.83792526 9.9199898,2.83792526 10.4266573,2.81128137 C11.039991,2.78463747 12.1866619,2.75799357 12.5599967,2.27840343 L12.5599983,2.27839546 Z M5.013328,0.839625656 C4.31999465,0.546542947 3.91999332,0.866269553 3.62665974,1.34585985 C3.4666589,1.63894256 3.30665962,2.01195649 3.54665963,2.27839546 C4.21332643,2.99778115 6.02665474,2.9444921 7.2533284,2.8112734 C6.69332779,2.06524397 5.97332634,1.23928958 5.01331971,0.839617843 L5.013328,0.839625656 Z M8.64000651,7.15423609 L8.64000651,3.45073411 C8.45333911,3.42409021 8.26667329,3.42409021 8.13333899,3.39744632 L8.10667229,3.39744632 L8.13333899,3.39744632 C7.9466716,3.42409021 7.70667111,3.45073411 7.41333753,3.47737801 L7.41333753,7.15423609 L0,7.15423609 L0,4.19676838 C0,3.74382166 0.346666672,3.37080773 0.800001095,3.37080773 L4.1599985,3.37080773 C3.25333122,3.18429999 2.58666911,2.78464231 2.55999005,2.03861289 C2.53332335,1.15936476 3.49332388,-0.252761303 4.87998901,0.0669573345 C6.31999035,0.386683784 7.30665727,1.55901462 8.07999026,2.51819085 C8.85332481,1.50572245 9.94666417,0.226816653 11.4399877,0.0136604783 C12.6933232,-0.146203528 13.7066598,1.13270383 13.573327,1.98531603 C13.4666602,2.73134546 12.7733259,3.13100313 11.8933283,3.34415462 L15.1999989,3.34415462 C15.6533333,3.34415462 16,3.71716855 16,4.17011526 L16,7.12758297 L8.6399893,7.15423609 L8.64000651,7.15423609 Z"></path>
                    </g>
                </g>
            </g>
        </g>
    </g>
</svg>
