<?xml version="1.0" encoding="UTF-8"?>
<svg width="17px" height="17px" viewBox="0 0 17 17" version="1.1" xmlns="http://www.w3.org/2000/svg" xmlns:xlink="http://www.w3.org/1999/xlink">
    <title>icon-tx</title>
    <g id="首页" stroke="none" stroke-width="1" >
        <g id="首页_德晋贵宾厅_视讯直播" transform="translate(-160.000000, -379.000000)" >
            <g id="编组-4" transform="translate(16.000000, 295.000000)">
                <g id="申请取款" transform="translate(144.000000, 84.000000)">
                    <path d="M12.9533758,2.05593191 L12.9533759,2.05593201 C11.6438975,0.735186974 9.86224727,-0.00511330149 8.00548779,0 C4.14241014,0 1,3.14093083 1,6.9997893 L1,6.99979093 C0.999066129,7.28670814 1.23013027,7.52006406 1.51610057,7.52100388 C1.80206922,7.5219437 2.03465364,7.29011311 2.03559035,7.00319423 C2.03559035,7.00319423 2.03559035,7.00319422 2.03559035,7.00319422 C2.03559035,3.7192048 4.71113442,1.04671239 7.99869042,1.04671239 C11.2854009,1.04671239 13.9584084,3.71835647 13.9584084,7.00319422 L13.9584084,7.00317478 C13.9587979,8.13520607 13.6362761,9.24370033 13.0289377,10.1977401 L13.0289377,10.1977401 C12.8747,10.4410215 12.9462327,10.7636901 13.1887104,10.918439 C13.2716378,10.9713633 13.3678095,10.9996414 13.4660912,11 L13.4660911,11 C13.6436102,10.9990887 13.8091859,10.9101276 13.9083379,10.7623875 L13.9083378,10.7623877 C14.6235852,9.64166747 15.0025137,8.3382234 15,7.00744144 L15,7.00745096 C15.0071853,5.14835835 14.269797,3.36428482 12.9533919,2.05590878 L12.9533758,2.05593191 Z" id="路径"></path>
                    <g id="$" transform="translate(5.770462, 2.014928)">
                        <path d="M2.34857143,8.93454545 L2.34857143,8.07054545 C2.89714286,8.04109091 3.33428571,7.89381818 3.67714286,7.62872727 C4.09714286,7.28509091 4.31142857,6.76472727 4.31142857,6.07745455 C4.31142857,5.39018182 4.00285714,4.86981818 3.40285714,4.50654545 C3.21428571,4.41818182 2.86285714,4.27090909 2.34857143,4.05490909 L2.34857143,1.48254545 C2.64,1.52181818 2.88,1.62 3.06857143,1.79672727 C3.30857143,2.02254545 3.46285714,2.36618182 3.52285714,2.83745455 L4.20857143,2.83745455 C4.12285714,2.15018182 3.90857143,1.63963636 3.56571429,1.30581818 C3.25714286,1.01127273 2.84571429,0.844363636 2.34857143,0.805090909 L2.34857143,2.97943488e-14 L1.92,2.97943488e-14 L1.92,0.805090909 C1.42285714,0.824727273 1.02,0.981818182 0.702857143,1.25672727 C0.291428571,1.59054545 0.0942857143,2.08145455 0.0942857143,2.71963636 C0.0942857143,3.40690909 0.394285714,3.92727273 1.01142857,4.28072727 C1.31142857,4.39854545 1.61142857,4.52618182 1.92,4.66363636 L1.92,7.38327273 C1.56857143,7.344 1.29428571,7.20654545 1.10571429,6.98072727 C0.882857143,6.71563636 0.745714286,6.29345455 0.694285714,5.70436364 L-1.99840144e-14,5.70436364 C0.06,6.48981818 0.257142857,7.06909091 0.6,7.46181818 C0.908571429,7.82509091 1.34571429,8.03127273 1.92,8.07054545 L1.92,8.93454545 L2.34857143,8.93454545 Z M1.92,3.87818182 L1.70571429,3.78981818 C1.09714286,3.51490909 0.797142857,3.16145455 0.797142857,2.71963636 C0.797142857,2.28763636 0.925714286,1.96363636 1.18285714,1.75745455 C1.36285714,1.60036364 1.61142857,1.50218182 1.92,1.48254545 L1.92,3.87818182 Z M2.34857143,7.38327273 L2.34857143,4.84036364 C2.46,4.87963636 2.58,4.92872727 2.7,4.97781818 C3.3,5.24290909 3.60857143,5.616 3.60857143,6.09709091 C3.60857143,6.50945455 3.48,6.82363636 3.23142857,7.04945455 C3.00857143,7.24581818 2.70857143,7.35381818 2.34857143,7.38327273 Z"></path>
                    </g>
                    <path d="M1.10876102,9.88821772 C1.21076399,9.88821772 1.51762356,9.95594882 2.16449174,10.5861054 C2.47900139,10.8913248 2.72890739,11.2214059 2.95586435,11.5206238 C4.08384728,13.005566 5.21012684,14.0823992 9.45770046,14.3936268 L10.1955214,14.4476404 L10.1955215,14.4476404 C10.6809245,14.4851516 11.1045695,14.1186695 11.1417598,13.6290796 C11.1572122,13.4256597 11.1028323,13.223067 10.9877439,13.0552928 L10.565281,12.4431409 L10.5652816,12.4431418 C10.463483,12.296408 10.3656932,12.1468862 10.2720226,11.9947437 C10.219321,11.9055786 10.2006206,11.6989552 10.2354715,11.6372254 L10.2354715,11.6372254 C10.2644511,11.6260285 10.2954309,11.6210641 10.3264241,11.6226504 C10.4326772,11.6226504 10.8406899,11.669805 11.7408658,12.2588082 C11.8063177,12.3128216 11.88112,12.359119 11.9593225,12.3916986 L12.0128742,12.4148472 C12.5993905,12.6703399 14.5289513,13.489115 16.1133866,13.8732113 L16.1133866,16.1100615 L6.99516364,16.1083459 L6.98241327,16.1083459 C6.64325287,16.0380427 5.6903753,15.8082706 4.60405029,15.2329851 C2.93545908,14.3473361 1.6782672,13.0081414 0.973592273,11.3740205 C0.880089571,11.1125264 0.813787538,10.2637437 1.01864365,9.95252279 C1.06199498,9.88821772 1.07984537,9.88821772 1.10874625,9.88821772 M1.10874625,9 C0.771285902,9 0.484828778,9.15861105 0.285072652,9.45525705 C-0.175641477,10.1591462 0.0309148572,11.4280342 0.156718881,11.7161032 C0.947241465,13.5508491 2.34213258,15.037511 4.19178599,16.0200399 C5.49402426,16.7102113 6.61520699,16.9434126 6.87446494,16.9931394 L6.97221777,16.9982835 L16.5673021,17 L16.5673021,17 C16.8051251,17.0004746 16.9985608,16.8069035 16.9999828,16.5670325 L16.9999828,13.5088435 L16.9999828,13.5088418 C17.0017935,13.3043435 16.8601495,13.1270195 16.6616533,13.0853087 C15.1018571,12.7672289 12.9810404,11.8661474 12.3673283,11.5995091 L12.3061265,11.5737884 L12.289126,11.5566412 C11.4697025,11.0105042 10.8109323,10.7327219 10.3272758,10.7327219 C9.94646414,10.7327219 9.64130644,10.896477 9.46875115,11.1939805 C9.24774437,11.5866504 9.32509691,12.1336431 9.51210248,12.4482934 C9.57415421,12.555463 9.68040764,12.722648 9.83851249,12.9507052 L10.2592754,13.5619997 L9.52145442,13.5079863 C5.34188289,13.2019095 4.54455179,12.147361 3.65883127,10.9822133 C3.42932423,10.6787086 3.14541553,10.3031875 2.77990598,9.94909865 C2.11603728,9.30093775 1.58477099,9 1.10875805,9 L1.10874625,9 Z" id="形状"></path>
                </g>
            </g>
        </g>
    </g>
</svg>