<?xml version="1.0" encoding="UTF-8"?>
<svg width="17px" height="17px" viewBox="0 0 17 17" version="1.1" xmlns="http://www.w3.org/2000/svg" xmlns:xlink="http://www.w3.org/1999/xlink">
    <title>充值</title>
    <g id="首页" stroke="none" stroke-width="1" fill-rule="evenodd">
        <g id="首页_德晋贵宾厅_视讯直播" transform="translate(-41.000000, -379.000000)" fill-rule="nonzero">
            <g id="编组-4" transform="translate(16.000000, 295.000000)">
                <g id="充值" transform="translate(25.000000, 84.000000)">
                    <path d="M13.3939473,9.8241235 C15.3855038,9.8241235 17,11.4304842 17,13.4120525 C17,15.3936393 15.3855038,17 13.3939473,17 C11.4023721,17 9.78787596,15.3936393 9.78787596,13.4120525 C9.78787596,11.4305027 11.4023721,9.8241235 13.3939473,9.8241235 Z M8.24242481,0 C12.7945807,0 16.4848496,3.67172131 16.4848496,8.20100437 C16.4848496,8.50767322 16.2349813,8.75628197 15.9267607,8.75628197 C15.6229627,8.75628197 15.3758375,8.51473333 15.3688397,8.21410273 L15.3686905,8.20100437 C15.3686905,4.28505902 12.1781581,1.11055519 8.24242481,1.11055519 C4.30669155,1.11055519 1.11615917,4.28505902 1.11615917,8.20100437 C1.11615917,12.0778033 4.24320746,15.227894 8.12458178,15.290506 L8.24242481,15.2914536 C8.55064544,15.2914536 8.80051372,15.5400623 8.80051372,15.8467311 C8.80051372,16.1534 8.55064544,16.4020087 8.24242481,16.4020087 C3.69025027,16.4020087 0,12.730306 0,8.20100437 C0,3.67172131 3.69025027,0 8.24242481,0 Z M13.3939286,10.9346787 C12.0188134,10.9346787 10.9040351,12.0438404 10.9040351,13.4120525 C10.9040351,14.7802831 12.0188134,15.8894448 13.3939473,15.8894448 C14.7690626,15.8894448 15.8838408,14.7802831 15.8838408,13.4120525 C15.8838408,12.0438404 14.7690812,10.9346787 13.3939286,10.9346787 Z M13.4046773,11.4899563 C13.7084753,11.4899563 13.9556004,11.7314863 13.9625982,12.0321169 L13.9627475,12.0452339 L13.9627475,12.8674579 L14.7676817,12.8674579 C15.0759023,12.8674579 15.3257519,13.1160667 15.3257519,13.4227355 C15.3257519,13.7250197 15.0829748,13.9708973 14.7808562,13.9778645 L14.7676817,13.9780131 L13.9627475,13.9780131 L13.9627475,14.7788896 C13.9627475,15.0855585 13.7128793,15.3341672 13.4046773,15.3341672 C13.1008606,15.3341672 12.8537355,15.0926186 12.8467377,14.7920066 L12.8465884,14.7788896 L12.8465884,13.9780131 L12.0201943,13.9780131 C11.7119737,13.9780131 11.462124,13.729423 11.462124,13.4227355 C11.462124,13.1204514 11.7049012,12.8745738 12.0070198,12.8676066 L12.0201943,12.8674579 L12.8465884,12.8674579 L12.8465884,12.0452339 C12.8465884,11.7385464 13.0964566,11.4899563 13.4046773,11.4899563 L13.4046773,11.4899563 Z" id="形状"></path>
                    <g id="$" transform="translate(5.040509, 2.697292)">
                        <path d="M2.81828571,9.92727273 L2.81828571,8.96727273 C3.47657143,8.93454545 4.00114286,8.77090909 4.41257143,8.47636364 C4.91657143,8.09454545 5.17371429,7.51636364 5.17371429,6.75272727 C5.17371429,5.98909091 4.80342857,5.41090909 4.08342857,5.00727273 C3.85714286,4.90909091 3.43542857,4.74545455 2.81828571,4.50545455 L2.81828571,1.64727273 C3.168,1.69090909 3.456,1.8 3.68228571,1.99636364 C3.97028571,2.24727273 4.15542857,2.62909091 4.22742857,3.15272727 L5.05028571,3.15272727 C4.94742857,2.38909091 4.69028571,1.82181818 4.27885714,1.45090909 C3.90857143,1.12363636 3.41485714,0.938181818 2.81828571,0.894545455 L2.81828571,3.3104832e-14 L2.304,3.3104832e-14 L2.304,0.894545455 C1.70742857,0.916363636 1.224,1.09090909 0.843428571,1.39636364 C0.349714286,1.76727273 0.113142857,2.31272727 0.113142857,3.02181818 C0.113142857,3.78545455 0.473142857,4.36363636 1.21371429,4.75636364 C1.57371429,4.88727273 1.93371429,5.02909091 2.304,5.18181818 L2.304,8.20363636 C1.88228571,8.16 1.55314286,8.00727273 1.32685714,7.75636364 C1.05942857,7.46181818 0.894857143,6.99272727 0.833142857,6.33818182 L-2.39808173e-14,6.33818182 C0.072,7.21090909 0.308571429,7.85454545 0.72,8.29090909 C1.09028571,8.69454545 1.61485714,8.92363636 2.304,8.96727273 L2.304,9.92727273 L2.81828571,9.92727273 Z M2.304,4.30909091 L2.04685714,4.21090909 C1.31657143,3.90545455 0.956571429,3.51272727 0.956571429,3.02181818 C0.956571429,2.54181818 1.11085714,2.18181818 1.41942857,1.95272727 C1.63542857,1.77818182 1.93371429,1.66909091 2.304,1.64727273 L2.304,4.30909091 Z M2.81828571,8.20363636 L2.81828571,5.37818182 C2.952,5.42181818 3.096,5.47636364 3.24,5.53090909 C3.96,5.82545455 4.33028571,6.24 4.33028571,6.77454545 C4.33028571,7.23272727 4.176,7.58181818 3.87771429,7.83272727 C3.61028571,8.05090909 3.25028571,8.17090909 2.81828571,8.20363636 Z"></path>
                    </g>
                </g>
            </g>
        </g>
    </g>
</svg>