<?xml version="1.0" encoding="UTF-8"?>
<svg width="22px" height="23px" viewBox="0 0 22 23" version="1.1" xmlns="http://www.w3.org/2000/svg" xmlns:xlink="http://www.w3.org/1999/xlink">
    <title>-mockplus-</title>
    <defs>
        <filter id="filter-1">
            <feColorMatrix in="SourceGraphic" type="matrix" values="0 0 0 0 0.000000 0 0 0 0 0.627451 0 0 0 0 0.690196 0 0 0 1.000000 0"></feColorMatrix>
        </filter>
    </defs>
    <g id="代理" stroke="none" stroke-width="1" fill-rule="evenodd">
        <g id="代理注册" transform="translate(-20.000000, -475.000000)">
            <g id="#icon/pass" transform="translate(20.000000, 475.000000)">
                <g transform="translate(1.000000, 3.000000)">
                    <path d="M13.9670426,5.17746275 C17.0964404,5.17746275 19.8872103,7.36082368 19.9692156,10.0633796 L19.9692156,10.0633796 L19.9692156,10.1857409 C19.9692156,11.7420323 18.9121999,13.1206022 17.4945675,14.1592508 L17.4945675,14.1592508 L18.0256623,15.8834334 L16.0878001,14.8473717 C15.3970923,15.0463059 14.6851718,15.1627173 13.9670426,15.1935017 C10.6043046,15.1935017 7.9558154,12.9446916 7.9558154,10.1854822 C7.9558154,7.42627276 10.6037873,5.17746275 13.9670426,5.17746275 Z M7.2330298,3.01980663e-14 C10.6387107,0.0641556291 13.5973717,2.10859892 14.1990894,4.84530215 C13.9729925,4.81995033 13.7456022,4.80701573 13.5179532,4.80623965 C10.1611651,4.80623965 7.50957161,7.25398386 7.51034768,10.2682637 C7.51189983,10.757709 7.58510969,11.2443088 7.72816639,11.7125414 C7.51034768,11.7293564 7.29020075,11.7394454 7.06798427,11.7394454 C6.23292632,11.7081436 5.4035596,11.5919909 4.59204263,11.392798 L4.59204263,11.392798 L2.12153353,12.6029594 L2.82853891,10.5274731 C1.09633692,9.34550911 0.0450124172,7.82905629 0.00181084437,5.9863928 L0.00181084437,5.9863928 L0.00181084437,5.76469371 C0.0670012417,2.57295116 3.1444019,0.0646730132 6.92234065,3.01980663e-14 L6.92234065,3.01980663e-14 Z M12.1253136,7.93694405 L12.0180567,7.94184603 C11.6437293,7.96357616 11.3423531,8.25745033 11.3115687,8.63126035 C11.3405422,9.00610513 11.6426945,9.30127276 12.0180567,9.32170944 L12.0180567,9.32170944 C12.4511072,9.37422392 12.846906,9.065863 12.9025248,8.63126035 C12.8440604,8.19924462 12.4511072,7.89321192 12.0180567,7.94184603 Z M16.0138242,7.93734422 L15.9067156,7.94184603 C15.533423,7.96461093 15.2338576,8.2584851 15.204108,8.63126035 C15.2317881,9.00507036 15.5323882,9.30049669 15.9067156,9.32170944 L15.9067156,9.32170944 C16.3389901,9.371637 16.7329781,9.06431084 16.7909251,8.63126035 C16.7306498,8.20027939 16.3392488,7.89502276 15.9067156,7.94184603 Z M9.71957781,2.93486134 C9.19132864,2.88881416 8.72180257,3.26986755 8.65790563,3.79682326 C8.72154387,4.32352028 9.19081126,4.70509106 9.71931912,4.66059603 C9.75217301,4.66292425 9.7852856,4.66318295 9.81839818,4.66163079 C10.2742136,4.63938328 10.6255174,4.25212127 10.6035286,3.79656457 C10.6053394,3.76164114 10.604822,3.72697641 10.6022351,3.69231167 C10.5678291,3.23934189 10.1725476,2.90019661 9.71957781,2.93486134 Z M4.87622451,2.93355787 L4.77286838,2.93486134 C4.24254967,2.93486134 3.7078332,3.27918046 3.7078332,3.79630588 C3.7078332,4.31343129 4.24332575,4.66007864 4.77312707,4.66007864 L4.77312707,4.66007864 C4.8046875,4.66266556 4.83857616,4.66292425 4.87220613,4.6613721 C5.32750414,4.63886589 5.67803187,4.2513452 5.65552566,3.79630588 C5.65707781,3.76215853 5.65681912,3.72801118 5.6542322,3.69386382 C5.62034354,3.24089404 5.22583816,2.90097268 4.77286838,2.93486134 Z" id="形状结合" fill-rule="nonzero"></path>
                </g>
            </g>
        </g>
    </g>
</svg>
