<?xml version="1.0" encoding="UTF-8"?>
<svg width="20px" height="20px" viewBox="0 0 20 20" version="1.1" xmlns="http://www.w3.org/2000/svg" xmlns:xlink="http://www.w3.org/1999/xlink">
    <title>形状结合</title>
    <g id="代理" stroke="none" stroke-width="1" fill-rule="evenodd">
        <g id="代理注册" transform="translate(-20.000000, -526.000000)" fill-rule="nonzero">
            <path d="M25.5839844,526.007812 C26.4980469,526.007812 27.4003906,526.238281 28.203125,526.664062 C28.1679688,526.671875 28.1367188,526.675781 28.1015625,526.683594 L28.1015625,526.683594 L28.145,526.689813 L28.203125,526.667969 C28.2151693,526.679828 28.2277938,526.691687 28.2405513,526.703986 L28.3007812,526.712891 C28.2695312,526.693359 28.234375,526.677734 28.203125,526.662109 L28.203125,526.662109 C28.7910156,526.548828 29.3925781,526.494141 29.9941406,526.494141 C31.2675781,526.494141 32.5039062,526.744141 33.6679688,527.236328 C34.7890625,527.712891 35.7988281,528.390625 36.6660156,529.257812 C37.53125,530.125 38.2109375,531.134766 38.6875,532.259766 C39.1796875,533.423828 39.4296875,534.662109 39.4296875,535.933594 C39.4296875,536.505859 39.375,537.080078 39.2734375,537.642578 L39.279,537.601813 L39.3226563,537.642578 L39.3226563,537.642578 L39.302,537.697813 L39.4190243,537.9237 C39.7398539,538.588164 39.9280907,539.310129 39.9736261,540.045485 L39.984375,540.361328 C39.984375,541.851562 39.4042969,543.255859 38.3496094,544.310547 C37.296875,545.363281 35.890625,545.945312 34.4003906,545.945312 C33.4355469,545.945312 32.4882812,545.691406 31.6523438,545.21875 L31.7124023,545.250165 C31.6904297,545.255649 31.668457,545.26226 31.6464844,545.271875 C31.6314971,545.257118 31.6156114,545.242362 31.599689,545.226756 L31.2442322,545.283142 C30.8339844,545.338623 30.4179688,545.367188 30.0019531,545.367188 C28.7285156,545.367188 27.4921875,545.117188 26.328125,544.625 C25.203125,544.148438 24.1933594,543.470703 23.3261719,542.603516 C22.4609375,541.736328 21.78125,540.730469 21.3046875,539.605469 C20.8125,538.441406 20.5625,537.203125 20.5625,535.931641 C20.5625,535.386719 20.609375,534.839844 20.703125,534.304688 L20.702,534.310812 C20.6982075,534.302814 20.6991495,534.298929 20.7001055,534.294992 C20.2449149,533.472075 20,532.538739 20,531.591797 C20,530.101562 20.5800781,528.697266 21.6347656,527.642578 C22.6875,526.589844 24.09375,526.007812 25.5839844,526.007812 Z M29.8339844,529.765625 C27.59375,529.765625 25.2089844,530.71875 25.2089844,533.251953 C25.2089844,534.474609 25.6464844,535.773438 28.0449219,536.373047 L28.0449219,536.373047 L31.0273438,537.119141 C31.9296875,537.341797 32.15625,537.849609 32.15625,538.306641 C32.15625,539.066406 31.3984375,539.8125 30.0292969,539.8125 C27.3535156,539.8125 27.7265625,537.751953 26.2910156,537.751953 C25.6464844,537.751953 25.1777344,538.197266 25.1777344,538.830078 C25.1777344,540.068359 26.6757812,541.714844 30.0292969,541.714844 C33.21875,541.714844 34.8007812,540.175781 34.7988299,538.121094 C34.7988299,536.792969 34.1855469,535.380859 31.7695312,534.841797 L31.7695312,534.841797 L29.5605469,534.349609 C28.7226562,534.158203 27.7539062,533.904297 27.7539062,533.111328 C27.7539062,532.320312 28.4296875,531.765625 29.6542969,531.765625 C32.1210938,531.765625 31.8945313,533.458984 33.1210938,533.458984 C33.7636719,533.458984 34.3300781,533.080078 34.3300781,532.427734 C34.3300781,530.90625 31.8984375,529.765625 29.8339844,529.765625 Z" id="形状结合"></path>
        </g>
    </g>
</svg>
