<?xml version="1.0" encoding="UTF-8"?>
<svg width="15px" height="15px" viewBox="0 0 15 15" version="1.1" xmlns="http://www.w3.org/2000/svg" xmlns:xlink="http://www.w3.org/1999/xlink">
    <title>推荐码</title>
    <g id="代理" stroke="none" stroke-width="1" fill-rule="evenodd">
        <g id="代理注册" transform="translate(-24.000000, -629.000000)" fill-rule="nonzero">
            <g id="编组-2备份" transform="translate(20.000000, 626.000000)">
                <g id="推荐码" transform="translate(4.000000, 3.000000)">
                    <path d="M4.77275391,1.46484375e-05 L1.3636377,1.46484375e-05 C0.613623047,1.46484375e-05 1.33226763e-15,0.613637695 1.33226763e-15,1.36365234 L1.33226763e-15,4.77276855 C1.33226763e-15,5.52270996 0.613623047,6.13640625 1.3636377,6.13640625 L4.77275391,6.13640625 C5.52269531,6.13640625 6.1363916,5.52270996 6.1363916,4.77276855 L6.1363916,1.36365234 C6.1363916,0.613637695 5.52269531,1.46484375e-05 4.77275391,1.46484375e-05 Z M1.3636377,4.77276855 L4.77275391,4.77276855 L4.77275391,1.36365234 L1.3636377,1.36365234 L1.3636377,4.77276855 Z M4.77275391,8.86366699 L1.3636377,8.86366699 C0.613623047,8.86366699 1.33226763e-15,9.47729004 1.33226763e-15,10.2273193 L1.33226763e-15,13.636377 C1.33226763e-15,14.386377 0.613623047,15 1.3636377,15 L4.77275391,15 C5.52269531,15 6.1363916,14.386377 6.1363916,13.636377 L6.1363916,10.2273193 C6.1363916,9.47729004 5.52269531,8.86366699 4.77275391,8.86366699 L4.77275391,8.86366699 Z M1.3636377,13.6363916 L4.77275391,13.6363916 L4.77275391,10.2273193 L1.3636377,10.2273193 L1.3636377,13.6363916 L1.3636377,13.6363916 Z M13.636377,1.46484375e-05 L10.2273047,1.46484375e-05 C9.47727539,1.46484375e-05 8.86366699,0.613637695 8.86366699,1.36365234 L8.86366699,4.77276855 C8.86366699,5.52270996 9.47729004,6.13640625 10.22729,6.13640625 L13.636377,6.13640625 C14.3863916,6.13640625 15,5.52270996 15,4.77276855 L15,1.36365234 C15,0.613637695 14.386377,1.46484375e-05 13.6363623,1.46484375e-05 L13.636377,1.46484375e-05 Z M10.2273047,4.77276855 L13.6363623,4.77276855 L13.6363623,1.36365234 L10.2273047,1.36365234 L10.2273047,4.77276855 Z M7.50004395,2.3863916 C7.12501465,2.3863916 6.81815918,2.07955078 6.81815918,1.70455078 L6.81815918,0.68184082 C6.81815918,0.30684082 7.12501465,0 7.50004395,0 C7.87495605,0 8.18181152,0.306855469 8.18181152,0.68184082 L8.18181152,1.70453613 C8.18181152,2.07953613 7.8749707,2.3863916 7.50004395,2.3863916 L7.50004395,2.3863916 Z M7.50004395,8.18182617 C7.12501465,8.18182617 6.81815918,7.87498535 6.81815918,7.50005859 L6.81815918,3.75001465 C6.81815918,3.375 7.12501465,3.06815918 7.50004395,3.06815918 C7.87495605,3.06815918 8.18181152,3.375 8.18181152,3.75001465 L8.18181152,7.50004395 C8.18181152,7.87495605 7.8749707,8.18182617 7.50004395,8.18182617 L7.50004395,8.18182617 Z M7.50004395,14.4886523 C7.12501465,14.4886523 6.81815918,14.1818262 6.81815918,13.8068115 L6.81815918,10.0568701 C6.81815918,9.68187012 7.12501465,9.37501465 7.50004395,9.37501465 C7.87495605,9.37501465 8.18181152,9.68185547 8.18181152,10.0568701 L8.18181152,13.8068115 C8.18181152,14.1818262 7.8749707,14.4886523 7.50004395,14.4886523 Z M2.72726074,7.50005859 C2.72726074,7.1250293 3.03411621,6.81817383 3.40913086,6.81817383 L7.50004395,6.81817383 C7.87495605,6.81817383 8.18181152,7.1250293 8.18181152,7.50005859 C8.18181152,7.8749707 7.8749707,8.18182617 7.50004395,8.18182617 L3.40913086,8.18182617 C3.03411621,8.18182617 2.72726074,7.87498535 2.72726074,7.50005859 M0,7.50005859 C0,7.1250293 0.306855469,6.81817383 0.68184082,6.81817383 L1.3636377,6.81817383 C1.7386377,6.81817383 2.04549316,7.1250293 2.04549316,7.50005859 C2.04549316,7.8749707 1.7386377,8.18182617 1.3636377,8.18182617 L0.681855469,8.18182617 C0.30684082,8.18182617 0,7.87498535 0,7.50005859 M11.9318262,7.1250293 C10.8067969,7.1250293 9.88633301,8.04550781 9.88633301,9.17044922 C9.88633301,10.2954932 10.8067969,11.2159424 11.9318408,11.2159424 C13.0568408,11.2159424 13.9772461,10.2954785 13.9772461,9.17044922 C13.9772461,8.04550781 13.0568555,7.1250293 11.9318262,7.1250293 M11.9318262,8.31821777 C12.4091162,8.31821777 12.7841309,8.69315918 12.7841309,9.17044922 C12.7841309,9.64775391 12.4091162,10.0227539 11.9318262,10.0227539 C11.4545215,10.0227539 11.0795215,9.64775391 11.0795215,9.17044922 C11.0795215,8.72727539 11.4545215,8.31821777 11.9318262,8.31821777 M13.636377,11.7613916 L10.2273047,11.7613916 C9.47727539,11.7613916 8.86366699,12.3750146 8.86366699,13.1250293 C8.86366699,13.8750586 9.47729004,14.4886523 10.22729,14.4886523 L13.636377,14.4886523 C14.3863916,14.4886523 15,13.8750439 15,13.1250293 C15,12.3750146 14.3863916,11.7613916 13.636377,11.7613916 M13.636377,12.9545801 C13.7386377,12.9545801 13.8068115,13.0227539 13.8068115,13.1250293 C13.8068115,13.2273193 13.7386377,13.2954639 13.636377,13.2954639 L10.2273047,13.2954639 C10.1250146,13.2954639 10.0568555,13.2273193 10.0568555,13.1250293 C10.0568555,13.0227539 10.1250146,12.9545801 10.2273047,12.9545801 L13.6363623,12.9545801" id="形状"></path>
                </g>
            </g>
        </g>
    </g>
</svg>
