<?xml version="1.0" encoding="UTF-8"?>
<svg width="20px" height="20px" viewBox="0 0 20 20" version="1.1" xmlns="http://www.w3.org/2000/svg" xmlns:xlink="http://www.w3.org/1999/xlink">
    <title>icon-xm</title>
    <g id="首页" stroke="none" stroke-width="1" >
        <g id="首页_德晋贵宾厅_视讯直播" transform="translate(-279.000000, -378.000000)" >
            <g id="编组-4" transform="translate(16.000000, 295.000000)">
                <g id="icon-xm" transform="translate(273.000000, 93.000000) scale(-1, 1) translate(-273.000000, -93.000000) translate(263.000000, 83.000000)">
                    <path d="M10,0 C4.4771525,0 0,4.4771525 0,10 C0,15.5228475 4.4771525,20 10,20 C15.5228475,20 20,15.5228475 20,10 C20,7.3478351 18.9464316,4.80429597 17.0710678,2.92893219 C15.195704,1.0535684 12.6521649,0 10,0 Z M14.816376,1.81352423 C16.2099087,2.63403922 17.3716447,3.79577526 18.1921597,5.18930797 L16.3854523,6.43320898 L16.3047249,6.2967752 C15.6728015,5.22599113 14.7797123,4.33290194 13.7089283,3.70097857 L13.5713616,3.62025119 L14.816376,1.81352423 Z M15.8124109,8.33884798 C15.7692052,8.18421001 15.7168975,8.02957205 15.6611716,7.88403617 L15.8146766,7.82604449 C15.8726683,7.98181534 15.9283747,8.14100436 15.9704475,8.30019337 L15.8124109,8.33884798 Z M16.0875637,8.78000664 C16.1205292,8.94295209 16.1466992,9.10719887 16.1660058,9.27232064 L16.0034182,9.29165771 C15.9840811,9.13133582 15.9590796,8.96988105 15.9272418,8.81184444 L16.0875637,8.78000664 Z M15.8021759,11.6987128 L15.9590796,11.7441842 C15.9135887,11.9033732 15.8590152,12.0625623 15.7998906,12.2171807 L15.6475379,12.1580561 C15.6987128,12.0079887 15.751001,11.8533508 15.796492,11.6987128 L15.8021759,11.6987128 Z M15.9158544,11.2268492 C15.9488447,11.0688126 15.9749985,10.9073579 15.9954685,10.747036 L16.1569233,10.7675059 C16.137406,10.9327375 16.1104697,11.097008 16.0761959,11.2598199 L15.9158544,11.2268492 Z M16.035256,10.2626716 C16.035256,10.1762603 16.0409399,10.0875637 16.0409399,10.0000195 L16.0409399,9.7726234 L16.20468,9.7726234 L16.20468,10.0000195 C16.20468,10.075063 16.20468,10.1808114 16.198996,10.2694884 L16.035256,10.2626716 Z M10,15.469051 C7.78798151,15.469051 5.79377297,14.1365426 4.94727197,12.0929032 C4.10077097,10.0492638 4.56868166,7.69693439 6.13281772,6.13280391 C7.69695379,4.56867343 10.0492849,4.10077114 12.0929212,4.94727944 C14.1365576,5.79378775 15.4690315,7.78800104 15.4690315,10.0000195 C15.469332,11.450589 14.8932286,12.8418331 13.8675211,13.8675406 C12.8418136,14.8932481 11.4505694,15.4693515 10,15.469051 L10,15.469051 Z M15.0960798,13.5361056 C15.0017189,13.6725589 14.9005215,13.8055941 14.7947731,13.9340782 L14.6674219,13.8306151 C14.7709045,13.7055296 14.8686837,13.5747798 14.9607985,13.442897 L15.0960798,13.5361056 Z M14.4616286,14.3070102 C14.3479501,14.4264117 14.2262633,14.5423755 14.1011973,14.6481239 L13.9931832,14.5253237 C14.1144212,14.417926 14.2316123,14.3060449 14.3445124,14.1899135 L14.4616286,14.3070102 Z M11.949958,15.8897201 C11.7920819,15.942473 11.6320015,15.9883843 11.4701643,16.0273258 L11.4314901,15.8681368 C11.5888334,15.8295211 11.7447088,15.7851528 11.8988027,15.7351212 L11.949958,15.8897201 Z M10.9812489,16.1262379 C10.8175088,16.1512393 10.6503701,16.1717093 10.4855167,16.1842295 L10.4718441,16.0204895 C10.6333184,16.0079887 10.795906,15.9886517 10.9550755,15.9636502 L10.9812489,16.1262379 Z M9.98749927,16.0386937 L9.98749927,16.2035471 C9.82147391,16.2035471 9.65320234,16.1955974 9.48948181,16.1819443 L9.50198254,16.0193566 C9.66117155,16.0318573 9.82489208,16.0386937 9.98749927,16.0386937 L9.98749927,16.0386937 Z M9.0187511,15.960232 L8.99261675,16.1216868 C8.82838886,16.0947941 8.66528948,16.0614132 8.50370139,16.0216224 L8.542356,15.8624333 C8.69943487,15.9012442 8.85797787,15.9338689 9.01761822,15.960232 L9.0187511,15.960232 Z M6.36498232,14.8232123 L6.26605075,14.9551146 C6.13303514,14.8550501 6.00339864,14.7481688 5.87946559,14.6378889 L5.99316366,14.5162217 C6.10914702,14.62197 6.23536535,14.7254331 6.36498232,14.822099 L6.36498232,14.8232123 Z M5.63841631,14.1785261 L5.52473778,14.2922437 C5.41102018,14.1728422 5.29732211,14.0477762 5.19385902,13.9192921 L5.32121023,13.8158291 C5.41898939,13.9374963 5.52700354,14.060277 5.63841631,14.1773932 L5.63841631,14.1785261 Z M5.0255679,13.4246929 L4.89026701,13.5179405 C4.79563517,13.3809293 4.70649683,13.2402041 4.62306385,13.0960994 L4.76520109,13.0142391 C4.84592847,13.1529582 4.93347266,13.2973416 5.0255679,13.42356 L5.0255679,13.4246929 Z M4.00226576,9.26778913 C3.98269744,9.42866424 3.96941831,9.5902421 3.96245874,9.75215345 L3.79873821,9.74531711 C3.80573731,9.57887676 3.81900923,9.41275946 3.83852569,9.24731918 L4.00226576,9.26778913 Z M3.91925308,8.75498564 C3.9522433,8.59353087 3.99203078,8.42981034 4.03865461,8.27062133 L4.19555833,8.31611227 C4.1512198,8.47073071 4.11141278,8.62991972 4.08186027,8.78795633 L3.91925308,8.75498564 Z M3.96245874,10.2330996 C3.9681622,10.3945544 3.98179581,10.557142 3.99998047,10.7174639 L3.83739282,10.736801 C3.81760035,10.5714037 3.80470431,10.4052539 3.79873821,10.2387835 L3.96245874,10.2330996 Z M4.07617634,11.1972967 C4.10829494,11.3559198 4.14621321,11.5133132 4.18985487,11.6691603 L4.03297068,11.7146317 C3.98747974,11.5554427 3.94655937,11.3917222 3.91925308,11.2291345 L4.07617634,11.1972967 Z M4.34451237,12.129617 C4.40165233,12.2814789 4.46499041,12.4309359 4.53436725,12.577612 L4.38656562,12.6481044 C4.31508627,12.4973552 4.24984489,12.3437264 4.19100729,12.1876086 L4.34451237,12.129617 Z M4.19555833,7.79078852 C4.25468289,7.63615056 4.32062426,7.48151259 4.39224955,7.33597672 L4.54007071,7.40648866 C4.4701096,7.55266334 4.40637677,7.70173819 4.34904389,7.85331172 L4.19555833,7.79078852 Z M4.62421626,6.89139989 C4.70722894,6.74701643 4.79703889,6.6060316 4.89141942,6.4695783 L5.02672032,6.56280641 C4.93437072,6.6960234 4.84750917,6.8329623 4.7663535,6.97327968 L4.62421626,6.89139989 Z M5.1927066,6.07049241 C5.29732211,5.9431412 5.40760201,5.81692287 5.52358537,5.69754087 L5.63728343,5.81123894 C5.52510238,5.9287328 5.41746587,6.05001595 5.31437389,6.17508838 L5.1927066,6.07049241 Z M5.88401664,5.35189562 C6.00794968,5.23819755 6.13871907,5.13473446 6.27060179,5.03580288 L6.36838096,5.16655273 C6.23882646,5.26414938 6.11327372,5.36694781 5.99203078,5.47469578 L5.88401664,5.35189562 Z M8.51620212,3.97382659 C8.67652402,3.93517198 8.84137742,3.90106842 9.00509795,3.87491455 L9.03127136,4.03636932 C8.87208235,4.06252319 8.71176045,4.094361 8.55487626,4.13301561 L8.51620212,3.97382659 Z M9.50084966,3.81580952 C9.6668798,3.80210849 9.83340552,3.79527934 10,3.79533918 L10.0261539,3.79533918 L10.0261539,3.95907963 L9.99886712,3.95907963 C9.83741235,3.95907963 9.67367229,3.96589644 9.5145028,3.9784167 L9.50084966,3.81580952 Z M10.5116511,3.98066293 L10.5253042,3.81692287 C10.69131,3.83170889 10.8573159,3.85217884 11.0199035,3.87946559 L10.9937301,4.04092037 C10.8368459,4.01705178 10.6731058,3.99658183 10.5116706,3.98292869 L10.5116511,3.98066293 Z M11.4690119,4.13985194 L11.5088189,3.98066293 C11.6702736,4.02045042 11.8305955,4.06820712 11.9886321,4.12051487 L11.9351915,4.27628572 C11.7815387,4.22571768 11.6260352,4.18095675 11.4690119,4.14209817 L11.4690119,4.13985194 Z M14.0204699,5.49516573 L14.134168,5.37236557 C14.2581011,5.4860441 14.3786355,5.5997617 14.4934664,5.71345977 L14.3740844,5.82715784 C14.2581011,5.71574506 14.1410044,5.60202746 14.0204699,5.49516573 L14.0204699,5.49516573 Z M14.69131,6.19782409 L14.8186612,6.094361 C14.9232266,6.22404652 15.0229747,6.35754346 15.1177022,6.49457976 L14.9812489,6.58782741 C14.8914194,6.45481181 14.7925074,6.32404242 14.69131,6.19782409 L14.69131,6.19782409 Z M15.4496943,12.6048987 L15.5975155,12.6753911 C15.5259371,12.8255979 15.4481706,12.9727768 15.3644159,13.1165498 L15.2222982,13.0346895 C15.3030256,12.8948376 15.3848858,12.7504346 15.4496943,12.6048987 L15.4496943,12.6048987 Z M15.4656132,7.43035725 C15.3973866,7.28366896 15.3212102,7.13815263 15.2382171,6.99830068 L15.3803348,6.91755376 C15.4637713,7.06094057 15.5396795,7.20857777 15.6077505,7.35986484 L15.4656132,7.43035725 Z M13.3382815,4.76977167 C13.4781335,4.85958162 13.6157197,4.95509503 13.7476024,5.05513995 L13.6486904,5.18590933 C13.5196115,5.08751822 13.3864661,4.99457968 13.2496045,4.90733832 L13.3382815,4.76977167 Z M12.45823,4.30245913 C12.6094693,4.36726761 12.7606891,4.44002578 12.9130418,4.51848741 L12.8357326,4.6628904 C12.6935953,4.58671407 12.5457937,4.51620212 12.3979725,4.45252652 L12.45823,4.30245913 Z M10.0034182,0.503700235 C10.8089008,0.503305178 11.6111905,0.604926968 12.3911362,0.806140985 L11.9943161,2.96646288 L11.8396781,2.92667539 C10.6359913,2.61588481 9.37309122,2.61588481 8.16940446,2.92667539 L8.01478602,2.96646288 L7.61683302,0.806140985 C8.39532687,0.605427351 9.19604812,0.503810548 10,0.503700235 L10.0034182,0.503700235 Z M8.03978749,4.11485048 L8.09209524,4.27062133 C7.93859015,4.3217962 7.7851046,4.38429986 7.63728343,4.44344395 L7.57247495,4.29222415 C7.72142899,4.22626326 7.880618,4.1671387 8.03636932,4.11485048 L8.03978749,4.11485048 Z M7.12221419,4.50598668 L7.19839053,4.65605407 C7.05452962,4.73138982 6.91380518,4.81256898 6.77656894,4.89938864 L6.68902475,4.76066957 C6.82545852,4.66744145 6.97099439,4.5832959 7.11881556,4.50596715 L7.12221419,4.50598668 Z M5.18928843,1.81352423 L6.44002578,3.62025119 L6.3024396,3.70097857 C5.23197826,4.33293473 4.33926467,5.2260381 3.70777585,6.2967752 L3.62591558,6.43320898 L1.81920816,5.1893275 C2.63865115,3.79727916 3.79777122,2.63580698 5.18815556,1.81352423 L5.18928843,1.81352423 Z M0.5048538,10.0000195 C0.503960577,9.19450701 0.605583629,8.39215551 0.807273864,7.6123015 L2.96759576,8.0091021 L2.92780827,8.16374006 C2.61702165,9.36781104 2.61702165,10.6310756 2.92780827,11.8351466 L2.96759576,11.9886517 L0.807273864,12.3866047 C0.605314423,11.6071631 0.503305189,10.8052007 0.503700239,10.0000195 L0.5048538,10.0000195 Z M5.18930797,18.1864953 C3.79642074,17.3651468 2.63487276,16.2035988 1.81352423,14.8107116 L3.62025119,13.5656777 L3.70097857,13.7032639 C4.33293473,14.7737252 5.2260381,15.6664388 6.2967752,16.2979276 L6.43434186,16.3797879 L5.18930797,18.1864953 Z M7.10860011,15.4872356 C6.96191183,15.4099264 6.81639549,15.3257808 6.67767643,15.2370842 L6.76522062,15.0983847 C6.90180523,15.1859846 7.04216995,15.2675458 7.18590933,15.3428326 L7.10860011,15.4872356 Z M7.62366936,15.5520441 C7.77283966,15.6158466 7.92456465,15.6735026 8.07846163,15.7248667 L8.02617341,15.8806375 C7.87040256,15.8283298 7.71234643,15.766959 7.55999375,15.702131 L7.62366936,15.5520441 Z M10.0011524,19.4952048 C9.19564059,19.4960671 8.39329217,19.3944379 7.61343438,19.1927652 L8.01138739,17.0324433 L8.16602535,17.0722308 C9.36990647,17.3814875 10.6324179,17.3814875 11.836299,17.0722308 L11.9909174,17.0324433 L12.3877376,19.1927652 C11.6079413,19.3949188 10.805573,19.4969304 10,19.4963402 L10.0011524,19.4952048 Z M12.4195754,15.712366 L12.3547669,15.562279 C12.502588,15.4986034 12.6503897,15.4292634 12.7947927,15.3542004 L12.870969,15.4997363 C12.7232582,15.5774392 12.5722768,15.6487592 12.4184425,15.7134988 L12.4195754,15.712366 Z M13.2154814,15.1120183 C13.3519347,15.025607 13.4861027,14.9323789 13.6157001,14.8357326 L13.7146317,14.9676153 C13.5809676,15.0670229 13.4436785,15.1614612 13.3030451,15.2507373 L13.2154814,15.1120183 Z M14.8073129,18.1819443 L13.5656972,16.3809208 L13.702131,16.29908 C14.7718643,15.6674448 15.6638252,14.7746909 16.2945094,13.7043967 L16.3752368,13.5668301 L18.1819638,14.8118444 C17.3638257,16.2034615 16.2058026,17.3646098 14.8163955,18.1864953 L14.8073129,18.1819443 Z M17.0312909,11.9841202 L17.0722308,11.8305955 C17.3814853,10.6263305 17.3814853,9.36345405 17.0722308,8.15918901 L17.0312909,8.00457058 L19.1916128,7.60775045 C19.5950428,9.17400107 19.5950428,10.8169359 19.1916128,12.3831865 L17.0312909,11.9841202 Z" id="形状"></path>
                </g>
            </g>
        </g>
    </g>
</svg>
