<?xml version="1.0" encoding="UTF-8"?>
<svg width="86px" height="86px" viewBox="0 0 86 86" version="1.1" xmlns="http://www.w3.org/2000/svg" xmlns:xlink="http://www.w3.org/1999/xlink">
    <title>ios2@1x</title>
                <path d="M75,62.3011194 C74.8921761,62.6235333 73.2047324,68.4431048 69.0589041,74.4292568 C65.4683688,79.5932533 61.753836,84.8002384 55.893608,84.8915891 C50.1250303,84.9936868 48.2812419,81.4901221 41.6985938,81.4901221 C35.1267282,81.4901221 33.0619008,84.8002385 27.6114035,84.9936868 C21.9776056,85.2193766 17.6376944,79.351443 14.0417679,74.2143142 C6.67200544,63.6874993 1.00586041,44.3856517 8.60744413,31.4514793 C12.354324,24.9763328 19.0771431,20.8655552 26.3983848,20.7473367 C31.9189676,20.645239 37.1699907,24.4443498 40.5233135,24.4443498 C43.9682865,24.4443498 50.3191132,19.8499513 57.0203676,20.5377677 C59.8237885,20.6559861 67.6733672,21.6930843 72.7303073,28.9420242 C72.3367501,29.2107025 63.3388471,34.4553025 63.4412798,45.1379509 C63.5760597,58.0291347 74.8813938,62.2581308 75,62.3011194 M52.6373267,13.6273623 C55.6563954,9.9840849 57.645746,4.97592179 57.1228003,0 C52.809845,0.166580532 47.5480395,2.83186905 44.426538,6.4590258 C41.6608555,9.61868235 39.2294269,14.7074489 39.9087174,19.6242615 C44.7014889,19.9090605 49.6290404,17.1416742 52.6319355,13.6273623" id="形状"></path>
</svg>
