<?xml version="1.0" encoding="UTF-8"?>
<svg width="22px" height="22px" viewBox="0 0 22 22" version="1.1" xmlns="http://www.w3.org/2000/svg" xmlns:xlink="http://www.w3.org/1999/xlink">
    <title>编组 2</title>
    <g id="首页" stroke="none" stroke-width="1">
        <g id="首页_德晋贵宾厅_视讯直播" transform="translate(-338.000000, -99.000000)">
            <g id="编组-2" transform="translate(338.000000, 99.000000)">
                <path d="M11,0 C16.2653635,0 20.3384932,4.13778087 20.4622197,9.12273234 C21.331289,9.24228193 22,9.98072729 22,10.8735632 L22,14.9195402 C22,15.8971477 21.1982773,16.6896552 20.2093023,16.6896552 L19.1860465,16.6896552 C18.1970715,16.6896552 17.3953488,15.8971477 17.3953488,14.9195402 L17.3953488,10.8735632 C17.3953488,9.98319362 18.0603705,9.24636281 18.9261996,9.12194906 L18.9302326,9.35632184 C18.9302326,5.09001673 15.4830231,1.51724138 11,1.51724138 C6.5991054,1.51724138 3.1964201,4.96031009 3.07322346,9.12256306 C3.93962955,9.24636281 4.60465116,9.98319362 4.60465116,10.8735632 L4.60465116,14.9195402 C4.60465116,15.4383497 4.37885789,15.9050286 4.0191112,16.2287926 C5.08468843,17.5364702 6.0256316,18.3924677 6.81910599,18.7970536 C7.71403049,19.253368 8.55122674,19.5505895 9.32961259,19.692189 C9.77775605,19.2561751 10.5874618,18.9655172 11.5116279,18.9655172 C12.9244494,18.9655172 14.0697674,19.6448093 14.0697674,20.4827586 C14.0697674,21.3207079 12.9244494,22 11.5116279,22 C10.5504347,22 9.71305722,21.6855849 9.27591795,21.2207017 L9.35598814,21.2336705 C8.32879771,21.0878034 7.2491141,20.7235082 6.11547485,20.1454752 C4.99391252,19.5736001 3.77681817,18.422184 2.43222285,16.6895441 L1.79069767,16.6896552 C0.801722657,16.6896552 0,15.8971477 0,14.9195402 L0,10.8735632 C0,9.98072729 0.668710952,9.24228193 1.53805046,9.12092929 L1.53488372,9.35632184 C1.53488372,4.26771202 5.65260615,0 11,0 Z M2.81395349,10.6206897 L1.79069767,10.6206897 C1.64941553,10.6206897 1.53488372,10.733905 1.53488372,10.8735632 L1.53488372,14.9195402 C1.53488372,15.0591984 1.64941553,15.1724138 1.79069767,15.1724138 L2.81395349,15.1724138 C2.95523563,15.1724138 3.06976744,15.0591984 3.06976744,14.9195402 L3.06976744,10.8735632 C3.06976744,10.733905 2.95523563,10.6206897 2.81395349,10.6206897 Z M20.2093023,10.6206897 L19.1860465,10.6206897 C19.0447644,10.6206897 18.9302326,10.733905 18.9302326,10.8735632 L18.9302326,14.9195402 C18.9302326,15.0591984 19.0447644,15.1724138 19.1860465,15.1724138 L20.2093023,15.1724138 C20.3505845,15.1724138 20.4651163,15.0591984 20.4651163,14.9195402 L20.4651163,10.8735632 C20.4651163,10.733905 20.3505845,10.6206897 20.2093023,10.6206897 Z" id="路径" transform="translate(11.000000, 11.000000) scale(-1, 1) translate(-11.000000, -11.000000) "></path>
            </g>
        </g>
    </g>
</svg>
