<?xml version="1.0" encoding="UTF-8"?>
<svg width="20px" height="20px" viewBox="0 0 20 20" version="1.1" xmlns="http://www.w3.org/2000/svg"
     xmlns:xlink="http://www.w3.org/1999/xlink">
    <title>矩形 2备份</title>
    <path d="M16.0373462,8.01248537 L7.031012,8.01248537 L7.031012,4.65842854 C7.031012,3.54033635 8.39744433,2.29807409 10.0124854,2.29807409 C11.6274532,2.29807409 12.9938855,3.54033635 12.9938855,4.65842854 L12.9938855,5.5900703 C13.0561414,6.14920184 13.553017,6.58399241 14.1740383,6.58399241 C14.7951816,6.58399241 15.2299478,6.14920184 15.3542155,5.5900703 L15.3542155,4.65842854 C15.3540202,2.0498316 12.9317028,0 10.0124854,0 C7.09329235,0 4.67085287,2.11181898 4.67085287,4.65842854 L4.67085287,8.01248537 L3.98755125,8.01248537 C2.86965438,8.01248537 2,8.88206651 2,10.000061 L2,18.0124487 C2,19.1303456 2.86965438,20 3.98755125,20 L16.0371509,20 C17.1553408,20 18.0247022,19.1303456 18.0247022,18.0124487 L18.0247022,10.000061 C18.0248975,8.94415154 17.1553408,8.01248537 16.0373462,8.01248537 Z M11.0061389,15.4038518 L11.0061389,16.335518 C11.0061389,16.8945519 10.5712507,17.3914275 10.0122168,17.3914275 C9.45315851,17.3914275 9.01856326,16.9565393 9.01856326,16.335518 L9.01856326,15.4038518 C8.21118922,15.031073 7.65215534,14.2858573 7.65215534,13.3540202 C7.65215534,12.049795 8.70806483,11.0559705 10.0124854,11.0559705 C11.3166373,11.0559705 12.3728398,12.11188 12.3728398,13.3540202 C12.3725468,14.2858573 11.8137083,15.031073 11.0061389,15.4038518 Z"
          id="Fill-1"></path>
</svg>
