<?xml version="1.0" encoding="UTF-8"?>
<svg width="11px" height="11px" viewBox="0 0 11 11" version="1.1" xmlns="http://www.w3.org/2000/svg" xmlns:xlink="http://www.w3.org/1999/xlink">
    <title>礼物,礼物盒,礼品</title>
    <defs>
        <filter id="filter-1">
            <feColorMatrix in="SourceGraphic" type="matrix" values="0 0 0 0 0.141176 0 0 0 0 0.760784 0 0 0 0 0.603922 0 0 0 1.000000 0"></feColorMatrix>
        </filter>
    </defs>
    <g id="一级页面" stroke="none" stroke-width="1">
        <g id="我的-未登录" transform="translate(-42.000000, -181.000000)">
            <g id="礼物,礼物盒,礼品" transform="translate(42.000000, 178.000000)">
                <g transform="translate(0.000000, 3.000000)">
                    <path d="M9.17382813,2.14005923 C9.10507813,2.14005923 9.06425781,2.06031976 9.10292969,2.00162266 C9.27050781,1.74468437 9.35214844,1.46227376 9.33388672,1.18207813 C9.31347656,0.846507878 9.15126953,0.556344818 8.86445313,0.342598747 C8.65820312,0.188657276 8.38427734,0.0768005238 8.09423828,0.0258558644 C7.56787109,-0.0649585285 7.01035156,0.0889829424 6.52265625,0.461100455 C6.26054687,0.661556615 6.02207031,0.917387404 5.809375,1.22748533 C5.67294922,1.42572651 5.38613281,1.42572651 5.25078125,1.22748533 C5.03808594,0.917387404 4.79960937,0.661556615 4.5375,0.461100455 C4.04980469,0.0889829424 3.49228516,-0.0660660211 2.96591797,0.0258558644 C2.67587891,0.0768005238 2.40195312,0.188657276 2.19570313,0.342598747 C1.90888672,0.556344818 1.74560547,0.846507878 1.72519531,1.18207813 C1.70800781,1.46227376 1.78857422,1.74468437 1.95722656,2.00162266 C1.99589844,2.06031976 1.95615234,2.14005923 1.88632812,2.14005923 L1.375,2.14005923 C0.615527344,2.14005923 0,2.77465249 0,3.55764975 L0,4.97524028 C0,5.17126647 0.153613281,5.32963791 0.34375,5.32963791 L0.6015625,5.32963791 C0.648828125,5.32963791 0.6875,5.36950764 0.6875,5.41823732 L0.6875,10.2912047 C0.6875,10.6821496 0.995800781,11 1.375,11 L9.625,11 C10.0041992,11 10.3125,10.6821496 10.3125,10.2912047 L10.3125,5.41823732 C10.3125,5.36950764 10.3511719,5.32963791 10.3984375,5.32963791 L10.65625,5.32963791 C10.8463867,5.32963791 11,5.17126647 11,4.97524028 L11,3.55764975 C11,2.77465249 10.3844727,2.14005923 9.625,2.14005923 L9.17382813,2.14005923 Z M7.98037109,0.724683693 C8.04589844,0.735758619 8.62490234,0.847615371 8.64960937,1.22748533 C8.67001953,1.55862562 8.31552734,1.99719269 7.70429687,2.14005923 L6.221875,2.14005923 C6.15634766,2.14005923 6.11552734,2.06807221 6.14667969,2.00826761 C6.71708984,0.939537256 7.44111328,0.630546822 7.98037109,0.724683693 L7.98037109,0.724683693 Z M2.41162109,1.22748533 C2.43525391,0.847615371 3.01425781,0.736866111 3.08085938,0.724683693 C3.61904297,0.631654315 4.34414062,0.939537256 4.91455078,2.00826761 C4.94570312,2.06696472 4.90488281,2.14005923 4.83935547,2.14005923 L3.35693359,2.14005923 C2.74570313,1.99608519 2.39013672,1.55862562 2.41162109,1.22748533 Z M4.3828125,10.2912047 L1.546875,10.2912047 C1.45234375,10.2912047 1.375,10.2114653 1.375,10.1140059 L1.375,5.41823732 C1.375,5.36950764 1.41367188,5.32963791 1.4609375,5.32963791 L4.3828125,5.32963791 C4.43007813,5.32963791 4.46875,5.36950764 4.46875,5.41823732 L4.46875,10.2026053 C4.46875,10.251335 4.43007813,10.2912047 4.3828125,10.2912047 Z M5.7578125,10.2912047 L5.2421875,10.2912047 C5.19492188,10.2912047 5.15625,10.251335 5.15625,10.2026053 L5.15625,5.41823732 C5.15625,5.36950764 5.19492188,5.32963791 5.2421875,5.32963791 L5.7578125,5.32963791 C5.80507813,5.32963791 5.84375,5.36950764 5.84375,5.41823732 L5.84375,10.2026053 C5.84375,10.251335 5.80507813,10.2912047 5.7578125,10.2912047 Z M9.453125,10.2912047 L6.6171875,10.2912047 C6.56992188,10.2912047 6.53125,10.251335 6.53125,10.2026053 L6.53125,5.41823732 C6.53125,5.36950764 6.56992188,5.32963791 6.6171875,5.32963791 L9.5390625,5.32963791 C9.58632813,5.32963791 9.625,5.36950764 9.625,5.41823732 L9.625,10.1140059 C9.625,10.2114653 9.54765625,10.2912047 9.453125,10.2912047 Z M10.140625,4.62084265 L0.859375,4.62084265 C0.76484375,4.62084265 0.6875,4.54110318 0.6875,4.44364383 L0.6875,3.55764975 C0.6875,3.16670487 0.995800781,2.84885449 1.375,2.84885449 L9.625,2.84885449 C10.0041992,2.84885449 10.3125,3.16670487 10.3125,3.55764975 L10.3125,4.44364383 C10.3125,4.54110318 10.2351563,4.62084265 10.140625,4.62084265 Z" id="形状"></path>
                </g>
            </g>
        </g>
    </g>
</svg>
