<?xml version="1.0" encoding="UTF-8"?>
<svg width="10px" height="11px" viewBox="0 0 10 11" version="1.1" xmlns="http://www.w3.org/2000/svg" xmlns:xlink="http://www.w3.org/1999/xlink">
    <title>-mockplus-</title>
    <defs>
        <filter id="filter-1">
            <feColorMatrix in="SourceGraphic" type="matrix" values="0 0 0 0 0.141176 0 0 0 0 0.760784 0 0 0 0 0.603922 0 0 0 1.000000 0"></feColorMatrix>
        </filter>
    </defs>
    <g id="一级页面" stroke="none" stroke-width="1" fill-rule="evenodd">
        <g id="我的-未登录" transform="translate(-272.000000, -181.000000)">
            <g id="编组-4备份-3" transform="translate(272.000000, 178.000000)">
                <g id="活动" transform="translate(0.000000, 3.000000)">
                    <g fill-rule="nonzero" id="形状">
                        <path d="M8.15249385,10.9214654 C7.80049344,10.9214654 7.45182636,10.8151028 7.15582602,10.6062183 L5.45849332,9.41086431 L5.45849336,9.41086434 C5.14748388,9.19051795 4.72216828,9.19051795 4.41115881,9.41086428 L2.7138261,10.6062183 C2.1998255,10.967945 1.52649139,11.0220767 0.957157391,10.7469606 C0.387156728,10.4718445 0.033156316,9.92224908 0.033156316,9.31214866 L0.033156316,1.93305557 C0.033156316,1.01982293 0.810490554,0.277264173 1.76649167,0.277264173 L8.10382977,0.277264173 C9.05983088,0.277264173 9.83716512,1.01982293 9.83716512,1.93305557 L9.83716512,9.31279545 C9.83716512,9.9228909 9.48316471,10.4724863 8.91316404,10.7476074 L8.91316418,10.7476073 C8.67736833,10.8616854 8.41680943,10.921239 8.15249663,10.9214654 L8.15249385,10.9214654 Z M1.76581975,1.04147313 C1.25115248,1.04147313 0.832485329,1.44141044 0.832485329,1.93305312 L0.832485329,9.31279299 C0.832485329,9.63758285 1.01381887,9.91906738 1.31715256,10.0655412 C1.62048625,10.2120151 1.96515331,10.1846309 2.23848696,9.99166747 L3.93581967,8.79631345 C4.5331537,8.37599717 5.33515723,8.37599717 5.93248866,8.79631345 L7.62982136,9.99166747 C7.90315501,10.183994 8.24782208,10.2120151 8.55115577,10.0655412 C8.85448946,9.91906738 9.035823,9.63758285 9.035823,9.31279299 L9.035823,1.93305312 C9.035823,1.44141044 8.61715585,1.04147313 8.10248858,1.04147313 L1.76581454,1.04147313 L1.76581975,1.04147313 Z"></path>
                        <path d="M3.97248898,6.7857956 C3.82315548,6.7857956 3.67448864,6.74121661 3.54715515,6.65269545 L3.54715512,6.65269543 C3.32314445,6.49819014 3.2110727,6.23511683 3.25848812,5.97509464 L3.39248828,5.2268043 L2.82382095,4.69695105 C2.62448738,4.51162978 2.5544873,4.23969788 2.6404874,3.98687127 C2.7264875,3.73404466 2.95048776,3.55381814 3.22582142,3.51560757 L4.01182233,3.40670744 L4.36315607,2.72592244 C4.48582288,2.48774321 4.73515651,2.33999567 5.01315683,2.33999567 C5.29115715,2.33999567 5.54049078,2.48774321 5.66315759,2.72592244 L6.01449133,3.40670744 L6.80049224,3.51560757 C7.0758259,3.55381814 7.29982616,3.73404466 7.38582626,3.98687127 C7.47182636,4.23969788 7.40182627,4.51162978 7.20249271,4.69695105 L6.63382538,5.2268043 L6.76782554,5.9744578 C6.81449226,6.23620021 6.70449213,6.49603209 6.47915853,6.65205859 L6.47915855,6.65205858 C6.25636141,6.80800796 5.95983763,6.82854116 5.71582432,6.70491653 L5.01249017,6.3521056 L4.30915602,6.70491653 C4.20382256,6.75968502 4.08782243,6.7857956 3.97248896,6.7857956 L3.97248898,6.7857956 Z M5.01382353,5.57897841 C5.12982366,5.57897841 5.24515713,5.60572581 5.35115725,5.65858377 L5.95515796,5.96172096 L5.83982449,5.31978337 C5.79915777,5.09497785 5.87715787,4.86571442 6.0484914,4.70650371 L6.53649197,4.25179792 L5.86182451,4.15818202 C5.62582424,4.12570304 5.421824,3.98368708 5.31582388,3.77926053 L5.01382353,3.19527564 L4.71182318,3.77926053 L4.71182319,3.7792605 C4.60610132,3.98363232 4.40196606,4.12530125 4.16582256,4.15818199 L3.49182177,4.25179789 L3.97982234,4.70650368 C4.1504892,4.8657144 4.22848929,5.09497782 4.18848925,5.31978335 L4.07315578,5.96172096 L4.67648982,5.65858374 C4.78248994,5.60572578 4.89782341,5.57897838 5.01382354,5.57897838 L5.01382353,5.57897841 Z"></path>
                    </g>
                </g>
            </g>
        </g>
    </g>
</svg>
