<?xml version="1.0" encoding="UTF-8"?>
<svg width="11px" height="11px" viewBox="0 0 11 11" version="1.1" xmlns="http://www.w3.org/2000/svg" xmlns:xlink="http://www.w3.org/1999/xlink">
    <title>3.1红包</title>
    <defs>
        <filter id="filter-1">
            <feColorMatrix in="SourceGraphic" type="matrix" values="0 0 0 0 0.141176 0 0 0 0 0.760784 0 0 0 0 0.603922 0 0 0 1.000000 0"></feColorMatrix>
        </filter>
    </defs>
    <g id="一级页面" stroke="none" stroke-width="1" fill-rule="evenodd">
        <g id="我的-未登录" transform="translate(-118.000000, -181.000000)">
            <g id="3.1红包" transform="translate(118.000000, 178.000000)">
                <g transform="translate(0.000000, 3.000000)">
                    <path d="M9.8276413,0 L1.17235869,0 C0.5260415,0 0,0.554635411 0,1.23707238 L0,9.76292762 C0,10.4449358 0.526027474,11 1.17235869,11 L9.8276413,11 C10.4739585,11 11,10.4449358 11,9.76292762 L11,4.80328318 L11,4.66364979 L11,1.23707933 C11,0.554640916 10.4739585,0 9.82764131,0 L9.8276413,0 Z M5.59220579,2.8024698 L1.78298715,0.796887293 L9.44033207,0.796887293 L5.59220579,2.8024698 Z M10.244789,4.66622442 L10.244789,4.80326348 L10.244789,9.70309103 C10.244789,9.97890353 10.0323342,10.2035117 9.77094329,10.2035117 L1.22904547,10.2035117 C0.967668552,10.2035117 0.754802747,9.97890355 0.754802747,9.70309104 L0.754802747,1.29686958 C0.754802747,1.24824478 0.768796653,1.20417108 0.781125581,1.15968217 L5.40412278,3.61941815 C5.42032696,3.62850566 5.43746414,3.63319024 5.45425684,3.6395945 C5.46477738,3.64359717 5.47459458,3.64908228 5.48544524,3.65215098 C5.51822682,3.66134227 5.55139594,3.66675331 5.58434977,3.66675331 C5.58450764,3.66675331 5.58460812,3.66669402 5.58460812,3.66669402 C5.58489518,3.66669402 5.5850387,3.66675331 5.5850387,3.66675331 C5.5855554,3.66675331 5.58595728,3.66648646 5.5863448,3.66648646 C5.63808636,3.66618997 5.6878615,3.65185458 5.73505365,3.63067007 C5.74096697,3.62803127 5.74731086,3.62927655 5.75318119,3.62631162 L10.2439709,1.2925982 C10.2439996,1.29411031 10.244789,1.29537041 10.244789,1.2968677 L10.244789,4.66621444 L10.244789,4.66622442 Z M7.08734507,6.87098891 L7.18211605,6.86907653 L7.18211605,6.85380722 C7.30724299,6.81212025 7.39831202,6.69051392 7.39831202,6.54714461 C7.39831202,6.36973806 7.25874462,6.22558356 7.08734493,6.22558356 L5.87979404,6.22558356 L5.87979404,5.95257285 L7.14251693,4.67357649 L7.20248254,4.60972671 L7.19694239,4.60246263 C7.22284908,4.55849265 7.23839306,4.50838539 7.24172293,4.45525426 C7.24690427,4.36922674 7.21914612,4.28625308 7.16361548,4.22126143 C7.05477884,4.09430316 6.85302333,4.07633622 6.72048907,4.19754198 L5.57291823,5.36640659 L4.35833338,4.13521884 C4.23504354,4.02203265 4.02774741,4.03426302 3.91891119,4.16197737 C3.82525975,4.27056799 3.81637537,4.42732445 3.88746444,4.54547621 L3.88080478,4.55426724 L5.25494885,5.94224072 L5.25494885,6.22558503 L4.04739796,6.22558503 L3.95262698,6.22671169 L3.95262698,6.24201071 C3.82751435,6.28369768 3.73644689,6.40527503 3.73644689,6.54827347 C3.73644689,6.69128698 3.82752922,6.81287882 3.95262698,6.85455072 L3.95262698,6.87097639 L5.25496442,6.87097639 L5.25496442,7.3665352 L3.95262698,7.36729126 L3.95262698,7.38259027 C3.82712681,7.42387697 3.7360738,7.54548373 3.7360738,7.68885304 C3.7360738,7.8322519 3.82712738,7.95382925 3.95262698,7.99551564 L3.95262698,8.01194131 L5.25496442,8.01194131 L5.25496442,9.24240182 L5.25605523,9.34025929 L5.2708672,9.34025929 C5.31122708,9.46950057 5.42893408,9.56357809 5.56739425,9.56357809 C5.70582623,9.56357809 5.82354655,9.46950086 5.86390728,9.34025929 L5.87981004,9.34025929 L5.87981006,8.01194044 L7.08736095,8.01194044 L7.18213193,8.01002807 L7.18213193,7.99475875 C7.30725887,7.95307179 7.39831202,7.83149443 7.39831202,7.68809615 C7.39831202,7.5106896 7.2587605,7.3665351 7.08736081,7.3665351 L5.87980992,7.3665351 L5.87980992,6.87097629 L7.08734678,6.87097629 L7.08734507,6.87098891 Z" id="形状" ></path>
                </g>
            </g>
        </g>
    </g>
</svg>
