<?xml version="1.0" encoding="UTF-8"?>
<svg width="11px" height="11px" viewBox="0 0 11 11" version="1.1" xmlns="http://www.w3.org/2000/svg" xmlns:xlink="http://www.w3.org/1999/xlink">
    <title>生日礼金</title>
    <defs>
        <filter id="filter-1">
            <feColorMatrix in="SourceGraphic" type="matrix" values="0 0 0 0 0.141176 0 0 0 0 0.760784 0 0 0 0 0.603922 0 0 0 1.000000 0"></feColorMatrix>
        </filter>
    </defs>
    <g id="一级页面" stroke="none" stroke-width="1" fill-rule="evenodd">
        <g id="我的-未登录" transform="translate(-194.000000, -181.000000)">
            <g id="生日礼金" transform="translate(194.000000, 178.000000)">
                <g transform="translate(0.000000, 3.000000)">
                    <path d="M10.30426,10.2882561 L10.30426,4.06050401 L7.63522668,4.06050401 L7.63522668,1.39147132 L6.92348262,1.39147132 L6.92348262,4.06050401 L5.85586653,4.06050401 L5.85586653,1.39147132 L5.14412246,1.39147132 L5.14412246,4.06050401 L4.07650637,4.06050401 L4.07650637,1.39147132 L3.36476231,1.39147132 L3.36476231,4.06050401 L0.695728954,4.06050401 L0.695728954,10.2882561 L0,10.2882561 L0,11 L11,11 L11,10.2882561 L10.304271,10.2882561 L10.30426,10.2882561 Z M3.36476506,4.77224514 L9.59251873,4.77224514 L9.59251873,8.86477385 L1.40747302,8.86477385 L1.40747302,4.77224514 L3.36476506,4.77224514 Z M1.40747302,10.2882561 L1.40747302,9.57651223 L9.59251873,9.57651223 L9.59251873,10.2882561 L1.40747302,10.2882561 Z M3.36476506,0 L4.07650912,0 L4.07650912,1.06761583 L3.36476506,1.06761583 L3.36476506,0 Z M5.14412522,4.4408921e-16 L5.85586928,4.4408921e-16 L5.85586928,1.06761583 L5.14412522,1.06761583 L5.14412522,4.4408921e-16 Z M6.92348537,4.4408921e-16 L7.63522944,4.4408921e-16 L7.63522944,1.06761583 L6.92348537,1.06761583 L6.92348537,4.4408921e-16 Z" id="形状"></path>
                </g>
            </g>
        </g>
    </g>
</svg>
