<?xml version="1.0" encoding="UTF-8"?>
<svg width="107px" height="17px" viewBox="0 0 107 17" version="1.1" xmlns="http://www.w3.org/2000/svg" xmlns:xlink="http://www.w3.org/1999/xlink">
    <title>-mockplus-</title>
    <defs>
        <filter id="filter-1">
            <feColorMatrix in="SourceGraphic" type="matrix" values="0 0 0 0 1.000000 0 0 0 0 1.000000 0 0 0 0 1.000000 0 0 0 1.000000 0"></feColorMatrix>
        </filter>
    </defs>
    <g id="一级页面" stroke="none" stroke-width="1" fill="none" fill-rule="evenodd">
        <g id="首页备份-7" transform="translate(-138.000000, -103.000000)">
            <g id="编组" transform="translate(138.000000, 103.500000)" filter="url(#filter-1)">
                <g>
                    <polygon id="Fill-1" fill="#F6F6F6" points="84.5884601 0.742494118 84.0855913 1.75488627 76.9091044 15.8185725 82.0413609 15.8185725 89.8021364 0.742494118"></polygon>
                    <polygon id="Fill-2" fill="#F6F6F6" points="78.0015962 0.742494118 72.211742 12.1097098 70.7474329 12.1097098 76.4072026 0.742494118 71.1935262 0.742494118 65.5948994 12.1097098 63.8304913 12.1097098 69.4465875 0.742494118 64.233223 0.742494118 56.8658207 15.8185725 61.9980773 15.8185725 63.7684125 15.8185725 68.9006691 15.8185725 70.3225525 15.8185725 75.454809 15.8185725 77.367707 12.1097098 77.3639636 12.1097098 83.2152726 0.742494118"></polygon>
                    <polygon id="Fill-3" fill="#F6F6F6" points="91.1242259 0.691670588 83.4707624 15.7674353 88.0527332 15.7674353 92.6593484 6.55143529 94.4090948 15.7674353 99.0366108 15.7674353 97.7023863 8.89998431 97.6272055 8.52633725 96.0515292 0.691670588"></polygon>
                    <polygon id="Fill-4" fill="#25C39A" points="97.1911259 0.691670588 99.9048082 14.3961412 106.905977 0.691670588"></polygon>
                    <polygon id="Fill-5" fill="#F6F6F6" points="10.479293 0.313882353 8.42601603 0.313882353 7.60776239 0.313882353 7.22062828 1.08219608 0.819657434 13.7877647 0.000155976676 15.4147451 1.7327449 15.4147451 3.78570991 15.4147451 4.60427551 15.4147451 4.99172157 14.6461176 11.3923805 1.94054902 12.2121939 0.313882353"></polygon>
                    <g transform="translate(5.927114, 0.132173)" fill="#F6F6F6">
                        <path d="M10.9271644,7.66723137 C10.9012723,7.61232941 10.8731965,7.55836863 10.843249,7.50566275 C11.5863219,6.93938824 12.2766746,6.17766275 12.735558,5.26723137 C13.604972,3.54142745 13.3547854,2.40856471 12.9919837,1.7622902 C12.4201732,0.742996078 11.1464676,0.181741176 9.40607988,0.181741176 L8.52917901,0.181741176 L7.71030146,0.181741176 L7.32316735,0.950054902 L6.53205364,2.52056471 L5.71224023,4.1475451 L7.44514111,4.1475451 L8.11209738,4.1475451 C8.45150262,4.1475451 8.65770379,4.1808 8.77562216,4.21123137 C8.7559691,4.2620549 8.72758134,4.3273098 8.6864035,4.40887843 C8.07747055,5.61766275 7.60517318,5.61766275 6.89017609,5.61766275 L6.75510029,5.61703529 L6.61565714,5.61672157 L5.79054052,5.61672157 L4.97228688,5.61672157 L4.58515277,6.38534902 L3.88294577,7.77923137 L3.06313236,9.40621176 L4.79603324,9.40621176 L6.51552012,9.40621176 C6.63655802,9.40621176 6.71704198,9.42001569 6.76227522,9.43256471 C6.75790787,9.51915294 6.72078542,9.70487843 6.5791586,9.98503529 C6.14928688,10.8389961 5.4489516,11.3695059 4.75235977,11.3695059 L2.89249388,11.3695059 L2.07392828,11.3695059 L1.68710612,12.1381333 L0.922508455,13.6556235 L0.102695044,15.2826039 L1.83528397,15.2826039 L3.81837143,15.2826039 C5.53005948,15.2826039 8.89790787,14.347702 10.6632519,10.843702 C11.4169312,9.34723137 11.2228962,8.2902902 10.9271644,7.66723137" id="Fill-6"></path>
                        <polygon id="Fill-8" points="22.1918936 11.6681412 20.4589927 11.6681412 16.3836341 11.6681412 21.1736778 2.15974902 21.9934913 0.533082353 20.2609023 0.533082353 18.1726866 0.533082353 17.354121 0.533082353 16.9669869 1.3017098 10.566016 14.0072784 9.74620262 15.6339451 11.4791035 15.6339451 19.3755787 15.6339451 20.1941443 15.6339451 20.5812784 14.8656314 21.3723921 13.2951216"></polygon>
                        <polygon id="Fill-10" points="33.4953362 0.533019608 31.7624353 0.533019608 29.6745315 0.533019608 28.8559659 0.533019608 28.4688318 1.30164706 22.0678609 14.0072157 21.2483595 15.6338824 22.9809484 15.6338824 25.0691641 15.6338824 25.8874178 15.6338824 26.2748638 14.8655686 32.6755227 2.16"></polygon>
                        <polygon id="Fill-12" points="55.7826251 0.533019608 47.3773539 0.533019608 46.5591003 0.533019608 46.1716542 1.30164706 45.3271965 2.97788235 44.507695 4.60486275 46.240284 4.60486275 49.4668175 4.60486275 40.9598496 11.8923922 40.7424181 12.0784314 40.6154531 12.3306667 39.7709953 14.0072157 38.9514939 15.6338824 40.6840828 15.6338824 49.0893539 15.6338824 49.9076076 15.6338824 50.2947417 14.8655686 51.1391994 13.1890196 51.9590128 11.5623529 50.226112 11.5623529 47.009249 11.5623529 55.5071703 4.27419608 55.7242898 4.08815686 55.8512548 3.83623529 56.6960245 2.16 57.5155259 0.533019608"></polygon>
                        <polygon id="Fill-14" points="43.79223 0.533019608 35.3869589 0.533019608 34.5687052 0.533019608 34.1812592 1.30164706 33.3368015 2.97788235 32.5173 4.60486275 34.2498889 4.60486275 37.4764224 4.60486275 28.9694545 11.8923922 28.752023 12.0784314 28.625058 12.3306667 27.7806003 14.0072157 26.9607869 15.6338824 28.6936878 15.6338824 37.0989589 15.6338824 37.9172125 15.6338824 38.3043466 14.8655686 39.1488044 13.1890196 39.9686178 11.5623529 38.2357169 11.5623529 35.0188539 11.5623529 43.5167752 4.27419608 43.7338948 4.08815686 43.8608598 3.83623529 44.7053175 2.16 45.5251309 0.533019608"></polygon>
                    </g>
                </g>
            </g>
        </g>
    </g>
</svg>