<?xml version="1.0" encoding="UTF-8"?>
<svg width="30px" height="30px" viewBox="0 0 30 30" version="1.1" xmlns="http://www.w3.org/2000/svg" xmlns:xlink="http://www.w3.org/1999/xlink">
    <title>输</title>
    <defs>
        <circle id="path-1" cx="15" cy="15" r="15"></circle>
        <filter id="filter-3">
            <feColorMatrix in="SourceGraphic" type="matrix" values="0 0 0 0 1.000000 0 0 0 0 1.000000 0 0 0 0 1.000000 0 0 0 1.000000 0"></feColorMatrix>
        </filter>
    </defs>
    <g id="会员中心" stroke="none" stroke-width="1" fill-rule="evenodd">
        <g id="交易记录-红利" transform="translate(-15.000000, -216.000000)">
            <g id="输" transform="translate(15.000000, 216.000000)">
                <g id="Color/🎨4D4C4D">
                    <mask id="mask-2" fill="white">
                        <use xlink:href="#path-1"></use>
                    </mask>
                    <use id="蒙版" xlink:href="#path-1"></use>
                </g>
                <g filter="url(#filter-3)" id="Lose">
                    <g transform="translate(7.000000, 9.000000)" fill="#000000" fill-rule="nonzero" id="形状">
                        <path d="M15.6918723,11.7598232 L14.1366974,11.7598232 C13.7564252,8.71027589 11.1550236,6.35051534 8.00245431,6.35051534 C4.8499022,6.35051534 2.24848511,8.71027589 1.86821123,11.7598232 L0.313019108,11.7598232 C0.700731746,7.85481865 3.99542808,4.80501354 8.00242337,4.80501354 C12.0094358,4.80501354 15.3041459,7.85481865 15.6918723,11.7598232 L15.6918723,11.7598232 Z M11.0934888,3.25949455 C10.2399205,3.25949455 9.54796985,2.5675439 9.54796985,1.71397557 C9.54796985,0.860407228 10.2399205,0.168456579 11.0934888,0.168456579 C11.9470572,0.168456579 12.6390078,0.860407228 12.6390078,1.71397557 C12.6390078,2.5675439 11.9470572,3.25949455 11.0934888,3.25949455 Z M4.91143008,3.25949455 C4.05786175,3.25949455 3.3659111,2.5675439 3.3659111,1.71397557 C3.3659111,0.860407228 4.05786175,0.168456579 4.91143008,0.168456579 C5.76499842,0.168456579 6.45694907,0.860407228 6.45694907,1.71397557 C6.45694907,2.5675439 5.76499842,3.25949455 4.91143008,3.25949455 Z"></path>
                    </g>
                </g>
            </g>
        </g>
    </g>
</svg>
