<?xml version="1.0" encoding="UTF-8"?>
<svg width="30px" height="30px" viewBox="0 0 30 30" version="1.1" xmlns="http://www.w3.org/2000/svg" xmlns:xlink="http://www.w3.org/1999/xlink">
    <title>编组 12</title>
    <path d="M15.0001221,16.13106 C19.000061,16.13106 22.4249268,17.3101193 23.7000122,18.9714527 C24.0499878,19.427101 24.1251221,19.9093096 24.1251221,20.4183403 C24.1251221,20.9276327 24.0499878,21.4098414 23.7000122,21.8654896 C22.4249268,23.526823 19.000061,24.7058824 15.0001221,24.7058824 C10.999939,24.7058824 7.57501221,23.526823 6.29998779,21.8654896 C5.94995117,21.4098414 5.87512207,20.9276327 5.87512207,20.4183403 C5.87512207,19.9093096 5.94995117,19.427101 6.29998779,18.9714527 C7.57501221,17.3101193 10.999939,16.13106 15.0001221,16.13106 Z M7.10009766,13.9606958 C7.20001221,13.9606958 7.22503662,14.1214321 7.14996338,14.1750762 C1.95001221,18.6768024 4.22503662,21.9191338 3.64996338,21.7315755 C1.97503662,21.195461 0.999938965,20.5525161 0.349975586,19.5341276 C0.0750732422,19.0788064 4.73346852e-14,18.6231582 4.73346852e-14,18.1140621 C4.73346852e-14,17.6315917 0.0750732422,17.1493831 0.349975586,16.7206223 C1.34991455,15.166381 3.97491455,14.0409658 7.10009766,13.9606958 Z M22.9000854,13.9606958 C26.0250854,14.0409658 28.6500244,15.166381 29.6499634,16.7206223 C29.9251099,17.1493831 30,17.6315917 30,18.1140621 C30,18.6231582 29.9251099,19.0788064 29.6499634,19.5341276 C29.000061,20.5525161 28.0249023,21.195461 26.3500366,21.7315755 C25.7749634,21.9191338 28.0499268,18.6768024 22.8500366,14.1750762 C22.7749634,14.1214321 22.7999878,13.9606958 22.9000854,13.9606958 Z M12.125,0.825662094 C13.9041138,-0.275220698 16.0958862,-0.275220698 17.874939,0.825662094 C19.6540527,1.92654489 20.750061,3.96122854 20.750061,6.16299413 C20.750061,8.36502139 19.6540527,10.3994434 17.874939,11.5003262 C16.0958862,12.6014706 13.9041138,12.6014706 12.125,11.5003262 C10.3459473,10.3994434 9.24993896,8.36502139 9.24993896,6.16299413 C9.24993896,3.96122854 10.3459473,1.92654489 12.125,0.825662094 Z M8.25,0.937856888 C8.34991455,0.937856888 8.39996338,1.07177102 8.32507324,1.15223726 C6.72509766,3.10822101 6.57513428,8.89629481 8.22497559,11.093481 C8.32507324,11.2273952 8.22497559,11.4149534 8.04998779,11.4149534 C5.02490234,11.361571 2.59997559,9.03020895 2.59997559,6.16299413 C2.59997559,3.24233141 5.15008545,0.88414731 8.25,0.937856888 Z M21.75,0.937856888 C24.8499146,0.88414731 27.4000244,3.24233141 27.4000244,6.16299413 C27.4000244,9.03020895 24.9750366,11.361571 21.9500122,11.4149534 C21.7750244,11.4149534 21.6751099,11.2273952 21.7750244,11.093481 C23.4251099,8.89629481 23.2749023,3.10822101 21.6751099,1.15223726 C21.6000366,1.07177102 21.6500854,0.937856888 21.75,0.937856888 Z" id="path-3"></path>
</svg>
