<?xml version="1.0" encoding="UTF-8"?>
<svg width="20px" height="20px" viewBox="0 0 20 20" version="1.1" xmlns="http://www.w3.org/2000/svg"
     xmlns:xlink="http://www.w3.org/1999/xlink">
    <title>编组 7备份</title>
    <path d="M8.02801353,2.96432494 C10.3272472,2.96432494 11.5453636,5.03418507 11.5453636,6.96874855 C11.5453636,6.96874855 11.5457684,6.97846875 11.5461693,6.99718685 L11.5465671,7.13971649 C11.5391387,7.75693023 11.4107697,9.92538341 10.0398814,11.6631348 C9.7248311,12.0624665 9.64493128,12.4855476 9.71523084,12.8970749 C9.87176527,13.5532413 11.4350444,13.8570448 11.930853,14.072018 C12.4305687,14.2881913 13.3412815,14.6386844 14.2007557,15.1689311 C15.000033,15.6618932 16.0762386,16.4916178 16.0332886,17.4904073 L16.0332886,17.4904073 L16.0332886,17.6467185 C16.0332886,18.3977154 15.4007879,18.8859889 14.8900486,19.371667 L14.8900486,19.371667 L1.17906716,19.3700205 C0.760451285,19.0365511 -0.0377654591,18.8996358 0.00138907878,17.6464952 L0.00138907878,17.4901841 C-0.0136531849,16.2276944 1.63834458,15.2517892 2.55036903,14.7702693 C3.75997354,14.1312103 4.69075198,13.8438724 5.28705634,13.5931215 C5.60788354,13.4582713 5.7945304,13.2203022 5.94006919,13.0310599 C6.29728807,12.469082 6.52328482,11.84487 6.0224807,11.2969576 C4.83182553,9.99575992 4.51119368,8.35726949 4.51119368,6.96874855 C4.51119368,5.05313442 5.76148766,2.96432494 8.02801353,2.96432494 Z M11.9942873,1.6 C14.2934094,1.6 15.5115257,3.67008339 15.5115257,5.60464687 C15.5115257,5.60464687 15.6220682,8.25096897 14.0061552,10.2993681 C13.6911049,10.6987834 13.611205,11.1218645 13.6815046,11.5334197 C13.8382623,12.1891396 15.4013181,12.4931664 15.89735,12.707721 C16.3970658,12.9238942 17.3076669,13.2743594 18.1672527,13.8046062 C18.96653,14.2977915 20.0426239,15.1274044 19.9986972,16.1276173 L19.9986972,16.1276173 L19.9986972,16.2839285 C19.9986972,17.0349253 19.3661965,17.5231989 18.8553456,18.008877 L18.8553456,18.008877 L16.8350775,18.008877 C16.8539431,17.8922227 16.8634317,17.7742847 16.8634317,17.6560955 L16.8634317,17.6560955 L16.8634317,17.5165569 C16.9007165,16.4107133 16.1440264,15.3717087 14.6144598,14.4275345 C13.8366436,13.9475217 13.0320081,13.608387 12.4995845,13.3851252 C12.4043913,13.3440171 12.3144726,13.3063138 12.2388148,13.2734943 C12.0793221,13.2047017 11.8828796,13.1424675 11.6551526,13.0707168 C11.404625,12.9919053 11.121529,12.9024053 10.8760247,12.7992862 C10.760124,12.7531827 10.6489396,12.6962509 10.5437554,12.6293282 C10.5475508,12.4923013 10.5741469,12.3408739 10.6762054,12.2113542 C12.2470275,10.2188743 12.3860637,7.79242134 12.3918254,7.13712163 L12.3915418,7.0275378 L12.3915418,7.0275378 L12.3907723,6.99305618 C12.3872839,5.80404757 11.9936454,4.61981118 11.309348,3.74147135 C10.8779783,3.18800536 10.3439082,2.7665708 9.73931521,2.49304719 C10.3115352,1.94895819 11.068002,1.6 11.9942873,1.6 Z"
          id="形状结合"></path>
</svg>
