<?xml version="1.0" encoding="UTF-8"?>
<svg width="20px" height="20px" viewBox="0 0 20 20" version="1.1" xmlns="http://www.w3.org/2000/svg"
     xmlns:xlink="http://www.w3.org/1999/xlink">
    <title>编组 6</title>
    <path d="M15.5803761,0 L3.71521176,0 C2.76128073,0 2,0.754619283 2,1.6704009 L2,14.7828241 L17.2932928,14.7828241 L17.2932928,1.67269603 C17.2932928,0.741156434 16.5185772,0 15.5803761,0 Z M2,18.3295991 C2,19.2588156 2.77474358,20 3.71521176,20 L15.5803761,20 C16.5343072,20 17.2955879,19.2454927 17.2955879,18.3295991 L17.2955879,15.5530894 L2.00218316,15.5530894 L2.00218316,18.3295991 L2,18.3295991 Z M9.64664639,16.4017247 C10.42139,16.4017247 11.0573906,17.0219674 11.0573906,17.7765867 C11.0573906,18.531094 10.42139,19.1513367 9.64664639,19.1513367 C8.8719308,19.1513367 8.23604209,18.531094 8.23604209,17.7765867 C8.23604209,17.0219674 8.8719308,16.4017247 9.64664639,16.4017247 Z"
          id="Fill-1"></path>
</svg>
