<?xml version="1.0" encoding="UTF-8"?>
<svg width="20px" height="20px" viewBox="0 0 20 20" version="1.1" xmlns="http://www.w3.org/2000/svg"
     xmlns:xlink="http://www.w3.org/1999/xlink">
    <title>编组 4</title>
    <path d="M6.86440156,4.71732494 L14.0942304,4.69834914 C14.4289811,4.66257109 15.6595264,3.35934632 15.9426492,1.9835153 C16.2153195,0.681340672 15.3952572,0.268733014 13.3394478,0.268733014 C11.2782656,0.268733014 11.7045983,2.09512329 11.2888647,2.09512329 C11.0488464,2.09512329 10.8299043,0.692965487 9.89090743,0.0981706057 C9.22140602,-0.327112008 8.29288615,0.766621876 7.40339245,0.773972862 C6.36756284,0.783497395 5.01385804,0.663488278 5.01385804,2.05507141 C5.01385804,3.20985999 6.51074832,4.71732494 6.86440156,4.71732494 Z M6.56762688,4.91939157 C6.28438192,4.91939157 6.05388822,5.09415454 6.05388822,5.30574571 C6.05388822,5.51943716 6.28438192,5.69107413 6.56762688,5.69107413 L14.4721102,5.69107413 C14.7573333,5.69107413 14.9858244,5.51943716 14.9858244,5.30574571 C14.9858244,5.09415454 14.755233,4.91939157 14.4721102,4.91939157 L6.56762688,4.91939157 Z M14.9036692,6.36685196 L6.21492609,6.36685196 C3.39485837,7.8837926 1,10.8417951 1,14.7323959 C1,19.0210245 5.47491871,20 10.5845377,20 C15.692154,20 19.9481306,18.9735972 19.9481306,14.6819403 C19.9460303,11.0775151 17.8785716,7.96162513 14.9036692,6.36685196 Z M12.3625726,11.8565486 C12.7204997,11.8565486 13.0088977,12.1038934 13.0088977,12.4102171 C13.0088977,12.7154906 12.7204997,12.9628598 12.3625726,12.9628598 L11.0698248,12.9628598 L11.0698248,13.5165526 L12.3625726,13.5165526 C12.7204997,13.5165526 13.0088977,13.7639219 13.0088977,14.0703432 C13.0088977,14.3766668 12.7204997,14.624036 12.3625726,14.624036 L11.0698248,14.624036 L11.0698248,15.7872257 C11.0698248,16.0935494 10.7804011,16.3409186 10.4234998,16.3409186 C10.0666229,16.3409186 9.77717473,16.0935494 9.77717473,15.7872257 L9.77717473,14.624036 L8.48454906,14.624036 C8.12764771,14.624036 7.83812633,14.3766668 7.83812633,14.0703432 C7.83812633,13.7639219 8.12764771,13.5165526 8.48454906,13.5165526 L9.77717473,13.5165526 L9.77717473,12.9628598 L8.48454906,12.9628598 C8.12764771,12.9628598 7.83812633,12.7154906 7.83812633,12.4102171 C7.83812633,12.1038934 8.12764771,11.8565486 8.48454906,11.8565486 L9.77717473,11.8565486 L9.77717473,11.533325 L7.96453398,10.0311841 C7.84308397,9.93894263 7.77047772,9.79631885 7.76742499,9.64397516 C7.76437225,9.49153379 7.83116609,9.34605265 7.94868418,9.24902452 C8.21207415,9.02893454 8.59359276,9.02321982 8.86345453,9.23537269 L10.4740775,10.5712495 L12.084676,9.23537269 C12.3542692,9.02378153 12.7352017,9.02952067 12.9983963,9.24902452 C13.1164028,9.3456619 13.1836606,9.49114304 13.1808033,9.6436821 C13.1779215,9.79622116 13.105242,9.93904031 12.9835966,10.0311841 L11.0698248,11.6154558 L11.0698248,11.8565486 L12.3625726,11.8565486 Z"
          id="Fill-1"></path>
</svg>
