<?xml version="1.0" encoding="UTF-8"?>
<svg width="30px" height="30px" viewBox="0 0 30 30" version="1.1" xmlns="http://www.w3.org/2000/svg" xmlns:xlink="http://www.w3.org/1999/xlink">
    <title>bet_img_money_share</title>
    <g id="会员中心" stroke="none" stroke-width="1">
        <g id="平台余额-免密关闭状态" transform="translate(-150.000000, -258.000000)">
            <g id="编组-3" transform="translate(150.000000, 258.000000)">
                <path d="M0,0 L26,0 C28.209139,-4.05812251e-16 30,1.790861 30,4 L30,30 L30,30 L0,0 Z" id="矩形"></path>
                <g id="常用" transform="translate(17.000000, 4.000000)" fill="#FFFFFF" fill-rule="nonzero">
                    <path d="M9.27829914,3.13866958 L7.17465083,2.56120465 L5.75721935,0.489494239 L5.75721933,0.48949421 C5.59346065,0.212530775 5.30814143,0.0306994243 4.98913146,0 C4.66102233,0.0125672454 4.36603659,0.205474463 4.22104359,0.502689818 L3.04735033,2.41605294 L1.47430138,2.89989189 L0.705588538,3.13866955 C0.4043531,3.2077894 0.153740215,3.41703404 0.0318711062,3.70293887 C-0.0487499964,4.03345743 0.0256214083,4.38157013 0.231861438,4.65113754 C0.687464414,5.24116971 1.14931709,5.82491827 1.61116976,6.40866682 L1.53617339,8.91960246 L1.53617333,8.91960275 C1.47988474,9.22318028 1.54501538,9.53682632 1.71741457,9.79239795 L1.71741461,9.792398 C1.83985889,9.92906777 2.01576347,10.004865 2.19864135,9.99975755 L2.19864126,9.99975755 C2.41248054,9.99160619 2.62338831,9.94698592 2.82236111,9.86780147 L4.81413983,9.03836327 L7.11840343,9.89921959 C7.25402188,9.94320495 7.39464008,9.96833944 7.53713319,9.97462306 C7.82399433,9.97462306 8.30459609,9.84266698 8.34209428,8.95730454 C8.30459609,8.20389818 8.26084821,7.45049181 8.21710032,6.69771381 L9.70952818,4.682556 L9.70952816,4.68255602 C9.93956392,4.43749277 10.0414389,4.09784921 9.98451487,3.76577546 L9.9845149,3.76577553 C9.86643955,3.45226498 9.60224138,3.21742636 9.27829903,3.13804162 L9.27829914,3.13866958 Z" id="路径"></path>
                </g>
            </g>
        </g>
    </g>
</svg>
