<?xml version="1.0" encoding="UTF-8"?>
<svg width="20px" height="20px" viewBox="0 0 20 20" version="1.1" xmlns="http://www.w3.org/2000/svg" xmlns:xlink="http://www.w3.org/1999/xlink">
    <title>编组 7备份</title>
    <defs>
        <filter id="filter-1">
            <feColorMatrix in="SourceGraphic" type="matrix" values="0 0 0 0 0.803922 0 0 0 0 0.803922 0 0 0 0 0.803922 0 0 0 1.000000 0"></feColorMatrix>
        </filter>
        <linearGradient x1="0%" y1="50%" x2="100%" y2="50%" id="linearGradient-2">
            <stop soffset="0%"></stop>
            <stop offset="99.329603%"></stop>
        </linearGradient>
        <linearGradient x1="0%" y1="50%" x2="99.3045269%" y2="50%" id="linearGradient-3">
            <stop offset="0%"></stop>
            <stop offset="100%"></stop>
        </linearGradient>
        <path d="M9.99998701,0 C15.5228967,0 20,4.47720724 20,9.99998701 C20,15.5228967 15.5228967,20 9.99998701,20 C4.47720724,20 0,15.5228967 0,9.99998701 C0,4.47720724 4.47720724,0 9.99998701,0 Z M9.99998701,1.32976299 C5.23142094,1.32976299 1.32976299,5.23142094 1.32976299,9.99998701 C1.32976299,14.768683 5.23142094,18.670237 9.99998701,18.670237 C14.768683,18.670237 18.670237,14.768683 18.670237,9.99998701 C18.670237,5.23142094 14.768683,1.32976299 9.99998701,1.32976299 Z M9.99998701,2.56844063 C14.0873219,2.56844063 17.4316633,5.91267806 17.4316633,9.99998701 C17.4316633,14.0873219 14.0873219,17.4316633 9.99998701,17.4316633 C5.91267806,17.4316633 2.56844063,14.0873219 2.56844063,9.99998701 C2.56844063,5.91267806 5.91257417,2.56844063 9.99998701,2.56844063 Z M13.4990721,5.88174488 C13.251321,5.63399377 12.8797853,5.63399377 12.6320341,5.88174488 L12.6320341,5.88174488 L9.99921382,8.51293155 L7.36796585,5.88174488 C7.12021474,5.63399377 6.74878287,5.63399377 6.50092787,5.88174488 C6.25317675,6.12949599 6.25317675,6.50092787 6.50092787,6.74878287 L6.50092787,6.74878287 L8.51321382,8.76093155 L6.9035007,8.76154313 C6.563002,8.76154313 6.28421382,9.04012352 6.28421382,9.38072611 C6.28421382,9.72130273 6.56292408,9.99998701 6.9035007,9.99998701 L6.9035007,9.99998701 L9.38021382,9.99993155 L9.38021382,11.8579315 L6.9035007,11.8580554 C6.563002,11.8580554 6.28421382,12.1367397 6.28421382,12.4772124 C6.28421382,12.817815 6.56292408,13.0964993 6.9035007,13.0964993 L6.9035007,13.0964993 L9.38021382,13.0959315 L9.38072611,14.9544378 C9.38072611,15.2950404 9.6594104,15.5737247 9.99998701,15.5737247 C10.3405896,15.5737247 10.6192739,15.2950404 10.6192739,14.9544378 L10.6192739,14.9544378 L10.6192138,13.0959315 L13.0964993,13.0964993 C13.4371798,13.0964993 13.7157862,12.817815 13.7157862,12.4772124 C13.7157862,12.1367397 13.4371798,11.8580554 13.0964993,11.8580554 L13.0964993,11.8580554 L10.6192138,11.8579315 L10.6192138,9.99993155 L13.0964993,9.99998701 C13.4371798,9.99998701 13.7157862,9.72130273 13.7157862,9.38072611 C13.7157862,9.04022741 13.4371798,8.76154313 13.0964993,8.76154313 L13.0964993,8.76154313 L11.4862138,8.76093155 L13.4990721,6.74878287 C13.7468232,6.50092787 13.7468232,6.12949599 13.4990721,5.88174488 Z" id="path-4"></path>
        <filter x="-2.5%" y="-2.5%" width="105.0%" height="105.0%" filterUnits="objectBoundingBox" id="filter-5">
            <feOffset dx="0" dy="1" in="SourceAlpha" result="shadowOffsetInner1"></feOffset>
            <feComposite in="shadowOffsetInner1" in2="SourceAlpha" operator="arithmetic" k2="-1" k3="1" result="shadowInnerInner1"></feComposite>
            <feColorMatrix values="0 0 0 0 1   0 0 0 0 1   0 0 0 0 1  0 0 0 0.188947771 0" type="matrix" in="shadowInnerInner1"></feColorMatrix>
        </filter>
    </defs>
    <g id="代理" stroke="none" stroke-width="1">
        <g id="推广备份" transform="translate(-248.000000, -733.000000)">
            <g id="编组-7备份" transform="translate(0.000000, 718.000000)">
                <g transform="translate(248.000000, 15.000000)" id="形状结合">
                    <use xlink:href="#path-4"></use>
                    <use xlink:href="#path-4"></use>
                    <use xlink:href="#path-4"></use>
                </g>
            </g>
        </g>
    </g>
</svg>
