<?xml version="1.0" encoding="UTF-8"?>
<svg width="20px" height="20px" viewBox="0 0 20 20" version="1.1" xmlns="http://www.w3.org/2000/svg"
     xmlns:xlink="http://www.w3.org/1999/xlink">
    <title>编组 3备份</title>
    <path d="M10,0 C4.47682186,0 0,4.47682186 0,10 C0,15.5231781 4.47682186,20 10,20 C15.5231781,20 20,15.5231781 20,10 C20,4.47682186 15.5231781,0 10,0 Z M13.6613087,6.66375382 L11.8732687,8.45179378 L12.6552001,8.45179378 C13.0831926,8.45179378 13.4304656,8.79903876 13.4304656,9.22703122 C13.4304656,9.65493966 13.0831926,10.0022967 12.6552001,10.0022967 L10.7752654,10.0022967 L10.7752654,10.9926367 L12.6552001,10.9926367 C13.0831926,10.9926367 13.4304656,11.3399096 13.4304656,11.7679021 C13.4304656,12.1958946 13.0831926,12.5431676 12.6552001,12.5431676 L10.7752654,12.5431676 L10.7752654,14.6942211 C10.7752654,15.1222135 10.4279925,15.4694585 10,15.4694585 C9.57211957,15.4694585 9.22473455,15.1222135 9.22473455,14.6942211 L9.22473455,12.5431676 L7.34479987,12.5431676 C6.91691944,12.5431676 6.56956243,12.1958946 6.56956243,11.7679021 C6.56956243,11.3399096 6.91691944,10.9926367 7.34479987,10.9926367 L9.22473455,10.9926367 L9.22473455,10.0022967 L7.34479987,10.0022967 C6.91691944,10.0022967 6.56956243,9.65493966 6.56956243,9.22703122 C6.56956243,8.79903876 6.91691944,8.45179378 7.34479987,8.45179378 L8.12684329,8.45179378 L6.33880332,6.66375382 C6.03631536,6.36123785 6.03631536,5.87056316 6.33880332,5.56575052 C6.6413193,5.26334658 7.13202199,5.26334658 7.4367226,5.56575052 L10,8.13132459 L12.5633054,5.56804719 C12.8657934,5.26553122 13.3564961,5.26553122 13.6613087,5.56804719 C13.9637126,5.87056316 13.9637126,6.36123785 13.6613087,6.66375382 Z"
          id="Fill-1"></path>
</svg>
