<?xml version="1.0" encoding="UTF-8"?>
<svg width="20px" height="20px" viewBox="0 0 20 20" version="1.1" xmlns="http://www.w3.org/2000/svg"
     xmlns:xlink="http://www.w3.org/1999/xlink">
    <title>编组 7备份</title>
    <path d="M16.0628179,12.6119844 C18.2370135,12.6119844 20.0000021,14.2660529 20.0000021,16.3060319 L20.0000021,16.8339916 C20.0000021,18.5834311 18.4879767,20 16.6255429,20 L5.37446126,20 C3.50982373,20 2.00000206,18.5813636 2.00000206,16.8339916 L2.00000206,16.3060319 C1.99780046,14.2660529 3.76067399,12.6119844 5.93718627,12.6119844 L10,12.611 L10,15 C10,15.5128358 10.3860402,15.9355072 10.8833789,15.9932723 L11,16 C11.5522847,16 12,15.5522847 12,15 L12,15 L12,12.611 L16.0628179,12.6119844 Z M16.6255429,1 L16.6255429,6.27803254 C16.6255429,9.19376508 14.1076889,11.555959 10.9999597,11.555959 C7.89223047,11.555959 5.37446126,9.19376508 5.37446126,6.27803254 C5.37446126,3.3623 7.89223047,1 10.9999597,1 L16.6255429,1 Z"
          id="形状结合"></path>
</svg>
