<?xml version="1.0" encoding="UTF-8"?>
<svg width="38px" height="44px" viewBox="0 0 38 44" version="1.1" xmlns="http://www.w3.org/2000/svg" xmlns:xlink="http://www.w3.org/1999/xlink">
    <title>my_Blank_1</title>
    <defs>
        <filter id="filter-1">
            <feColorMatrix in="SourceGraphic" type="matrix" values="0 0 0 0 0.141176 0 0 0 0 0.760784 0 0 0 0 0.603922 0 0 0 1.000000 0"></feColorMatrix>
        </filter>
    </defs>
    <g id="会员中心" stroke="none" stroke-width="1" fill-rule="evenodd">
        <g id="my_Blank_1" transform="translate(-168.000000, -398.000000)">
            <g transform="translate(168.000000, 398.000000)" id="编组-8" fill-rule="nonzero">
                <g id="记录-(1)">
                    <path d="M3.83130873,3.03445666 C2.15647084,3.03445666 0.793113789,4.38775901 0.793113789,6.06208127 L0.793113789,40.9724696 C0.793113789,42.6483387 2.15539662,44.0000512 3.83130873,44.0000512 L34.1687425,44.0000512 C35.8435804,44.0000512 37.2069374,42.6467488 37.2069374,40.9724696 L37.2069374,6.0620383 C37.2069374,4.3861262 35.8446546,3.03445666 34.1687425,3.03445666 L29.6207098,3.03445666 L31.1379382,4.55168498 L31.1379382,2.27360811 C31.1379811,1.02295822 30.1202651,-2.74780518e-15 28.8647597,-2.74780518e-15 L9.13533443,-2.74780518e-15 C7.87501656,-2.74780518e-15 6.86207007,1.01793087 6.86207007,2.27360811 L6.86207007,4.55172795 L8.3792984,3.03449962 L3.8313517,3.03449962 L3.83130873,3.03445666 Z M9.89656969,6.06895628 L9.89656969,2.27360721 C9.89656969,2.69049141 9.55428023,3.03449962 9.13533443,3.03449962 L28.8647168,3.03449962 L28.8647167,3.03449962 C28.446177,3.03637777 28.1053592,2.69860693 28.1034815,2.28006633 C28.1034718,2.2779133 28.1034713,2.27576025 28.10348,2.27360721 L28.10348,6.06895538 L34.168741,6.06895538 C34.1740262,6.06895538 34.1726606,40.9724686 34.1726606,40.9724686 C34.1726606,40.9658085 3.83130725,40.9655936 3.83130725,40.9655936 C3.82602209,40.9655936 3.82738761,6.06208037 3.82738761,6.06208037 C3.82738761,6.06874053 8.37929692,6.06895538 8.37929692,6.06895538 L9.89652525,6.06895538 L9.89656969,6.06895628 Z M28.1034815,6.82984779 C28.1034815,6.41296449 28.445771,6.06895628 28.8647168,6.06895628 L9.13533443,6.06895628 L9.13533448,6.06895628 C9.55387422,6.06707815 9.894692,6.40484898 9.89656974,6.82338958 C9.8965794,6.82554261 9.89657989,6.82769566 9.8965712,6.82984869 L9.8965712,4.55172885 C9.8965712,3.71379429 9.21723447,3.03450053 8.37934287,3.03450053 C7.54136533,3.03450053 6.86211454,3.71379429 6.86211454,4.55172885 L6.86211454,6.82984869 C6.86211454,8.08049859 7.87983057,9.10345681 9.13533594,9.10345681 L28.8647183,9.10345681 C30.1250361,9.10345681 31.1379826,8.08552594 31.1379826,6.82984869 L31.1379826,4.55172885 C31.1379826,3.71379429 30.4586459,3.03450053 29.6207543,3.03450053 C28.7827768,3.03450053 28.103526,3.71379429 28.103526,4.55172885 L28.103526,6.82984869 L28.1034815,6.82984779 Z M28.1034815,18.965526 C28.9414161,18.965526 29.6207098,18.2862322 29.6207098,17.4482976 C29.6207098,16.6103631 28.9414161,15.9310693 28.1034815,15.9310693 L9.89656969,15.9310693 C9.05863513,15.9310693 8.37934137,16.6103631 8.37934137,17.4482976 C8.37934137,18.2862322 9.05863513,18.965526 9.89656969,18.965526 L28.1034815,18.965526 Z M9.89656969,23.5172539 C9.05863513,23.5172539 8.37934137,24.1965907 8.37934137,25.0344823 C8.37934137,25.8724598 9.05863513,26.5517536 9.89656969,26.5517536 L28.1034815,26.5517536 C28.9414161,26.5517536 29.6207098,25.8724598 29.6207098,25.0345252 C29.6207098,24.1965477 28.9414161,23.5172969 28.1034815,23.5172969 L9.89656969,23.5172969 L9.89656969,23.5172539 Z M9.89656969,31.1034815 C9.05863513,31.1034815 8.37934137,31.7828182 8.37934137,32.6207098 C8.37934137,33.4586874 9.05863513,34.1379382 9.89656969,34.1379382 L22.0344823,34.1379382 C22.8724168,34.1379382 23.5517106,33.4586874 23.5517106,32.6207098 C23.5517106,31.7828182 22.8724168,31.1034815 22.0344823,31.1034815 L9.89656969,31.1034815 Z" id="形状"></path>
                </g>
            </g>
        </g>
    </g>
</svg>
