<?xml version="1.0" encoding="UTF-8"?>
<svg width="32px" height="32px" viewBox="0 0 32 32" version="1.1" xmlns="http://www.w3.org/2000/svg"
     xmlns:xlink="http://www.w3.org/1999/xlink">
    <title>bet_message_mail_icon</title>
    <circle id="椭圆形" cx="16" cy="16" r="16"></circle>
    <path d="M22.5109292,21.6139299 L22.6314648,21.7344783 L24.9979814,24.1012447 L20.2649482,24.1012447 L16.116513,24.105263 L16,24.105263 C11.0299085,24.105263 7,20.4988574 7,16.0526315 C7,11.6064056 11.0299085,8 16,8 C20.9700818,8 25,11.6064056 25,16.0526315 C25.0019992,18.2104474 24.0537855,20.1693585 22.5109292,21.6139299 Z M18.8426276,17.4730932 C19.6281182,17.4730932 20.2629393,16.836196 20.2629393,16.0526315 C20.2629393,15.2690671 19.6261093,14.6321698 18.8426276,14.6321698 C18.0571369,14.6321698 17.4223158,15.2690671 17.4223158,16.0526315 C17.4223158,16.836196 18.0591458,17.4730932 18.8426276,17.4730932 Z M13.1593717,17.4730932 C13.9448623,17.4730932 14.5796834,16.836196 14.5796834,16.0526315 C14.5796834,15.2690671 13.9428534,14.6321698 13.1593717,14.6321698 C12.37589,14.6321698 11.73906,15.2690671 11.73906,16.0526315 C11.73906,16.836196 12.373881,17.4730932 13.1593717,17.4730932 Z"
          id="形状" class="svg-notice-mail" fill-rule="nonzero"></path>
</svg>
