<?xml version="1.0" encoding="UTF-8"?>
<svg width="16px" height="20px" viewBox="0 0 16 20" version="1.1" xmlns="http://www.w3.org/2000/svg"
     xmlns:xlink="http://www.w3.org/1999/xlink">
    <title>-mockplus-</title>
    <path d="M8.12942396,0.162203124 C8.76030705,0.162203124 9.27795471,0.686013257 9.27795471,1.32440686 L9.27795471,2.19196739 C12.0117814,2.58482499 14.1309015,4.99107779 14.1309015,7.85566446 L14.1309015,14.3050767 L14.8103141,14.3050767 C15.4573737,14.3050767 15.9911978,14.8452559 15.9911978,15.5000186 C15.9911978,16.1547813 15.4573737,16.6949605 14.8103141,16.6949605 L1.43235735,16.6949605 C0.785297769,16.6949605 0.251473619,16.1547813 0.251473619,15.5000186 C0.251473619,14.8452559 0.785297769,14.3050767 1.43235735,14.3050767 L2.1117699,14.3050767 L2.1117699,7.87203352 C2.1117699,4.99107779 4.23089001,2.60119406 6.96471672,2.20833646 L6.96471672,1.32440686 C6.96471672,0.686013257 7.48236439,0.162203124 8.12942396,0.162203124 Z M9.92501429,17.9226405 L9.92501429,17.9717477 C9.92501429,18.9702607 9.11618982,19.7887141 8.12942396,19.7887141 C7.14265811,19.7887141 6.33383364,18.9702607 6.33383364,17.9717477 L6.33383364,17.9226405 L9.92501429,17.9226405 Z"></path>
</svg>
