<?xml version="1.0" encoding="UTF-8"?>
<svg width="32px" height="32px" viewBox="0 0 32 32" version="1.1" xmlns="http://www.w3.org/2000/svg"
     xmlns:xlink="http://www.w3.org/1999/xlink">
    <title>bet_message_notice_icon</title>
    <circle id="椭圆形" cx="16" cy="16" r="16"></circle>
    <path d="M22.678218,10.7707153 C22.3097262,10.4422113 21.7473167,10.4422113 21.3788249,10.7707153 C21.2128709,10.922644 21.1177089,11.1347741 21.1155459,11.3575223 C21.1134556,11.5802705 21.2045506,11.7941142 21.3675747,11.9490695 L21.3788249,11.9601131 C22.5716961,13.0295101 23.2512694,14.5421678 23.2512694,16.1279751 C23.2512694,17.7137824 22.5716961,19.2264401 21.3788249,20.295837 C21.2126843,20.4484904 21.1176551,20.6613941 21.1159537,20.8847744 C21.1142523,21.1081547 21.206028,21.3224295 21.3698248,21.4775043 L21.3788249,21.4863392 C21.7475194,21.8143276 22.3095234,21.8143276 22.678218,21.4863392 C25.7686359,18.6116851 25.7618858,13.8551982 22.7299687,10.925326 C22.6939682,10.8921951 22.6590927,10.8590643 22.678218,10.7751327 L22.678218,10.7707153 L22.678218,10.7707153 Z M20.089557,13.1506153 C19.7244084,12.8234744 19.1654377,12.8234744 18.8002891,13.1506153 C18.6340458,13.2962517 18.5360477,13.5025321 18.5292408,13.7211567 C18.5224339,13.9397813 18.6074159,14.1515516 18.7642885,14.3068822 L18.8002891,14.3411175 C19.3089326,14.8011276 19.5983043,15.4490676 19.5983043,16.1279751 C19.5983043,16.8068826 19.3089326,17.4548226 18.8002891,17.9148327 C18.6344021,18.0604427 18.5366374,18.2664864 18.5298327,18.4848325 C18.523028,18.7031786 18.6077791,18.9147034 18.7642885,19.0699953 L18.8002891,19.1042305 C19.1648153,19.4329434 19.7250308,19.4329434 20.089557,19.1042305 C20.9210778,18.3663397 21.4079106,17.3259607 21.436403,16.2259729 C21.4648954,15.125985 21.0325537,14.0626633 20.2403091,13.2842431 L20.235809,13.2798256 C20.1915433,13.2334184 20.142535,13.191601 20.089557,13.1550327 L20.089557,13.1506153 L20.089557,13.1506153 Z M16.0788762,8.22295229 L11.386436,11.4554197 L8.45802027,11.4554197 C7.66938431,11.4399586 7.01687524,12.033001 7,12.780654 L7,18.2030712 C7.01800025,18.9518286 7.66825929,19.548184 8.45802027,19.5393491 L11.386436,19.5393491 L16.0777512,22.7751296 C16.7201351,23.2246049 17.2398996,22.9772279 17.2398996,22.2384097 L17.2398996,8.76408965 C17.2421424,8.02637586 16.7212602,7.77458134 16.0788762,8.22295229 Z M17.4907708,17.5559151 C17.4835707,17.55886 17.4754706,17.55886 17.4682705,17.5559151 L17.4682705,17.5382453 L17.4795207,17.4057218 C17.4811969,17.397832 17.4850947,17.3905622 17.4907708,17.384739 C17.4976641,17.3805505 17.5063779,17.3805505 17.5132712,17.384739 C17.5183887,17.3887879 17.5222794,17.3941348 17.5245213,17.4002 L17.5470216,17.4145567 L17.5582718,17.4200785 C17.5626149,17.4184538 17.5664802,17.4157978 17.5695219,17.412348 C17.5773971,17.4112436 17.5807721,17.4057218 17.5807721,17.3979913 L17.6032724,17.3836346 C17.6032724,17.3836346 17.6156476,17.3759041 17.6156476,17.3703823 C17.6156476,17.3659648 17.6268977,17.3615474 17.6392729,17.3549212 L17.6392729,17.3505037 L17.6617732,17.3505037 L17.6730234,17.3582343 L17.6955237,17.3582343 C17.7022738,17.3626517 17.7067738,17.3692779 17.7067738,17.3792172 C17.7067738,17.3858433 17.7011488,17.3946782 17.6943987,17.3979913 C17.6831485,17.4046175 17.6831485,17.412348 17.6707733,17.4200785 L17.6370229,17.4443745 L17.6268977,17.4609399 C17.6268977,17.4675661 17.6302728,17.4741923 17.6381479,17.4741923 C17.6381479,17.4797141 17.6415229,17.4874446 17.6493981,17.4874446 L17.6606482,17.4995926 C17.6673983,17.5018013 17.6718984,17.5095319 17.6718984,17.5172624 C17.6649448,17.5218883 17.6566665,17.5242101 17.648273,17.5238886 L17.4896458,17.5415584 L17.4896458,17.5559151 L17.4907708,17.5559151 L17.4907708,17.5559151 Z M18.0217782,17.0578478 C18.0291361,17.0558203 18.0369206,17.0558203 18.0442785,17.0578478 L18.0442785,17.076622 L18.0330284,17.2091454 C18.0309453,17.2159124 18.0270619,17.2220119 18.0217782,17.2268152 C18.0150281,17.232337 18.006028,17.232337 17.9981529,17.2268152 L17.9869027,17.2146672 L17.9644024,17.2003105 C17.9610274,17.1981018 17.9554023,17.1981018 17.9531523,17.2003105 C17.9487933,17.2033411 17.9449893,17.2070752 17.9419021,17.2113541 L17.9081517,17.2345457 L17.8744012,17.2632592 L17.8744012,17.268781 L17.8519009,17.268781 C17.8406507,17.268781 17.8406507,17.268781 17.8406507,17.2599461 C17.8406507,17.2522155 17.8294005,17.2599461 17.8294006,17.2599461 L17.8170254,17.2599461 L17.8057752,17.2533199 C17.8026054,17.2467438 17.7988402,17.2404605 17.7945251,17.2345457 C17.8057752,17.2345457 17.8057752,17.2223978 17.8170254,17.2157716 L17.8417757,17.1936844 C17.8530259,17.1870582 17.8530259,17.1782233 17.863151,17.1715971 C17.8727108,17.1688115 17.8807843,17.1624712 17.8856513,17.1539273 C17.8859502,17.1468529 17.8813153,17.1404832 17.8744012,17.1384663 C17.87296,17.1330597 17.8686587,17.1288374 17.863151,17.1274226 C17.8602871,17.1220268 17.8564791,17.1171672 17.8519009,17.1130659 C17.8451508,17.1097528 17.8395257,17.1031267 17.8406507,17.0976049 C17.8462758,17.0898743 17.8541509,17.0865612 17.863151,17.08877 L18.0206532,17.0722045 L18.0206532,17.0578478 L18.0217782,17.0578478 Z M17.4671455,17.0832482 L17.4671455,17.0622653 C17.4746703,17.0590045 17.483246,17.0590045 17.4907708,17.0622653 L17.6493981,17.0788307 C17.6572732,17.0788307 17.6651483,17.0821438 17.6718984,17.0876656 C17.6741484,17.0931874 17.6685233,17.1009179 17.6606482,17.1031267 C17.6554284,17.1064231 17.6511654,17.1109882 17.648273,17.116379 C17.6415807,17.1220006 17.633975,17.1264802 17.6257727,17.1296314 L17.6257727,17.1428837 C17.6257727,17.1428837 17.6257727,17.1506142 17.6381479,17.1539273 C17.6410118,17.1593232 17.6448198,17.1641827 17.6493981,17.168284 C17.6606482,17.168284 17.6606482,17.1771189 17.6606482,17.1793277 C17.6606482,17.1837451 17.6718984,17.1881626 17.6842735,17.19258 L17.6955237,17.2058323 L17.7067738,17.2135629 L17.7067738,17.2334414 C17.7067738,17.2334414 17.7067738,17.2411719 17.6955237,17.244485 L17.6842735,17.244485 L17.6707733,17.2489025 C17.6707733,17.256633 17.6595232,17.2599461 17.648273,17.2588417 C17.6427054,17.2552299 17.6386976,17.249722 17.6370229,17.2433806 L17.6032724,17.2246065 C17.5977853,17.2149101 17.5900837,17.2065939 17.5807721,17.2003105 C17.574001,17.1947972 17.5664139,17.1903285 17.5582718,17.1870582 L17.5470216,17.1870582 C17.5393347,17.1911624 17.5318278,17.1955838 17.5245213,17.2003105 C17.5245213,17.2003105 17.5121462,17.2113542 17.5121461,17.2146672 C17.5059534,17.2198891 17.4976133,17.2219358 17.4896458,17.220189 C17.4887874,17.2132272 17.484612,17.2070791 17.4783957,17.2036236 L17.4671455,17.0688915 L17.4671455,17.0832482 L17.4671455,17.0832482 Z M18.0442785,17.5360365 C18.0442785,17.552602 18.0442785,17.5603325 18.0217782,17.5581238 L17.863151,17.5448714 C17.8548073,17.5431537 17.8470569,17.5393496 17.8406507,17.5338278 C17.8406507,17.5272017 17.8451508,17.5216799 17.8519009,17.5194711 C17.8566976,17.5151347 17.860528,17.5098706 17.863151,17.5040101 L17.8856513,17.488549 L17.8856513,17.4775054 C17.8856513,17.4708792 17.8811513,17.464253 17.8744012,17.4631487 L17.8406507,17.4377483 C17.836429,17.4263242 17.8279997,17.4168677 17.8170254,17.4112437 C17.8057752,17.4112437 17.8057752,17.4112437 17.8057752,17.4046175 C17.8057752,17.3979913 17.8057752,17.4046175 17.7945251,17.3957826 L17.7945251,17.3869477 C17.7945251,17.3869477 17.8057752,17.3803215 17.8057752,17.3759041 C17.8057752,17.372591 17.8170254,17.3759041 17.8170254,17.3692779 L17.8294006,17.3692779 L17.8294006,17.3637561 C17.8355278,17.3581784 17.8435452,17.3550303 17.8519009,17.3549212 C17.8612496,17.3539593 17.8702224,17.3588037 17.8744012,17.3670692 L17.9081517,17.3891564 C17.9126517,17.4002 17.9216518,17.4090349 17.931777,17.4145567 C17.9385271,17.4200785 17.9475272,17.4256004 17.9542773,17.4267047 L17.9655275,17.4267047 C17.9735819,17.4242308 17.9811789,17.420502 17.9880278,17.4156611 L17.9992779,17.4035131 C18.006028,17.3979913 18.0139031,17.3957826 18.0217782,17.3979913 C18.0229032,17.4046175 18.0262783,17.4112436 18.0330284,17.4145567 L18.0442785,17.5503933 L18.0442785,17.5371409 L18.0442785,17.5360365 Z"
          id="形状" class="svg-notice-annouce" fill-rule="nonzero"></path>
</svg>
