<?xml version="1.0" encoding="UTF-8"?>
<svg width="13px" height="13px" viewBox="0 0 13 13" version="1.1" xmlns="http://www.w3.org/2000/svg"
     xmlns:xlink="http://www.w3.org/1999/xlink">
    <title>重要</title>
    <path d="M6.5921334,12.9993335 L6.59213336,12.9993335 C3.00265227,13.0502124 0.0515445634,10.1816045 0.00066647394,6.5921221 C-0.0502123806,3.00263974 2.81839453,0.0515309787 6.40787562,0.00065287118 C6.46928879,-0.000217623912 6.53071114,-0.000217623912 6.59212444,0.000652872291 L6.5921244,0.000652871736 C10.1816055,0.0515317444 13.0502116,3.00262699 12.9993335,6.5921221 C12.9494716,10.1098651 10.1098661,12.9494755 6.5921244,12.9993335 L6.5921334,12.9993335 Z M6.75404559,8.70866413 L9.26498769,10.0966674 L8.78577985,7.15744291 L10.8162109,5.07608201 L8.0088625,4.64649226 L6.75534878,1.97233128 L5.49922359,4.64649226 L2.69187517,5.07608201 L4.72360688,7.15612951 L4.24309329,10.095354 L6.75403539,8.70996477 L6.75404559,8.70866413 Z"
          id="形状"></path>
</svg>
