<?xml version="1.0" encoding="UTF-8"?>
<svg width="54px" height="60px" viewBox="0 0 54 60" version="1.1" xmlns="http://www.w3.org/2000/svg"
     xmlns:xlink="http://www.w3.org/1999/xlink">
    <title>xiaoxi</title>
    <path d="M47.3667412,28.4345224 L47.3667412,44.4019173 L43.3107969,44.4019173 L43.3107969,28.4345224 C43.3107969,17.7857409 35.5538765,9.21912626 26.1718014,9.21912626 C16.6770625,9.21912626 9.032806,17.9191297 9.032806,28.4345224 L9.032806,44.4019173 L4.97972228,44.4019173 L4.97972228,28.4345224 C4.97972228,16.0979063 13.6661198,5.84351361 24.4367994,4.93290193 L24.4367994,2.20690086 C24.4367994,0.907700355 25.36346,-3.55271368e-15 26.405601,-3.55271368e-15 C27.560406,-3.55271368e-15 28.3744026,1.03820041 28.3744026,2.20690086 L28.3744026,4.93290193 C38.9112827,6.23210243 47.3667412,16.2284063 47.3667412,28.4345224 L47.3667412,28.4345224 Z M52,46.7393069 C52,48.0385074 51.0705228,49.0767078 49.9157179,49.0767078 L2.08428211,49.0767078 C0.926660559,49.0767078 0,48.0385074 0,46.7393069 C0,45.4430064 0.926660559,44.401906 2.08428211,44.401906 L49.9129123,44.401906 C51.0733504,44.401906 51.9971944,45.4430064 51.9971944,46.7393069 L52,46.7393069 Z M32.9992446,49.0767078 C32.6697027,51.5562088 30.0418173,53.6616096 27.08439,53.6616096 C24.1269627,53.6616096 21.606108,51.6809089 21.1695354,49.0796078 L17.3305131,49.0796078 C17.660055,54.0299098 21.9328333,58 27.0815514,58 C32.2302915,58 36.5030699,54.0327985 36.8325898,49.0767078 L32.9992006,49.0767078 L32.9992446,49.0767078 Z"
          id="形状"></path>
</svg>
