<?xml version="1.0" encoding="UTF-8"?>
<svg width="30px" height="30px" viewBox="0 0 30 30" version="1.1" xmlns="http://www.w3.org/2000/svg"
     xmlns:xlink="http://www.w3.org/1999/xlink">
    <title>-mockplus-</title>
    <path d="M24.509845,6.22422213 L24.509845,3.93459056 L26.5977745,3.93459056 L26.5977745,1.56845896 L1.39134521,1.56845896 L1.39134521,3.93459056 L3.4792746,3.93459056 L3.4792746,6.22556424 C3.4792746,7.79180108 4.21044383,9.28690636 5.51677854,10.3941432 L10.2173774,14.3788537 C10.6113263,14.71438 10.6113263,15.261959 10.2173774,15.5974853 L5.51677854,19.5875642 C4.21341509,20.690833 3.48013637,22.1910658 3.4792746,23.7561432 L3.4792746,26.0457747 L1.39134521,26.0457747 L1.39134521,28.4105642 L26.6040776,28.4105642 L26.6040776,26.0444326 L24.509845,26.0444326 L24.509845,23.7534589 C24.509845,22.1872221 23.7771,20.6921168 22.4707653,19.58488 L17.7717423,15.5948011 C17.3774537,15.2579955 17.3774537,14.712975 17.7717423,14.3761695 L22.4707653,10.3901169 C23.7757419,9.29034582 24.509789,7.78970143 24.509845,6.22422213 Z M16.0430943,17.0617221 L18.5391548,19.1741958 L9.45626799,19.1741958 L11.9523285,17.0617221 C13.2998908,15.9139086 13.2998908,14.0530356 11.9523285,12.9052221 L7.25172969,8.91514319 C6.40507256,8.2013377 5.92995332,7.22812543 5.93277601,6.2134853 L5.93277601,3.64603791 L22.0689414,3.64603791 L22.0689414,6.22556424 C22.0705392,7.23999568 21.5956098,8.21281893 20.7499963,8.92722214 L16.0509733,12.9186432 C14.695789,14.0607747 14.695789,15.9209326 16.0430943,17.0630642 L16.0430943,17.0617221 Z"
          id="path-4"></path>
</svg>
