<?xml version="1.0" encoding="UTF-8"?>
<svg width="20px" height="20px" viewBox="0 0 20 20" version="1.1" xmlns="http://www.w3.org/2000/svg"
     xmlns:xlink="http://www.w3.org/1999/xlink">
    <title>矩形 2备份</title>
    <path d="M10.3881624,10.9825339 L10.3881624,9.24112555 L12.974023,9.24112555 C13.4063603,9.24112555 13.7599047,8.90173674 13.7599047,8.47748839 C13.7599047,8.0572845 13.4063603,7.71385124 12.974023,7.71385124 L10.7113487,7.71385124 L10.7174154,7.70778456 L12.9679563,5.53394027 C13.115061,5.39349416 13.1982929,5.19899049 13.1982929,4.99553476 C13.1982929,4.79217768 13.115061,4.59767401 12.9679563,4.45712926 C12.6609478,4.16225409 12.1619264,4.16225409 11.8548192,4.45712926 L9.60630053,6.63704022 L9.60023385,6.64108468 L9.59416717,6.63704022 L7.34362624,4.46319594 C7.03651907,4.16822213 6.53752232,4.16822213 6.23041515,4.46319594 C6.0833105,4.60364204 6.00017725,4.79824436 6.00017725,5.00160144 C6.00017725,5.20505717 6.0833105,5.39956084 6.23041515,5.54000695 L8.48105473,7.71182901 L8.48702276,7.7178217 L6.23041515,7.7178217 C5.7980779,7.7178217 5.4445335,8.0572845 5.4445335,8.48153285 C5.4445335,8.90173674 5.7980779,9.24517001 6.23041515,9.24517001 L8.81637443,9.24517001 L8.81637443,10.9865784 L6.23041515,10.9865784 C5.7980779,10.9865784 5.4445335,11.3260659 5.4445335,11.7503142 C5.4445335,12.1705181 5.7980779,12.5139514 6.23041515,12.5139514 L8.81637443,12.5139514 L8.81637443,14.699855 C8.81637443,15.1200589 9.16991882,15.4634922 9.60225608,15.4634922 C10.034618,15.4634922 10.3881624,15.1241034 10.3881624,14.699855 L10.3881624,12.5038402 L12.974023,12.5038402 C13.4063603,12.5038402 13.7599047,12.1644514 13.7599047,11.7402031 C13.7599047,11.3199992 13.4063603,10.9765659 12.974023,10.9765659 L10.3881624,10.9825339 Z M3.0101919,1.9439948 L7.56173078,0.30150289 C8.67092208,-0.100500963 10.4709011,-0.100500963 11.5800924,0.30150289 L16.1317299,1.9439948 C17.2408225,2.345974 18.1438454,3.64098819 18.1438454,4.84100706 L18.1438454,11.6391411 C18.1438454,16.1059191 12.1194596,19.0434252 10.1740037,19.875744 C9.79214809,20.0414187 9.35776395,20.0414187 8.97600702,19.875744 C7.02438571,19.0393807 1,16.1018746 1,11.6371188 L1,4.84100706 C1,3.62885483 1.89897837,2.34395177 3.0101919,1.9439948 Z"
          id="Fill-1"></path>
</svg>
