<?xml version="1.0" encoding="UTF-8"?>
<svg width="50px" height="50px" viewBox="0 0 50 50" version="1.1" xmlns="http://www.w3.org/2000/svg" xmlns:xlink="http://www.w3.org/1999/xlink">
    <title>编组 5</title>
    <g id="首页" stroke="none" stroke-width="1" fill-rule="evenodd">
        <g id="我的-未登录" transform="translate(-15.000000, -62.000000)">
            <g id="编组-5" transform="translate(15.000000, 62.000000)">
                <path d="M25,0 C38.8071187,0 50,11.1928813 50,25 C50,38.8071187 38.8071187,50 25,50 C11.1928813,50 0,38.8071187 0,25 C0,11.1928813 11.1928813,0 25,0 Z M25,2 C12.2974508,2 2,12.2974508 2,25 C2,37.7025492 12.2974508,48 25,48 C37.7025492,48 48,37.7025492 48,25 C48,12.2974508 37.7025492,2 25,2 Z" id="椭圆形"></path>
                <g id="用户-头像" transform="translate(13.000000, 11.500000)">
                    <path d="M24.9902183,23.456 C24.564813,18.5891429 21.0900738,14.564 16.3927413,13.1 C18.3606877,11.8777143 19.6672897,9.76571429 19.6672897,7.35542857 C19.6690771,3.57028571 16.4588758,0.5 12.501534,0.5 C8.54240478,0.5 5.33220341,3.57028571 5.33220341,7.35542857 C5.33220341,9.76571429 6.63880541,11.8777143 8.6067518,13.1017143 C3.90941928,14.564 0.436467572,18.5891429 0.0092748502,23.456 C0.00391259846,23.5485714 -0.00859932226,23.6017143 0.0092748502,23.7285714 C0.0450231951,24.1571429 0.440042406,24.5 0.888684135,24.5 C1.38916096,24.5 1.78418018,24.1074286 1.78418018,23.6428571 C2.25069608,18.3457143 6.87474449,14.216 12.501534,14.216 C18.1265361,14.216 22.7505845,18.3457143 23.2171004,23.6428571 C23.2171004,24.1074286 23.6121196,24.5 24.1125964,24.5 C24.5612381,24.5 24.9562573,24.1571429 24.9902183,23.7285714 C25.0080924,23.6017143 24.9973679,23.5468571 24.9902183,23.456 L24.9902183,23.456 Z M7.1249829,7.35542857 C7.1249829,4.51657143 9.53263393,2.21428571 12.501534,2.21428571 C15.470434,2.21428571 17.8762976,4.51657143 17.8762976,7.35542857 C17.8762976,10.196 15.470434,12.4982857 12.501534,12.4982857 C9.53263393,12.4982857 7.1249829,10.196 7.1249829,7.35542857 Z" id="形状"></path>
                </g>
            </g>
        </g>
    </g>
</svg>
