<?xml version="1.0" encoding="UTF-8"?>
<svg width="26px" height="26px" viewBox="0 0 26 26" version="1.1" xmlns="http://www.w3.org/2000/svg" xmlns:xlink="http://www.w3.org/1999/xlink">
    <title>pinp</title>
    <defs>
        <filter id="filter-1">
            <feColorMatrix in="SourceGraphic" type="matrix" values="0 0 0 0 0.000000 0 0 0 0 0.639216 0 0 0 0 0.701961 0 0 0 1.000000 0"></feColorMatrix>
        </filter>
        <filter id="filter-2">
            <feColorMatrix in="SourceGraphic" type="matrix" values="0 0 0 0 0.000000 0 0 0 0 0.639216 0 0 0 0 0.701961 0 0 0 1.000000 0"></feColorMatrix>
        </filter>
    </defs>
    <g id="会员中心" stroke="none" stroke-width="1" fill="none" fill-rule="evenodd">
        <g id="客服/全部问题" transform="translate(-19.000000, -302.000000)">
            <g id="pinp" transform="translate(19.000000, 302.000000)">
                <g>
                    <g>
                        <rect id="矩形"  class="help-icon-circle" x="0.5" y="0.5" width="25" height="25" rx="12.5"></rect>
                        <g id="pinp" transform="translate(8.450000, 5.850000)" class="help-icon-inner">
                            <path d="M7.39555555,3.74 C7.28,3.64400666 7.16444444,3.64400666 7.04888888,3.64400666 L4.62222222,0.57596 L5.08444445,-1.47792889e-14 L10.4,-1.47792889e-14 L7.39555555,3.74 Z M5.2,14.96 C2.36311112,14.96 0,12.4105667 0,9.35 C0,6.28943334 2.36311112,3.74 5.2,3.74 C8.03688888,3.74 10.4,6.28943334 10.4,9.35 C10.4,12.4105667 8.03688888,14.96 5.2,14.96 Z M5.38026667,11.7303704 L6.35093333,12.3589954 C6.89173333,12.7364824 7.43253333,12.1078574 7.32391112,11.4792324 L7.10782222,10.2235423 L7.86355555,9.34377935 C8.29573333,8.84150332 8.07964444,8.0865294 7.43253333,7.96174034 L6.35208888,7.83695125 L5.81128888,6.70449039 C5.59635555,6.07586542 4.84062222,6.07586542 4.51591112,6.70449039 L3.97511112,7.8353914 L2.89582222,7.96018048 C2.35502222,8.08652942 2.13893333,8.84150332 2.46364445,9.34377935 L3.21937778,10.2235423 L3.00328888,11.4792324 C2.89582222,12.1078574 3.54293333,12.6101334 3.97511112,12.3589954 L5.38026667,11.7303704 L5.38026667,11.7303704 Z M5.77777778,3.2725 C5.35946667,3.179 5.02435556,3.0855 4.60604445,3.0855 C3.76826667,3.0855 2.9304889,3.2725 2.17706667,3.74 L0,-1.47792889e-14 L3.85146667,-1.47792889e-14 L5.77777778,3.2725 Z"></path>
                        </g>
                    </g>
                </g>
            </g>
        </g>
    </g>
</svg>
