<?xml version="1.0" encoding="UTF-8"?>
<svg width="20px" height="20px" viewBox="0 0 20 20" version="1.1" xmlns="http://www.w3.org/2000/svg"
     xmlns:xlink="http://www.w3.org/1999/xlink">
    <title>编组 7备份</title>
    <path d="M19.9706387,1.20092816 L16.336981,19.2622688 C16.268269,19.6267464 15.9512659,19.9445095 15.794884,19.9854647 C15.6383422,20.0263799 15.1165229,19.9854647 14.8881094,19.8043657 L10.5287762,16.9147016 L8.35074933,19.0827296 C8.16981036,19.2655484 7.80689255,19.4440876 7.44317482,19.2655484 C7.10385426,19.0925685 6.89307876,18.7410493 6.90011795,18.3603336 L6.90011795,14.3861155 C6.90011795,14.2050166 6.90011795,14.0239576 7.0794971,13.8430187 L15.5514723,4.74767589 L15.5564718,4.74111666 C15.580229,4.71363985 15.5917876,4.67768403 15.588788,4.64144824 C15.5856684,4.60521245 15.5680304,4.57177634 15.5400737,4.54865903 C15.4774009,4.49522524 15.3847717,4.49662508 15.3238188,4.55193865 L5.81072458,13.1254621 C5.44780676,13.4866601 5.08328913,13.4866601 4.7213312,13.306521 L0.363717722,10.5952762 C0.134344384,10.4584121 0,10.1692457 0,9.87192026 C0,9.57463482 0.225293812,9.3313831 0.544776676,9.14952423 L18.6993864,0.118853938 C18.9901126,-0.015490446 19.2432432,-0.0620450346 19.606161,0.118853938 C19.9706387,0.299912892 20.0573486,0.802854432 19.9706387,1.20092816 Z"
          id="路径"></path>
</svg>
