<?xml version="1.0" encoding="UTF-8"?>
<svg width="33px" height="30px" viewBox="0 0 33 30" version="1.1" xmlns="http://www.w3.org/2000/svg"
     xmlns:xlink="http://www.w3.org/1999/xlink">
    <title>矩形备份 11</title>
    <path d="M13.8204662,3.1611392 L27.6031741,3.16216175 C29.6356703,3.16216175 31.2994365,4.7446281 31.4292858,6.74437392 L31.4374435,6.99643119 L31.4374435,25.1139592 C31.4374435,27.1464554 29.8549772,28.8102216 27.8552313,28.9400709 L27.6031741,28.9482286 L5.47277114,28.9482286 C3.44027492,28.9482286 1.77650873,27.3657623 1.64665943,25.3660165 L1.6385017,25.1139592 L1.6385017,24.1303857 C1.60099255,23.9866006 1.59161526,23.8428155 1.61036983,23.6955139 L1.6385017,23.5469099 L1.63741941,12.2155263 C1.63736216,11.6161511 2.09081197,11.1226525 2.67339457,11.0594667 L2.80020307,11.0526316 C3.44247897,11.0526316 3.96317219,11.5732504 3.96326395,12.2155263 L3.96406947,17.8538534 C4.42946087,16.9230706 4.88906382,16.1080568 5.34287831,15.4184594 L5.6144724,15.0198281 C6.54803365,13.6861692 7.46492417,12.8859738 8.40682079,12.5775652 C9.2736991,12.2941627 10.1239067,12.4191932 10.8824252,12.9526568 C13.4413833,14.7530964 16.4587866,18.6623841 17.9924944,20.7795677 C18.300903,20.3377931 18.6759946,19.8210003 19.092763,19.3042075 C20.834855,17.1286763 22.3602274,15.9700601 23.7522339,15.7700113 C24.6357829,15.6449808 25.4443137,15.8950418 26.0944724,16.5035237 C27.0304152,17.3751651 27.9357383,18.4427727 28.721207,19.4701372 L29.1035404,19.9793723 L29.1035404,6.99643119 C29.1035404,6.23017269 28.5213829,5.5932825 27.7775151,5.50620767 L27.6031741,5.49606489 L13.8204662,5.4948405 C13.1760204,5.49478325 12.6536241,4.9723406 12.6536241,4.32789474 C12.6536241,3.7264722 13.1086701,3.23133135 13.6932488,3.16798556 L13.8204662,3.1611392 Z M22.4087035,8.81624132 C23.5288724,8.81624132 24.4369487,9.72431763 24.4369487,10.8444865 C24.4369487,11.9646554 23.5288724,12.8727317 22.4087035,12.8727317 C21.2885347,12.8727317 20.3804584,11.9646554 20.3804584,10.8444865 C20.3804584,9.72431763 21.2885347,8.81624132 22.4087035,8.81624132 Z M5.95012184,0.481076755 C6.36433541,0.481076755 6.70012184,0.816863192 6.70012184,1.23107675 L6.6995429,3.24407675 L8.71327974,3.24423465 C9.1274933,3.24423465 9.46327974,3.58002109 9.46327974,3.99423465 L9.46327974,4.8626557 C9.46327974,5.27686926 9.1274933,5.6126557 8.71327974,5.6126557 L6.6995429,5.61207675 L6.70012184,7.6258136 C6.70012184,8.04002716 6.36433541,8.3758136 5.95012184,8.3758136 L5.08170079,8.3758136 C4.66748723,8.3758136 4.33170079,8.04002716 4.33170079,7.6258136 L4.3315429,5.61207675 L2.3185429,5.6126557 C1.90432933,5.6126557 1.5685429,5.27686926 1.5685429,4.8626557 L1.5685429,3.99423465 C1.5685429,3.58002109 1.90432933,3.24423465 2.3185429,3.24423465 L4.3315429,3.24407675 L4.33170079,1.23107675 C4.33170079,0.816863192 4.66748723,0.481076755 5.08170079,0.481076755 L5.95012184,0.481076755 Z"
          id="path-4"></path>
</svg>
