<?xml version="1.0" encoding="UTF-8"?>
<svg width="30px" height="30px" viewBox="0 0 30 30" version="1.1" xmlns="http://www.w3.org/2000/svg"
     xmlns:xlink="http://www.w3.org/1999/xlink">
    <title>-mockplus-</title>
    <path d="M19.9257616,16.5779948 L30,16.5789474 L30,26.4210526 C30,27.5256221 29.1045695,28.4210526 28,28.4210526 L2,28.4210526 C0.8954305,28.4210526 1.3527075e-16,27.5256221 0,26.4210526 L0,16.5789474 L10.8556488,16.5779948 C10.7244124,16.9242142 10.6538631,17.3310011 10.6538631,17.8081488 C10.6538631,20.4242345 12.7746195,22.5449909 15.3907052,22.5449909 C18.0067909,22.5449909 20.1275473,20.4242345 20.1275473,17.8081488 C20.1275473,17.3310011 20.056998,16.9242142 19.9257616,16.5779948 Z M17.4156236,16.5790192 C17.6335902,16.9373383 17.7591263,17.3580833 17.7591263,17.8081488 C17.7591263,19.1161916 16.698748,20.1765699 15.3907052,20.1765699 C14.0826624,20.1765699 13.0222841,19.1161916 13.0222841,17.8081488 C13.0222841,17.3580833 13.1478202,16.9373383 13.3657868,16.5790192 L17.4156236,16.5790192 Z M19.0946668,4.34751882 L18.9473684,4.34210526 L11.0526316,4.34210526 C10.012143,4.34210526 9.15970547,5.14724782 9.08436092,6.16849111 L9.07894737,6.31578947 L6.71052632,6.31578947 C6.71052632,3.98824268 8.54188023,2.0884315 10.8422527,1.97869135 L11.0526316,1.97368421 L18.9473684,1.97368421 C21.2749152,1.97368421 23.1747264,3.80503812 23.2844665,6.10541055 L23.2894737,6.31578947 L28,6.31578947 C29.1045695,6.31578947 30,7.21121997 30,8.31578947 L30,14.2105263 L0,14.2105263 L0,8.31578947 C-1.3527075e-16,7.21121997 0.8954305,6.31578947 2,6.31578947 L20.9210526,6.31578947 C20.9210526,5.27530086 20.1159101,4.42286337 19.0946668,4.34751882 Z"
          id="path-4"></path>
</svg>
