<?xml version="1.0" encoding="UTF-8"?>
<svg width="12px" height="12px" viewBox="0 0 12 12" version="1.1" xmlns="http://www.w3.org/2000/svg"
     xmlns:xlink="http://www.w3.org/1999/xlink">
    <title>新东方-刷新图标</title>
    <path d="M8.86162688,4.80252804 L12,4.80252804 L12,1.65760616 L10.8532867,1.65760616 L10.8532867,2.5043159 L10.8532869,2.50431608 C8.92669545,-0.188582349 5.18639218,-0.806545798 2.49910126,1.12406581 C-0.188189658,3.05467741 -0.804866301,6.80278549 1.12172513,9.49568392 C3.04831656,12.1885823 6.78861983,12.8065458 9.47591075,10.8759342 C10.6962857,9.99918681 11.5433423,8.69491244 11.8491168,7.22169891 L10.7265449,6.9918777 L10.726545,6.99187699 C10.1964636,9.63795123 7.62615208,11.3524085 4.98558784,10.8212186 C2.3450236,10.2900311 0.634136382,7.71435617 1.16422014,5.06828192 C1.69430155,2.42220767 4.2646131,0.707750388 6.90517734,1.23894026 C8.29342178,1.51820564 9.49198939,2.3883322 10.1894004,3.62318181 L8.86162716,3.62318181 L8.86162688,4.80252804 Z"
          id="路径"></path>
</svg>
