<?xml version="1.0" encoding="UTF-8"?>
<svg width="20px" height="20px" viewBox="0 0 20 20" version="1.1" xmlns="http://www.w3.org/2000/svg"
     xmlns:xlink="http://www.w3.org/1999/xlink">
    <title>地区</title>
    <path d="M10.0008248,0 C9.45198293,0 8.91425144,0.045564225 8.38985085,0.131108417 C8.61983124,0.217763397 8.90758404,0.264423936 9.29866202,0.245537602 C10.6474357,0.181101712 11.4818157,0.437734092 10.518558,0.82323747 C9.55419491,1.20985164 9.73417956,1.61868548 10.1841412,1.65090382 C10.6341028,1.68312176 11.6817908,1.20318651 12.0295385,1.62535158 C12.3895078,2.06084786 11.6273501,2.77630855 12.0817563,3.54731648 C12.7572534,4.69716227 10.4452299,4.96046095 9.86194562,5.82255822 C9.29865968,6.6535581 8.98090943,7.54454994 9.62307732,8.73771414 C10.2652452,9.93088811 10.4163437,9.20987348 11.5462473,9.34096722 C13.7738308,9.59871 13.1072255,11.3418122 15.8503334,11.888399 C16.9002438,12.0972597 16.179194,14.376952 14.3371284,15.4768045 C12.5617251,16.53444 13.1216774,17.7498395 10.5985605,18.5597309 C9.99305749,18.7541493 9.53198548,18.6430531 10.0008342,17.9675876 C10.9107566,16.6599857 10.8318746,15.2012985 10.0008342,14.5491594 C9.16979371,13.8970242 8.23765055,13.7548206 8.46318796,12.7494007 C8.68761413,11.7450901 9.55753994,11.3940278 9.61864411,10.4897038 C9.67863899,9.61870927 8.2965342,6.65244497 6.56890419,7.24013959 C5.58121108,7.57564928 3.67360424,6.32026296 3.77359571,4.67603034 C3.8913634,2.76628646 5.35457221,2.47409908 5.02571158,1.33759134 L5.02571158,1.32648172 L5.02571064,1.32648226 C0.235416037,4.07404347 -1.42041931,10.184474 1.32725652,14.9745347 C4.07495187,19.7645955 10.1856807,21.42035 14.9759753,18.6728083 C18.0837962,16.8902622 20.0003515,13.5812645 20,9.99865908 L20,9.99865908 C20,4.47654809 15.5232334,0 10.0008527,0 L10.0008248,0 Z"
          id="路径"></path>
</svg>
