<?xml version="1.0" encoding="UTF-8"?>
<svg width="28px" height="28px" viewBox="0 0 28 28" version="1.1" xmlns="http://www.w3.org/2000/svg" xmlns:xlink="http://www.w3.org/1999/xlink">
    <title>限制</title>
    <defs>
        <filter id="filter-1">
            <feColorMatrix in="SourceGraphic" type="matrix" values="0 0 0 0 0.145098 0 0 0 0 0.764706 0 0 0 0 0.603922 0 0 0 1.000000 0"></feColorMatrix>
        </filter>
    </defs>
    <g id="一级页面" stroke="none" stroke-width="1" fill="none" fill-rule="evenodd">
        <g id="限制" transform="translate(-134.000000, -330.000000)" filter="url(#filter-1)">
            <g transform="translate(147.803778, 343.671517) rotate(-41.000000) translate(-147.803778, -343.671517) translate(138.303778, 334.171517)">
                <path d="M9.43258677,0.876642788 C14.4032938,0.876642788 18.4325868,4.90593576 18.4325868,9.87664279 C18.4325868,14.8473498 14.4032938,18.8766428 9.43258677,18.8766428 C4.46187973,18.8766428 0.432586765,14.8473498 0.432586765,9.87664279 C0.432586765,4.90593576 4.46187973,0.876642788 9.43258677,0.876642788 Z M17.1338797,10.3266416 L1.73127615,10.3266416 L1.73127615,10.3266416 C1.98322693,14.5799502 5.6354656,17.8236943 9.88877419,17.571747 C13.7903972,17.3406281 16.9027625,14.2282646 17.1338797,10.3266416 L17.1338797,10.3266416 Z M9.43258677,2.1627463 L9.43258667,2.1627463 C5.52025855,2.16285701 2.2272605,5.0911213 1.76998316,8.97664377 L17.0951903,8.97664377 L17.0951903,8.97664377 C16.6383436,5.09077073 13.3452313,2.16200901 9.43258679,2.16185081 L9.43258677,2.1627463 Z" id="形状" fill="#000000" fill-rule="nonzero"></path>
            </g>
        </g>
    </g>
</svg>