<?xml version="1.0" encoding="UTF-8"?>
<svg width="20px" height="21px" viewBox="0 0 20 21" version="1.1" xmlns="http://www.w3.org/2000/svg"
     xmlns:xlink="http://www.w3.org/1999/xlink">
    <title>矩形 2备份</title>
    <path d="M16.8262661,13.6860835 C15.5170491,13.6860835 14.4467033,14.3867256 13.9481164,15.4747485 L7.6199229,12.7830072 C7.98908512,12.2111401 8.1918983,11.5102814 8.1918983,10.7545235 C8.1918983,10.4413975 8.15489275,10.1277571 8.08098992,9.83252482 L12.1214713,6.69771849 C12.6568743,7.10337192 13.3397581,7.34308237 14.0960574,7.34308237 C15.9227837,7.34308237 17.2878475,5.97845178 17.2878475,4.17181189 C17.2878475,2.36463059 15.9222694,1 14.0960574,1 C12.2693041,1 10.9226484,2.36463059 10.9226484,4.17181189 C10.9226484,4.63296012 11.0149592,5.05688623 11.1623859,5.42561532 L7.43508462,8.28346201 C6.6973016,7.17705818 5.47944798,6.40248617 4.09578673,6.40248617 C1.83928707,6.39677426 0.00557655034,8.22138905 0,10.4777804 C0,10.4839255 0,10.4901517 0,10.4962967 C-0.00425008933,12.7527693 1.82152873,14.5853158 4.07792011,14.5896742 L4.09589501,14.5896742 C4.94458641,14.5896742 5.73767474,14.3689673 6.38355297,13.9632327 L13.6532902,17.0608169 C13.7458176,18.7754708 15.073984,20.0477905 16.8261578,20.0477905 C18.6534255,20.0477905 20,18.683566 20,16.8763847 C20,15.0693116 18.6343949,13.6861918 16.8266992,13.6861918 L16.8262661,13.6861918 L16.8262661,13.6860835 Z"
          id="Fill-1"></path>
</svg>
