<?xml version="1.0" encoding="UTF-8"?>
<svg width="36px" height="36px" viewBox="0 0 36 36" version="1.1" xmlns="http://www.w3.org/2000/svg" xmlns:xlink="http://www.w3.org/1999/xlink">
    <title>-mockplus-</title>
    <defs>
        <filter id="filter-1">
            <feColorMatrix in="SourceGraphic" type="matrix" values="0 0 0 0 1.000000 0 0 0 0 1.000000 0 0 0 0 1.000000 0 0 0 1.000000 0"></feColorMatrix>
        </filter>
        <filter id="filter-2">
            <feColorMatrix in="SourceGraphic" type="matrix" values="0 0 0 0 1.000000 0 0 0 0 1.000000 0 0 0 0 1.000000 0 0 0 1.000000 0"></feColorMatrix>
        </filter>
        <filter id="filter-3">
            <feColorMatrix in="SourceGraphic" type="matrix" values="0 0 0 0 1.000000 0 0 0 0 1.000000 0 0 0 0 1.000000 0 0 0 1.000000 0"></feColorMatrix>
        </filter>
    </defs>
    <g id="一级页面" stroke="none" stroke-width="1" fill="none" fill-rule="evenodd">
        <g id="首页备份-7" transform="translate(-33.000000, -893.000000)">
            <g id="编组-15" transform="translate(16.000000, 885.000000)">
                <g id="编组-12" transform="translate(17.000000, 8.000000)">
                    <circle id="椭圆形" stroke="#FFFFFF" stroke-width="2" cx="18" cy="18" r="17"></circle>
                    <circle id="椭圆形备份-4" stroke="#FFFFFF" cx="18" cy="18" r="13.5"></circle>
                    <g id="编组-11" transform="translate(7.000000, 9.000000)">
                        <g filter="url(#filter-1)" id="五角星">
                            <g transform="translate(7.000000, 0.000000)">
                                <path d="M7.98563125,3.03339275 C7.94512716,2.90311362 7.82987014,2.81554044 7.70015444,2.81554044 L5.09107769,2.81554044 L4.28479196,0.217420205 C4.24562097,0.0875739697 4.13077393,0 4.00023857,0 C3.87052287,0 3.75526615,0.0875731883 3.71568518,0.216447378 L2.90847307,2.81554434 L0.29990768,2.81554434 C0.169782152,2.81554434 0.0548322416,2.90311753 0.0148414475,3.03339665 C-0.0256626363,3.16237868 0.0187380394,3.30498262 0.1236387,3.38433952 L2.23446281,4.98941821 L1.42858468,7.58894494 C1.38767047,7.71835907 1.43207111,7.85966591 1.53738194,7.93988781 C1.64135978,8.01967681 1.78491784,8.01967681 1.88940853,7.93988781 L4.00023264,6.33383238 L6.11146436,7.93988781 C6.16324799,7.97945803 6.22508102,8 6.28732351,8 C6.34905374,8 6.41129638,7.97945811 6.46349021,7.93988781 C6.56839073,7.85966591 6.61279111,7.71835907 6.57187689,7.58894494 L5.7668214,4.98941821 L7.87641527,3.38433952 C7.98121277,3.30498262 8.02520332,3.16237868 7.98562235,3.03339665 L7.98563125,3.03339275 Z" id="路径" fill="#2C2C2C" fill-rule="nonzero"></path>
                            </g>
                        </g>
                        <g filter="url(#filter-2)" id="五角星备份">
                            <g transform="translate(0.000000, 3.000000)">
                                <path d="M5.98922343,2.27504456 C5.95884537,2.17733522 5.8724026,2.11165533 5.77511583,2.11165533 L3.81830827,2.11165533 L3.21359397,0.163065154 C3.18421573,0.0656804772 3.09808045,0 3.00017893,0 C2.90289216,0 2.81644961,0.0656798912 2.78676389,0.162335534 L2.1813548,2.11165826 L0.22493076,2.11165826 C0.127336614,2.11165826 0.0411241812,2.17733815 0.0111310856,2.27504749 C-0.0192469772,2.37178401 0.0140535296,2.47873696 0.092729025,2.53825464 L1.67584711,3.74206366 L1.07143851,5.6917087 C1.04075285,5.7887693 1.07405333,5.89474943 1.15303645,5.95491585 C1.23101983,6.01475761 1.33868838,6.01475761 1.4170564,5.95491585 L3.00017448,4.75037429 L4.58359827,5.95491585 C4.622436,5.98459353 4.66881076,6 4.71549263,6 C4.76179031,6 4.80847228,5.98459358 4.84761766,5.95491585 C4.92629305,5.89474943 4.95959333,5.7887693 4.92890767,5.6917087 L4.32511605,3.74206366 L5.90731145,2.53825464 C5.98590958,2.47873696 6.01890249,2.37178401 5.98921676,2.27504749 L5.98922343,2.27504456 Z" id="路径" fill="#2C2C2C" fill-rule="nonzero"></path>
                            </g>
                        </g>
                        <g filter="url(#filter-3)" id="五角星备份-2">
                            <g transform="translate(16.000000, 3.000000)">
                                <path d="M5.98922343,2.27504456 C5.95884537,2.17733522 5.8724026,2.11165533 5.77511583,2.11165533 L3.81830827,2.11165533 L3.21359397,0.163065154 C3.18421573,0.0656804772 3.09808045,0 3.00017893,0 C2.90289216,0 2.81644961,0.0656798912 2.78676389,0.162335534 L2.1813548,2.11165826 L0.22493076,2.11165826 C0.127336614,2.11165826 0.0411241812,2.17733815 0.0111310856,2.27504749 C-0.0192469772,2.37178401 0.0140535296,2.47873696 0.092729025,2.53825464 L1.67584711,3.74206366 L1.07143851,5.6917087 C1.04075285,5.7887693 1.07405333,5.89474943 1.15303645,5.95491585 C1.23101983,6.01475761 1.33868838,6.01475761 1.4170564,5.95491585 L3.00017448,4.75037429 L4.58359827,5.95491585 C4.622436,5.98459353 4.66881076,6 4.71549263,6 C4.76179031,6 4.80847228,5.98459358 4.84761766,5.95491585 C4.92629305,5.89474943 4.95959333,5.7887693 4.92890767,5.6917087 L4.32511605,3.74206366 L5.90731145,2.53825464 C5.98590958,2.47873696 6.01890249,2.37178401 5.98921676,2.27504749 L5.98922343,2.27504456 Z" id="路径" fill="#2C2C2C" fill-rule="nonzero"></path>
                            </g>
                        </g>
                    </g>
                    <g id="-mockplus-" transform="translate(8.000000, 20.000000)" fill="#FFFFFF">
                        <g id="编组" transform="translate(0.230216, 0.624113)">
                            <polygon id="Fill-1" points="15.4486587 0.085106383 15.3566225 0.266084001 14.0431655 2.78014184 14.9824828 2.78014184 16.4028777 0.085106383"></polygon>
                            <polygon id="Fill-2" points="14.2433461 0.085106383 13.1873612 2.11713676 12.9202926 2.11713676 13.952552 0.085106383 13.0016536 0.085106383 11.9805457 2.11713676 11.6587435 2.11713676 12.6830374 0.085106383 11.7321959 0.085106383 10.3884892 2.78014184 11.3245379 2.78014184 11.6474212 2.78014184 12.5834699 2.78014184 12.8428007 2.78014184 13.7788493 2.78014184 14.127734 2.11713676 14.1270512 2.11713676 15.1942446 0.085106383"></polygon>
                            <polygon id="Fill-3" points="16.6525646 0.0567375887 15.2517986 2.75177305 16.0904083 2.75177305 16.9335286 1.10426479 17.2537738 2.75177305 18.1007194 2.75177305 17.8565246 1.52410571 17.8427647 1.45731029 17.5543784 0.0567375887"></polygon>
                            <polygon id="Fill-4" points="17.7553957 0.0567375887 18.2537747 2.5248227 19.5395683 0.0567375887"></polygon>
                            <polygon id="Fill-5" points="1.90139914 0 1.52883992 0 1.38037094 0 1.31012695 0.137120161 0.14869539 2.40466994 0 2.69503546 0.3143716 2.69503546 0.686874211 2.69503546 0.835399793 2.69503546 0.905700392 2.55785931 2.06707535 0.290309529 2.21582734 0"></polygon>
                            <g transform="translate(1.093525, 0.000000)">
                                <path d="M1.99421679,1.34439189 C1.98949146,1.3345621 1.9843676,1.32490082 1.97890215,1.31546423 C2.11451358,1.21407699 2.24050355,1.07769572 2.32425016,0.914689759 C2.48291895,0.605697418 2.43725969,0.40286678 2.37104806,0.287156142 C2.26669216,0.104659121 2.03423981,0.00417060993 1.71661757,0.00417060993 L1.55658241,0.00417060993 L1.40713657,0.00417060993 L1.33648426,0.141731461 L1.19210534,0.422919546 L1.0424887,0.71421827 L1.35874458,0.71421827 L1.48046466,0.71421827 C1.54240641,0.71421827 1.5800383,0.720172312 1.6015585,0.725620823 C1.5979718,0.734720397 1.59279101,0.746403801 1.58527602,0.761008057 C1.47414524,0.977431887 1.38795057,0.977431887 1.25746299,0.977431887 L1.23281154,0.977319546 L1.20736305,0.977263376 L1.05677857,0.977263376 L0.90744658,0.977263376 L0.836794276,1.1148804 L0.708640902,1.36444465 L0.559024258,1.65574338 L0.87528014,1.65574338 L1.18908796,1.65574338 C1.21117748,1.65574338 1.22586587,1.65821487 1.23412097,1.66046167 C1.23332393,1.67596465 1.22654905,1.70921742 1.20070203,1.75937742 C1.12225008,1.91227274 0.994438297,2.00725657 0.867309695,2.00725657 L0.52788259,2.00725657 L0.378493673,2.00725657 L0.307898301,2.14487359 L0.168358577,2.41656891 L0.0187419327,2.70786763 L0.334940883,2.70786763 L0.69685603,2.70786763 C1.00924055,2.70786763 1.62387575,2.5404804 1.94605253,1.91311529 C2.08359964,1.64518338 2.04818809,1.45594593 1.99421679,1.34439189" id="Fill-6"></path>
                                <polygon id="Fill-8" points="4.05003943 2.06072499 3.73378355 2.06072499 2.99002714 2.06072499 3.86421419 0.358318184 4.01383084 0.0670756312 3.69763189 0.0670756312 3.31653074 0.0670756312 3.16714182 0.0670756312 3.09648952 0.204692652 1.9283069 2.4795301 1.77869026 2.77077265 2.09494614 2.77077265 3.53605958 2.77077265 3.68544849 2.77077265 3.7561008 2.6332118 3.90047972 2.35202372"></polygon>
                                <polygon id="Fill-10" points="6.1129273 0.0670643972 5.79667142 0.0670643972 5.41562721 0.0670643972 5.26623829 0.0670643972 5.19558598 0.204681418 4.02740337 2.47951887 3.87784366 2.77076142 4.19404261 2.77076142 4.57514375 2.77076142 4.72447574 2.77076142 4.79518497 2.63320057 5.96331066 0.358363121"></polygon>
                                <polygon id="Fill-12" points="10.1803765 0.0670643972 8.64640734 0.0670643972 8.49707536 0.0670643972 8.42636612 0.204681418 8.27225187 0.504798865 8.12269216 0.796097589 8.43889111 0.796097589 9.02773622 0.796097589 7.47520734 2.10087546 7.43552591 2.1341844 7.41235469 2.17934525 7.25824044 2.47951887 7.10868072 2.77076142 7.42487967 2.77076142 8.9588488 2.77076142 9.10818078 2.77076142 9.17883309 2.63320057 9.33294734 2.33302695 9.48256398 2.0417844 9.1663081 2.0417844 8.57922787 2.0417844 10.1301057 0.736894184 10.1697302 0.703585248 10.1929015 0.658480567 10.3470726 0.358363121 10.4966323 0.0670643972"></polygon>
                                <polygon id="Fill-14" points="7.99211918 0.0670643972 6.45815006 0.0670643972 6.30881808 0.0670643972 6.23810884 0.204681418 6.08399459 0.504798865 5.93443487 0.796097589 6.25063382 0.796097589 6.83947893 0.796097589 5.28695006 2.10087546 5.24726863 2.1341844 5.22409741 2.17934525 5.06998315 2.47951887 4.92036651 2.77076142 5.23662239 2.77076142 6.77059151 2.77076142 6.9199235 2.77076142 6.9905758 2.63320057 7.14469006 2.33302695 7.2943067 2.0417844 6.97805082 2.0417844 6.39097059 2.0417844 7.94184845 0.736894184 7.98147295 0.703585248 8.00464417 0.658480567 8.15875842 0.358363121 8.30837507 0.0670643972"></polygon>
                            </g>
                        </g>
                    </g>
                </g>
            </g>
        </g>
    </g>
</svg>