<?xml version="1.0" encoding="UTF-8"?>
<svg width="30px" height="30px" viewBox="0 0 30 30" version="1.1" xmlns="http://www.w3.org/2000/svg"
     xmlns:xlink="http://www.w3.org/1999/xlink">
    <title>编组 15</title>
    <path d="M24.0970982,11.9866071 C24.0970982,5.36049107 18.7366071,0 12.0502232,0 C5.42075893,0 0,5.36049107 0,11.9866071 C0,18.6127232 5.36049107,23.9732143 12.046875,23.9732143 C18.7332589,23.9732143 24.0970982,18.6127232 24.0970982,11.9866071 Z M17.0491071,14.0959821 C17.5915179,14.0959821 18.0736607,14.4575893 18.0736607,15.1808036 C18.0736607,15.9040179 17.6517857,16.265625 17.0491071,16.265625 L13.734375,16.265625 L13.734375,18.0736607 C13.734375,19.0379464 13.1316964,19.5200893 12.1071429,19.5200893 C11.0825893,19.5200893 10.4799107,19.0379464 10.4799107,18.0736607 L10.4799107,16.265625 L7.16517857,16.265625 C6.5625,16.2053571 6.140625,15.84375 6.140625,15.1205357 C6.140625,14.3973214 6.5625,14.15625 7.16517857,14.0959821 L10.4799107,14.0959821 L10.4799107,13.0111607 L7.16517857,13.0111607 C6.5625,12.9508929 6.140625,12.5892857 6.140625,11.9263393 C6.140625,11.2633929 6.5625,10.9620536 7.16517857,10.9017857 L9.63616071,10.9017857 L7.28571429,6.8671875 C6.80357143,6.08370536 6.74330357,5.1796875 7.46651786,4.7578125 C8.12946429,4.27566964 8.97321429,4.57700893 9.45535714,5.30022321 L12.1071429,10.0580357 L15,5.23995536 C15.421875,4.51674107 16.0848214,4.03459821 16.9285714,4.51674107 C17.6517857,4.87834821 17.5915179,5.78236607 17.2299107,6.56584821 L14.5178571,10.9017857 L17.0491071,10.9017857 C17.6517857,10.9620536 18.0736607,11.1428571 18.0736607,11.9263393 C18.0736607,12.7098214 17.6517857,13.0111607 17.0491071,13.0111607 L13.734375,13.0111607 L13.734375,14.0357143 L17.0491071,14.0959821 Z"
          id="path-4"></path>
    <path d="M18.7332589,0.0602678571 C22.9520089,2.40736607 25.7845982,6.8671875 25.7845982,11.9866071 C25.7845982,17.1060268 22.9520089,21.6261161 18.7366071,23.9129464 C25.0011161,23.5513393 30,18.3113839 30,11.9866071 C30,5.66183036 25.0613839,0.421875 18.7332589,0.0602678571 Z"
          id="path-8"></path>
</svg>
