<?xml version="1.0" encoding="UTF-8"?>
<svg width="44px" height="44px" viewBox="0 0 44 44" version="1.1" xmlns="http://www.w3.org/2000/svg" xmlns:xlink="http://www.w3.org/1999/xlink">
    <title>订阅</title>
    <g id="一级页面" stroke="none" stroke-width="1" fill-rule="evenodd">
        <g id="我的-已登录备份-3" transform="translate(-166.000000, -568.000000)" fill-rule="nonzero">
            <g id="编组-3" transform="translate(15.000000, 335.000000)">
                <g id="订阅" transform="translate(151.000000, 233.000000)">
                    <path d="M29.6253211,10 C31.484893,10 33,11.5080501 33,13.3649374 L33,30.6350626 C33,31.745975 32.4510092,32.7844365 31.5333333,33.4096601 C30.6156575,34.0375671 29.4450153,34.1717352 28.4062385,33.7692308 L22.3511927,31.4239714 C22.1251376,31.3354204 21.8775535,31.3354204 21.6514985,31.4239714 L15.5964526,33.7692308 C15.1981651,33.9248658 14.7837309,34 14.3719878,34 C13.701896,34 13.0344954,33.8014311 12.4666667,33.4123435 C11.5489908,32.7844365 11,31.745975 11,30.6350626 L11,13.3649374 C11,11.5107335 12.5124159,10 14.3746789,10 L29.6253211,10 Z M22,15 C21.4474273,15 21,15.5353319 21,16.1964668 L21,16.1964668 L21,19 L18.1967871,19 C17.5795627,19 17.071956,19.3897589 17.0070183,19.8909888 L17,20 C17,20.5525727 17.5354752,21 18.1967871,21 L18.1967871,21 L21,21 L21,23.8035332 C21,24.4205924 21.3897589,24.9280633 21.8909888,24.9929836 L22,25 C22.5525727,25 23,24.4619914 23,23.8008565 L23,23.8008565 L23,21 L25.8032129,21 C26.4204373,21 26.928044,20.6102411 26.9929817,20.1090112 L27,20 C27,19.4474273 26.4645248,19 25.8032129,19 L25.8032129,19 L23,19 L23,16.1964668 C23,15.5794076 22.6102411,15.0719367 22.1090112,15.0070164 Z" id="形状"></path>
                </g>
            </g>
        </g>
    </g>
</svg>
