<?xml version="1.0" encoding="UTF-8"?>
<svg width="18px" height="18px" viewBox="0 0 18 18" version="1.1" xmlns="http://www.w3.org/2000/svg"
     xmlns:xlink="http://www.w3.org/1999/xlink">
    <title>赞</title>
    <path d="M11.1338411,3.60153267 C11.0527638,4.0155537 10.9751126,4.40594853 10.9910995,4.79632578 L10.9910994,4.79632475 C11.0059405,5.29755881 11.423082,5.69606811 11.9320505,5.69524541 L15.8979662,5.6614937 L15.8979662,5.6614937 C17.0508065,5.65357746 17.9918789,6.56791006 17.9999588,7.70371853 C18.0003885,7.77161767 17.9974554,7.83949852 17.9911198,7.90711129 L17.2009022,16.1391369 L17.2009022,16.139136 C17.1026921,17.1956244 16.2016894,18.0032326 15.1248679,18 L2.08402796,18 L2.08402785,18 C0.933573106,17.9987403 0.001266832,17.0802041 0,15.9467512 L0,9.00291603 C0,7.86998347 0.935243184,6.94856167 2.08402785,6.94856167 L2.79088442,6.94856167 C3.79121779,6.94856167 4.87261056,6.75280172 5.24033085,6.31515449 C5.90377612,5.52648943 6.4210718,4.51733074 6.77963879,3.31801982 C6.87099343,3.01200427 6.93836748,2.69811333 7.00574154,2.3864725 L7.10280585,1.94207492 C7.17931536,1.57755641 7.26724421,1.16466043 7.51961142,0.799016858 L7.51961148,0.799016766 C7.8202664,0.385333251 8.27616891,0.107087281 8.78601526,0.0261025029 L8.78601504,0.0261025376 C9.18370572,-0.0374925484 9.59159886,0.0157242897 9.9587803,0.179110134 C10.5343146,0.434498108 10.9568298,0.956524626 11.1498165,1.64843477 C11.2251841,1.91844849 11.2674356,2.21096335 11.2720033,2.51922901 C11.2799969,2.86799673 11.2171905,3.1785125 11.15781,3.47890276 M2.0840277,8.07476122 L2.08402772,8.07476122 C1.56380584,8.07600033 1.14256993,8.49150524 1.14193294,9.00404085 L1.14193294,15.946751 C1.14193294,16.458652 1.56444818,16.8749357 2.08402772,16.8749357 L15.1248677,16.8749357 L15.1248677,16.8749357 C15.6115774,16.8774113 16.0190709,16.5121256 16.0623948,16.0345054 L16.8526125,7.80247981 L16.8526125,7.80247973 C16.8787117,7.54160007 16.790649,7.28213376 16.6105227,7.08919349 L16.6105227,7.08919356 C16.4332151,6.89495947 16.1802352,6.78445953 15.9150855,6.78542813 L11.9491698,6.81917984 L11.9491699,6.81917984 C10.8197089,6.82899382 9.88812343,5.95010659 9.84915497,4.8379542 C9.82974211,4.32042791 9.92338062,3.84567137 10.0135933,3.38663047 L10.0375739,3.26176671 C10.0901028,2.99850334 10.1357802,2.77011673 10.1300705,2.54060508 L10.1300705,2.54060398 C10.1287178,2.33993422 10.1010831,2.14027525 10.0478511,1.94657381 C9.98961255,1.73506306 9.83887738,1.36041903 9.48830393,1.20403609 L9.4883039,1.20403607 C9.3278632,1.1323244 9.14962083,1.10846669 8.97557595,1.13540759 L8.97557594,1.13540759 C8.77290244,1.16668049 8.58995228,1.27289713 8.46398992,1.43242268 C8.33837728,1.61243182 8.28242256,1.88357059 8.22075818,2.17046017 L8.12255193,2.62048303 C8.04946822,2.96025029 7.97410063,3.3011426 7.87475246,3.63415952 C7.47279202,4.98083535 6.88127069,6.12501848 6.11960312,7.0329396 C5.32938543,7.97348737 3.5845117,8.07474252 2.87196331,8.07474252 L2.08402949,8.07474252 L2.0840277,8.07476122 Z M3.59250344,17.4093252 L3.59250342,17.4093252 C3.27716752,17.4093252 3.02153687,17.1574724 3.02153687,16.8467967 L3.02153687,8.10287007 L3.02153687,8.10296943 C3.02153687,7.79229369 3.27716751,7.54044085 3.59250341,7.54044085 C3.9077608,7.54044085 4.16335753,7.79217239 4.16346994,8.10277079 L4.16346994,16.8466974 L4.16346994,16.8466974 C4.16346994,17.1573731 3.9078393,17.4092259 3.59250341,17.4092259 L3.59250344,17.4093252 Z"
          id="形状"></path>
</svg>
