<?xml version="1.0" encoding="UTF-8"?>
<svg width="44px" height="44px" viewBox="0 0 44 44" version="1.1" xmlns="http://www.w3.org/2000/svg"
     xmlns:xlink="http://www.w3.org/1999/xlink">
    <title>-mockplus-</title>
    <path transform="translate(12.000000, 10.000000)"
          d="M10.0461538,-1.0658141e-14 C11.1762134,-1.0658141e-14 12.0923077,0.8954305 12.0923077,2 L12.092,1.999 L18.2266667,2 C19.7583364,2 21,3.24166363 21,4.77333333 L21,22.4898246 C21,24.0214943 19.7583364,25.2631579 18.2266667,25.2631579 L2.77333333,25.2631579 C1.24166363,25.2631579 1.8757544e-16,24.0214943 0,22.4898246 L0,4.77333333 C-1.8757544e-16,3.24166363 1.24166363,2 2.77333333,2 L8.00000025,1.9989959 C8.00055523,0.894887897 8.91643672,-1.0658141e-14 10.0461538,-1.0658141e-14 Z M14.0157895,18.0526316 L5.18421053,18.0526316 C4.53018911,18.0526316 4,18.5828207 4,19.2368421 C4,19.8908635 4.53018911,20.4210526 5.18421053,20.4210526 L5.18421053,20.4210526 L14.0157895,20.4210526 C14.6698109,20.4210526 15.2,19.8908635 15.2,19.2368421 C15.2,18.5828207 14.6698109,18.0526316 14.0157895,18.0526316 L14.0157895,18.0526316 Z M16.8157895,12.5263158 L5.18421053,12.5263158 C4.53018911,12.5263158 4,13.0565049 4,13.7105263 C4,14.3645477 4.53018911,14.8947368 5.18421053,14.8947368 L5.18421053,14.8947368 L16.8157895,14.8947368 C17.4698109,14.8947368 18,14.3645477 18,13.7105263 C18,13.0565049 17.4698109,12.5263158 16.8157895,12.5263158 L16.8157895,12.5263158 Z M16.8157895,7 L5.18421053,7 C4.53018911,7 4,7.53018911 4,8.18421053 C4,8.83823194 4.53018911,9.36842105 5.18421053,9.36842105 L5.18421053,9.36842105 L16.8157895,9.36842105 C17.4698109,9.36842105 18,8.83823194 18,8.18421053 C18,7.53018911 17.4698109,7 16.8157895,7 L16.8157895,7 Z M10,1 C9.44771525,1 9,1.44771525 9,2 C9,2.55228475 9.44771525,3 10,3 C10.5522847,3 11,2.55228475 11,2 C11,1.44771525 10.5522847,1 10,1 Z"
          id="path-2"></path>
</svg>
