<?xml version="1.0" encoding="UTF-8"?>
<svg width="20px" height="20px" viewBox="0 0 20 20" version="1.1" xmlns="http://www.w3.org/2000/svg"
     xmlns:xlink="http://www.w3.org/1999/xlink">
    <title>编组 4</title>
    <path d="M18.7384394,2.67929348 C18.7384394,1.75692279 17.9787842,1 17.0482443,1 L1.68746271,1 C0.759655157,1 0,1.75419041 0,2.67929348 L0,4.55397943 L18.7384394,4.55397943 L18.7384394,2.67929348 Z M15.0135473,8.4144585 C16.4405146,8.4144585 17.745501,8.9462673 18.7384394,9.81987351 L18.7384394,7.07158134 L0,7.07158134 L0,14.1333966 C0,15.0557673 0.759655157,15.8127179 1.68746271,15.8127179 L9.64728034,15.8127179 C9.46822634,15.2620613 9.36790925,14.6705586 9.36790925,14.060208 C9.37064163,10.942962 11.8963012,8.4144585 15.0135473,8.4144585 Z M19.6038485,12.1529567 C19.3434367,11.5561286 18.9826242,11.0297566 18.5321732,10.584854 C18.0792128,10.137219 17.5528409,9.78184336 16.9478157,9.51872709 C16.3455507,9.25831532 15.7053671,9.12805367 15.0270697,9.12805367 C14.3325454,9.12805367 13.6841926,9.2582038 13.0818997,9.51872709 C12.4796348,9.77913887 11.9505305,10.137219 11.500191,10.584854 C11.0472306,11.032489 10.6890111,11.558861 10.4231624,12.1529567 C10.1573138,12.7525171 10.0270522,13.3873754 10.0270522,14.060208 C10.0270522,14.7492955 10.1600183,15.3922115 10.4231624,15.9864187 C10.6890111,16.5859792 11.0444982,17.1095351 11.500191,17.5598746 C11.950642,18.0075096 12.4796348,18.357532 13.0818997,18.612507 C13.6841926,18.8675655 14.3325454,18.9923903 15.0270697,18.9923903 C15.7052556,18.9923903 16.3455507,18.8675655 16.9478157,18.612507 C17.5528409,18.357532 18.0792128,18.0075096 18.5321732,17.5598746 C18.9826242,17.1095351 19.3433252,16.5859792 19.6038485,15.9864187 C19.8696971,15.3894791 20,14.7492955 20,14.060208 C20.0026911,13.3873754 19.8696971,12.7497848 19.6038485,12.1529567 Z M17.8186895,16.3743598 C17.5257123,15.57397 16.7579995,15.0015381 15.8572926,15.0015381 L15.8572926,17.0960127 C15.8576271,17.2350012 15.8026172,17.3684134 15.7042797,17.4666394 C15.6060259,17.5648933 15.4726136,17.6199868 15.333653,17.6195709 C15.1518666,17.6195709 14.9945043,17.5273092 14.8995404,17.3889898 L11.9668689,14.4589392 C11.8502134,14.3640868 11.7769412,14.2174867 11.7769412,14.0547712 C11.7769412,13.9082826 11.8366073,13.7780209 11.9315712,13.6830571 L14.9809819,10.6337579 L14.9837142,10.6364903 C15.0759736,10.5522886 15.198066,10.5034962 15.333653,10.5034962 C15.6238978,10.5034962 15.8572926,10.7395118 15.8572926,11.0271358 L15.8572926,12.6114933 C17.1812383,12.6114933 18.2528021,13.6830571 18.2528021,15.0069749 C18.2502927,15.4963204 18.0989249,15.9732587 17.8186895,16.3743598 Z"
          id="Fill-1"></path>
</svg>
