<?xml version="1.0" encoding="UTF-8"?>
<svg width="24px" height="24px" viewBox="0 0 24 24" version="1.1" xmlns="http://www.w3.org/2000/svg"
     xmlns:xlink="http://www.w3.org/1999/xlink">
    <title>转账</title>
    <path d="M3.81892601,8.48669926 C4.11607516,8.7615273 4.54528893,8.87145851 4.94148708,8.77252085 C5.33768523,8.67358275 5.65684407,8.37676804 5.76689899,7.99200879 C5.87695392,7.60724954 5.7558935,7.20050318 5.46974984,6.92567515 L3.95099063,5.5075629 L17.8399184,5.5075629 C18.3241596,5.49656978 18.7863911,5.67245972 19.1275618,5.99125982 C19.4687325,6.31005991 19.6668305,6.73879337 19.6778364,7.18950963 L19.6778364,9.9048115 C19.6778364,10.5094332 20.1950954,11.0041237 20.8334131,11.0041237 C21.4717329,11.0041237 21.9889898,10.5094332 21.9889898,9.9048115 L21.9889898,7.18950963 C21.9779843,6.15615664 21.5377642,5.15578215 20.7563738,4.43022926 C19.9749834,3.70468281 18.9294617,3.29793645 17.8289103,3.30893 L3.95097342,3.30893 L5.45872672,1.89081776 C5.67883656,1.68194845 5.7998974,1.40712084 5.7998974,1.1103057 C5.7998974,0.813490562 5.67883699,0.538662524 5.45872672,0.329793645 C5.23861687,0.120924337 4.94146772,0 4.6333148,0 C4.32516188,0 4.02801273,0.120924337 3.80790288,0.329793645 L0.330164766,3.6277301 C0.121060414,3.83659941 0,4.12242057 0,4.40824216 C0,4.7050573 0.121060414,4.97988533 0.341170689,5.18875421 L3.81890881,8.48669067 L3.81892601,8.48669926 Z"
          ></path>
    <path d="M4.1600967,18.6993152 L18.0490244,18.6993152 L16.5412711,20.1174274 C16.0900455,20.5461587 16.0900455,21.2497202 16.5412711,21.6784515 C16.9924967,22.1071828 17.7298656,22.1071828 18.1810912,21.6784515 L21.6588293,18.3805151 C21.8789392,18.1716458 22,17.8968181 22,17.600003 C22,17.3031879 21.8789396,17.0283598 21.6588293,16.819491 L18.1810912,13.5215545 C17.9609813,13.3126852 17.6638322,13.1917609 17.3556793,13.1917609 C17.0475264,13.1917609 16.7503772,13.3126852 16.5302674,13.5215545 C16.3101575,13.7304238 16.1890967,14.0052514 16.1890967,14.3020666 C16.1890967,14.5988817 16.3101571,14.8737097 16.5302674,15.0825786 L18.0380207,16.5006909 L4.1600838,16.5006909 C3.67584257,16.511684 3.21361104,16.335794 2.87244035,16.0169939 C2.53126966,15.6981938 2.33317166,15.2694604 2.32216574,14.8187441 L2.32216574,12.1034423 C2.32216574,11.4988206 1.80490674,11.0041301 1.16658906,11.0041301 C0.528269218,11.0041301 0.0110123749,11.4988206 0.0110123749,12.1034423 L0.0110123749,14.8187441 C0.0220178671,15.8520971 0.462237986,16.8524716 1.24362836,17.5780245 C2.01401282,18.3035709 3.0705405,18.7103173 4.1600795,18.6993238 L4.1600967,18.6993152 Z"
          id="路径" fill="#24c29a"></path>
</svg>
