<?xml version="1.0" encoding="UTF-8"?>
<svg width="30px" height="30px" viewBox="0 0 30 30" version="1.1" xmlns="http://www.w3.org/2000/svg" xmlns:xlink="http://www.w3.org/1999/xlink">
    <title>转账</title>
    <defs>
        <circle id="path-1" cx="15" cy="15" r="15"></circle>
        <filter id="filter-3">
            <feColorMatrix in="SourceGraphic" type="matrix" values="0 0 0 0 1.000000 0 0 0 0 1.000000 0 0 0 0 1.000000 0 0 0 1.000000 0"></feColorMatrix>
        </filter>
    </defs>
    <g id="会员中心" stroke="none" stroke-width="1" fill-rule="evenodd">
        <g id="交易记录-转账" transform="translate(-15.000000, -311.000000)">
            <g id="Color/🎨4D4C4D" transform="translate(15.000000, 311.000000)">
                <mask id="mask-2" fill="white">
                    <use xlink:href="#path-1"></use>
                </mask>
                <use id="蒙版" xlink:href="#path-1"></use>
                <g id="编组" mask="url(#mask-2)">
                    <g transform="translate(7.729936, 9.891835)" id="转账" filter="url(#filter-3)">
                        <g fill="#000000" fill-rule="nonzero" id="形状">
                            <path d="M15.6465475,2.09762321 L15.6465475,1.48447305 C15.6089958,0.671829542 14.7140124,0 13.671949,0 L1.97457402,0 C0.89496138,0 -2.45211022e-05,0.671824944 -2.45211022e-05,1.48447305 L-2.45211022e-05,2.09762321 L15.6465475,2.09762321 Z M-4.05240891e-16,2.86039309 L-4.05240891e-16,10.2856664 C-4.05240891e-16,11.0983099 0.894983449,11.7701394 1.97459854,11.7701394 L13.6719735,11.7701394 C14.7515861,11.7701394 15.646572,11.0983145 15.646572,10.2856664 L15.646572,2.86039309 L-4.05240891e-16,2.86039309 Z M4.35600216,6.01415549 C4.35600216,6.01415549 4.45926947,5.91440859 4.49056294,5.88213809 L6.28992142,4.50914794 L6.2899214,4.50914796 C6.30544216,4.48873771 6.32447813,4.47089148 6.34624907,4.45634077 L6.34624907,4.45634077 C6.42452631,4.39548966 6.52307074,4.3622725 6.62475852,4.36244401 L6.62475852,4.36244401 C6.86621168,4.3604079 7.0644133,4.540988 7.06912135,4.76731586 L7.06912134,4.76731158 C7.06921594,4.83152545 7.05313358,4.89485197 7.02218366,4.95213709 L7.02218367,4.95213708 C7.01572676,4.96676606 7.00731468,4.98056711 6.99714922,4.99320931 L6.99714921,4.99320933 C6.96627003,5.03583467 6.92822407,5.07348494 6.88449191,5.10469498 L5.85181879,5.87920051 L10.9713713,5.87920051 L10.9713713,5.87920051 C11.2154899,5.87925236 11.4132869,6.06482257 11.4132869,6.29368376 C11.4132869,6.47840812 11.2827819,6.64079797 11.0934153,6.69184401 L11.0934153,6.69184401 C11.0648,6.70356391 11.0338918,6.70955898 11.0026652,6.70944789 L4.62199244,6.70944789 L4.62199244,6.70944789 C4.60901183,6.70865741 4.59629016,6.70567577 4.5844407,6.70064516 L4.58444071,6.70064516 C4.34421115,6.64978591 4.1934456,6.42598391 4.24769486,6.2007687 C4.26503827,6.12876885 4.30240635,6.06235704 4.35600065,6.00828456 L4.35600216,6.01415549 Z M11.3531477,8.21445698 L11.3531477,8.21445696 C11.3125551,8.26483345 11.2664028,8.31105144 11.2154581,8.35234218 L9.34413016,9.81334393 L9.34413018,9.81334392 C9.17696615,9.97901538 8.89819554,9.98627516 8.72147932,9.82955784 C8.63331553,9.75137177 8.58346965,9.64254613 8.5837075,9.52877243 L8.5837075,9.52877237 C8.58420555,9.43632985 8.6172021,9.34662043 8.67758691,9.27353758 L8.6901042,9.26180263 L8.69010421,9.26180261 C8.70859079,9.24101052 8.72959397,9.22230452 8.75269052,9.20606174 L9.78849376,8.42275506 L4.68458572,8.42275506 L4.6845857,8.42275506 C4.44089989,8.42275505 4.24335299,8.23755483 4.24335299,8.00909939 C4.24335299,7.78064394 4.44089989,7.59544305 4.6845857,7.59544305 L10.9776323,7.59544305 L10.9776323,7.59544305 C11.2208866,7.59503829 11.4184335,7.77958072 11.4188657,8.00763157 C11.4188657,8.00812096 11.4188657,8.00861036 11.4188657,8.00909975 L11.4188657,8.00909961 C11.4145858,8.080142 11.3931878,8.14935151 11.3562789,8.21152744 L11.3531477,8.21445698 Z"></path>
                        </g>
                    </g>
                </g>
            </g>
        </g>
    </g>
</svg>
