<?xml version="1.0" encoding="UTF-8"?>
<svg width="44px" height="44px" viewBox="0 0 44 44" version="1.1" xmlns="http://www.w3.org/2000/svg"
     xmlns:xlink="http://www.w3.org/1999/xlink">
    <title>-mockplus-</title>
    <path transform="translate(9.000000, 9.000000)"
          d="M12.9998111,-3.55271368e-15 C20.229134,-3.55271368e-15 26.0657854,5.83674064 25.9994399,13.0000547 C25.9994399,20.1632594 20.162825,26 12.9998111,26 C5.83661491,26 1.43884904e-13,20.1632594 1.43884904e-13,13.0000547 C1.43884904e-13,5.83674064 5.83661491,-3.55271368e-15 12.9998111,-3.55271368e-15 Z M18.836426,7.22962446 C18.7701169,7.09700356 18.5046623,7.09700356 18.3056988,7.16331401 L18.3056988,7.16331401 L10.214067,9.81635144 C10.0151035,9.88266189 9.81613999,10.0816297 9.74979453,10.2805975 L9.74979453,10.2805975 L7.09685068,18.3724764 C6.9641962,18.5713713 7.03054166,18.7704848 7.16315971,18.9031422 C7.22950516,19.035836 7.49477769,19.035836 7.69374119,18.9694526 L7.69374119,18.9694526 L15.7854094,16.3163059 C15.9843729,16.2499954 16.1833364,16.0510277 16.2496454,15.8520599 L16.2496454,15.8520599 L18.902735,7.76021737 C19.0353895,7.56124958 18.969044,7.3622818 18.836426,7.22962446 Z M12.9998111,11.0102748 C14.1272466,11.0102748 14.9895554,11.9387668 14.9895554,13.0000619 C14.9895554,14.1275582 14.1272466,14.9898856 12.9998111,14.9898856 C11.8721933,14.9898856 11.0100303,14.0612113 11.0100303,13.0000619 C11.0100303,11.8724564 11.9385388,11.0102748 12.9998111,11.0102748 Z"
          id="path-2"></path>
</svg>
