<?xml version="1.0" encoding="UTF-8"?>
<svg width="20px" height="21px" viewBox="0 0 20 21" version="1.1" xmlns="http://www.w3.org/2000/svg"
     xmlns:xlink="http://www.w3.org/1999/xlink">
    <title>编组 3备份 2</title>
    <path d="M8.06905668,10.2832682 C10.8549677,10.2832682 12.4104452,7.97717674 12.4104452,5.51067592 C12.4104452,3.04269124 10.4532402,1 8.06905668,1 C5.68791636,1 3.74683279,3.0220679 3.74683279,5.48856871 C3.72766818,7.97866061 5.22587816,10.284727 8.06905668,10.284727 L8.06905668,10.2832682 Z M8.39581082,14.812983 C8.39581082,14.0241907 8.53119549,13.2560217 8.76079359,12.5672274 C8.56949956,12.3258337 8.31927812,12.1434178 8.03082806,12.1434178 C7.45543695,12.1434178 6.99329815,12.8910389 6.99329815,13.4782507 L6.99329815,17.5223613 C6.99279514,17.9813563 6.62801358,18.3571286 6.16921978,18.3714644 C5.70924391,18.3587131 5.34270182,17.9825384 5.34209821,17.5223613 L3.91903765,12.4259575 C2.45913174,12.8718743 1.40253782,13.6195206 0.53718763,14.7923597 C0.191268876,15.2368177 0,16.1668799 0,16.6731326 C0.0191646132,16.7938797 0,16.9366334 0,17.0969673 L0,18.796783 C0,19.7474685 0.72994038,20.4951148 1.65117479,20.4951148 L11.3538513,20.4951148 C9.58633068,19.3030104 8.39581082,17.1985498 8.39581082,14.812983 Z M14.8328573,9.35318088 C11.9895782,9.35318088 9.66434726,11.778435 9.66434726,14.7923597 C9.66434726,17.8049011 11.9895782,20.2316139 14.8328573,20.2316139 C17.6761113,20.2316139 19.9998835,17.8049011 19.9998835,14.7923597 C20.0189475,11.7990584 17.6951753,9.35318088 14.8328573,9.35318088 Z M18.00279,12.6893578 L16.23537,17.8049011 C16.2062961,17.8870423 16.152273,17.9580671 16.0808459,18.0079655 C16.0099972,18.0644533 15.9210905,18.0932505 15.8306244,18.0889247 L13.9292031,18.0889247 C13.8364483,18.0856803 13.7478434,18.0497152 13.6790822,17.9873421 C13.6282784,17.9312316 13.5833849,17.8701412 13.5451563,17.8049011 L11.6820641,12.6688099 C11.6506261,12.5822673 11.6576179,12.4864694 11.7011281,12.4053342 C11.7396334,12.2995264 11.8387763,12.2277974 11.9513496,12.2243518 L13.0064848,12.2243518 C13.0845014,12.2243518 13.1610341,12.2640392 13.2375668,12.3258337 C13.2964187,12.3656468 13.3140995,12.4259575 13.3332641,12.4877521 L14.8902254,16.3905928 L16.3309667,12.5480627 C16.3590597,12.4652424 16.404758,12.389414 16.4648675,12.3258337 C16.5238201,12.2640392 16.6194168,12.2450003 16.7342536,12.2450003 L17.6761113,12.2450003 C17.8482407,12.2450003 17.9262573,12.3449983 17.9631026,12.4067929 C18.0219295,12.4862682 18.0219295,12.5878507 18.00279,12.6893578 Z"
          id="Fill-1" ></path>
</svg>
