<?xml version="1.0" encoding="UTF-8"?>
<svg width="30px" height="30px" viewBox="0 0 30 30" version="1.1" xmlns="http://www.w3.org/2000/svg"
     xmlns:xlink="http://www.w3.org/1999/xlink">
    <title>-mockplus-</title>
    <path d="M14.0067989,15.7389014 C9.80770493,15.649358 6.46492949,12.0897372 6.52027032,7.76659119 C6.57561114,3.44344515 10.0083438,-0.0242649268 14.2082685,0.000127903061 C18.4081931,0.0247792489 21.8024932,3.5323503 21.8101925,7.85586441 C21.7540697,12.2439215 18.2697836,15.7637104 14.0067989,15.7389014 L14.0067989,15.7389014 Z M15.0668981,17.184218 C13.738532,18.7045113 13.0037311,20.6770891 13.0040747,22.7218805 L13.0040747,22.7458161 C13.024885,25.6558204 14.4978699,28.3503317 16.9034377,29.8788682 L11.3721041,29.8788682 C5.89347806,29.8788682 1.53383459,29.8788682 1.53383459,27.0167118 L1.53383459,26.4471809 C1.53383459,20.9764617 5.57885496,17.184218 11.0218209,17.184218 L15.0668697,17.184218 L15.0668981,17.184218 Z"
          id="path-4"></path>
    <path d="M21.4134343,15.9541602 C22.3474722,15.9333315 23.2751408,16.11714 24.1349315,16.4933981 C24.9557189,16.8495749 25.7047069,17.3603439 26.3434123,17.9994616 C26.9534641,18.6508235 27.4485516,19.4066666 27.8064454,20.2330539 C28.1700491,21.0980438 28.3547811,22.0314701 28.3488893,22.9739507 C28.3607282,23.9154775 28.1757312,24.8486143 27.8064454,25.710072 L27.8002696,25.6972986 C27.1163593,27.4076367 25.7933581,28.7632366 24.1287273,29.459308 C23.263543,29.8170316 22.3395926,30.0001033 21.4072301,29.9985459 C19.557472,30.012771 17.7763515,29.2782153 16.4477963,27.9532152 C15.8118965,27.3101857 15.3066571,26.543322 14.9615115,25.6972986 C14.5907704,24.8361591 14.4041946,23.9030388 14.4144287,22.9611772 L14.4144287,22.9308843 C14.4093022,21.99725 14.595729,21.0730215 14.9615115,20.2186692 C15.3064909,19.3791177 15.8119364,18.6195431 16.4477963,17.9851061 C17.0875791,17.3329902 17.8487976,16.8207132 18.6857329,16.4790426 C19.5532067,16.1233221 20.4797095,15.9450383 21.4134343,15.9541602 Z M19.2885644,21.0623747 C18.8980401,20.6718504 18.2648751,20.6718504 17.8743508,21.0623747 L17.8743508,21.0623747 L17.5532287,21.3834969 C17.1627044,21.7740212 17.1627044,22.4071862 17.5532287,22.7977105 L17.5532287,22.7977105 L20.6049527,25.8494345 C20.9503025,26.1947843 21.4854043,26.2347331 21.8741809,25.9692812 C21.9501632,25.9259761 22.021679,25.871909 22.0865081,25.8070799 L22.0865081,25.8070799 L25.0106338,22.8829541 C25.4011581,22.4924298 25.4011581,21.8592648 25.0106338,21.4687405 L25.0106338,21.4687405 L24.6384724,21.0965791 C24.2479481,20.7060548 23.6147831,20.7060548 23.2242588,21.0965791 L23.2242588,21.0965791 L21.2733174,23.0473192 Z"
          id="path-8"></path>
</svg>
