<?xml version="1.0" encoding="UTF-8"?>
<svg width="23px" height="22px" viewBox="0 0 23 22" version="1.1" xmlns="http://www.w3.org/2000/svg" xmlns:xlink="http://www.w3.org/1999/xlink">
    <title>-mockplus-</title>
    <defs>
        <path d="M14.8902259,10.7537392 L11.6358683,15.0124798 C11.4807082,15.214728 11.2464665,15.3320949 11.0002125,15.3320949 C10.7529574,15.3320949 10.5197167,15.214728 10.3645566,15.0124798 L7.11019899,10.7537392 C6.8299098,10.3859198 6.88596764,9.84833762 7.23632912,9.55596837 C7.58769163,9.26359912 8.10122146,9.32123464 8.38151065,9.68905402 L11.0002125,13.1167953 L13.6189143,9.68905402 C13.9012055,9.32123464 14.4117323,9.26359912 14.7630948,9.55596837 C15.1144573,9.85148138 15.1695141,10.3859198 14.8902259,10.7537392 L14.8902259,10.7537392 Z M17.8552851,1.13699152 C17.4028183,0.42650281 16.6420333,0 15.8241895,0 L6.17623538,0 C5.35839158,0 4.60060975,0.42650281 4.14513982,1.13699152 L0.409285397,7.00009527 C0.116983818,7.45803563 -0.0221597419,7.9903782 0.00286607822,8.53948747 C0.0278918983,9.08754882 0.217087098,9.60417262 0.547427924,10.0296275 L9.1062584,21.0558255 C9.57173865,21.6541869 10.2624513,22 11.0002125,22 C11.7379736,22 12.4286863,21.6573307 12.8941665,21.0558255 L21.453998,10.0275317 C21.7843389,9.60102887 21.971532,9.08440507 21.9975588,8.53634372 C22.0205826,7.9903782 21.880438,7.45803563 21.5901385,7.00009527 L17.8552851,1.13699152 Z" id="path-1"></path>
    </defs>
    <g id="é¦–é¡µ" stroke="none" stroke-width="1">
        <g id="é¦–é¡µ_H5ä¸€å±å±•ç¤ºå¤‡ä»½-6" transform="translate(-106.000000, -698.000000)">
            <g id="ç¼–ç»„-3" transform="translate(0.000000, 690.000000)">
                <g id="-mockplus-" transform="translate(95.750000, 8.000000)">
                    <g id="Color/ðŸŽ¨C8A77F" transform="translate(10.500000, 0.000000)">
                        <mask id="mask-2">
                            <use xlink:href="#path-1"></use>
                        </mask>
                        <use id="è’™ç‰ˆ"  xlink:href="#path-1"></use>
                        <g id="-mockplus-" mask="url(#mask-2)" fill="#4D4C4D">
                            <g id="Color/ðŸŽ¨C8A77F">
                                <rect id="çŸ©å½¢å¤‡ä»½-3-copy" x="0" y="0" width="22" height="22"></rect>
                            </g>
                        </g>
                    </g>
                </g>
            </g>
        </g>
    </g>
</svg>
