<?xml version="1.0" encoding="UTF-8"?>
<svg width="26px" height="26px" viewBox="0 0 26 26" version="1.1" xmlns="http://www.w3.org/2000/svg" xmlns:xlink="http://www.w3.org/1999/xlink">
    <title>wenti</title>
    <defs>
        <filter id="filter-1">
            <feColorMatrix in="SourceGraphic" type="matrix" values="0 0 0 0 0.000000 0 0 0 0 0.639216 0 0 0 0 0.701961 0 0 0 1.000000 0"></feColorMatrix>
        </filter>
    </defs>
    <g id="会员中心" stroke="none" stroke-width="1" fill="none" fill-rule="evenodd">
        <g id="wenti-2" transform="translate(-18.000000, -115.000000)">
            <g transform="translate(18.000000, 115.000000)" id="wenti">
                <rect id="矩形" class="help-icon-circle" x="0.5" y="0.5" width="25" height="25" rx="12.5"></rect>
                <path d="M13.5408,15.9458 C13.0494,13.1976 16.8896,12.6152 16.8896,9.8306 C16.8896,7.7922 15.4518,6.5 13.195,6.5 C11.4296,6.5 10.2102,7.3008 9.1,8.4656 L10.0828,9.3756 C10.9928,8.3746 11.9574,7.865 13.013,7.865 C14.56,7.865 15.2698,8.775 15.2698,9.9762 C15.2698,12.051 11.4842,12.8882 12.0484,15.9458 L13.5408,15.9458 Z M12.831,20.4412 C13.6318,20.4412 14.287,19.877 14.287,19.0034 C14.287,18.1298 13.6318,17.5838 12.831,17.5838 C12.0302,17.5838 11.3568,18.1298 11.3568,19.0034 C11.3568,19.877 12.0302,20.4412 12.831,20.4412 Z" id="？" class="help-icon-inner" fill-rule="nonzero"></path>
            </g>
        </g>
    </g>
</svg>
