<?xml version="1.0" encoding="UTF-8"?>
<svg width="30px" height="30px" viewBox="0 0 30 30" version="1.1" xmlns="http://www.w3.org/2000/svg" xmlns:xlink="http://www.w3.org/1999/xlink">
    <title>取款</title>
    <defs>
        <circle id="path-1" cx="15" cy="15" r="15"></circle>
        <filter id="filter-3">
            <feColorMatrix in="SourceGraphic" type="matrix" values="0 0 0 0 1.000000 0 0 0 0 1.000000 0 0 0 0 1.000000 0 0 0 1.000000 0"></feColorMatrix>
        </filter>
    </defs>
    <g id="会员中心" stroke="none" stroke-width="1" fill-rule="evenodd">
        <g id="交易记录-取款" transform="translate(-16.000000, -384.000000)">
            <g id="取款" transform="translate(16.000000, 384.000000)">
                <g id="Color/🎨4D4C4D">
                    <mask id="mask-2" fill="white">
                        <use xlink:href="#path-1"></use>
                    </mask>
                    <use id="蒙版" xlink:href="#path-1"></use>
                </g>
                <g id="取款" transform="translate(7.000000, 5.000000)" filter="url(#filter-3)">
                    <g fill="#000000" fill-rule="nonzero" id="形状">
                        <path d="M17.7453136,12.1284106 L17.7453136,12.1284105 C17.4009489,11.654233 16.7373898,11.5489997 16.2632122,11.8933644 C16.2631455,11.8934128 16.2630788,11.8934613 16.2630121,11.8935097 L12.3300076,14.6421164 L8.3303994,14.5746164 L8.37989945,14.5746164 C8.37989945,14.5746164 7.91009891,14.6421164 7.91009891,14.1039158 C7.91009891,13.5657152 8.31239938,13.4685151 8.31239938,13.4685151 L10.7730058,13.4685151 L10.7730057,13.4685151 C11.3590365,13.4685151 11.8341069,12.9934446 11.8341069,12.4074138 C11.834107,11.8213831 11.3590365,11.3463126 10.7730057,11.3463126 L4.88070588,11.3463126 C4.86360586,11.3463126 4.84740584,11.3463126 4.83030582,11.3508126 L4.83030588,11.3508126 C3.63788535,11.4000722 2.64804943,12.2883588 2.47051016,13.4685221 L0.0522143802,13.4685221 L0.0522143802,17.5977339 L11.8710211,17.5977339 C12.0816213,17.5977339 12.1761215,17.4825338 12.3273216,17.3727337 L17.5095347,13.6107293 L17.5095347,13.6107293 C17.9836314,13.2663066 18.0891547,12.6029619 17.745335,12.1284276 L17.7453136,12.1284106 Z M6.64740422,4.91850572 C6.93900456,5.09850593 7.4916052,5.37810567 8.30520615,5.7573067 C8.79300672,5.98410696 9.07860763,6.19410779 9.16200715,6.38730743 C9.24540718,6.58050707 9.28710729,6.89970861 9.28710729,7.34490855 L9.28710728,7.34490844 C9.29620995,7.48866638 9.24909419,7.63033709 9.15570713,7.7400089 L9.15570713,7.7400089 C9.04564738,7.83802094 8.90031074,7.88679169 8.75340666,7.87500905 C8.54190642,7.87500905 8.40960626,7.81020898 8.3547062,7.68060883 C8.29980614,7.55100868 8.2719061,7.21890829 8.2719061,6.68430767 L8.2719061,6.20010711 L5.60879949,6.20010711 L5.60879949,6.58890756 C5.60879949,7.47570918 5.87460039,8.0967099 6.40620042,8.45190973 L6.40620075,8.45190994 C6.96335765,8.81677599 7.60691465,9.02819186 8.27190995,9.06481066 L8.27190995,9.83791156 L9.49771138,9.83791156 L9.49771138,9.09001069 C10.4121124,8.99521052 11.0976127,8.7459097 11.5542138,8.34210981 C12.0108149,7.93830993 12.2394152,7.3818087 12.2400146,6.67260787 L12.2400147,6.6726054 C12.2535379,6.28691101 12.1660478,5.9043754 11.9862126,5.56290411 L11.9862126,5.56290404 C11.8360296,5.28710118 11.6225911,5.0508386 11.3634118,4.87350324 C11.117411,4.71150305 10.656011,4.47780337 9.97921023,4.17240243 C9.18360931,3.81240201 8.70360816,3.56970231 8.53920856,3.44430158 C8.37270836,3.31920143 8.28900826,3.10140118 8.28900826,2.78910082 L8.28900824,2.78910044 C8.27760443,2.63880466 8.32109292,2.48947216 8.41140855,2.36879995 L8.41140857,2.36879994 C8.50592924,2.2694792 8.64010024,2.21792549 8.77680899,2.22839978 C8.97930923,2.22839978 9.11070938,2.28239984 9.17280945,2.39129997 C9.23490952,2.50020009 9.26280956,2.72880036 9.26280956,3.07980077 L9.26280956,3.40920115 L11.9259162,3.40920115 C11.9430162,3.24180096 11.9520162,3.11760081 11.9520162,3.03570072 C11.9520162,2.44830062 11.747716,1.9880995 11.3391155,1.65509911 C10.930515,1.32209872 10.3152149,1.11629907 9.49321686,1.03769839 L9.49321686,0.40229941 L8.27191719,0.40229941 L8.27191719,1.03770015 C7.37191615,1.1163003 6.69631595,1.3244999 6.24512187,1.66230088 C5.79392075,2.00010185 5.56862166,2.46600181 5.56922108,3.0600025 L5.56922105,3.06000436 C5.56381105,3.45121653 5.67538057,3.83512675 5.88962318,4.16250564 L5.88962303,4.1625054 C6.08288946,4.46770068 6.34176984,4.72596582 6.64742391,4.91850628 L6.64740422,4.91850572 Z"></path>
                    </g>
                </g>
            </g>
        </g>
    </g>
</svg>
