<?xml version="1.0" encoding="UTF-8"?>
<svg width="46px" height="46px" viewBox="0 0 46 46" version="1.1" xmlns="http://www.w3.org/2000/svg" xmlns:xlink="http://www.w3.org/1999/xlink" style="background: #B38A58;">
    <title>编组</title>
    <defs>
        <filter id="filter-1">
            <feColorMatrix in="SourceGraphic" type="matrix" values="0 0 0 0 0.701961 0 0 0 0 0.541176 0 0 0 0 0.345098 0 0 0 1.000000 0"></feColorMatrix>
        </filter>
    </defs>
    <g id="会员中心" stroke="none" stroke-width="1" fill-rule="evenodd">
        <g id="自助洗码-空" transform="translate(-165.000000, -345.000000)">
            <g id="wuxim">
                <g transform="translate(166.000000, 346.000000)" id="编组-2">
                    <g id="自助洗码" fill-rule="nonzero" stroke="#2B2B2B" stroke-width="0.2">
                        <path d="M22.0000256,2.64000307 C32.6744208,2.64000307 41.3600481,11.3256304 41.3600481,22.0000256 C41.3600481,32.6744208 32.6744208,41.3600481 22.0000256,41.3600481 C11.3256304,41.3600481 2.64000307,32.6744208 2.64000307,22.0000256 C2.64000307,11.3256304 11.3256304,2.64000307 22.0000256,2.64000307 M22.0000256,-3.55271368e-15 C9.84720286,-3.55271368e-15 -3.55271368e-15,9.84720286 -3.55271368e-15,22.0000256 C-3.55271368e-15,34.1528483 9.84720286,44.0000512 22.0000256,44.0000512 C34.1528483,44.0000512 44.0000512,34.1528483 44.0000512,22.0000256 C44.0000512,9.84720286 34.1528483,-3.55271368e-15 22.0000256,-3.55271368e-15 Z" id="形状"></path>
                        <path d="M22.0000256,11.4400133 C27.8256496,11.4400133 32.5600379,16.1744016 32.5600379,22.0000256 C32.5600379,27.8256496 27.8256496,32.5600379 22.0000256,32.5600379 C16.1744016,32.5600379 11.4400133,27.8256496 11.4400133,22.0000256 C11.4400133,16.1744016 16.1744016,11.4400133 22.0000256,11.4400133 M22.0000256,8.80001024 C14.7136343,8.80001024 8.80001024,14.7136343 8.80001024,22.0000256 C8.80001024,29.2864169 14.7136343,35.200041 22.0000256,35.200041 C29.2864169,35.200041 35.200041,29.2864169 35.200041,22.0000256 C35.200041,14.7136343 29.2864169,8.80001024 22.0000256,8.80001024 Z" id="形状"></path>
                        <path d="M20.6800241,1.24960145 L23.3200271,1.24960145 L23.3200271,10.111229 L20.6800241,10.111229 L20.6800241,1.24960145 Z M20.6800241,33.906448 L23.3200271,33.906448 L23.3200271,42.7680755 L20.6800241,42.7680755 L20.6800241,33.906448 Z M29.4756515,12.665853 L35.741276,6.40022854 L37.6086399,8.26583071 L31.3430154,14.5323146 L29.4756515,12.665853 Z M6.38619493,35.7570713 L12.6518194,29.4914468 L14.5191833,31.357049 L8.25269945,37.6235328 L6.38619493,35.7570713 Z M33.8976566,20.6888155 L42.7592841,20.6888155 L42.7592841,23.3288186 L33.8976566,23.3288186 L33.8976566,20.6888155 Z M1.24081004,20.6888155 L10.1024375,20.6888155 L10.1024375,23.3288186 L1.24081004,23.3288186 L1.24081004,20.6888155 Z M29.4765109,31.3509216 L31.3429939,29.4844386 L37.6086184,35.7500631 L35.7430162,37.6165461 L29.4765109,31.3509216 Z M6.38529259,8.26056274 L8.25177562,6.39407971 L14.5174001,12.6597042 L12.6517979,14.5270681 L6.38529259,8.26056274 Z" id="形状"></path>
                    </g>
                    <path d="" id="路径-3" stroke="#979797"></path>
                </g>
            </g>
        </g>
    </g>
</svg>
