<?xml version="1.0" encoding="UTF-8"?>
<svg width="19px" height="14px" viewBox="0 0 19 14" version="1.1" xmlns="http://www.w3.org/2000/svg" xmlns:xlink="http://www.w3.org/1999/xlink">
    <title>球场</title>
    <g id="一级页面" stroke="none" stroke-width="1" fill-rule="evenodd">
        <g id="其他体育详情-开始" transform="translate(-164.000000, -257.000000)">
            <g id="球场" transform="translate(164.000000, 257.000000)" >
                <g fill-rule="nonzero" id="形状">
                    <path d="M16.8946204,13.7658072 L2.05641951,13.7658072 C1.09918207,13.7658072 0.319513196,12.9630314 0.319513196,11.9777124 L0.319513196,1.90464033 C0.319513196,0.919321297 1.09918207,0.116545578 2.05641951,0.116545578 L16.8925794,0.116545578 C17.8498168,0.116545578 18.6294857,0.919321297 18.6294857,1.90464033 L18.6294857,11.9797868 C18.6294857,12.9651058 17.8518578,13.7658072 16.8946204,13.7658072 Z M2.05641951,1.09149283 C1.62168268,1.09149283 1.26654555,1.45657946 1.26654555,1.90464033 L1.26654555,11.9797868 C1.26654555,12.4278476 1.61964166,12.7929343 2.05641951,12.7929343 L16.8925794,12.7929343 C17.3273162,12.7929343 17.6824533,12.4278476 17.6824533,11.9797868 L17.6824533,1.90464033 C17.6824533,1.45657946 17.3293572,1.09149283 16.8925794,1.09149283 L2.05641951,1.09149283 Z"></path>
                    <path d="M3.00345187,11.1666393 L1.10938716,11.1666393 C0.848136858,11.1666393 0.635870986,10.9488319 0.635870986,10.6791656 C0.635870986,10.4094994 0.848136858,10.191692 1.10938716,10.191692 L3.00345187,10.191692 C3.4381887,10.191692 3.79332583,9.85149764 3.79332583,9.43247775 L3.79332583,4.44987497 C3.79332583,4.03085509 3.44022972,3.69066073 3.00345187,3.69066073 L1.10938716,3.69066073 C0.848136858,3.69066073 0.635870986,3.47285336 0.635870986,3.2031871 C0.635870986,2.93352084 0.848136858,2.71571347 1.10938716,2.71571347 L3.00345187,2.71571347 C3.96068931,2.71571347 4.74035818,3.49359692 4.74035818,4.44987497 L4.74035818,9.43247775 C4.74035818,10.3887558 3.96068931,11.1666393 3.00345187,11.1666393 L3.00345187,11.1666393 Z M18.1559695,11.1666393 L16.2619048,11.1666393 C15.3046674,11.1666393 14.5249985,10.3887558 14.5249985,9.43247775 L14.5249985,4.44987497 C14.5249985,3.49359692 15.3046674,2.71571347 16.2619048,2.71571347 L18.1559695,2.71571347 C18.4172198,2.71571347 18.6294857,2.93352084 18.6294857,3.2031871 C18.6294857,3.47285336 18.4172198,3.69066073 18.1559695,3.69066073 L16.2619048,3.69066073 C15.827168,3.69066073 15.4720308,4.03085509 15.4720308,4.44987497 L15.4720308,9.43247775 C15.4720308,9.85149764 15.8251269,10.191692 16.2619048,10.191692 L18.1559695,10.191692 C18.4172198,10.191692 18.6294857,10.4094994 18.6294857,10.6791656 C18.6294857,10.9488319 18.4172198,11.1666393 18.1559695,11.1666393 Z M9.63267833,5.31695572 C9.37142803,5.31695572 9.15916215,5.09914836 9.15916215,4.8294821 L9.15916215,0.604019206 C9.15916215,0.334352943 9.37142803,0.116545578 9.63267833,0.116545578 C9.89392863,0.116545578 10.1061945,0.334352943 10.1061945,0.604019206 L10.1061945,4.8294821 C10.1061945,5.09914836 9.89392863,5.31695572 9.63267833,5.31695572 Z M9.63267833,13.7658072 C9.37142803,13.7658072 9.15916215,13.5479998 9.15916215,13.2783335 L9.15916215,8.72927112 C9.15916215,8.45960486 9.37142803,8.24179749 9.63267833,8.24179749 C9.89392863,8.24179749 10.1061945,8.45960486 10.1061945,8.72927112 L10.1061945,13.2804079 C10.1061945,13.5479998 9.89392863,13.7658072 9.63267833,13.7658072 Z"></path>
                    <path d="M9.63267833,9.21674474 C8.32642681,9.21674474 7.26509745,8.12355921 7.26509745,6.77937661 C7.26509745,5.43519401 8.32642681,4.34200847 9.63267833,4.34200847 C10.9389299,4.34200847 12.0002592,5.43519401 12.0002592,6.77937661 C12.0002592,8.12355921 10.9389299,9.21674474 9.63267833,9.21674474 Z M9.63267833,5.31695572 C8.84892742,5.31695572 8.2121298,5.97245218 8.2121298,6.77937661 C8.2121298,7.58630104 8.84892742,8.24179749 9.63267833,8.24179749 C10.4164292,8.24179749 11.0532269,7.58630104 11.0532269,6.77937661 C11.0532269,5.97245218 10.4164292,5.31695572 9.63267833,5.31695572 Z"></path>
                </g>
            </g>
        </g>
    </g>
</svg>
