<?xml version="1.0" encoding="UTF-8"?>
<svg width="11px" height="7px" viewBox="0 0 11 7" version="1.1" xmlns="http://www.w3.org/2000/svg" xmlns:xlink="http://www.w3.org/1999/xlink">
    <title>更多</title>
    <g id="一级页面" stroke="none" stroke-width="1" fill="none" fill-rule="evenodd">
        <g id="上拉下拉刷新" transform="translate(-338.000000, -344.000000)" fill="#414655" fill-rule="nonzero">
            <g id="编组-7备份-4" transform="translate(16.000000, 328.000000)">
                <g id="编组" transform="translate(321.500000, 15.500000)">
                    <g id="更多" transform="translate(6.000000, 4.000000) rotate(-180.000000) translate(-6.000000, -4.000000) ">
                        <g transform="translate(6.000000, 4.000000) rotate(-270.000000) translate(-6.000000, -4.000000) translate(2.666667, -1.333333)" id="路径">
                            <path d="M5.5677081,4.45830059 L1.84290889,0.841674425 L1.8429089,0.84167443 C1.72868205,0.735027163 1.57243253,0.672262514 1.40726061,0.666666667 L1.40726062,0.666666667 C1.23416942,0.665749348 1.06845073,0.729148287 0.94982956,0.841674431 L0.949829574,0.841674419 C0.697197782,1.05644915 0.687445209,1.41337451 0.928047159,1.63888808 C0.935129824,1.6455266 0.942392745,1.65200991 0.949829574,1.65833231 L4.67462879,5.27495847 C4.73997603,5.33329115 4.73997603,5.39162362 4.67462879,5.39162362 L0.884490787,9.00824979 L0.88449082,9.00824976 C0.750359882,9.11066774 0.671194527,9.2590691 0.666666667,9.41657886 L0.666666667,9.41657661 C0.667172828,9.57080485 0.737944075,9.71821379 0.86270685,9.82490678 L0.862706793,9.82490674 C0.992881668,9.92169828 1.15184492,9.9825122 1.32014024,9.99990659 L1.32014021,9.99990659 C1.49366502,10.0027841 1.66023306,9.93906077 1.77757128,9.82490886 L5.50237049,6.2082827 L5.50237053,6.20828268 C6.05850545,5.82858659 6.16452343,5.11834171 5.73916734,4.62190284 C5.68821988,4.56244141 5.63078858,4.50763981 5.56771765,4.45830217 L5.5677081,4.45830059 Z"></path>
                        </g>
                    </g>
                </g>
            </g>
        </g>
    </g>
</svg>