<?xml version="1.0" encoding="UTF-8"?>
<svg width="14px" height="15px" viewBox="0 0 14 15" version="1.1" xmlns="http://www.w3.org/2000/svg" xmlns:xlink="http://www.w3.org/1999/xlink">
    <title>注单2</title>
    <g id="一级页面" stroke-width="1" fill-rule="evenodd">
        <g id="注单2" transform="translate(-346.000000, -53.000000)">
            <g transform="translate(346.000000, 53.000000)">
                <path d="M12.894737,15 L1.10526321,15 L1.10526317,15 C0.494842725,15 0,14.4963206 0,13.8749998 L0,1.12499983 L0,1.125 C0,0.503679199 0.494842725,0 1.10526317,0 L10.6842106,0 L10.6842106,0 C11.294631,0 11.7894737,0.503679199 11.7894737,1.125 L11.7894737,2.625 L12.8947369,2.625 L12.8947368,2.625 C13.5051573,2.62499997 14,3.1286792 14,3.75 L14,13.875 L14,13.875 C14,14.4963208 13.5051573,15 12.8947368,15 L12.894737,15 Z M12.5263159,4.49999981 L12.5263159,4.49999981 C12.5263159,4.2928929 12.3613683,4.12499983 12.1578949,4.12499983 C12.1578949,4.12499983 12.1578949,4.12499983 12.1578949,4.12499983 L11.7894738,4.12499983 L11.7894738,10.8749998 L11.7894738,10.8749998 C11.7894738,11.2892137 11.4595787,11.6249998 11.0526317,11.6249998 C10.6456847,11.6249998 10.3157896,11.2892137 10.3157896,10.8749998 L10.3157896,1.87499981 L10.3157896,1.87499981 C10.3157896,1.66789288 10.150842,1.49999981 9.94736854,1.49999981 C9.94736854,1.49999981 9.94736854,1.49999981 9.94736854,1.49999981 L1.84210532,1.49999981 L1.84210531,1.49999981 C1.63863183,1.49999981 1.47368425,1.66789288 1.47368425,1.87499981 L1.47368425,13.1249998 L1.47368425,13.1249998 C1.47368425,13.3321067 1.63863183,13.4999998 1.84210531,13.4999998 L12.1578949,13.4999998 L12.1578948,13.4999998 C12.3613683,13.4999998 12.5263159,13.3321067 12.5263159,13.1249998 C12.5263159,13.1249998 12.5263159,13.1249998 12.5263159,13.1249998 L12.5263159,4.49999981 L12.5263159,4.49999981 Z M8.47368432,7.87499983 L3.31578954,7.87499983 L3.31578953,7.87499983 C2.90884257,7.87499983 2.57894742,7.5392137 2.57894742,7.12499983 C2.57894742,6.71078596 2.90884257,6.37499983 3.31578953,6.37499983 L8.47368431,6.37499983 L8.47368434,6.37499983 C8.8806313,6.37499983 9.21052645,6.71078596 9.21052645,7.12499983 C9.21052645,7.5392137 8.8806313,7.87499983 8.47368434,7.87499983 L8.47368432,7.87499983 Z M8.47368432,4.87499983 L3.31578954,4.87499983 L3.31578951,4.87499983 C2.90884255,4.87499983 2.5789474,4.5392137 2.5789474,4.12499983 C2.5789474,3.71078596 2.90884255,3.37499983 3.31578951,3.37499983 L8.47368429,3.37499983 L8.47368425,3.37499983 C8.88063121,3.37499983 9.21052636,3.71078596 9.21052636,4.12499983 C9.21052636,4.5392137 8.88063121,4.87499983 8.47368425,4.87499983 L8.47368432,4.87499983 Z M3.31578954,9.37499983 L5.52631588,9.37499983 L5.52631591,9.37499983 C5.93326287,9.37499983 6.26315802,9.71078596 6.26315802,10.1249998 C6.26315802,10.5392137 5.93326287,10.8749998 5.52631591,10.8749998 L3.31578958,10.8749998 L3.31578957,10.8749998 C2.90884261,10.8749998 2.57894746,10.5392137 2.57894746,10.1249998 C2.57894746,9.71078596 2.90884261,9.37499983 3.31578957,9.37499983 L3.31578954,9.37499983 Z" id="形状" fill-rule="nonzero"></path>
            </g>
        </g>
    </g>
</svg>
