<?xml version="1.0" encoding="UTF-8"?>
<svg width="14px" height="14px" viewBox="0 0 14 14" version="1.1" xmlns="http://www.w3.org/2000/svg" xmlns:xlink="http://www.w3.org/1999/xlink">
    <title>日期</title>
    <defs>
        <filter id="filter-1">
            <feColorMatrix in="SourceGraphic" type="matrix" values="0 0 0 0 0.517647 0 0 0 0 0.541176 0 0 0 0 0.607843 0 0 0 1.000000 0"></feColorMatrix>
        </filter>
    </defs>
    <g id="一级页面" stroke="none" stroke-width="1" fill="none" fill-rule="evenodd">
        <g id="筛选" transform="translate(-328.000000, -667.000000)">
            <g id="编组" transform="translate(16.000000, 630.000000)">
                <g id="日期" transform="translate(179.000000, 27.000000)" filter="url(#filter-1)">
                    <g transform="translate(133.000000, 10.000000)">
                        <path d="M13.0224503,0.875 L11.0866807,0.875 L11.0866807,0.525 C11.0866807,0.2625 10.8227121,0 10.5587435,0 C10.2947749,0 10.0308063,0.2625 10.0308063,0.525 L10.0308063,0.875 L4.13550787,0.875 L4.13550787,0.525 C4.13550787,0.2625 3.87153928,0 3.60757069,0 C3.34360211,0 3.07963352,0.2625 3.07963352,0.525 L3.07963352,0.875 L1.05587435,0.875 C0.527937175,0.875 0,1.3125 0,1.925 L0,12.8625 C0,13.475 0.527937175,14 1.05587435,14 L12.9344608,14 C13.5503875,14 13.9903351,13.475 13.9903351,12.95 L13.9903351,1.925 C14.0783247,1.3125 13.5503875,0.875 13.0224503,0.875 Z M13.0224503,12.95 L1.05587435,12.95 L1.05587435,4.2 L12.9344608,4.2 L12.9344608,12.95 L13.0224503,12.95 Z M13.0224503,3.0625 L1.05587435,3.0625 L1.05587435,1.925 L2.99164399,1.925 L2.99164399,2.0125 C2.99164399,2.275 3.25561258,2.5375 3.51958116,2.5375 C3.78354975,2.5375 4.04751834,2.275 4.04751834,2.0125 L4.04751834,1.925 L9.85482726,1.925 L9.85482726,2.0125 C9.85482726,2.275 10.1187958,2.5375 10.3827644,2.5375 C10.646733,2.5375 10.9107016,2.275 10.9107016,2.0125 L10.9107016,1.925 L12.8464712,1.925 L12.8464712,3.0625 L13.0224503,3.0625 Z" id="形状" fill="#000000" fill-rule="nonzero"></path>
                        <path d="M3.53932584,7.13043478 L4.61797753,7.13043478 C4.97752809,7.13043478 5.24719101,6.86956522 5.24719101,6.60869565 C5.24719101,6.34782609 4.97752809,6 4.70786517,6 L3.53932584,6 C3.26966292,6 3,6.26086957 3,6.60869565 C3,6.95652174 3.26966292,7.13043478 3.53932584,7.13043478 Z M6.50561798,7.13043478 L7.58426966,7.13043478 C7.94382022,7.13043478 8.12359551,6.86956522 8.12359551,6.60869565 C8.12359551,6.34782609 7.94382022,6 7.58426966,6 L6.50561798,6 C6.14606742,6 5.96629213,6.26086957 5.96629213,6.60869565 C5.96629213,6.95652174 6.14606742,7.13043478 6.50561798,7.13043478 Z M9.38202247,7.13043478 L10.4606742,7.13043478 C10.7303371,7.13043478 11,6.86956522 11,6.60869565 C11,6.34782609 10.7303371,6.08695652 10.4606742,6.08695652 L9.38202247,6.08695652 C9.11235955,6 8.84269663,6.26086957 8.84269663,6.60869565 C8.84269663,6.95652174 9.11235955,7.13043478 9.38202247,7.13043478 Z M3.53932584,10 L4.61797753,10 C4.97752809,10 5.24719101,9.73913043 5.24719101,9.39130435 C5.24719101,9.04347826 4.97752809,8.86956522 4.70786517,8.86956522 L3.53932584,8.86956522 C3.26966292,8.86956522 3,9.13043478 3,9.39130435 C3,9.65217391 3.26966292,10 3.53932584,10 Z M6.50561798,10 L7.58426966,10 C7.85393258,10 8.12359551,9.73913043 8.12359551,9.47826087 C8.12359551,9.2173913 7.94382022,8.86956522 7.58426966,8.86956522 L6.50561798,8.86956522 C6.23595506,8.86956522 5.96629213,9.13043478 5.96629213,9.39130435 C5.96629213,9.65217391 6.14606742,10 6.50561798,10 Z" id="形状" fill="#000000" fill-rule="nonzero"></path>
                    </g>
                </g>
            </g>
        </g>
    </g>
</svg>