<?xml version="1.0" encoding="UTF-8"?>
<svg width="15px" height="15px" viewBox="0 0 15 15" version="1.1" xmlns="http://www.w3.org/2000/svg" xmlns:xlink="http://www.w3.org/1999/xlink">
    <title>清除</title>
    <!-- <defs>
        <filter id="filter-1">
            <feColorMatrix in="SourceGraphic" type="matrix" values="0 0 0 0 0.250980 0 0 0 0 0.250980 0 0 0 0 0.250980 0 0 0 1.000000 0"></feColorMatrix>
        </filter>
    </defs> -->
    <g id="一级页面" stroke="none" stroke-width="1" fill-rule="evenodd">
        <g id="清除" transform="translate(-344.000000, -52.000000)">
            <g transform="translate(344.000000, 52.000000)">
                <path d="M14.4642855,3.05817457 L9.12417077,3.05817457 L9.12417077,0.954664005 C9.12417077,0.428284861 8.68067588,0 8.1355866,0 L6.86747438,0 C6.3223851,0 5.87889021,0.428284861 5.87889021,0.954664005 L5.87889021,3.05817457 L0.535714287,3.05817457 L0.535714278,3.05817457 C0.240153058,3.05894641 0.000736608399,3.30996996 0,3.61985963 L0,6.38816458 L0,6.38816405 C0.000735866696,6.69805372 0.240153057,6.9490768 0.535714276,6.94984911 L1.81760201,6.94984911 L1.81760201,14.4409224 L1.81760199,14.4409007 C1.8179069,14.7495326 2.05644637,14.999657 2.35080797,15 L12.6522109,15 L12.6522109,15 C12.9466566,14.9997912 13.1853346,14.7496429 13.1856503,14.4409228 L13.1856503,6.95165485 L14.4642854,6.95165485 L14.4642855,6.95165485 C14.7598467,6.950883 14.9992631,6.69985946 15,6.38996979 L15,3.62166483 L15,3.62165071 C15.0002043,3.31105693 14.7605049,3.05894057 14.4642721,3.05817428 L14.4642855,3.05817457 Z M6.9195152,1.09087263 L8.08354579,1.09087263 L8.08354579,3.05797396 L6.9195152,3.05797396 L6.9195152,1.09087263 Z M12.1450253,13.9093282 L2.858227,13.9093282 L2.858227,6.95165506 L12.1450253,6.95165506 L12.1450253,13.9093282 Z M13.9593748,5.85998002 L1.04043367,5.85998002 L1.04043367,4.15005021 L13.9595661,4.15005021 L13.9593748,5.85998002 Z M4.207653,9.56990986 L5.24827798,9.56990986 L5.24827798,13.5111336 L4.207653,13.5111336 L4.207653,9.56990986 Z M6.98131366,8.46539631 L8.02193865,8.46539631 L8.02193865,13.5111336 L6.98131366,13.5111336 L6.98131366,8.46539631 Z M9.60880086,9.56990986 L10.6494258,9.56990986 L10.6494258,13.5111336 L9.60880086,13.5111336 L9.60880086,9.56990986 Z" id="形状" fill-rule="nonzero"></path>
            </g>
        </g>
    </g>
</svg>
