<?xml version="1.0" encoding="UTF-8"?>
<svg
    width="12px"
    height="12px"
    viewBox="0 0 12 12"
    version="1.1"
    xmlns="http://www.w3.org/2000/svg"
    xmlns:xlink="http://www.w3.org/1999/xlink"
>
    <g
        id="一级页面"
        stroke="none"
        stroke-width="1"
    >
        <g
            id="更多"
            transform="translate(-135.000000, -20.000000)"
        >
            <g
                id="关闭"
                transform="translate(135.000000, 20.000000)"
            >
                <path
                    d="M6.92897923,5.99991815 L11.814969,1.11210329 C12.061677,0.865294935 12.061677,0.458614173 11.814969,0.211805814 L11.7882804,0.185106269 C11.5415724,-0.0617020897 11.1350571,-0.0617020897 10.8883492,0.185106269 L6.00235936,5.07975845 L1.11653317,0.185106269 C0.869825232,-0.0617020897 0.463309932,-0.0617020897 0.216601991,0.185106269 L0.189913309,0.211805814 C-0.0633044362,0.458614173 -0.0633044362,0.865294935 0.189913309,1.11210329 L5.07590312,6.00008185 L0.189913309,10.8878967 C-0.0566322657,11.1347051 -0.0566322657,11.5413858 0.189913309,11.7881942 L0.216601991,11.8148937 C0.463309932,12.0617021 0.869825232,12.0617021 1.11653317,11.8148937 L6.00235936,6.92691518 L10.8883492,11.81473 C11.1350571,12.0615384 11.5415724,12.0615384 11.7882804,11.81473 L11.814969,11.7880305 C12.061677,11.5412221 12.061677,11.1345414 11.814969,10.887733 L6.92897923,5.99991815 Z"
                    id="路径"
                ></path>
            </g>
        </g>
    </g>
</svg>