<?xml version="1.0" encoding="UTF-8"?>
<svg width="10px" height="10px" viewBox="0 0 10 10" version="1.1" xmlns="http://www.w3.org/2000/svg" xmlns:xlink="http://www.w3.org/1999/xlink">
    <title>复制</title>
    <defs>
        <filter id="filter-1">
            <feColorMatrix in="SourceGraphic" type="matrix" values="0 0 0 0 0.815686 0 0 0 0 0.701961 0 0 0 0 0.576471 0 0 0 1.000000 0"></feColorMatrix>
        </filter>
    </defs>
    <g id="一级页面" stroke="none" stroke-width="1" fill="none" fill-rule="evenodd">
        <g id="注单" transform="translate(-329.000000, -403.000000)">
            <g id="复制" transform="translate(14.000000, 384.000000)" filter="url(#filter-1)">
                <g transform="translate(315.000000, 19.000000)">
                    <path d="M6.92307695,3.07692306 L6.92307695,9.23076918 L0.769230787,9.23076918 L0.769230787,3.07692306 L6.92307695,3.07692306 M7.30769234,2.30769229 L0.384615402,2.30769229 L0.384615385,2.30769229 C0.172198318,2.30769229 0,2.47989061 0,2.69230768 C0,2.69230768 0,2.69230768 0,2.69230768 L0,9.61538456 L0,9.61538462 C0,9.82780168 0.172198318,10 0.384615385,10 L7.30769232,10 L7.3076923,10 C7.52010937,10 7.69230769,9.82780168 7.69230769,9.61538462 L7.69230769,2.69230773 L7.69230769,2.69230773 C7.69230769,2.47989067 7.52010937,2.30769229 7.3076923,2.30769229 L7.30769234,2.30769229 Z M2.69230771,4.61538459 L5.00000003,4.61538459 C5.25640988,4.61538459 5.38461541,4.74359012 5.38461541,4.99999997 L5.38461541,4.99999997 C5.38461541,5.25640983 5.25640988,5.38461535 5.00000003,5.38461535 L2.69230771,5.38461535 C2.43589786,5.38461535 2.30769233,5.25640983 2.30769233,4.99999997 L2.30769233,4.99999997 C2.30769233,4.74359012 2.43589786,4.61538459 2.69230771,4.61538459 Z M2.69230771,6.92307688 L5.00000003,6.92307688 C5.25640988,6.92307688 5.38461541,7.05128241 5.38461541,7.30769227 L5.38461541,7.30769227 C5.38461541,7.56410212 5.25640988,7.69230765 5.00000003,7.69230765 L2.69230771,7.69230765 C2.43589786,7.69230765 2.30769233,7.56410212 2.30769233,7.30769227 L2.30769233,7.30769227 C2.30769233,7.05128241 2.43589786,6.92307688 2.69230771,6.92307688 Z M9.61538465,0 L2.69230771,0 L2.6923077,0 C2.47989063,0 2.30769231,0.172198316 2.30769231,0.384615382 C2.30769231,0.384615382 2.30769231,0.384615382 2.30769231,0.384615382 L2.30769231,1.53846153 L3.07692308,1.53846153 L3.07692308,0.769230765 L9.23076925,0.769230765 L9.23076925,7.69230765 L8.46153848,7.69230765 L8.46153848,8.46153841 L9.61538463,8.46153841 L9.61538461,8.46153841 C9.82780168,8.46153841 10,8.2893401 10,8.07692303 L10,0.384615382 L10,0.384615382 C10,0.172198316 9.82780168,0 9.61538461,0 L9.61538465,0 Z" id="形状" fill="#000000" fill-rule="nonzero"></path>
                </g>
            </g>
        </g>
    </g>
</svg>