<?xml version="1.0" encoding="UTF-8"?>
<svg
    width="9px"
    height="10px"
    viewBox="0 0 9 10"
    version="1.1"
    xmlns="http://www.w3.org/2000/svg"
    xmlns:xlink="http://www.w3.org/1999/xlink"
>
    <title>角球</title>
    <polygon points="0.210203624 9.79703969 0.764604269 9.79703969 0.764604269 4.37076542 0.210203624 4.37076542">
    </polygon>
    <polygon
        fill="#E1243B"
        points="0.210203624 0.108109492 0.210203624 4.96476844 6.11741191 2.63930859"
    ></polygon>
    <path
        d="M8.94078354,9.7976366 L0.752226838,9.7976366 C0.563507868,9.7976366 0.466364005,9.69833454 0.374788899,9.5395776 L0.3747889,9.53957761 C0.283756288,9.38043162 0.29015927,9.18627071 0.391495169,9.03298242 L2.75450659,5.45054582 L3.31200098,5.79005973 L1.08697581,9.16320343 L8.94078354,9.16320343 L8.94078354,9.7976366 L8.94078354,9.7976366 Z"
    ></path>
    <path
        d="M4.34779694,9.56455538 L4.34779696,9.56455538 C4.03029687,8.48595132 3.11591503,7.66590339 1.97427161,7.43590418 L2.10606551,6.8145521 L2.10606588,6.8145521 C3.49003722,7.09336511 4.59847113,8.0875203 4.98325673,9.39509572 L4.34779974,9.56455538 L4.34779694,9.56455538 Z"
    ></path>
</svg>