<?xml version="1.0" encoding="UTF-8"?>
<svg
    width="24px"
    height="12px"
    viewBox="0 0 24 12"
    version="1.1"
    xmlns="http://www.w3.org/2000/svg"
    xmlns:xlink="http://www.w3.org/1999/xlink"
>
    <title>编组 10</title>
    <g
        id="一级页面"
        stroke="none"
        stroke-width="1"
        fill-rule="evenodd"
    >
        <g
            id="注单-弹窗"
            transform="translate(-211.000000, -701.000000)"
        >
            <g
                id="编组-10"
                transform="translate(211.279714, 701.000000)"
            >
                <path
                    d="M1.67100312,7.49190351 C1.61472883,7.44166075 1.56134233,7.38827425 1.51109957,7.33199996 C0.775456301,6.50804441 0.847047559,5.24373975 1.67100312,4.50809649 L1.67100312,4.50809649 L6.72028627,0 L20.7202863,0 C21.8248558,-2.02906125e-16 22.7202863,0.8954305 22.7202863,2 L22.7202863,10 C22.7202863,11.1045695 21.8248558,12 20.7202863,12 L6.72028627,12 Z"
                    id="形状结合"
                ></path>
                <g
                    id="关闭"
                    transform="translate(10.720286, 3.000000)"
                    fill="#FFFFFF"
                    fill-rule="nonzero"
                >
                    <g
                        id="路径"
                        transform="translate(0.475377, 0.178376)"
                    >
                        <path
                            d="M0.670804352,0.120803712 L5.76616742,5.21616678 C5.92723904,5.3772384 5.92723904,5.64516728 5.76616742,5.8062389 C5.60509581,5.96731052 5.33716692,5.96731052 5.17609531,5.8062389 L0.0807322368,0.710875827 C-0.0269107456,0.549804211 -0.0269107456,0.281875328 0.0807322368,0.120803712 C0.241803853,-0.040267904 0.509732736,-0.040267904 0.670804352,0.120803712 Z"
                        ></path>
                        <path
                            d="M5.82038177,0.710875827 L0.724232986,5.8062389 C0.56316137,5.96731052 0.295232486,5.96731052 0.13416087,5.8062389 C-0.0269107456,5.64516728 -0.0269107456,5.3772384 0.13416087,5.21616678 L5.23030966,0.120803712 C5.39138127,-0.040267904 5.65931016,-0.040267904 5.82038177,0.120803712 C5.92723904,0.281875328 5.92723904,0.549804211 5.82038177,0.710875827 Z"
                        ></path>
                    </g>
                </g>
            </g>
        </g>
    </g>
</svg>