<?xml version="1.0" encoding="UTF-8"?>
<svg width="7px" height="7px" viewBox="0 0 7 7" version="1.1" xmlns="http://www.w3.org/2000/svg" xmlns:xlink="http://www.w3.org/1999/xlink">
    <title>编组 2</title>
    <g id="一级页面" stroke="none" stroke-width="1" fill="none" fill-rule="evenodd">
        <g id="更多" transform="translate(-352.000000, -148.000000)" fill-rule="nonzero">
            <g id="编组-7" transform="translate(115.000000, 127.000000)">
                <g id="编组-2" transform="translate(237.000007, 21.000000)">
                    <g id="上下" transform="translate(3.999993, 0.000000)" fill="#D6D9E0">
                        <path d="M0.335412751,6.41696536 L0.335412751,0.44648963 L0.335412756,0.446489752 C0.32473309,0.210822652 0.507179001,0.0111225037 0.742917492,0.000445797825 C0.978655984,-0.0102306345 1.17841663,0.172160025 1.18909657,0.407827125 C1.18968029,0.420708034 1.18968029,0.433608706 1.18909658,0.446489615 L1.18909658,5.66157456 L2.27130498,4.52848838 L2.27130499,4.52848837 C2.42697437,4.36195077 2.6882153,4.35310127 2.85480403,4.5087233 C2.86161575,4.51508661 2.86820988,4.52167874 2.87457516,4.52848843 L2.87457518,4.52848845 C3.04180828,4.70597561 3.04180828,4.98297366 2.87457514,5.16046082 L1.28234539,6.82792252 L1.28234539,6.82792252 C1.12801399,6.99365114 0.885955643,7.04415231 0.678199922,6.95396687 L0.678199937,6.95396687 C0.466935767,6.85944182 0.332176168,6.64833053 0.335413053,6.41696543 L0.335412751,6.41696536 Z" id="形状"></path>
                    </g>
                    <path d="M-4.92939023e-14,2.15552846 L-4.92939023e-14,2.15552401 C-0.000483278972,2.03809598 0.0441862203,1.92497063 0.124776982,1.8395392 L1.71744452,0.172515152 L1.71744449,0.172515191 C1.87191748,0.00671202864 2.11413863,-0.0437864035 2.32202774,0.0464708421 L2.32202776,0.0464708523 C2.5328945,0.141154558 2.66739896,0.351963595 2.66437686,0.583034644 L2.66437686,6.55351038 L2.66437685,6.55351025 C2.67505652,6.78917735 2.49261061,6.9888775 2.25687212,6.9995542 C2.02113363,7.01023063 1.82137298,6.82783998 1.81069304,6.59217288 C1.81010932,6.57929197 1.81010932,6.56639129 1.81069303,6.55351039 L1.81069303,1.33623717 L0.728484631,2.46932335 L0.728484621,2.46932336 C0.572590876,2.635982 0.311069492,2.64474739 0.144359682,2.48890051 C0.137615039,2.48259535 0.131083667,2.47606597 0.124776599,2.46932336 L0.124776591,2.46932335 C0.0440316462,2.38398903 -0.000662258354,2.27079871 -4.92939023e-14,2.15333717 L-4.92939023e-14,2.15552846 Z" id="路径" fill="#D0B393"></path>
                </g>
            </g>
        </g>
    </g>
</svg>