<?xml version="1.0" encoding="UTF-8"?>
<svg width="14px" height="14px" viewBox="0 0 14 14" version="1.1" xmlns="http://www.w3.org/2000/svg" xmlns:xlink="http://www.w3.org/1999/xlink">
    <title>编组 2</title>
    <defs>
        <filter id="filter-1">
            <feColorMatrix in="SourceGraphic" type="matrix" values="0 0 0 0 0.815686 0 0 0 0 0.701961 0 0 0 0 0.576471 0 0 0 1.000000 0"></feColorMatrix>
        </filter>
    </defs>
    <g id="一级页面" stroke="none" stroke-width="1" fill="none" fill-rule="evenodd">
        <g id="上拉下拉刷新" transform="translate(-31.000000, -252.000000)">
            <g id="编组-6" transform="translate(31.000000, 249.000000)">
                <g id="编组-2" transform="translate(0.000000, 3.000000)">
                    <circle id="椭圆形" stroke="#D0B393" cx="7" cy="7" r="6.5"></circle>
                    <g filter="url(#filter-1)" id="切换">
                        <g transform="translate(4.000000, 4.000000)">
                            <path d="M0.165116005,2.32765323 L5.83500455,2.32765323 C5.98320149,2.32765323 6.0558003,2.10384884 5.94900251,1.97604685 L4.33203495,0.0572126044 C4.22763695,-0.0669895713 4.05364028,0.0242120181 4.05364028,0.204215238 L4.05364028,1.30823188 C4.05364028,1.42043386 3.98044176,1.51223526 3.88924356,1.51223526 L0.165116005,1.51223526 C0.0739176365,1.51223526 0.000719286919,1.60343709 0.000719286919,1.71623863 L0.000719286919,2.12424619 C0.000719286919,2.23644817 0.0739177984,2.32824956 0.165116005,2.32824956 L0.165116005,2.32765323 Z M5.83500455,3.67228069 L0.165116005,3.67228069 C0.0169190609,3.67228069 -0.0562792887,3.89608508 0.0511180445,4.02388708 L1.6680856,5.94332008 C1.77188325,6.06692269 1.94587993,5.97512065 1.94587993,5.79571707 L1.94587993,4.69229918 C1.94587993,4.58009721 2.01967847,4.48829581 2.110877,4.48829581 L5.83560328,4.48829581 C5.92680165,4.48829581 6,4.39709398 6,4.28429244 L6,3.87628488 C5.99940001,3.7640829 5.92560143,3.67228069 5.83500293,3.67228069 L5.83500455,3.67228069 Z" id="形状" fill="#000000" fill-rule="nonzero"></path>
                        </g>
                    </g>
                </g>
            </g>
        </g>
    </g>
</svg>
