<?xml version="1.0" encoding="UTF-8"?>
<svg width="9px" height="9px" viewBox="0 0 9 9" version="1.1" xmlns="http://www.w3.org/2000/svg" xmlns:xlink="http://www.w3.org/1999/xlink">
    <title>足球</title>
    <g id="一级页面" stroke="none" stroke-width="1" fill="none" fill-rule="evenodd">
        <g id="赛况" transform="translate(-104.000000, -420.000000)" fill="#000000" fill-rule="nonzero">
            <g id="足球" transform="translate(104.000000, 420.000000)">
                <path d="M5.88279682,0.218135472 C3.52155055,-0.544377445 0.980685671,0.756480303 0.218148898,3.1176157 C-0.544396907,5.47821818 0.75651695,8.01956961 3.11720318,8.78209156 C5.47844945,9.54401737 8.01931433,8.24369254 8.7818511,5.88258424 C9.54439691,3.52143981 8.24348305,0.980684518 5.88279682,0.218180634 L5.88279682,0.218180634 L5.88279682,0.218180634 L5.88279682,0.218135472 Z M5.33946069,2.51173502 L6.64751955,2.08430904 L6.6464356,1.23556303 C7.52210003,1.81239526 8.12045537,2.712238 8.32806684,3.71753495 L7.55403122,3.41482945 L6.68157346,4.47949688 L5.71911219,4.4229084 L5.02799832,3.4752748 L5.33948779,2.51173502 L5.33946069,2.51173502 Z M4.70714176,0.599387414 L4.20391157,1.29493353 L5.0147471,2.40681373 L4.71147754,3.34731166 L3.5808965,3.71702913 L2.77877769,3.2012113 L2.70079693,1.82779564 L1.87340416,1.60919156 C2.6364829,0.918107498 3.65559833,0.543982182 4.70714176,0.599432576 L4.70714176,0.599432576 L4.70714176,0.599432576 L4.70714176,0.599387414 Z M1.35917193,5.29581628 L0.885063715,5.98034277 C0.549411319,5.16289431 0.486226397,4.23011011 0.771917992,3.32529951 L1.22294723,3.87683176 C1.17184829,4.15043461 1.15698922,4.42563621 1.17515432,4.69763127 C1.18062824,4.77393766 1.18830617,4.85085826 1.19873914,4.92722788 C1.19982308,4.93488742 1.20755522,4.95527373 1.22731914,4.95411757 C1.24601718,4.95249172 1.25366802,4.93271059 1.25366802,4.92607172 C1.2515182,4.85084019 1.2515182,4.77500349 1.25588107,4.69972681 C1.26574496,4.45306785 1.30753102,4.20528886 1.37566595,3.96081576 L2.59417294,3.48723381 L3.38310376,3.99487724 L3.38531681,5.15295858 L2.67713985,5.6918273 L1.35919,5.29572596 L1.35917193,5.29581628 Z M3.29851094,8.22176168 C2.86670365,8.08220986 2.47881417,7.8712563 2.13712781,7.6108499 L2.8149995,7.37409957 C3.05456023,7.51357913 3.30781479,7.62130048 3.56875632,7.69597199 C3.64237421,7.71742413 3.71762705,7.73605814 3.79292505,7.75147658 C3.80058492,7.75315662 3.82258899,7.75201853 3.82807194,7.73391744 C3.83248901,7.71522021 3.81653697,7.70207795 3.81051204,7.69930498 C3.73910721,7.67566698 3.66821725,7.64929214 3.5984564,7.62075853 C3.35723362,7.52243096 3.12815102,7.39058385 2.91169637,7.23234383 L2.88311637,5.96279266 L3.58142944,5.43215253 L4.71644562,5.79850992 L4.97356625,6.6417732 L4.14455659,7.74050212 L4.60929772,8.4046423 C4.17641552,8.41733293 3.73363329,8.36240642 3.298529,8.22177071 L3.298529,8.22177071 L3.298529,8.22177071 L3.29851094,8.22176168 Z M6.58652961,7.8042353 L6.60027764,7.05602983 C6.73540033,6.9445058 6.86396516,6.82636096 6.97875487,6.69566098 C7.02985381,6.63849441 7.07818869,6.57810325 7.1248796,6.51710692 C7.12982961,6.51107322 7.13808565,6.49021722 7.12433762,6.47813177 C7.10950565,6.46548629 7.09028371,6.47425683 7.0859118,6.47921566 C7.03315984,6.53301311 6.97991108,6.58630474 6.92328402,6.63741051 C6.79472822,6.75496824 6.65242439,6.85989856 6.50354464,6.9571332 L5.29986059,6.54183785 L5.03284897,5.66727702 L5.6877049,4.76246641 L6.66175535,4.81960588 L7.40451917,5.97822917 L8.194552,5.77167442 C7.89407359,6.64401326 7.31498537,7.34552984 6.58648445,7.8042353 L6.58648445,7.8042353 L6.58648445,7.8042353 L6.58652961,7.8042353 Z" id="形状"></path>
            </g>
        </g>
    </g>
</svg>
