<?xml version="1.0" encoding="UTF-8"?>
<svg width="19px" height="22px" viewBox="0 0 19 22" version="1.1" xmlns="http://www.w3.org/2000/svg" xmlns:xlink="http://www.w3.org/1999/xlink">
    <title>球衣</title>
    <defs>
        <linearGradient x1="50%" y1="0%" x2="50%" y2="100%" id="linearGradient-1">
            <stop stop-color="#FFEDD8" offset="0%"></stop>
            <stop stop-color="#D0B393" offset="100%"></stop>
        </linearGradient>
    </defs>
    <g id="暗黑" stroke="none" stroke-width="1" fill="none" fill-rule="evenodd">
        <g id="大小球" transform="translate(-112.000000, -212.000000)">
            <g id="球衣" transform="translate(112.000000, 212.000000)">
                <path d="M16.5452196,5.02439024 L16.5452196,0 L13.1085271,0 C12.3229974,1.17073171 11.0465116,1.90243902 9.5245478,1.90243902 C8.00258398,1.90243902 6.72609819,1.12195122 5.94056848,0 L2.50387597,0 L2.50387597,5.02439024 C2.50387597,6.3902439 1.374677,7.51219512 0,7.51219512 L0,22 L19,22 L19,7.51219512 C17.6744186,7.51219512 16.5452196,6.3902439 16.5452196,5.02439024 Z" id="路径" fill="url(#linearGradient-1)" fill-rule="nonzero"></path>
                <rect id="矩形" fill="#FFF3E6" x="5" y="17" width="10" height="1"></rect>
                <path d="M15.6614987,0.87804878 L15.6614987,5.02439024 C15.6614987,6.58536585 16.7416021,7.90243902 18.1653747,8.29268293 L18.1653747,21.0731707 L0.981912145,21.0731707 L0.981912145,8.29268293 C2.40568475,7.90243902 3.48578811,6.58536585 3.48578811,5.02439024 L3.48578811,0.87804878 L5.54780362,0.87804878 C6.52971576,2.09756098 8.00258398,2.7804878 9.57364341,2.7804878 C11.1447028,2.7804878 12.6175711,2.04878049 13.5994832,0.87804878 L15.6614987,0.87804878 M16.5452196,0 L13.1085271,0 C12.3229974,1.17073171 11.0465116,1.90243902 9.5245478,1.90243902 C8.00258398,1.90243902 6.72609819,1.12195122 5.94056848,0 L2.50387597,0 L2.50387597,5.02439024 C2.50387597,6.3902439 1.374677,7.51219512 0,7.51219512 L0,22 L19,22 L19,7.51219512 C17.625323,7.51219512 16.496124,6.3902439 16.496124,5.02439024 L16.496124,0 L16.5452196,0 Z" id="形状" fill="#FFF3E6" fill-rule="nonzero"></path>
            </g>
        </g>
    </g>
</svg>