<?xml version="1.0" encoding="UTF-8"?>
<svg width="15px" height="12px" viewBox="0 0 15 12" version="1.1" xmlns="http://www.w3.org/2000/svg" xmlns:xlink="http://www.w3.org/1999/xlink">
    <title>更多</title>
    <defs>
        <filter id="filter-1">
            <feColorMatrix in="SourceGraphic" type="matrix" values="0 0 0 0 1.000000 0 0 0 0 1.000000 0 0 0 0 1.000000 0 0 0 1.000000 0"></feColorMatrix>
        </filter>
    </defs>
    <g id="一级页面" stroke="none" stroke-width="1" fill="none" fill-rule="evenodd">
        <g id="上拉下拉刷新" transform="translate(-343.000000, -76.000000)">
            <g id="更多" transform="translate(16.000000, 61.000000)" filter="url(#filter-1)">
                <g transform="translate(327.000000, 15.000000)">
                    <path d="M0.770107305,1.49230157 L14.2298927,1.49230157 C14.655864,1.49230157 15,1.15808805 15,0.746150783 C15,0.334407382 14.6560589,0 14.2298927,0 L0.770107305,0 C0.344916989,0 0,0.334213512 0,0.746150783 C0,1.15808805 0.344916989,1.49230157 0.770107305,1.49230157 L0.770107305,1.49230157 Z M14.2296963,5.22304796 L0.770107305,5.22304796 C0.343941141,5.22304796 1.77635684e-15,5.55726148 1.77635684e-15,5.96919875 C1.77635684e-15,6.38113602 0.343941141,6.71534953 0.770107305,6.71534953 L14.2298927,6.71534953 C14.655864,6.71534953 15,6.38113602 15,5.96919875 C14.9998047,5.55726148 14.6537159,5.22304796 14.2296978,5.22304796 L14.2296963,5.22304796 Z M14.2296963,10.5076984 L0.770107305,10.5076984 C0.345113368,10.5076984 1.77635684e-15,10.8419119 1.77635684e-15,11.2538492 C1.77635684e-15,11.6657865 0.344916989,12 0.770107305,12 L14.2298927,12 C14.655864,12 15,11.6657865 15,11.2538492 C14.9998047,10.8421058 14.655864,10.5076984 14.2296978,10.5076984 L14.2296963,10.5076984 Z" id="形状" fill="#000000" fill-rule="nonzero"></path>
                </g>
            </g>
        </g>
    </g>
</svg>