<?xml version="1.0" encoding="UTF-8"?>
<svg width="13px" height="10px" viewBox="0 0 13 10" version="1.1" xmlns="http://www.w3.org/2000/svg" xmlns:xlink="http://www.w3.org/1999/xlink">
    <title>公告</title>
    <defs>
        <filter id="filter-1">
            <feColorMatrix in="SourceGraphic" type="matrix" values="0 0 0 0 1.000000 0 0 0 0 1.000000 0 0 0 0 1.000000 0 0 0 1.000000 0"></feColorMatrix>
        </filter>
        <linearGradient x1="100%" y1="20.4142012%" x2="0%" y2="71.0243711%" id="linearGradient-2">
            <stop stop-color="#4AE3CA" offset="0%"></stop>
            <stop stop-color="#24C29A" offset="100%"></stop>
        </linearGradient>
    </defs>
    <g id="一级页面" stroke="none" stroke-width="1" fill="none" fill-rule="evenodd">
        <g id="上拉下拉刷新" transform="translate(-23.000000, -123.000000)">
            <g id="公告" transform="translate(16.000000, 116.000000)" filter="url(#filter-1)">
                <g transform="translate(7.000000, 7.000000)">
                    <path d="M6.23586701,0.141211591 L3.90014553,1.53360771 C3.59599239,1.71368338 3.24527035,1.80868393 2.88872719,1.80726601 L1.73323631,1.80726601 C0.769842158,1.80726601 0,2.53749412 0,3.42652911 L0,6.64520446 C0,7.62640417 0.842606067,8.42469237 1.87876413,8.42469237 L3.22635173,8.42469237 C3.58726072,8.42469237 3.92342998,8.51543917 4.23777007,8.69835067 L6.25915146,9.86246189 C6.40467928,9.9546266 6.57203627,10 6.76413299,10 C7.29385425,10 7.72752715,9.58880359 7.72752715,9.08686039 L7.72752715,0.916813095 C7.72752715,0.758006206 7.67950297,0.57367678 7.58199933,0.437556589 C7.2705698,0.00509139965 6.69282436,-0.13244671 6.23586701,0.141211591 Z M12.5183029,4.54526693 L9.62957573,4.54526693 C9.36762566,4.5424311 9.15224449,4.74661138 9.14787865,5.00183674 C9.14787865,5.25280834 9.3647151,5.45840655 9.62957573,5.45840655 L12.5183029,5.45840655 C12.7831636,5.45840655 13,5.25280834 13,5.00183674 C12.9956342,4.74661138 12.780253,4.5424311 12.5183029,4.54526693 L12.5183029,4.54526693 Z M12.3262062,8.42611029 L9.82167245,7.05781879 C9.59755961,6.92737027 9.30650397,6.99826621 9.1711631,7.21662568 C9.10567558,7.31871582 9.08530169,7.44349266 9.11731781,7.55976199 C9.14933393,7.67603132 9.22937423,7.77528563 9.33852009,7.83200238 L11.8430538,9.2017118 C12.0671667,9.33216031 12.3582223,9.26126438 12.4935632,9.04290491 C12.639091,8.8373067 12.5663271,8.5636484 12.3262062,8.42611029 Z M9.798388,2.94869053 L12.3014665,1.57898111 C12.5430427,1.44286092 12.6143513,1.16920262 12.4702787,0.962186492 C12.3262062,0.733901588 12.0380611,0.665841493 11.8197694,0.803379603 L9.31523564,2.17308902 C9.07511474,2.31062713 9.00235083,2.58428543 9.14642337,2.78988364 C9.29340647,2.99406392 9.58155155,3.08481072 9.798388,2.94869053 Z" id="形状" fill="url(#linearGradient-2)" fill-rule="nonzero"></path>
                </g>
            </g>
        </g>
    </g>
</svg>