<?xml version="1.0" encoding="UTF-8"?>
<svg
    width="7px"
    height="9px"
    viewBox="0 0 7 9"
    version="1.1"
    xmlns="http://www.w3.org/2000/svg"
    xmlns:xlink="http://www.w3.org/1999/xlink"
>
    <title>锁,密码,锁定备份</title>
    <path
        d="M3.48762015,5.06251468 C3.02583281,5.06866702 2.65074046,5.44747519 2.65074046,5.90626478 C2.65074046,6.18136276 2.78343823,6.42657701 2.98867655,6.58038578 C3.13110548,6.68761247 3.21691671,6.85372594 3.21691671,7.03126433 L3.21691671,7.58849067 C3.21691671,7.74493616 3.34607586,7.87765028 3.50354299,7.87501444 C3.6574724,7.87325662 3.78309295,7.74757288 3.78309295,7.59376411 L3.78309295,7.0268698 C3.78309295,6.85020944 3.86890399,6.68673356 4.01044845,6.58038578 C4.21657232,6.42657701 4.3492692,6.18136276 4.3492692,5.90626478 C4.3492692,5.43605027 3.96267726,5.05636321 3.48762015,5.06251468 L3.48762015,5.06251468 Z M3.50000527,6.18751599 C3.34430656,6.18751599 3.21691671,6.06095334 3.21691671,5.90626566 C3.21691671,5.75157798 3.34430656,5.62501533 3.50000527,5.62501533 C3.65570398,5.62501533 3.78309384,5.75157798 3.78309384,5.90626566 C3.78309384,6.06095334 3.65570398,6.18751599 3.50000527,6.18751599 Z"
        id="形状"
    ></path>
    <path
        d="M5.76471379,3.30470013 L5.76471379,2.26758955 C5.76471379,1.02569358 4.74205635,-0.00438574729 3.49115875,-5.22010468e-06 C2.24468442,0.00440331665 1.23529675,1.00987325 1.23529675,2.25001141 L1.23529675,3.30470013 C1.23529675,3.34337197 1.20344938,3.37501263 1.1645247,3.37501263 L0.952208277,3.37501263 C0.483343726,3.37501263 0.102943467,3.75294188 0.102943467,4.21876273 L0.102943467,8.15625852 C0.102943467,8.6220785 0.483342841,9.00000863 0.952208277,9.00000863 L6.04779359,9.00000863 C6.51665815,9.00000863 6.8970584,8.62207938 6.8970584,8.15625852 L6.8970584,4.21876273 C6.8970584,3.75294276 6.51665903,3.37501263 6.04779359,3.37501263 L5.83547717,3.37501263 C5.79655258,3.37501263 5.76470512,3.34337205 5.76470512,3.30470013 L5.76471379,3.30470013 Z M1.80148273,2.25001141 C1.80148273,1.79913286 1.97841308,1.37550043 2.29865614,1.05645533 C2.61978384,0.738291777 3.04618599,0.562510323 3.50001323,0.562510323 C3.9538387,0.562510323 4.38023997,0.738291777 4.70137033,1.05645533 C5.02161338,1.37549779 5.19854374,1.7991311 5.19854374,2.25001141 L5.19854374,3.30470013 C5.19854374,3.34337197 5.16669636,3.37501263 5.12777168,3.37501263 L1.87226204,3.37501263 C1.83333745,3.37501263 1.80148273,3.34337205 1.80148273,3.30470013 L1.80148273,2.25001141 L1.80148273,2.25001141 Z M6.04780235,8.43751337 L0.952217035,8.43751337 C0.795633672,8.43751337 0.66912847,8.31182608 0.66912847,8.15625949 L0.66912847,4.2187637 C0.66912847,4.06319711 0.795633672,3.93751337 0.952217035,3.93751337 L6.04780235,3.93751337 C6.20438572,3.93751337 6.33089092,4.06319711 6.33089092,4.2187637 L6.33089092,8.15625949 C6.33089092,8.31182608 6.20438572,8.43751337 6.04780235,8.43751337 Z"
        id="形状"
    ></path>
</svg>