<?xml version="1.0" encoding="UTF-8"?>
<svg
    width="19px"
    height="16px"
    viewBox="0 0 19 16"
    version="1.1"
    xmlns="http://www.w3.org/2000/svg"
    xmlns:xlink="http://www.w3.org/1999/xlink"
>
    <title>电视直播</title>
    <path
        d="M15.7250183,15.6175801 L1.27500148,15.6175801 C0.569500663,15.6175801 1.37263938e-15,15.068116 1.37263938e-15,14.3898713 L1.37263938e-15,3.96722504 C1.37263938e-15,3.28898035 0.569500663,2.73951629 1.27500148,2.73951629 L15.7250183,2.73951629 C16.4305191,2.73951629 17.0000198,3.28898035 17.0000198,3.96722504 L17.0000198,14.3812859 C17.0000198,15.0595306 16.4305191,15.6175801 15.7250183,15.6175801 Z M1.27500148,3.59805388 C1.04550122,3.59805388 0.850000989,3.76976139 0.850000989,3.96722504 L0.850000989,14.3898713 C0.850000989,14.587335 1.04550122,14.7590425 1.27500148,14.7590425 L15.7250183,14.7590425 C15.9630186,14.7590425 16.1500188,14.587335 16.1500188,14.3812859 L16.1500188,3.96722504 C16.1500188,3.76976139 15.9545186,3.59805388 15.7250183,3.59805388 L1.27500148,3.59805388 L1.27500148,3.59805388 Z"
    ></path>
    <path
        d="M7.22500841,3.59805388 C7.11450828,3.59805388 7.00400815,3.555127 6.92750806,3.46927324 L4.37750509,0.893660485 C4.2075049,0.721952968 4.2075049,0.455806317 4.37750509,0.2840988 C4.54750529,0.112391283 4.8110056,0.112391283 4.9810058,0.2840988 L7.53100876,2.85971155 C7.70100896,3.03141907 7.70100896,3.29756572 7.53100876,3.46927324 C7.44600866,3.555127 7.33550854,3.59805388 7.22500841,3.59805388 L7.22500841,3.59805388 Z M9.77501137,3.59805388 C9.66451125,3.59805388 9.55401112,3.555127 9.47751103,3.46927324 C9.30751083,3.29756572 9.30751083,3.03141907 9.47751103,2.85971155 L12.027514,0.2840988 C12.1975142,0.112391283 12.4610145,0.112391283 12.6310147,0.2840988 C12.8010149,0.455806317 12.8010149,0.721952968 12.6310147,0.893660485 L10.0810117,3.46927324 C9.99601163,3.555127 9.8855115,3.59805388 9.77501137,3.59805388 Z M7.22500841,11.8486001 C7.08050824,11.8486001 6.93600807,11.8142586 6.80000791,11.7369902 C6.53650761,11.5824534 6.37500742,11.299136 6.37500742,10.9900625 L6.37500742,7.3584485 C6.37500742,7.04937496 6.54500762,6.76605756 6.80850792,6.6115208 C7.07200823,6.45698403 7.40350861,6.46556941 7.66700892,6.62010617 L10.6760124,8.44020585 C10.9310127,8.60332799 11.0840129,8.87806002 11.0755129,9.17854817 C11.0755129,9.47903633 10.9140127,9.74518298 10.6675124,9.89971974 L7.66700892,11.7198194 C7.52250875,11.8056732 7.37800859,11.8486001 7.22500841,11.8486001 L7.22500841,11.8486001 Z M7.22500841,7.3584485 L7.22500841,10.9900625 L10.2255119,9.17854817 L7.22500841,7.3584485 L7.22500841,7.3584485 Z"
    ></path>
</svg>