<?xml version="1.0" encoding="UTF-8"?>
<svg
    width="10px"
    height="10px"
    viewBox="0 0 10 10"
    version="1.1"
    xmlns="http://www.w3.org/2000/svg"
    xmlns:xlink="http://www.w3.org/1999/xlink"
>
    <title>刷新</title>
    <defs>
        <filter id="filter-1">
            <feColorMatrix
                in="SourceGraphic"
                type="matrix"
                values="0 0 0 0 0.815686 0 0 0 0 0.701961 0 0 0 0 0.576471 0 0 0 1.000000 0"
            ></feColorMatrix>
        </filter>
    </defs>
    <g
        id="一级页面"
        stroke="none"
        stroke-width="1"
        fill="none"
        fill-rule="evenodd"
    >
        <g
            id="更多"
            transform="translate(-200.000000, -91.000000)"
        >
            <g
                id="刷新"
                transform="translate(135.000000, 85.000000)"
                filter="url(#filter-1)"
            >
                <g transform="translate(65.000000, 6.000000)">
                    <path
                        d="M10,3.92864761 L10,1.4288262 L9.18344704,2.24412509 L9.18344724,2.2441254 C8.25741492,0.843243331 6.68877869,0.000234358258 5.00768986,0 C2.24221182,0 0,2.23841152 0,5 C0,7.76158838 2.24221182,10 5.00768986,10 L5.00768986,10 C7.04633351,10.0004055 8.88176665,8.76689603 9.64877147,6.88093701 L9.64877146,6.88093703 C9.73795797,6.66171497 9.6322704,6.41181206 9.41271151,6.32276262 C9.19315229,6.23371306 8.94286504,6.33923834 8.85367864,6.55846007 L8.8536786,6.55846017 C8.21785247,8.12110523 6.69697144,9.14311928 5.00768981,9.1429184 C2.71612,9.14291842 0.858399755,7.28805091 0.858399755,5 C0.858399755,2.71194925 2.71612,0.857081755 5.00768981,0.857081755 C6.4880718,0.857081755 7.82359883,1.63916874 8.56218033,2.86408124 L7.49633391,3.92864804 L10,3.92864804 L10,3.92864761 Z"
                        id="路径"
                        fill="#24C29A"
                        fill-rule="nonzero"
                    ></path>
                </g>
            </g>
        </g>
    </g>
</svg>