<?xml version="1.0" encoding="UTF-8"?>
<svg width="17px" height="19px" viewBox="0 0 17 19" version="1.1" xmlns="http://www.w3.org/2000/svg" xmlns:xlink="http://www.w3.org/1999/xlink">
    <title>搜索</title>
    <!-- <defs>
        <filter id="filter-1">
            <feColorMatrix in="SourceGraphic" type="matrix" values="0 0 0 0 0.039216 0 0 0 0 0.039216 0 0 0 0 0.039216 0 0 0 1.000000 0"></feColorMatrix>
        </filter>
    </defs> -->
    <g id="一级页面" stroke="none" stroke-width="1" fill-rule="evenodd">
        <g id="搜索" transform="translate(-36.000000, -55.000000)">
            <g id="搜索" transform="translate(36.000000, 55.000000)">
                <g fill-rule="nonzero" id="形状">
                    <path d="M8.68259703,17.0936809 C4.1114806,17.0936809 0.371476249,13.3316765 0.371476249,8.73367113 C0.371476249,4.13566578 4.1114806,0.373661404 8.68259703,0.373661404 C13.2537135,0.373661404 16.9937178,4.13566578 16.9937178,8.73367113 C16.9937178,13.3316765 13.2537135,17.0936809 8.68259703,17.0936809 Z M8.68259703,15.7003452 C12.491854,15.7003452 15.6085243,12.5653416 15.6085243,8.73367725 C15.6085243,4.90201293 12.491854,1.76700928 8.68259703,1.76700928 C4.8733401,1.76700928 1.75666981,4.90201293 1.75666981,8.73367725 C1.75666981,12.5653416 4.8733401,15.7003452 8.68259703,15.7003452 Z M13.8077949,16.8150125 C13.5307583,16.5363462 13.6000169,16.0486776 13.8770542,15.8396774 C14.1540909,15.6306771 14.6389076,15.6306771 14.8466857,15.909344 L16.1626124,17.5116799 C16.4396491,17.7903462 16.3703905,18.2780148 16.0933532,18.4870151 C15.8163165,18.6960153 15.3314997,18.6960153 15.1237217,18.4173484 L13.8077949,16.8150125 Z"></path>
                </g>
            </g>
        </g>
    </g>
</svg>
