<?xml version="1.0" encoding="UTF-8"?>
<svg width="12px" height="12px" viewBox="0 0 12 12" version="1.1" xmlns="http://www.w3.org/2000/svg" xmlns:xlink="http://www.w3.org/1999/xlink">
    <title>椭圆形</title>
    <g id="一级页面" stroke="none" stroke-width="1" fill="none" fill-rule="evenodd">
        <g id="更多" transform="translate(-336.000000, -343.000000)">
            <g id="编组-7备份-9" transform="translate(115.000000, 280.000000)">
                <g id="椭圆形" transform="translate(221.000000, 63.000000)">
                    <circle fill="#D0B393" cx="6" cy="6" r="6"></circle>
                    <g id="打勾" transform="translate(2.823529, 4.235294)" fill="#FEFFFE" fill-rule="nonzero">
                        <path d="M5.52801086,0.137066432 L5.52801083,0.137066465 C5.71337651,-0.040881813 6.01370388,-0.0462435007 6.20594139,0.124964518 L6.2059414,0.124964522 C6.37653989,0.276741599 6.40186599,0.525712621 6.26503,0.705853414 L6.21928399,0.757286284 L2.77880224,4.09800251 L2.77880224,4.0980025 C2.60725765,4.26290347 2.33408304,4.28152331 2.13962871,4.14156917 L2.08498763,4.09558213 L0.13125146,2.17380805 L0.131251432,2.17380802 C-0.0473039719,1.99888899 -0.0431592318,1.71923694 0.140510136,1.54918701 C0.143319684,1.5465858 0.14616374,1.5440186 0.149041609,1.54148602 L0.149041585,1.54148604 C0.322498214,1.38819813 0.586588148,1.37594216 0.774872523,1.5124416 L0.827607515,1.55721845 L2.43634247,3.1383254 L5.52737548,0.137066129 L5.52801086,0.137066432 Z" id="路径"></path>
                    </g>
                </g>
            </g>
        </g>
    </g>
</svg>