<?xml version="1.0" encoding="UTF-8"?>
<svg width="14px" height="12px" viewBox="0 0 14 12" version="1.1" xmlns="http://www.w3.org/2000/svg" xmlns:xlink="http://www.w3.org/1999/xlink">
    <title>发送</title>
    <defs>
        <filter id="filter-1">
            <feColorMatrix in="SourceGraphic" type="matrix" values="0 0 0 0 0.815686 0 0 0 0 0.701961 0 0 0 0 0.576471 0 0 0 1.000000 0"></feColorMatrix>
        </filter>
    </defs>
    <g id="一级页面" stroke="none" stroke-width="1" fill="none" fill-rule="evenodd">
        <g id="发送" transform="translate(-335.000000, -776.000000)" filter="url(#filter-1)">
            <g transform="translate(335.000000, 776.000000)">
                <path d="M13.3103208,0.0616698647 L0.529045677,5.13461577 C-0.191234415,5.42049456 -0.173190858,5.83595883 0.565771775,6.06149244 L3.65400678,7.00400229 L4.90964318,10.8469301 C5.07403065,11.3500426 5.50347606,11.4561356 5.8708168,11.081835 L7.49070223,9.43130187 L10.6883589,11.8415061 C11.1038033,12.1546396 11.5309311,11.9898458 11.6430755,11.4700976 L13.976493,0.655303299 C14.0883173,0.137035394 13.7904824,-0.1289042 13.3103264,0.0616650392 L13.3103208,0.0616698647 Z M11.3653135,2.50685939 L5.91346327,7.50307896 C5.8154313,7.59291456 5.72671605,7.77094234 5.71309972,7.90274436 L5.47241418,10.2302386 C5.44538904,10.4915923 5.35777723,10.5023758 5.27697359,10.2518714 L4.22205104,6.98112578 C4.18078622,6.85316957 4.2373136,6.69633113 4.34750772,6.62835835 L11.2614678,2.36287269 C11.7020681,2.09106522 11.7489739,2.15525637 11.3653171,2.50685617 L11.3653135,2.50685939 Z" id="形状" fill="#24C29A" fill-rule="nonzero"></path>
            </g>
        </g>
    </g>
</svg>