<?xml version="1.0" encoding="UTF-8"?>
<svg width="22px" height="22px" viewBox="0 0 22 22" version="1.1" xmlns="http://www.w3.org/2000/svg" xmlns:xlink="http://www.w3.org/1999/xlink">
    <title>编组 3</title>
    <g id="一级页面" stroke="none" stroke-width="1" fill-rule="evenodd">
        <g id="更多" transform="translate(-131.000000, -142.000000)" fill-rule="nonzero">
            <g id="编组-7" transform="translate(115.000000, 127.000000)">
                <g id="编组-3" transform="translate(16.000000, 15.000000)">
                    <g id="形状" transform="translate(4.000000, 5.000000)">
                        <path d="M12.1001341,9.95121484 L12.9426057,9.13281389 L12.9426057,9.13281389 C13.1627407,8.91896849 13.5196481,8.91896849 13.7397831,9.13281389 C13.9599181,9.34665929 13.9599181,9.69336938 13.7397831,9.90721479 L11.9280163,11.6672168 L11.9280163,11.6672168 C11.7094843,11.8810657 11.3538702,11.8823307 11.1337317,11.6700417 C11.026798,11.566921 10.9670017,11.4263862 10.9677722,11.2800156 L10.9677722,0.720003285 L10.9677722,0.720003432 C11.0074112,0.416246672 11.2930254,0.201211891 11.6057162,0.239711936 C11.8640045,0.271513144 12.0673983,0.469094859 12.1001339,0.720003432 L12.1001341,9.95121484 Z M0.658826692,1.27440474 L0.658826701,1.27440474 C0.346135919,1.23590538 0.124776585,0.958451718 0.164408984,0.654694959 C0.197145523,0.403786385 0.400538464,0.206203812 0.658826701,0.174403462 L8.81177736,0.174403462 L8.81177737,0.174403462 C9.12446816,0.212902821 9.34582749,0.490356487 9.30619509,0.794113247 C9.27345855,1.04502182 9.07006561,1.24260439 8.81177737,1.27440474 L0.658826692,1.27440474 Z M0.658826692,6.55441089 L0.658826701,6.55441089 C0.346135919,6.51591153 0.124776585,6.23845786 0.164408984,5.9347011 C0.197145523,5.68379253 0.400538464,5.48620996 0.658826701,5.45440961 L8.81177736,5.45440961 L8.81177737,5.45440961 C9.12446816,5.49290896 9.34582749,5.77036263 9.30619509,6.07411939 C9.27345855,6.32502796 9.07006561,6.52261054 8.81177737,6.55441089 L0.658826692,6.55441089 Z M0.658826692,11.834417 L0.658826701,11.834417 C0.346135919,11.7959177 0.124776585,11.518464 0.164408984,11.2147072 C0.197145523,10.9637987 0.400538464,10.7662161 0.658826701,10.7344158 L8.81177736,10.7344158 L8.81177737,10.7344158 C9.12446816,10.7729151 9.34582749,11.0503688 9.30619509,11.3541255 C9.27345855,11.6050341 9.07006561,11.8026167 8.81177737,11.834417 L0.658826692,11.834417 Z"></path>
                    </g>
                </g>
            </g>
        </g>
    </g>
</svg>
