<?xml version="1.0" encoding="UTF-8"?>
<svg width="22px" height="22px" viewBox="0 0 22 22" version="1.1" xmlns="http://www.w3.org/2000/svg" xmlns:xlink="http://www.w3.org/1999/xlink">
    <title>编组 10</title>
    <g id="一级页面" stroke="none" stroke-width="1" fill-rule="evenodd">
        <g id="更多" transform="translate(-131.000000, -533.000000)" fill-rule="nonzero" stroke="#000000" stroke-width="0.1">
            <g id="编组" transform="translate(115.000000, 467.000000)">
                <g id="编组-7备份-10" transform="translate(0.000000, 51.000000)">
                    <g id="编组-10" transform="translate(16.000000, 15.000000)">
                        <g id="皮肤" transform="translate(4.000000, 5.000000)">
                            <path d="M10.7409836,8.8817842e-16 L10.7409836,0.923076923 L13.0819672,3.25384615 L11.7737705,4.56923077 C11.5901639,4.40769231 11.3836066,4.33846154 11.1540984,4.33846154 C10.6262295,4.33846154 10.2131148,4.75384615 10.2131148,5.28461538 L10.2131148,10.1538462 C10.2131148,10.6615385 9.8,11.0769231 9.29508197,11.0769231 L4.70491803,11.0769231 C4.2,11.0769231 3.78688525,10.6615385 3.78688525,10.1538462 L3.78688525,5.28461538 C3.78688525,4.75384615 3.37377049,4.33846154 2.84590164,4.33846154 C2.61639344,4.33846154 2.38688525,4.43076923 2.22622951,4.56923077 L0.918032787,3.25384615 L3.23606557,0.923076923 L3.80983607,0.923076923 L3.83278689,0.946153846 C4.47540984,1.91538462 5.69180328,2.53846154 7,2.53846154 C8.30819672,2.53846154 9.52459016,1.93846154 10.1672131,0.946153846 C10.1672131,0.923076923 10.1901639,0.923076923 10.1901639,0.923076923 L10.7409836,0.923076923 L10.7409836,8.8817842e-16 M3.83278689,0 L3.32786885,0 C3.00655738,0 2.77704918,0.0923076923 2.61639344,0.276923077 L0.275409836,2.60769231 C-0.0918032787,2.97692308 -0.0918032787,3.55384615 0.275409836,3.9 L1.6295082,5.26153846 C1.79016393,5.42307692 2.01967213,5.51538462 2.22622951,5.51538462 C2.43278689,5.51538462 2.66229508,5.42307692 2.82295082,5.26153846 L2.84590164,5.26153846 C2.86885246,5.26153846 2.86885246,5.26153846 2.86885246,5.28461538 L2.86885246,10.1538462 C2.86885246,11.1692308 3.69508197,12 4.70491803,12 L9.29508197,12 C10.304918,12 11.1311475,11.1692308 11.1311475,10.1538462 L11.1311475,5.28461538 C11.1311475,5.26153846 11.1311475,5.26153846 11.1540984,5.26153846 L11.1770492,5.26153846 C11.3377049,5.42307692 11.5672131,5.51538462 11.7737705,5.51538462 C12.0032787,5.51538462 12.2098361,5.42307692 12.3704918,5.26153846 L13.7245902,3.9 C14.0918033,3.53076923 14.0918033,2.95384615 13.7245902,2.60769231 L11.4065574,0.276923077 C11.2229508,0.0923076923 10.9934426,0 10.7409836,0 L10.1672131,0 C9.84590164,0 9.5704918,0.161538462 9.38688525,0.438461538 C8.90491803,1.15384615 8.00983607,1.61538462 6.97704918,1.61538462 C5.9442623,1.61538462 5.04918033,1.13076923 4.56721311,0.438461538 C4.4295082,0.161538462 4.13114754,0 3.83278689,0 Z" id="形状"></path>
                        </g>
                    </g>
                </g>
            </g>
        </g>
    </g>
</svg>
