<?xml version="1.0" encoding="UTF-8"?>
<svg width="22px" height="22px" viewBox="0 0 22 22" version="1.1" xmlns="http://www.w3.org/2000/svg" xmlns:xlink="http://www.w3.org/1999/xlink">
    <title>编组 5</title>
    <g id="一级页面" stroke="none" stroke-width="1" fill="none" fill-rule="evenodd">
        <g id="更多" transform="translate(-131.000000, -244.000000)">
            <g id="编组-7备份-7" transform="translate(115.000000, 229.000000)">
                <g id="编组-5" transform="translate(16.000000, 15.000000)">
                    <g id="赔率" transform="translate(4.000000, 5.000000)">
                        <rect id="矩形" stroke-width="1.1" x="0.55" y="0.55" width="10.9" height="10.9" rx="2"></rect>
                        <path d="M4.6827173,9.67545374 L8.2917173,2.99745374 L7.5087173,2.99745374 L3.8997173,9.67545374 L4.6827173,9.67545374 Z M3.7827173,6.64245374 C4.2867173,6.64245374 4.6737173,6.46245374 4.9437173,6.12045374 C5.1777173,5.80545374 5.3037173,5.39145374 5.3037173,4.88745374 C5.3037173,4.37445374 5.1777173,3.96045374 4.9437173,3.65445374 C4.6737173,3.29445374 4.2867173,3.12345374 3.7827173,3.12345374 C3.2787173,3.12345374 2.8827173,3.29445374 2.6127173,3.65445374 C2.3607173,3.96045374 2.2437173,4.37445374 2.2437173,4.88745374 C2.2437173,5.39145374 2.3607173,5.79645374 2.6127173,6.12045374 C2.8827173,6.46245374 3.2787173,6.64245374 3.7827173,6.64245374 Z M3.7827173,5.98545374 C3.5577173,5.98545374 3.3957173,5.86845374 3.3057173,5.63445374 C3.2337173,5.45445374 3.1977173,5.20245374 3.1977173,4.88745374 C3.1977173,4.56345374 3.2337173,4.31145374 3.3057173,4.13145374 C3.3957173,3.89745374 3.5577173,3.78045374 3.7827173,3.78045374 C3.9987173,3.78045374 4.1517173,3.89745374 4.2417173,4.14045374 C4.3137173,4.32045374 4.3497173,4.56345374 4.3497173,4.88745374 C4.3497173,5.19345374 4.3137173,5.43645374 4.2507173,5.61645374 C4.1517173,5.85945374 3.9987173,5.98545374 3.7827173,5.98545374 Z M8.4267173,9.54945374 C8.9307173,9.54945374 9.3177173,9.36945374 9.5877173,9.02745374 C9.8217173,8.71245374 9.9477173,8.29845374 9.9477173,7.79445374 C9.9477173,7.28145374 9.8217173,6.86745374 9.5877173,6.56145374 C9.3177173,6.20145374 8.9307173,6.03045374 8.4267173,6.03045374 C7.9227173,6.03045374 7.5267173,6.20145374 7.2567173,6.56145374 C7.0047173,6.86745374 6.8877173,7.28145374 6.8877173,7.79445374 C6.8877173,8.29845374 7.0047173,8.70345374 7.2567173,9.02745374 C7.5267173,9.36945374 7.9227173,9.54945374 8.4267173,9.54945374 Z M8.4267173,8.89245374 C8.2017173,8.89245374 8.0397173,8.77545374 7.9497173,8.54145374 C7.8777173,8.36145374 7.8417173,8.10945374 7.8417173,7.79445374 C7.8417173,7.47045374 7.8777173,7.21845374 7.9497173,7.03845374 C8.0397173,6.80445374 8.2017173,6.68745374 8.4267173,6.68745374 C8.6427173,6.68745374 8.7957173,6.80445374 8.8857173,7.04745374 C8.9577173,7.22745374 8.9937173,7.47045374 8.9937173,7.79445374 C8.9937173,8.10045374 8.9577173,8.34345374 8.8947173,8.52345374 C8.7957173,8.76645374 8.6427173,8.89245374 8.4267173,8.89245374 Z" id="%" stroke-width="0.2" fill="#000000" fill-rule="nonzero"></path>
                    </g>
                </g>
            </g>
        </g>
    </g>
</svg>
