<?xml version="1.0" encoding="UTF-8"?>
<svg width="22px" height="22px" viewBox="0 0 22 22" version="1.1" xmlns="http://www.w3.org/2000/svg" xmlns:xlink="http://www.w3.org/1999/xlink">
    <title>编组 9</title>
    <g id="一级页面" stroke="none" stroke-width="1" fill="none" fill-rule="evenodd">
        <g id="更多" transform="translate(-131.000000, -482.000000)">
            <g id="编组" transform="translate(115.000000, 467.000000)">
                <g id="编组-9" transform="translate(16.000000, 15.000000)">
                    <g id="说明" transform="translate(3.000000, 4.000000)">
                        <path d="M6.94839024,8.155 L7.17339024,3.574 L5.95839024,3.574 L6.18339024,8.155 L6.94839024,8.155 Z M6.56139024,10 C6.75939024,10 6.92139024,9.937 7.06539024,9.811 C7.19139024,9.685 7.26339024,9.514 7.26339024,9.316 C7.26339024,9.118 7.19139024,8.956 7.06539024,8.83 C6.93039024,8.704 6.75939024,8.641 6.56139024,8.641 C6.36339024,8.641 6.20139024,8.704 6.07539024,8.83 C5.93139024,8.956 5.86839024,9.118 5.86839024,9.316 C5.86839024,9.514 5.93139024,9.676 6.07539024,9.802 C6.20139024,9.928 6.36339024,10 6.56139024,10 Z" id="！" fill="#000000" fill-rule="nonzero"></path>
                        <circle id="椭圆形" stroke-width="1.1" cx="6.5" cy="6.78049972" r="5.95"></circle>
                    </g>
                </g>
            </g>
        </g>
    </g>
</svg>
