<?xml version="1.0" encoding="UTF-8"?>
<svg width="12px" height="16px" viewBox="0 0 12 16" version="1.1" xmlns="http://www.w3.org/2000/svg" xmlns:xlink="http://www.w3.org/1999/xlink">
    <title>编组 9</title>
    <defs>
        <filter id="filter-1">
            <feColorMatrix in="SourceGraphic" type="matrix" values="0 0 0 0 0.815686 0 0 0 0 0.701961 0 0 0 0 0.576471 0 0 0 1.000000 0"></feColorMatrix>
        </filter>
    </defs>
    <g id="一级页面" stroke="none" stroke-width="1" fill="none" fill-rule="evenodd">
        <g id="赛况" transform="translate(-11.000000, -652.000000)">
            <g id="编组-9" transform="translate(7.176210, 652.353057)" filter="url(#filter-1)">
                <g>
                    <g id="私教哨子" transform="translate(9.000000, 8.892369) rotate(28.000000) translate(-9.000000, -8.892369) translate(3.600000, 1.692369)" fill="#24C29A" fill-rule="nonzero">
                        <path d="M6.01157959,3.01837499 L8.47236963,1.15471353 C8.91179642,0.838844477 9.49770338,0.902024209 9.84924482,1.31265546 L10.2300768,1.75488397 C10.6987941,2.29185988 10.6987941,3.11313718 10.2886716,3.71329282 L8.97039123,5.45060962 C9.17545249,5.67171648 9.35122321,5.89282333 9.52699392,6.14552746 C10.9331597,8.2934755 10.435138,11.2311036 8.47236963,12.7157014 C6.5096012,14.2002993 3.75585082,13.6633234 2.37898936,11.5153902 C1.0021279,9.36745693 1.4708315,6.42981404 3.43361366,4.94520137 C3.49219474,4.91361891 3.55078956,4.85043917 3.60938438,4.81885671 L4.98624584,3.77647255 L5.30849673,4.21870107 C5.42567263,4.37662819 5.63074762,4.40822546 5.77721406,4.281866 L6.21664085,3.93441448 C6.36312103,3.80805502 6.39241157,3.58694816 6.30452621,3.42900623 L6.01157959,3.01837499 Z M6.07017441,10.3150641 C6.89043318,10.3150641 7.53492123,9.62014625 7.53492123,8.73568921 C7.53492123,7.85123218 6.89043318,7.15632915 6.07017441,7.15632915 C5.24991564,7.15632915 4.60541386,7.85124698 4.60541386,8.73568921 C4.60541386,9.62013144 5.27920618,10.3150641 6.07017441,10.3150641 L6.07017441,10.3150641 Z" id="形状"></path>
                    </g>
                    <line x1="7.05632397" y1="1.60035088" x2="8.90315865" y2="3.90047396" id="路径-19" stroke="#24C29A" stroke-width="0.5" stroke-linecap="round"></line>
                    <line x1="10.5343025" y1="3.53346416" x2="10.5343025" y2="0" id="路径-20" stroke="#24C29A" stroke-width="0.5" stroke-linecap="round"></line>
                    <line x1="12.4478143" y1="3.83286086" x2="14.1168956" y2="1.23334108" id="路径-21" stroke="#24C29A" stroke-width="0.5" stroke-linecap="round"></line>
                </g>
            </g>
        </g>
    </g>
</svg>