<?xml version="1.0" encoding="UTF-8"?>
<svg width="25px" height="25px" viewBox="0 0 25 25" version="1.1" xmlns="http://www.w3.org/2000/svg" xmlns:xlink="http://www.w3.org/1999/xlink">
    <title>编组 3</title>
    <g id="暗黑" stroke="none" stroke-width="1" fill-rule="evenodd">
        <g id="画板" transform="translate(-239.000000, -33.000000)" fill-rule="nonzero">
            <g id="编组-3" transform="translate(239.000000, 33.000000)">
                <g id="注单" transform="translate(4.000000, 2.000000)">
                    <path d="M15.5772512,0 C16.913889,0.00216564593 17.9971085,1.08485734 18,2.42156297 L18,18.5771245 C17.9978346,19.9143408 16.9144058,20.9978261 15.5772512,21 L2.42274883,21 C1.08611102,20.9978343 0.00289145764,19.9151427 0,18.578437 L0,2.42287547 C0.00216549171,1.08565715 1.08559629,0.00217382868 2.42274882,0 L15.5772512,0 Z M8.6239885,13.8744359 L4.87437124,13.8744359 C4.25318708,13.8744359 3.74961731,14.378032 3.74961731,14.9992487 L3.74961731,14.9992487 L3.75621722,15.1218095 C3.81728268,15.6853734 4.29459936,16.1240615 4.87437124,16.1240615 L4.87437124,16.1240615 L8.62401109,16.1240615 C9.24540851,16.1240615 9.74934331,15.6206556 9.75005489,14.9992257 L9.75005489,14.9992257 L9.74331479,14.8766508 C9.68161629,14.3129383 9.20395943,13.8744359 8.6239885,13.8744359 L8.6239885,13.8744359 Z M13.1243165,9.37387213 L4.87437124,9.37387213 C4.25297586,9.37459605 3.74961731,9.87856744 3.74961731,10.4999973 L3.74961731,10.4999973 L3.75621722,10.6225586 C3.81728268,11.1861225 4.29459936,11.6248107 4.87437124,11.6248107 L4.87437124,11.6248107 L13.1243165,11.6248107 C13.7455007,11.6248107 14.2490705,11.121214 14.2490705,10.4999973 L14.2490705,10.4999973 L14.2424732,10.3773918 C14.1814316,9.81360795 13.7042875,9.3745481 13.1243165,9.37387213 L13.1243165,9.37387213 Z M13.1243165,4.87462201 L4.87437123,4.87462201 C4.25318708,4.87462201 3.7496173,5.37821811 3.7496173,5.99943473 L3.7496173,5.99943473 L3.75621456,6.12204012 C3.81725613,6.68582395 4.2944003,7.12488382 4.87437123,7.12556072 L4.87437123,7.12556072 L13.1243165,7.12556072 C13.7457119,7.12483679 14.2490705,6.6208654 14.2490705,5.9994355 L14.2490705,5.9994355 L14.2424705,5.87687404 C14.1814051,5.31331016 13.7040884,4.87462201 13.1243165,4.87462201 L13.1243165,4.87462201 Z" id="形状结合"></path>
                </g>
            </g>
        </g>
    </g>
</svg>
