<?xml version="1.0" encoding="UTF-8"?>
<svg width="25px" height="25px" viewBox="0 0 25 25" version="1.1" xmlns="http://www.w3.org/2000/svg" xmlns:xlink="http://www.w3.org/1999/xlink">
    <title>编组</title>
    <g id="暗黑" stroke="none" stroke-width="1" fill-rule="evenodd">
        <g id="画板" transform="translate(-54.000000, -33.000000)">
            <g id="编组" transform="translate(54.000000, 33.000000)">
                <g id="首页" transform="translate(3.000000, 2.000000)">
                    <path d="M11.6826593,0.969329588 L18.078522,7.11462258 C18.6672477,7.68028391 19,8.46145688 19,9.27789473 L19,18.0456969 C19,19.7025511 17.6568542,21.0456969 16,21.0456969 L3,21.0456969 C1.34314575,21.0456969 2.02906125e-16,19.7025511 0,18.0456969 L0,9.30275017 C3.42319309e-16,8.47173586 0.344701261,7.67795068 0.95193022,7.11062559 L7.55606752,0.940477158 C8.72082332,-0.147737072 10.5332338,-0.135065005 11.6826593,0.969329588 Z M13,15 L6,15 C5.44771525,15 5,15.4477153 5,16 C5,16.5522847 5.44771525,17 6,17 L6,17 L13,17 C13.5522847,17 14,16.5522847 14,16 C14,15.4477153 13.5522847,15 13,15 L13,15 Z" id="形状结合"></path>
                </g>
            </g>
        </g>
    </g>
</svg>
