<?xml version="1.0" encoding="UTF-8"?>
<svg
    width="26px"
    height="26px"
    viewBox="0 0 26 26"
    version="1.1"
    xmlns="http://www.w3.org/2000/svg"
    xmlns:xlink="http://www.w3.org/1999/xlink"
>
    <title>编组 5</title>
    <path
    transform="translate(0, 1)"
        d="M11,0 C17.0751322,0 22,4.92486775 22,11 C22,17.0751322 17.0751322,22 11,22 C4.92486775,22 -8.8817842e-16,17.0751322 -8.8817842e-16,11 C-8.8817842e-16,4.92486775 4.92486775,0 11,0 Z M15.4816955,6.79988514 C13.0188824,4.34230805 9.06078992,4.43007866 6.68593442,6.88765575 C4.31107891,9.34523284 4.48699414,13.3826809 6.94980725,15.6647168 C9.14874753,17.6834408 12.4031792,17.7712115 14.7780347,16.0157992 L14.7780347,16.0157992 L16.0094412,17.2828017 C16.3612717,17.6338842 16.8890173,17.6338842 17.2408478,17.2828017 C17.5926782,16.9317193 17.5926782,16.4050956 17.2408478,16.0540132 L17.2408478,16.0540132 L16.0094412,14.7870107 C17.8565511,12.4172042 17.6806358,8.9941504 15.4816955,6.79988514 Z M7.47755292,8.55529735 C9.23670515,6.09772026 12.8429672,6.09772026 14.6021194,8.55529735 C15.7455684,10.0473977 15.7455684,12.1538924 14.6021194,13.7337634 C12.8429672,16.1913405 9.23670515,16.1913405 7.47755292,13.7337634 C6.33410397,12.241663 6.33410397,10.0473977 7.47755292,8.55529735 Z"
        id="形状结合"
    ></path>
</svg>