<?xml version="1.0" encoding="UTF-8"?>
<svg width="17px" height="16px" viewBox="0 0 17 16" version="1.1" xmlns="http://www.w3.org/2000/svg" xmlns:xlink="http://www.w3.org/1999/xlink">
    <title>talk</title>
    <defs>
        <filter id="filter-1">
            <feColorMatrix in="SourceGraphic" type="matrix" values="0 0 0 0 0.815686 0 0 0 0 0.701961 0 0 0 0 0.576471 0 0 0 1.000000 0"></feColorMatrix>
        </filter>
    </defs>
    <g id="一级页面" stroke="none" stroke-width="1" fill="none" fill-rule="evenodd">
        <g id="其他体育详情-开始" transform="translate(-26.000000, -775.000000)">
            <g id="talk" transform="translate(26.000000, 775.000000)" filter="url(#filter-1)">
                <g fill-rule="nonzero" id="形状">
                    <path d="M8.50001209,15.7040651 C8.33768551,15.7040651 8.17535893,15.6555357 8.03738134,15.5604988 L4.39112059,13.0349444 L2.52639403,13.0349444 C1.2054615,13.0349444 0.132077004,11.9571858 0.132077004,10.6327357 L0.132077004,2.69816764 C0.132077004,1.37371757 1.20749058,0.295958965 2.52639403,0.295958965 L14.4756592,0.295958965 C15.7965918,0.295958965 16.8699763,1.37371757 16.8699763,2.69816764 L16.8699763,10.6347578 C16.8699763,11.9592078 15.7945627,13.0369664 14.4756592,13.0369664 L12.6109327,13.0369664 L8.96264284,15.5604988 C8.82466524,15.6555357 8.66233867,15.7040651 8.50001209,15.7040651 Z M2.52436494,1.91360791 C2.09825768,1.91360791 1.7533137,2.26544655 1.7533137,2.69816764 L1.7533137,10.6347578 C1.7533137,11.0674789 2.10028676,11.4193175 2.52436494,11.4193175 L4.64475587,11.4193175 C4.81114061,11.4193175 4.9714381,11.469869 5.10738661,11.5628838 L8.50001209,13.9104969 L11.8926376,11.5628838 C12.0285861,11.467847 12.1909127,11.4193175 12.3552683,11.4193175 L14.4756592,11.4193175 C14.9017665,11.4193175 15.2467105,11.0674789 15.2467105,10.6347578 L15.2467105,2.69816764 C15.2467105,2.26544655 14.8997374,1.91360791 14.4756592,1.91360791 L2.52436494,1.91360791 Z" fill="#4A5FE2"></path>
                    <path d="M11.7485727,6.01839209 L5.25348053,6.01839209 C4.80505336,6.01839209 4.44184764,5.65644314 4.44184764,5.20956762 C4.44184764,4.7626921 4.80505336,4.40074315 5.25348053,4.40074315 L11.7465436,4.40074315 C12.1949708,4.40074315 12.5581765,4.7626921 12.5581765,5.20956762 C12.5581765,5.65644314 12.1949708,6.01839209 11.7485727,6.01839209 Z M8.70494939,8.80883652 L5.25348053,8.80883652 C4.80505336,8.80883652 4.44184764,8.44688757 4.44184764,8.00001205 C4.44184764,7.55313653 4.80505336,7.19118758 5.25348053,7.19118758 L8.70292031,7.19118758 C9.15134748,7.19118758 9.5145532,7.55313653 9.5145532,8.00001205 C9.5145532,8.44688757 9.15134748,8.80883652 8.70494939,8.80883652 Z" fill="#7C44E2"></path>
                </g>
            </g>
        </g>
    </g>
</svg>