<?xml version="1.0" encoding="UTF-8"?>
<svg
    width="14px"
    height="14px"
    viewBox="0 0 14 14"
    version="1.1"
    xmlns="http://www.w3.org/2000/svg"
    xmlns:xlink="http://www.w3.org/1999/xlink"
>
    <path
        d="M5.908918,0.83587981 L10.5596226,4.59209726 L7.81304656,4.59187981 L7.81331515,6.69785766 L3.81331515,6.69785766 L3.81304656,4.59187981 L1.04604656,4.59209726 L5.908918,0.83587981 Z"
        id="形状结合"
    ></path>
    <path
        transform="translate(0 8)"
        d="M2.54428571,4.335 L2.54428571,0.865 L3.49142857,0.865 L3.49142857,0.04 L2.90307461e-13,0.04 L2.90307461e-13,0.865 L0.947142857,0.865 L0.947142857,4.335 L2.54428571,4.335 Z M5.84071429,4.375 C6.48452381,4.375 6.97357143,4.27 7.30785714,4.06 C7.64214286,3.85 7.80928571,3.55166667 7.80928571,3.165 L7.80928571,3.165 L7.80928571,1.12 C7.80928571,0.75 7.64214286,0.470833333 7.30785714,0.2825 C6.97357143,0.0941666667 6.48452381,0 5.84071429,0 C5.19690476,0 4.70785714,0.0941666667 4.37357143,0.2825 C4.03928571,0.470833333 3.87214286,0.75 3.87214286,1.12 L3.87214286,1.12 L3.87214286,3.165 C3.87214286,3.54833333 4.03928571,3.84583333 4.37357143,4.0575 C4.70785714,4.26916667 5.19690476,4.375 5.84071429,4.375 Z M5.84071429,3.585 C5.69214286,3.585 5.59,3.55333333 5.53428571,3.49 C5.47857143,3.42666667 5.45071429,3.33333333 5.45071429,3.21 L5.45071429,3.21 L5.45071429,1.115 C5.45071429,0.898333333 5.58380952,0.79 5.85,0.79 C5.99238095,0.79 6.08678571,0.819166667 6.13321429,0.8775 C6.17964286,0.935833333 6.20285714,1.01166667 6.20285714,1.105 L6.20285714,1.105 L6.20285714,3.205 C6.20285714,3.325 6.17809524,3.41833333 6.12857143,3.485 C6.07904762,3.55166667 5.98309524,3.585 5.84071429,3.585 Z M10.0192857,4.335 L10.0192857,2.635 L10.6692857,2.635 C11.2945238,2.635 11.7278571,2.52666667 11.9692857,2.31 C12.2107143,2.09333333 12.3314286,1.77166667 12.3314286,1.345 C12.3314286,0.918333333 12.1952381,0.594166667 11.9228571,0.3725 C11.6504762,0.150833333 11.1954762,0.04 10.5578571,0.04 L10.5578571,0.04 L8.45,0.04 L8.45,4.335 L10.0192857,4.335 Z M10.1121429,1.86 L10.0192857,1.86 L10.0192857,0.82 L10.1957143,0.82 C10.4185714,0.82 10.5671429,0.86 10.6414286,0.94 C10.7157143,1.02 10.7528571,1.15 10.7528571,1.33 C10.7528571,1.46333333 10.7389286,1.56583333 10.7110714,1.6375 C10.6832143,1.70916667 10.6244048,1.76416667 10.5346429,1.8025 C10.444881,1.84083333 10.3040476,1.86 10.1121429,1.86 L10.1121429,1.86 Z"
    ></path>
</svg>