<?xml version="1.0" encoding="UTF-8"?>
<svg
    width="16px"
    height="16px"
    viewBox="0 0 16 16"
    version="1.1"
    xmlns="http://www.w3.org/2000/svg"
    xmlns:xlink="http://www.w3.org/1999/xlink"
>
    <title>编组 12</title>
    <g
        id="一级页面"
        stroke="none"
        stroke-width="1"
        fill="none"
        fill-rule="evenodd"
    >
        <g
            id="其他体育详情-开始"
            transform="translate(-345.000000, -215.000000)"
        >
            <g
                id="编组-12"
                transform="translate(345.000000, 215.000000)"
            >
                <circle
                    id="椭圆形"
                    stroke="#FFFFFF"
                    stroke-width="1.5"
                    cx="8"
                    cy="8"
                    r="7.25"
                ></circle>
                <path
                    d="M8.56060168,10.1896904 L8.83660168,4.04569041 L7.33660168,4.04569041 L7.61260168,10.1896904 L8.56060168,10.1896904 Z M8.08060168,12.6136904 C8.32060168,12.6136904 8.53660168,12.5296904 8.71660168,12.3736904 C8.88460168,12.2056904 8.96860168,12.0016904 8.96860168,11.7496904 C8.96860168,11.4976904 8.88460168,11.2936904 8.71660168,11.1376904 C8.54860168,10.9696904 8.33260168,10.8976904 8.08060168,10.8976904 C7.84060168,10.8976904 7.63660168,10.9696904 7.46860168,11.1376904 C7.28860168,11.2936904 7.20460168,11.4976904 7.20460168,11.7496904 C7.20460168,11.9896904 7.28860168,12.1936904 7.46860168,12.3616904 C7.63660168,12.5296904 7.84060168,12.6136904 8.08060168,12.6136904 Z"
                    id="！"
                    fill="#FFFFFF"
                    fill-rule="nonzero"
                ></path>
            </g>
        </g>
    </g>
</svg>