<?xml version="1.0" encoding="UTF-8"?>
<svg width="30px" height="30px" viewBox="0 0 30 30" version="1.1" xmlns="http://www.w3.org/2000/svg" xmlns:xlink="http://www.w3.org/1999/xlink">
    <title>返回顶部</title>
    <g id="一级页面" stroke="none" stroke-width="1" fill="none" fill-rule="evenodd">
        <g id="首页" transform="translate(-328.000000, -603.000000)" fill-rule="nonzero">
            <g id="编组" transform="translate(328.000000, 603.000000)">
                <g id="返回顶部" transform="translate(15.000000, 15.000000) rotate(-180.000000) translate(-15.000000, -15.000000) ">
                    <path d="M15.001321,9.40856588e-13 C23.2833802,9.40856588e-13 30,6.71926175 30,15.001321 C30,23.2860851 23.2833802,30 15.001321,30 C6.71655686,30 -9.40856588e-13,23.286148 -9.40856588e-13,15.001321 C-9.40856588e-13,6.71926175 6.71652541,9.40856588e-13 15.001321,9.40856588e-13 Z" id="形状" fill="#D0B393"></path>
                    <path d="M14.9719681,16.811899 C15.2071693,16.811899 15.4281226,16.7031728 15.5680221,16.5089287 L19.9866175,10.418774 C20.0819545,10.2950112 20.1264817,10.1399382 20.1264817,9.98932868 C20.1264817,9.87881756 20.1015574,9.76301933 20.0445339,9.66050839 C19.9206678,9.41552303 19.6702934,9.25687902 19.394099,9.25687902 L10.5506492,9.25687902 C10.2770659,9.25687902 10.024048,9.41552209 9.89750317,9.66050839 C9.773706,9.90559692 9.79413264,10.2058551 9.95813171,10.418774 L14.3793376,16.5089287 C14.5148416,16.6978517 14.7393648,16.811899 14.9719571,16.811899 L14.9719681,16.811899 Z" id="路径" fill="#FFFFFF"></path>
                    <path d="M10.274423,20.7431424 L19.7763248,20.7431424 C19.9973131,20.7431424 20.1817721,20.5613256 20.1817721,20.339513 L20.1817721,18.4870501 C20.1817721,18.2607061 19.9973121,18.0789576 19.7763248,18.0789576 L10.274423,18.0789576 C10.0472553,18.0789576 9.86547192,18.2607055 9.86547192,18.4870501 L9.86547192,20.339513 C9.86547192,20.561325 10.0472198,20.7431424 10.274423,20.7431424 L10.274423,20.7431424 Z" id="路径" fill="#FFFFFF"></path>
                </g>
            </g>
        </g>
    </g>
</svg>